<?xml version="1.0" encoding="UTF-8" standalone="no"?>
<!DOCTYPE svg PUBLIC "-//W3C//DTD SVG 1.1//EN"
 "http://www.w3.org/Graphics/SVG/1.1/DTD/svg11.dtd">
<!-- Generated by graphviz version 2.40.1 (20161225.0304)
 -->
<!-- Title: %3 Pages: 1 -->
<svg width="938pt" height="2780pt"
 viewBox="0.00 0.00 937.84 2780.00" xmlns="http://www.w3.org/2000/svg" xmlns:xlink="http://www.w3.org/1999/xlink">
<g id="graph0" class="graph" transform="scale(1 1) rotate(0) translate(4 2776)">
<title>%3</title>
<polygon fill="#ffffff" stroke="transparent" points="-4,4 -4,-2776 933.8449,-2776 933.8449,4 -4,4"/>
<!-- shovel -->
<g id="node1" class="node">
<title>shovel</title>
<ellipse fill="none" stroke="#000000" cx="92.8449" cy="-2754" rx="33.5952" ry="18"/>
<text text-anchor="middle" x="92.8449" y="-2750.3" font-family="Times,serif" font-size="14.00" fill="#000000">shovel</text>
</g>
<!-- Dead end -->
<g id="node2" class="node">
<title>Dead end</title>
<ellipse fill="none" stroke="#000000" cx="92.8449" cy="-2682" rx="44.393" ry="18"/>
<text text-anchor="middle" x="92.8449" y="-2678.3" font-family="Times,serif" font-size="14.00" fill="#000000">Dead end</text>
</g>
<!-- shovel&#45;&gt;Dead end -->
<g id="edge1" class="edge">
<title>shovel&#45;&gt;Dead end</title>
<path fill="none" stroke="#000000" stroke-dasharray="1,5" d="M92.8449,-2735.8314C92.8449,-2725 92.8449,-2711.2876 92.8449,-2700.4133"/>
</g>
<!-- E/W Dirt road -->
<g id="node3" class="node">
<title>E/W Dirt road</title>
<ellipse fill="none" stroke="#000000" cx="142.8449" cy="-2610" rx="61.99" ry="18"/>
<text text-anchor="middle" x="142.8449" y="-2606.3" font-family="Times,serif" font-size="14.00" fill="#000000">E/W Dirt road</text>
</g>
<!-- Dead end&#45;&gt;E/W Dirt road -->
<g id="edge2" class="edge">
<title>Dead end&#45;&gt;E/W Dirt road</title>
<path fill="none" stroke="#000000" d="M104.9485,-2664.5708C112.6941,-2653.4171 122.7141,-2638.9882 130.5054,-2627.7689"/>
</g>
<!-- Fork -->
<g id="node5" class="node">
<title>Fork</title>
<ellipse fill="none" stroke="#000000" cx="195.8449" cy="-2538" rx="27.0966" ry="18"/>
<text text-anchor="middle" x="195.8449" y="-2534.3" font-family="Times,serif" font-size="14.00" fill="#000000">Fork</text>
</g>
<!-- E/W Dirt road&#45;&gt;Fork -->
<g id="edge4" class="edge">
<title>E/W Dirt road&#45;&gt;Fork</title>
<path fill="none" stroke="#000000" d="M155.946,-2592.2022C164.4065,-2580.7088 175.3397,-2565.8561 183.6211,-2554.6058"/>
</g>
<!-- boulder -->
<g id="node4" class="node">
<title>boulder</title>
<ellipse fill="none" stroke="#000000" cx="192.8449" cy="-2682" rx="37.8943" ry="18"/>
<text text-anchor="middle" x="192.8449" y="-2678.3" font-family="Times,serif" font-size="14.00" fill="#000000">boulder</text>
</g>
<!-- boulder&#45;&gt;E/W Dirt road -->
<g id="edge3" class="edge">
<title>boulder&#45;&gt;E/W Dirt road</title>
<path fill="none" stroke="#000000" d="M180.7413,-2664.5708C172.9956,-2653.4171 162.9756,-2638.9882 155.1844,-2627.7689"/>
</g>
<!-- SE/NW road -->
<g id="node7" class="node">
<title>SE/NW road</title>
<ellipse fill="none" stroke="#000000" cx="57.8449" cy="-2466" rx="56.59" ry="18"/>
<text text-anchor="middle" x="57.8449" y="-2462.3" font-family="Times,serif" font-size="14.00" fill="#000000">SE/NW road</text>
</g>
<!-- Fork&#45;&gt;SE/NW road -->
<g id="edge6" class="edge">
<title>Fork&#45;&gt;SE/NW road</title>
<path fill="none" stroke="#000000" d="M174.2824,-2526.75C150.9342,-2514.5684 113.5407,-2495.0587 87.4493,-2481.4458"/>
</g>
<!-- NE/SW road -->
<g id="node13" class="node">
<title>NE/SW road</title>
<ellipse fill="none" stroke="#000000" cx="274.8449" cy="-2466" rx="56.59" ry="18"/>
<text text-anchor="middle" x="274.8449" y="-2462.3" font-family="Times,serif" font-size="14.00" fill="#000000">NE/SW road</text>
</g>
<!-- Fork&#45;&gt;NE/SW road -->
<g id="edge12" class="edge">
<title>Fork&#45;&gt;NE/SW road</title>
<path fill="none" stroke="#000000" d="M212.2137,-2523.0816C224.9586,-2511.466 242.664,-2495.3294 255.9993,-2483.1757"/>
</g>
<!-- cpu -->
<g id="node6" class="node">
<title>cpu</title>
<ellipse fill="none" stroke="#000000" cx="249.8449" cy="-2610" rx="27" ry="18"/>
<text text-anchor="middle" x="249.8449" y="-2606.3" font-family="Times,serif" font-size="14.00" fill="#000000">cpu</text>
</g>
<!-- cpu&#45;&gt;Fork -->
<g id="edge5" class="edge">
<title>cpu&#45;&gt;Fork</title>
<path fill="none" stroke="#000000" stroke-dasharray="1,5" d="M237.5914,-2593.6621C228.754,-2581.8788 216.8761,-2566.0416 208.0498,-2554.2733"/>
</g>
<!-- Bear hangout -->
<g id="node9" class="node">
<title>Bear hangout</title>
<ellipse fill="none" stroke="#000000" cx="57.8449" cy="-2394" rx="57.6901" ry="18"/>
<text text-anchor="middle" x="57.8449" y="-2390.3" font-family="Times,serif" font-size="14.00" fill="#000000">Bear hangout</text>
</g>
<!-- SE/NW road&#45;&gt;Bear hangout -->
<g id="edge8" class="edge">
<title>SE/NW road&#45;&gt;Bear hangout</title>
<path fill="none" stroke="#000000" d="M57.8449,-2447.8314C57.8449,-2437 57.8449,-2423.2876 57.8449,-2412.4133"/>
</g>
<!-- food -->
<g id="node8" class="node">
<title>food</title>
<ellipse fill="none" stroke="#000000" cx="57.8449" cy="-2538" rx="27" ry="18"/>
<text text-anchor="middle" x="57.8449" y="-2534.3" font-family="Times,serif" font-size="14.00" fill="#000000">food</text>
</g>
<!-- food&#45;&gt;SE/NW road -->
<g id="edge7" class="edge">
<title>food&#45;&gt;SE/NW road</title>
<path fill="none" stroke="#000000" stroke-dasharray="1,5" d="M57.8449,-2519.8314C57.8449,-2509 57.8449,-2495.2876 57.8449,-2484.4133"/>
</g>
<!-- Hidden area -->
<g id="node11" class="node">
<title>Hidden area</title>
<ellipse fill="none" stroke="#000000" cx="93.8449" cy="-2322" rx="53.8905" ry="18"/>
<text text-anchor="middle" x="93.8449" y="-2318.3" font-family="Times,serif" font-size="14.00" fill="#000000">Hidden area</text>
</g>
<!-- Bear hangout&#45;&gt;Hidden area -->
<g id="edge10" class="edge">
<title>Bear hangout&#45;&gt;Hidden area</title>
<path fill="none" stroke="#000000" d="M66.7437,-2376.2022C72.2823,-2365.1252 79.3809,-2350.928 84.9236,-2339.8425"/>
</g>
<!-- key -->
<g id="node10" class="node">
<title>key</title>
<ellipse fill="none" stroke="#000000" cx="159.8449" cy="-2466" rx="27" ry="18"/>
<text text-anchor="middle" x="159.8449" y="-2462.3" font-family="Times,serif" font-size="14.00" fill="#000000">key</text>
</g>
<!-- key&#45;&gt;Bear hangout -->
<g id="edge9" class="edge">
<title>key&#45;&gt;Bear hangout</title>
<path fill="none" stroke="#000000" stroke-dasharray="1,5" d="M141.1365,-2452.7941C124.3428,-2440.9397 99.6133,-2423.4836 81.462,-2410.6709"/>
</g>
<!-- bracelet -->
<g id="node12" class="node">
<title>bracelet</title>
<ellipse fill="none" stroke="#000000" cx="171.8449" cy="-2394" rx="38.1938" ry="18"/>
<text text-anchor="middle" x="171.8449" y="-2390.3" font-family="Times,serif" font-size="14.00" fill="#000000">bracelet</text>
</g>
<!-- bracelet&#45;&gt;Hidden area -->
<g id="edge11" class="edge">
<title>bracelet&#45;&gt;Hidden area</title>
<path fill="none" stroke="#000000" stroke-dasharray="1,5" d="M154.1455,-2377.6621C141.65,-2366.1278 124.9463,-2350.709 112.2881,-2339.0245"/>
</g>
<!-- Building front -->
<g id="node14" class="node">
<title>Building front</title>
<ellipse fill="none" stroke="#000000" cx="288.8449" cy="-2394" rx="61.1893" ry="18"/>
<text text-anchor="middle" x="288.8449" y="-2390.3" font-family="Times,serif" font-size="14.00" fill="#000000">Building front</text>
</g>
<!-- NE/SW road&#45;&gt;Building front -->
<g id="edge13" class="edge">
<title>NE/SW road&#45;&gt;Building front</title>
<path fill="none" stroke="#000000" d="M278.3777,-2447.8314C280.4838,-2437 283.1501,-2423.2876 285.2645,-2412.4133"/>
</g>
<!-- Old Building hallway -->
<g id="node15" class="node">
<title>Old Building hallway</title>
<ellipse fill="none" stroke="#000000" cx="288.8449" cy="-2322" rx="87.1846" ry="18"/>
<text text-anchor="middle" x="288.8449" y="-2318.3" font-family="Times,serif" font-size="14.00" fill="#000000">Old Building hallway</text>
</g>
<!-- Building front&#45;&gt;Old Building hallway -->
<g id="edge14" class="edge">
<title>Building front&#45;&gt;Old Building hallway</title>
<path fill="none" stroke="#000000" d="M288.8449,-2375.8314C288.8449,-2365 288.8449,-2351.2876 288.8449,-2340.4133"/>
</g>
<!-- Computer room -->
<g id="node16" class="node">
<title>Computer room</title>
<ellipse fill="none" stroke="#000000" cx="356.8449" cy="-2250" rx="67.6881" ry="18"/>
<text text-anchor="middle" x="356.8449" y="-2246.3" font-family="Times,serif" font-size="14.00" fill="#000000">Computer room</text>
</g>
<!-- Old Building hallway&#45;&gt;Computer room -->
<g id="edge15" class="edge">
<title>Old Building hallway&#45;&gt;Computer room</title>
<path fill="none" stroke="#000000" d="M305.6539,-2304.2022C316.1942,-2293.0419 329.7258,-2278.7143 340.2292,-2267.593"/>
</g>
<!-- Pockey -->
<g id="node18" class="node">
<title>Pockey</title>
<ellipse fill="none" stroke="#000000" cx="356.8449" cy="-2178" rx="36.2938" ry="18"/>
<text text-anchor="middle" x="356.8449" y="-2174.3" font-family="Times,serif" font-size="14.00" fill="#000000">Pockey</text>
</g>
<!-- Computer room&#45;&gt;Pockey -->
<g id="edge17" class="edge">
<title>Computer room&#45;&gt;Pockey</title>
<path fill="none" stroke="#000000" d="M356.8449,-2231.8314C356.8449,-2221 356.8449,-2207.2876 356.8449,-2196.4133"/>
</g>
<!-- paper -->
<g id="node17" class="node">
<title>paper</title>
<ellipse fill="none" stroke="#000000" cx="424.8449" cy="-2322" rx="30.5947" ry="18"/>
<text text-anchor="middle" x="424.8449" y="-2318.3" font-family="Times,serif" font-size="14.00" fill="#000000">paper</text>
</g>
<!-- paper&#45;&gt;Computer room -->
<g id="edge16" class="edge">
<title>paper&#45;&gt;Computer room</title>
<path fill="none" stroke="#000000" stroke-dasharray="1,5" d="M409.7535,-2306.0209C399.0325,-2294.6692 384.6337,-2279.4235 373.5639,-2267.7025"/>
</g>
<!-- Receiving room -->
<g id="node19" class="node">
<title>Receiving room</title>
<ellipse fill="none" stroke="#000000" cx="356.8449" cy="-2106" rx="67.6881" ry="18"/>
<text text-anchor="middle" x="356.8449" y="-2102.3" font-family="Times,serif" font-size="14.00" fill="#000000">Receiving room</text>
</g>
<!-- Pockey&#45;&gt;Receiving room -->
<g id="edge18" class="edge">
<title>Pockey&#45;&gt;Receiving room</title>
<path fill="none" stroke="#000000" d="M356.8449,-2159.8314C356.8449,-2149 356.8449,-2135.2876 356.8449,-2124.4133"/>
</g>
<!-- Northbound Hallway -->
<g id="node20" class="node">
<title>Northbound Hallway</title>
<ellipse fill="none" stroke="#000000" cx="356.8449" cy="-2034" rx="85.2851" ry="18"/>
<text text-anchor="middle" x="356.8449" y="-2030.3" font-family="Times,serif" font-size="14.00" fill="#000000">Northbound Hallway</text>
</g>
<!-- Receiving room&#45;&gt;Northbound Hallway -->
<g id="edge19" class="edge">
<title>Receiving room&#45;&gt;Northbound Hallway</title>
<path fill="none" stroke="#000000" d="M356.8449,-2087.8314C356.8449,-2077 356.8449,-2063.2876 356.8449,-2052.4133"/>
</g>
<!-- Sauna -->
<g id="node21" class="node">
<title>Sauna</title>
<ellipse fill="none" stroke="#000000" cx="289.8449" cy="-1962" rx="32.4942" ry="18"/>
<text text-anchor="middle" x="289.8449" y="-1958.3" font-family="Times,serif" font-size="14.00" fill="#000000">Sauna</text>
</g>
<!-- Northbound Hallway&#45;&gt;Sauna -->
<g id="edge20" class="edge">
<title>Northbound Hallway&#45;&gt;Sauna</title>
<path fill="none" stroke="#000000" d="M340.2831,-2016.2022C329.4327,-2004.5422 315.3653,-1989.4249 304.8445,-1978.119"/>
</g>
<!-- End of N/S Hallway -->
<g id="node22" class="node">
<title>End of N/S Hallway</title>
<ellipse fill="none" stroke="#000000" cx="423.8449" cy="-1962" rx="83.3857" ry="18"/>
<text text-anchor="middle" x="423.8449" y="-1958.3" font-family="Times,serif" font-size="14.00" fill="#000000">End of N/S Hallway</text>
</g>
<!-- Northbound Hallway&#45;&gt;End of N/S Hallway -->
<g id="edge21" class="edge">
<title>Northbound Hallway&#45;&gt;End of N/S Hallway</title>
<path fill="none" stroke="#000000" d="M373.4067,-2016.2022C383.7145,-2005.1252 396.9258,-1990.928 407.2414,-1979.8425"/>
</g>
<!-- Weight room -->
<g id="node23" class="node">
<title>Weight room</title>
<ellipse fill="none" stroke="#000000" cx="423.8449" cy="-1890" rx="58.4896" ry="18"/>
<text text-anchor="middle" x="423.8449" y="-1886.3" font-family="Times,serif" font-size="14.00" fill="#000000">Weight room</text>
</g>
<!-- End of N/S Hallway&#45;&gt;Weight room -->
<g id="edge22" class="edge">
<title>End of N/S Hallway&#45;&gt;Weight room</title>
<path fill="none" stroke="#000000" d="M423.8449,-1943.8314C423.8449,-1933 423.8449,-1919.2876 423.8449,-1908.4133"/>
</g>
<!-- Maze button room -->
<g id="node24" class="node">
<title>Maze button room</title>
<ellipse fill="none" stroke="#000000" cx="478.8449" cy="-1818" rx="77.1866" ry="18"/>
<text text-anchor="middle" x="478.8449" y="-1814.3" font-family="Times,serif" font-size="14.00" fill="#000000">Maze button room</text>
</g>
<!-- Weight room&#45;&gt;Maze button room -->
<g id="edge23" class="edge">
<title>Weight room&#45;&gt;Maze button room</title>
<path fill="none" stroke="#000000" d="M437.4404,-1872.2022C445.902,-1861.1252 456.7471,-1846.928 465.2151,-1835.8425"/>
</g>
<!-- Maze -->
<g id="node26" class="node">
<title>Maze</title>
<ellipse fill="none" stroke="#000000" cx="614.8449" cy="-1746" rx="30.5947" ry="18"/>
<text text-anchor="middle" x="614.8449" y="-1742.3" font-family="Times,serif" font-size="14.00" fill="#000000">Maze</text>
</g>
<!-- Maze button room&#45;&gt;Maze -->
<g id="edge25" class="edge">
<title>Maze button room&#45;&gt;Maze</title>
<path fill="none" stroke="#000000" d="M510.046,-1801.4817C534.9841,-1788.2792 569.3713,-1770.0742 591.8501,-1758.1737"/>
</g>
<!-- button -->
<g id="node25" class="node">
<title>button</title>
<ellipse fill="none" stroke="#000000" cx="533.8449" cy="-1890" rx="33.2948" ry="18"/>
<text text-anchor="middle" x="533.8449" y="-1886.3" font-family="Times,serif" font-size="14.00" fill="#000000">button</text>
</g>
<!-- button&#45;&gt;Maze button room -->
<g id="edge24" class="edge">
<title>button&#45;&gt;Maze button room</title>
<path fill="none" stroke="#000000" stroke-dasharray="1,5" d="M521.0885,-1873.3008C512.5205,-1862.0844 501.2414,-1847.3191 492.4934,-1835.8671"/>
</g>
<!-- Reception area -->
<g id="node29" class="node">
<title>Reception area</title>
<ellipse fill="none" stroke="#000000" cx="614.8449" cy="-1674" rx="63.8893" ry="18"/>
<text text-anchor="middle" x="614.8449" y="-1670.3" font-family="Times,serif" font-size="14.00" fill="#000000">Reception area</text>
</g>
<!-- Maze&#45;&gt;Reception area -->
<g id="edge28" class="edge">
<title>Maze&#45;&gt;Reception area</title>
<path fill="none" stroke="#000000" d="M614.8449,-1727.8314C614.8449,-1717 614.8449,-1703.2876 614.8449,-1692.4133"/>
</g>
<!-- statuette -->
<g id="node27" class="node">
<title>statuette</title>
<ellipse fill="none" stroke="#000000" cx="614.8449" cy="-1818" rx="40.0939" ry="18"/>
<text text-anchor="middle" x="614.8449" y="-1814.3" font-family="Times,serif" font-size="14.00" fill="#000000">statuette</text>
</g>
<!-- statuette&#45;&gt;Maze -->
<g id="edge26" class="edge">
<title>statuette&#45;&gt;Maze</title>
<path fill="none" stroke="#000000" stroke-dasharray="1,5" d="M614.8449,-1799.8314C614.8449,-1789 614.8449,-1775.2876 614.8449,-1764.4133"/>
</g>
<!-- floppy -->
<g id="node28" class="node">
<title>floppy</title>
<ellipse fill="none" stroke="#000000" cx="706.8449" cy="-1818" rx="33.5952" ry="18"/>
<text text-anchor="middle" x="706.8449" y="-1814.3" font-family="Times,serif" font-size="14.00" fill="#000000">floppy</text>
</g>
<!-- floppy&#45;&gt;Maze -->
<g id="edge27" class="edge">
<title>floppy&#45;&gt;Maze</title>
<path fill="none" stroke="#000000" stroke-dasharray="1,5" d="M687.7824,-1803.0816C671.7824,-1790.5598 649.0691,-1772.7842 633.2551,-1760.408"/>
</g>
<!-- Health Club front -->
<g id="node30" class="node">
<title>Health Club front</title>
<ellipse fill="none" stroke="#000000" cx="614.8449" cy="-1602" rx="73.387" ry="18"/>
<text text-anchor="middle" x="614.8449" y="-1598.3" font-family="Times,serif" font-size="14.00" fill="#000000">Health Club front</text>
</g>
<!-- Reception area&#45;&gt;Health Club front -->
<g id="edge29" class="edge">
<title>Reception area&#45;&gt;Health Club front</title>
<path fill="none" stroke="#000000" d="M614.8449,-1655.8314C614.8449,-1645 614.8449,-1631.2876 614.8449,-1620.4133"/>
</g>
<!-- Lakefront North -->
<g id="node31" class="node">
<title>Lakefront North</title>
<ellipse fill="none" stroke="#000000" cx="614.8449" cy="-1530" rx="68.4888" ry="18"/>
<text text-anchor="middle" x="614.8449" y="-1526.3" font-family="Times,serif" font-size="14.00" fill="#000000">Lakefront North</text>
</g>
<!-- Health Club front&#45;&gt;Lakefront North -->
<g id="edge30" class="edge">
<title>Health Club front&#45;&gt;Lakefront North</title>
<path fill="none" stroke="#000000" d="M614.8449,-1583.8314C614.8449,-1573 614.8449,-1559.2876 614.8449,-1548.4133"/>
</g>
<!-- Lakefront South -->
<g id="node32" class="node">
<title>Lakefront South</title>
<ellipse fill="none" stroke="#000000" cx="614.8449" cy="-1458" rx="68.4888" ry="18"/>
<text text-anchor="middle" x="614.8449" y="-1454.3" font-family="Times,serif" font-size="14.00" fill="#000000">Lakefront South</text>
</g>
<!-- Lakefront North&#45;&gt;Lakefront South -->
<g id="edge31" class="edge">
<title>Lakefront North&#45;&gt;Lakefront South</title>
<path fill="none" stroke="#000000" d="M614.8449,-1511.8314C614.8449,-1501 614.8449,-1487.2876 614.8449,-1476.4133"/>
</g>
<!-- Cave Entrance -->
<g id="node33" class="node">
<title>Cave Entrance</title>
<ellipse fill="none" stroke="#000000" cx="672.8449" cy="-1386" rx="62.2891" ry="18"/>
<text text-anchor="middle" x="672.8449" y="-1382.3" font-family="Times,serif" font-size="14.00" fill="#000000">Cave Entrance</text>
</g>
<!-- Lakefront South&#45;&gt;Cave Entrance -->
<g id="edge32" class="edge">
<title>Lakefront South&#45;&gt;Cave Entrance</title>
<path fill="none" stroke="#000000" d="M629.1819,-1440.2022C638.1722,-1429.0419 649.7139,-1414.7143 658.6727,-1403.593"/>
<text text-anchor="middle" x="626.1819" y="-1429.0022" font-family="Times,serif" font-size="14.00" fill="#000000">s</text>
</g>
<!-- Misty Room -->
<g id="node35" class="node">
<title>Misty Room</title>
<ellipse fill="none" stroke="#000000" cx="732.8449" cy="-1314" rx="55.7903" ry="18"/>
<text text-anchor="middle" x="732.8449" y="-1310.3" font-family="Times,serif" font-size="14.00" fill="#000000">Misty Room</text>
</g>
<!-- Cave Entrance&#45;&gt;Misty Room -->
<g id="edge34" class="edge">
<title>Cave Entrance&#45;&gt;Misty Room</title>
<path fill="none" stroke="#000000" d="M687.6763,-1368.2022C696.9766,-1357.0419 708.9163,-1342.7143 718.184,-1331.593"/>
<text text-anchor="middle" x="684.6763" y="-1357.0022" font-family="Times,serif" font-size="14.00" fill="#000000">s</text>
</g>
<!-- chute -->
<g id="node34" class="node">
<title>chute</title>
<ellipse fill="none" stroke="#000000" cx="730.8449" cy="-1458" rx="29.795" ry="18"/>
<text text-anchor="middle" x="730.8449" y="-1454.3" font-family="Times,serif" font-size="14.00" fill="#000000">chute</text>
</g>
<!-- chute&#45;&gt;Cave Entrance -->
<g id="edge33" class="edge">
<title>chute&#45;&gt;Cave Entrance</title>
<path fill="none" stroke="#000000" stroke-dasharray="1,5" d="M717.6838,-1441.6621C708.5928,-1430.3767 696.5062,-1415.3727 687.1726,-1403.7862"/>
</g>
<!-- Cave E/W passage -->
<g id="node37" class="node">
<title>Cave E/W passage</title>
<ellipse fill="none" stroke="#000000" cx="732.8449" cy="-1242" rx="77.1866" ry="18"/>
<text text-anchor="middle" x="732.8449" y="-1238.3" font-family="Times,serif" font-size="14.00" fill="#000000">Cave E/W passage</text>
</g>
<!-- Misty Room&#45;&gt;Cave E/W passage -->
<g id="edge36" class="edge">
<title>Misty Room&#45;&gt;Cave E/W passage</title>
<path fill="none" stroke="#000000" d="M732.8449,-1295.8314C732.8449,-1285 732.8449,-1271.2876 732.8449,-1260.4133"/>
<text text-anchor="middle" x="729.3449" y="-1284.6314" font-family="Times,serif" font-size="14.00" fill="#000000">e</text>
</g>
<!-- gold bar -->
<g id="node36" class="node">
<title>gold bar</title>
<ellipse fill="none" stroke="#000000" cx="793.8449" cy="-1386" rx="40.0939" ry="18"/>
<text text-anchor="middle" x="793.8449" y="-1382.3" font-family="Times,serif" font-size="14.00" fill="#000000">gold bar</text>
</g>
<!-- gold bar&#45;&gt;Misty Room -->
<g id="edge35" class="edge">
<title>gold bar&#45;&gt;Misty Room</title>
<path fill="none" stroke="#000000" stroke-dasharray="1,5" d="M779.3887,-1368.937C769.8058,-1357.626 757.2688,-1342.8282 747.621,-1331.4407"/>
</g>
<!-- N/S/W Junction -->
<g id="node38" class="node">
<title>N/S/W Junction</title>
<ellipse fill="none" stroke="#000000" cx="732.8449" cy="-1170" rx="67.6881" ry="18"/>
<text text-anchor="middle" x="732.8449" y="-1166.3" font-family="Times,serif" font-size="14.00" fill="#000000">N/S/W Junction</text>
</g>
<!-- Cave E/W passage&#45;&gt;N/S/W Junction -->
<g id="edge37" class="edge">
<title>Cave E/W passage&#45;&gt;N/S/W Junction</title>
<path fill="none" stroke="#000000" d="M732.8449,-1223.8314C732.8449,-1213 732.8449,-1199.2876 732.8449,-1188.4133"/>
<text text-anchor="middle" x="729.3449" y="-1212.6314" font-family="Times,serif" font-size="14.00" fill="#000000">e</text>
</g>
<!-- North end of cave passage -->
<g id="node39" class="node">
<title>North end of cave passage</title>
<ellipse fill="none" stroke="#000000" cx="617.8449" cy="-1098" rx="104.7816" ry="18"/>
<text text-anchor="middle" x="617.8449" y="-1094.3" font-family="Times,serif" font-size="14.00" fill="#000000">North end of cave passage</text>
</g>
<!-- N/S/W Junction&#45;&gt;North end of cave passage -->
<g id="edge38" class="edge">
<title>N/S/W Junction&#45;&gt;North end of cave passage</title>
<path fill="none" stroke="#000000" d="M706.1725,-1153.3008C687.9921,-1141.9183 663.974,-1126.8809 645.5732,-1115.3603"/>
<text text-anchor="middle" x="702.6725" y="-1142.1008" font-family="Times,serif" font-size="14.00" fill="#000000">n</text>
</g>
<!-- Bedroom -->
<g id="node40" class="node">
<title>Bedroom</title>
<ellipse fill="none" stroke="#000000" cx="629.8449" cy="-1026" rx="44.393" ry="18"/>
<text text-anchor="middle" x="629.8449" y="-1022.3" font-family="Times,serif" font-size="14.00" fill="#000000">Bedroom</text>
</g>
<!-- North end of cave passage&#45;&gt;Bedroom -->
<g id="edge39" class="edge">
<title>North end of cave passage&#45;&gt;Bedroom</title>
<path fill="none" stroke="#000000" d="M620.873,-1079.8314C622.6782,-1069 624.9636,-1055.2876 626.776,-1044.4133"/>
<text text-anchor="middle" x="617.373" y="-1068.6314" font-family="Times,serif" font-size="14.00" fill="#000000">d</text>
</g>
<!-- NE end of NE/SW cave passage -->
<g id="node42" class="node">
<title>NE end of NE/SW cave passage</title>
<ellipse fill="none" stroke="#000000" cx="629.8449" cy="-954" rx="126.1777" ry="18"/>
<text text-anchor="middle" x="629.8449" y="-950.3" font-family="Times,serif" font-size="14.00" fill="#000000">NE end of NE/SW cave passage</text>
</g>
<!-- Bedroom&#45;&gt;NE end of NE/SW cave passage -->
<g id="edge41" class="edge">
<title>Bedroom&#45;&gt;NE end of NE/SW cave passage</title>
<path fill="none" stroke="#000000" d="M629.8449,-1007.8314C629.8449,-997 629.8449,-983.2876 629.8449,-972.4133"/>
<text text-anchor="middle" x="626.3449" y="-996.6314" font-family="Times,serif" font-size="14.00" fill="#000000">d</text>
</g>
<!-- painting -->
<g id="node41" class="node">
<title>painting</title>
<ellipse fill="none" stroke="#000000" cx="779.8449" cy="-1098" rx="39.7935" ry="18"/>
<text text-anchor="middle" x="779.8449" y="-1094.3" font-family="Times,serif" font-size="14.00" fill="#000000">painting</text>
</g>
<!-- painting&#45;&gt;Bedroom -->
<g id="edge40" class="edge">
<title>painting&#45;&gt;Bedroom</title>
<path fill="none" stroke="#000000" stroke-dasharray="1,5" d="M752.3326,-1084.7941C725.6906,-1072.006 685.4675,-1052.6989 658.4588,-1039.7347"/>
</g>
<!-- NE/SW&#45;E/W junction -->
<g id="node43" class="node">
<title>NE/SW&#45;E/W junction</title>
<ellipse fill="none" stroke="#000000" cx="629.8449" cy="-882" rx="89.0842" ry="18"/>
<text text-anchor="middle" x="629.8449" y="-878.3" font-family="Times,serif" font-size="14.00" fill="#000000">NE/SW&#45;E/W junction</text>
</g>
<!-- NE end of NE/SW cave passage&#45;&gt;NE/SW&#45;E/W junction -->
<g id="edge42" class="edge">
<title>NE end of NE/SW cave passage&#45;&gt;NE/SW&#45;E/W junction</title>
<path fill="none" stroke="#000000" d="M629.8449,-935.8314C629.8449,-925 629.8449,-911.2876 629.8449,-900.4133"/>
<text text-anchor="middle" x="621.8449" y="-924.6314" font-family="Times,serif" font-size="14.00" fill="#000000">sw</text>
</g>
<!-- East end of E/W cave passage -->
<g id="node44" class="node">
<title>East end of E/W cave passage</title>
<ellipse fill="none" stroke="#000000" cx="375.8449" cy="-810" rx="118.0794" ry="18"/>
<text text-anchor="middle" x="375.8449" y="-806.3" font-family="Times,serif" font-size="14.00" fill="#000000">East end of E/W cave passage</text>
</g>
<!-- NE/SW&#45;E/W junction&#45;&gt;East end of E/W cave passage -->
<g id="edge43" class="edge">
<title>NE/SW&#45;E/W junction&#45;&gt;East end of E/W cave passage</title>
<path fill="none" stroke="#000000" d="M578.138,-867.3429C535.6382,-855.2958 475.5322,-838.2578 431.889,-825.8865"/>
<text text-anchor="middle" x="574.638" y="-856.1429" font-family="Times,serif" font-size="14.00" fill="#000000">e</text>
</g>
<!-- West end of E/W cave passage -->
<g id="node46" class="node">
<title>West end of E/W cave passage</title>
<ellipse fill="none" stroke="#000000" cx="633.8449" cy="-810" rx="121.5784" ry="18"/>
<text text-anchor="middle" x="633.8449" y="-806.3" font-family="Times,serif" font-size="14.00" fill="#000000">West end of E/W cave passage</text>
</g>
<!-- NE/SW&#45;E/W junction&#45;&gt;West end of E/W cave passage -->
<g id="edge45" class="edge">
<title>NE/SW&#45;E/W junction&#45;&gt;West end of E/W cave passage</title>
<path fill="none" stroke="#000000" d="M630.8542,-863.8314C631.456,-853 632.2178,-839.2876 632.8219,-828.4133"/>
<text text-anchor="middle" x="625.8542" y="-852.6314" font-family="Times,serif" font-size="14.00" fill="#000000">w</text>
</g>
<!-- Horseshoe boulder room -->
<g id="node45" class="node">
<title>Horseshoe boulder room</title>
<ellipse fill="none" stroke="#000000" cx="375.8449" cy="-738" rx="98.5829" ry="18"/>
<text text-anchor="middle" x="375.8449" y="-734.3" font-family="Times,serif" font-size="14.00" fill="#000000">Horseshoe boulder room</text>
</g>
<!-- East end of E/W cave passage&#45;&gt;Horseshoe boulder room -->
<g id="edge44" class="edge">
<title>East end of E/W cave passage&#45;&gt;Horseshoe boulder room</title>
<path fill="none" stroke="#000000" d="M375.8449,-791.8314C375.8449,-781 375.8449,-767.2876 375.8449,-756.4133"/>
<text text-anchor="middle" x="372.3449" y="-780.6314" font-family="Times,serif" font-size="14.00" fill="#000000">u</text>
</g>
<!-- Empty room -->
<g id="node47" class="node">
<title>Empty room</title>
<ellipse fill="none" stroke="#000000" cx="633.8449" cy="-738" rx="55.7903" ry="18"/>
<text text-anchor="middle" x="633.8449" y="-734.3" font-family="Times,serif" font-size="14.00" fill="#000000">Empty room</text>
</g>
<!-- West end of E/W cave passage&#45;&gt;Empty room -->
<g id="edge46" class="edge">
<title>West end of E/W cave passage&#45;&gt;Empty room</title>
<path fill="none" stroke="#000000" d="M633.8449,-791.8314C633.8449,-781 633.8449,-767.2876 633.8449,-756.4133"/>
<text text-anchor="middle" x="630.3449" y="-780.6314" font-family="Times,serif" font-size="14.00" fill="#000000">d</text>
</g>
<!-- Blue room -->
<g id="node48" class="node">
<title>Blue room</title>
<ellipse fill="none" stroke="#000000" cx="555.8449" cy="-666" rx="48.9926" ry="18"/>
<text text-anchor="middle" x="555.8449" y="-662.3" font-family="Times,serif" font-size="14.00" fill="#000000">Blue room</text>
</g>
<!-- Empty room&#45;&gt;Blue room -->
<g id="edge47" class="edge">
<title>Empty room&#45;&gt;Blue room</title>
<path fill="none" stroke="#000000" d="M615.36,-720.937C602.9261,-709.4596 586.6031,-694.3922 574.1971,-682.9405"/>
<text text-anchor="middle" x="611.86" y="-709.737" font-family="Times,serif" font-size="14.00" fill="#000000">n</text>
</g>
<!-- Red room -->
<g id="node49" class="node">
<title>Red room</title>
<ellipse fill="none" stroke="#000000" cx="636.8449" cy="-522" rx="46.2923" ry="18"/>
<text text-anchor="middle" x="636.8449" y="-518.3" font-family="Times,serif" font-size="14.00" fill="#000000">Red room</text>
</g>
<!-- Empty room&#45;&gt;Red room -->
<g id="edge48" class="edge">
<title>Empty room&#45;&gt;Red room</title>
<path fill="none" stroke="#000000" d="M634.0955,-719.9555C634.6602,-679.2967 636.0268,-580.8988 636.5929,-540.1451"/>
<text text-anchor="middle" x="630.5955" y="-708.7555" font-family="Times,serif" font-size="14.00" fill="#000000">e</text>
</g>
<!-- Yellow room -->
<g id="node50" class="node">
<title>Yellow room</title>
<ellipse fill="none" stroke="#000000" cx="550.8449" cy="-594" rx="57.6901" ry="18"/>
<text text-anchor="middle" x="550.8449" y="-590.3" font-family="Times,serif" font-size="14.00" fill="#000000">Yellow room</text>
</g>
<!-- Blue room&#45;&gt;Yellow room -->
<g id="edge49" class="edge">
<title>Blue room&#45;&gt;Yellow room</title>
<path fill="none" stroke="#000000" d="M554.5832,-647.8314C553.831,-637 552.8787,-623.2876 552.1236,-612.4133"/>
<text text-anchor="middle" x="551.0832" y="-636.6314" font-family="Times,serif" font-size="14.00" fill="#000000">e</text>
</g>
<!-- Long n/s hallway -->
<g id="node52" class="node">
<title>Long n/s hallway</title>
<ellipse fill="none" stroke="#000000" cx="636.8449" cy="-450" rx="72.2875" ry="18"/>
<text text-anchor="middle" x="636.8449" y="-446.3" font-family="Times,serif" font-size="14.00" fill="#000000">Long n/s hallway</text>
</g>
<!-- Red room&#45;&gt;Long n/s hallway -->
<g id="edge52" class="edge">
<title>Red room&#45;&gt;Long n/s hallway</title>
<path fill="none" stroke="#000000" d="M636.8449,-503.8314C636.8449,-493 636.8449,-479.2876 636.8449,-468.4133"/>
<text text-anchor="middle" x="633.3449" y="-492.6314" font-family="Times,serif" font-size="14.00" fill="#000000">d</text>
</g>
<!-- Yellow room&#45;&gt;Red room -->
<g id="edge50" class="edge">
<title>Yellow room&#45;&gt;Red room</title>
<path fill="none" stroke="#000000" d="M571.2257,-576.937C585.1334,-565.2933 603.4545,-549.9547 617.2023,-538.4449"/>
<text text-anchor="middle" x="568.2257" y="-565.737" font-family="Times,serif" font-size="14.00" fill="#000000">s</text>
</g>
<!-- towel -->
<g id="node51" class="node">
<title>towel</title>
<ellipse fill="none" stroke="#000000" cx="695.8449" cy="-594" rx="30.5947" ry="18"/>
<text text-anchor="middle" x="695.8449" y="-590.3" font-family="Times,serif" font-size="14.00" fill="#000000">towel</text>
</g>
<!-- towel&#45;&gt;Red room -->
<g id="edge51" class="edge">
<title>towel&#45;&gt;Red room</title>
<path fill="none" stroke="#000000" stroke-dasharray="1,5" d="M682.4569,-577.6621C673.0731,-566.2108 660.5519,-550.9306 651.0026,-539.2773"/>
</g>
<!-- 3/4 north -->
<g id="node53" class="node">
<title>3/4 north</title>
<ellipse fill="none" stroke="#000000" cx="636.8449" cy="-378" rx="42.7926" ry="18"/>
<text text-anchor="middle" x="636.8449" y="-374.3" font-family="Times,serif" font-size="14.00" fill="#000000">3/4 north</text>
</g>
<!-- Long n/s hallway&#45;&gt;3/4 north -->
<g id="edge53" class="edge">
<title>Long n/s hallway&#45;&gt;3/4 north</title>
<path fill="none" stroke="#000000" d="M636.8449,-431.8314C636.8449,-421 636.8449,-407.2876 636.8449,-396.4133"/>
<text text-anchor="middle" x="633.3449" y="-420.6314" font-family="Times,serif" font-size="14.00" fill="#000000">n</text>
</g>
<!-- North end of long hallway -->
<g id="node54" class="node">
<title>North end of long hallway</title>
<ellipse fill="none" stroke="#000000" cx="636.8449" cy="-306" rx="104.7816" ry="18"/>
<text text-anchor="middle" x="636.8449" y="-302.3" font-family="Times,serif" font-size="14.00" fill="#000000">North end of long hallway</text>
</g>
<!-- 3/4 north&#45;&gt;North end of long hallway -->
<g id="edge54" class="edge">
<title>3/4 north&#45;&gt;North end of long hallway</title>
<path fill="none" stroke="#000000" d="M636.8449,-359.8314C636.8449,-349 636.8449,-335.2876 636.8449,-324.4133"/>
<text text-anchor="middle" x="633.3449" y="-348.6314" font-family="Times,serif" font-size="14.00" fill="#000000">n</text>
</g>
<!-- Stair landing -->
<g id="node55" class="node">
<title>Stair landing</title>
<ellipse fill="none" stroke="#000000" cx="751.8449" cy="-234" rx="55.7903" ry="18"/>
<text text-anchor="middle" x="751.8449" y="-230.3" font-family="Times,serif" font-size="14.00" fill="#000000">Stair landing</text>
</g>
<!-- North end of long hallway&#45;&gt;Stair landing -->
<g id="edge55" class="edge">
<title>North end of long hallway&#45;&gt;Stair landing</title>
<path fill="none" stroke="#000000" d="M664.6832,-288.5708C683.4288,-276.8344 707.9663,-261.4718 726.2289,-250.0378"/>
<text text-anchor="middle" x="661.1832" y="-277.3708" font-family="Times,serif" font-size="14.00" fill="#000000">u</text>
</g>
<!-- Top of staircase -->
<g id="node57" class="node">
<title>Top of staircase</title>
<ellipse fill="none" stroke="#000000" cx="751.8449" cy="-162" rx="67.6881" ry="18"/>
<text text-anchor="middle" x="751.8449" y="-158.3" font-family="Times,serif" font-size="14.00" fill="#000000">Top of staircase</text>
</g>
<!-- Stair landing&#45;&gt;Top of staircase -->
<g id="edge57" class="edge">
<title>Stair landing&#45;&gt;Top of staircase</title>
<path fill="none" stroke="#000000" d="M751.8449,-215.8314C751.8449,-205 751.8449,-191.2876 751.8449,-180.4133"/>
<text text-anchor="middle" x="748.3449" y="-204.6314" font-family="Times,serif" font-size="14.00" fill="#000000">u</text>
</g>
<!-- box -->
<g id="node56" class="node">
<title>box</title>
<ellipse fill="none" stroke="#000000" cx="786.8449" cy="-306" rx="27" ry="18"/>
<text text-anchor="middle" x="786.8449" y="-302.3" font-family="Times,serif" font-size="14.00" fill="#000000">box</text>
</g>
<!-- box&#45;&gt;Stair landing -->
<g id="edge56" class="edge">
<title>box&#45;&gt;Stair landing</title>
<path fill="none" stroke="#000000" stroke-dasharray="1,5" d="M778.3723,-288.5708C772.9909,-277.5003 766.041,-263.2034 760.6049,-252.0206"/>
</g>
<!-- NE crawlway -->
<g id="node58" class="node">
<title>NE crawlway</title>
<ellipse fill="none" stroke="#000000" cx="756.8449" cy="-90" rx="59.2899" ry="18"/>
<text text-anchor="middle" x="756.8449" y="-86.3" font-family="Times,serif" font-size="14.00" fill="#000000">NE crawlway</text>
</g>
<!-- Top of staircase&#45;&gt;NE crawlway -->
<g id="edge58" class="edge">
<title>Top of staircase&#45;&gt;NE crawlway</title>
<path fill="none" stroke="#000000" d="M753.1066,-143.8314C753.8588,-133 754.811,-119.2876 755.5662,-108.4133"/>
<text text-anchor="middle" x="746.6066" y="-132.6314" font-family="Times,serif" font-size="14.00" fill="#000000">ne</text>
</g>
<!-- Small crawlspace -->
<g id="node59" class="node">
<title>Small crawlspace</title>
<ellipse fill="none" stroke="#000000" cx="847.8449" cy="-18" rx="73.387" ry="18"/>
<text text-anchor="middle" x="847.8449" y="-14.3" font-family="Times,serif" font-size="14.00" fill="#000000">Small crawlspace</text>
</g>
<!-- NE crawlway&#45;&gt;Small crawlspace -->
<g id="edge59" class="edge">
<title>NE crawlway&#45;&gt;Small crawlspace</title>
<path fill="none" stroke="#000000" d="M778.4106,-72.937C792.7065,-61.626 811.4092,-46.8282 825.8018,-35.4407"/>
<text text-anchor="middle" x="771.9106" y="-61.737" font-family="Times,serif" font-size="14.00" fill="#000000">ne</text>
</g>
<!-- Small crawlspace&#45;&gt;N/S/W Junction -->
<g id="edge61" class="edge">
<title>Small crawlspace&#45;&gt;N/S/W Junction</title>
<path fill="none" stroke="#000000" d="M847.8449,-36.1854C847.8449,-63.5017 847.8449,-116.75 847.8449,-162 847.8449,-1026 847.8449,-1026 847.8449,-1026 847.8449,-1066.8816 853.0367,-1083.0445 828.8449,-1116 815.4923,-1134.1897 794.0526,-1147.0838 774.8181,-1155.6995"/>
<text text-anchor="middle" x="844.3449" y="-39.9854" font-family="Times,serif" font-size="14.00" fill="#000000">d</text>
</g>
<!-- axe -->
<g id="node60" class="node">
<title>axe</title>
<ellipse fill="none" stroke="#000000" cx="902.8449" cy="-90" rx="27" ry="18"/>
<text text-anchor="middle" x="902.8449" y="-86.3" font-family="Times,serif" font-size="14.00" fill="#000000">axe</text>
</g>
<!-- axe&#45;&gt;Small crawlspace -->
<g id="edge60" class="edge">
<title>axe&#45;&gt;Small crawlspace</title>
<path fill="none" stroke="#000000" stroke-dasharray="1,5" d="M890.3645,-73.6621C881.7438,-62.3767 870.2824,-47.3727 861.4316,-35.7862"/>
</g>
</g>
</svg>
