<?xml version="1.0" encoding="UTF-8" standalone="no"?>
<!DOCTYPE svg PUBLIC "-//W3C//DTD SVG 1.1//EN"
 "http://www.w3.org/Graphics/SVG/1.1/DTD/svg11.dtd">
<!-- Generated by graphviz version 2.40.1 (20161225.0304)
 -->
<!-- Title: %3 Pages: 1 -->
<svg width="938pt" height="2780pt"
 viewBox="0.00 0.00 937.84 2780.00" xmlns="http://www.w3.org/2000/svg" xmlns:xlink="http://www.w3.org/1999/xlink">
<g id="graph0" class="graph" transform="scale(1 1) rotate(0) translate(4 2776)">
<title>%3</title>
<polygon fill="#ffffff" stroke="transparent" points="-4,4 -4,-2776 933.8449,-2776 933.8449,4 -4,4"/>
<!-- shovel -->
<g id="node1" class="node">
<title>shovel</title>
<ellipse fill="none" stroke="#000000" cx="92.8449" cy="-2754" rx="33.5952" ry="18"/>
<text text-anchor="middle" x="92.8449" y="-2750.3" font-family="Times,serif" font-size="14.00" fill="#000000">shovel</text>
</g>
<!-- Dead end -->
<g id="node2" class="node">
<title>Dead end</title>
<ellipse fill="none" stroke="#000000" cx="92.8449" cy="-2682" rx="44.393" ry="18"/>
<text text-anchor="middle" x="92.8449" y="-2678.3" font-family="Times,serif" font-size="14.00" fill="#000000">Dead end</text>
</g>
<!-- shovel&#45;&gt;Dead end -->
<g id="edge1" class="edge">
<title>shovel&#45;&gt;Dead end</title>
<path fill="none" stroke="#000000" d="M92.8449,-2735.8314C92.8449,-2728.131 92.8449,-2718.9743 92.8449,-2710.4166"/>
<polygon fill="#000000" stroke="#000000" points="96.345,-2710.4132 92.8449,-2700.4133 89.345,-2710.4133 96.345,-2710.4132"/>
</g>
<!-- E/W Dirt road -->
<g id="node3" class="node">
<title>E/W Dirt road</title>
<ellipse fill="none" stroke="#000000" cx="142.8449" cy="-2610" rx="61.99" ry="18"/>
<text text-anchor="middle" x="142.8449" y="-2606.3" font-family="Times,serif" font-size="14.00" fill="#000000">E/W Dirt road</text>
</g>
<!-- Dead end&#45;&gt;E/W Dirt road -->
<g id="edge2" class="edge">
<title>Dead end&#45;&gt;E/W Dirt road</title>
<path fill="none" stroke="#000000" d="M104.9485,-2664.5708C110.8787,-2656.0312 118.1422,-2645.5719 124.7178,-2636.1029"/>
<polygon fill="#000000" stroke="#000000" points="127.6762,-2637.979 130.5054,-2627.7689 121.9266,-2633.9862 127.6762,-2637.979"/>
</g>
<!-- Fork -->
<g id="node5" class="node">
<title>Fork</title>
<ellipse fill="none" stroke="#000000" cx="195.8449" cy="-2538" rx="27.0966" ry="18"/>
<text text-anchor="middle" x="195.8449" y="-2534.3" font-family="Times,serif" font-size="14.00" fill="#000000">Fork</text>
</g>
<!-- E/W Dirt road&#45;&gt;Fork -->
<g id="edge4" class="edge">
<title>E/W Dirt road&#45;&gt;Fork</title>
<path fill="none" stroke="#000000" d="M155.946,-2592.2022C162.4897,-2583.3127 170.5125,-2572.4138 177.6436,-2562.7263"/>
<polygon fill="#000000" stroke="#000000" points="180.5116,-2564.7341 183.6211,-2554.6058 174.8742,-2560.5843 180.5116,-2564.7341"/>
</g>
<!-- boulder -->
<g id="node4" class="node">
<title>boulder</title>
<ellipse fill="none" stroke="#000000" cx="192.8449" cy="-2682" rx="37.8943" ry="18"/>
<text text-anchor="middle" x="192.8449" y="-2678.3" font-family="Times,serif" font-size="14.00" fill="#000000">boulder</text>
</g>
<!-- boulder&#45;&gt;E/W Dirt road -->
<g id="edge3" class="edge">
<title>boulder&#45;&gt;E/W Dirt road</title>
<path fill="none" stroke="#000000" d="M180.7413,-2664.5708C174.811,-2656.0312 167.5475,-2645.5719 160.9719,-2636.1029"/>
<polygon fill="#000000" stroke="#000000" points="163.7632,-2633.9862 155.1844,-2627.7689 158.0136,-2637.979 163.7632,-2633.9862"/>
</g>
<!-- SE/NW road -->
<g id="node7" class="node">
<title>SE/NW road</title>
<ellipse fill="none" stroke="#000000" cx="57.8449" cy="-2466" rx="56.59" ry="18"/>
<text text-anchor="middle" x="57.8449" y="-2462.3" font-family="Times,serif" font-size="14.00" fill="#000000">SE/NW road</text>
</g>
<!-- Fork&#45;&gt;SE/NW road -->
<g id="edge6" class="edge">
<title>Fork&#45;&gt;SE/NW road</title>
<path fill="none" stroke="#000000" d="M174.2824,-2526.75C153.4879,-2515.9007 121.5525,-2499.2388 96.383,-2486.1069"/>
<polygon fill="#000000" stroke="#000000" points="97.9342,-2482.9685 87.4493,-2481.4458 94.6962,-2489.1746 97.9342,-2482.9685"/>
</g>
<!-- NE/SW road -->
<g id="node13" class="node">
<title>NE/SW road</title>
<ellipse fill="none" stroke="#000000" cx="274.8449" cy="-2466" rx="56.59" ry="18"/>
<text text-anchor="middle" x="274.8449" y="-2462.3" font-family="Times,serif" font-size="14.00" fill="#000000">NE/SW road</text>
</g>
<!-- Fork&#45;&gt;NE/SW road -->
<g id="edge12" class="edge">
<title>Fork&#45;&gt;NE/SW road</title>
<path fill="none" stroke="#000000" d="M212.2137,-2523.0816C222.6685,-2513.5532 236.4612,-2500.9825 248.4415,-2490.0638"/>
<polygon fill="#000000" stroke="#000000" points="250.9659,-2492.4986 255.9993,-2483.1757 246.2507,-2487.325 250.9659,-2492.4986"/>
</g>
<!-- cpu -->
<g id="node6" class="node">
<title>cpu</title>
<ellipse fill="none" stroke="#000000" cx="249.8449" cy="-2610" rx="27" ry="18"/>
<text text-anchor="middle" x="249.8449" y="-2606.3" font-family="Times,serif" font-size="14.00" fill="#000000">cpu</text>
</g>
<!-- cpu&#45;&gt;Fork -->
<g id="edge5" class="edge">
<title>cpu&#45;&gt;Fork</title>
<path fill="none" stroke="#000000" d="M237.5914,-2593.6621C230.6872,-2584.4564 221.9272,-2572.7764 214.2164,-2562.4953"/>
<polygon fill="#000000" stroke="#000000" points="216.8499,-2560.1733 208.0498,-2554.2733 211.2498,-2564.3733 216.8499,-2560.1733"/>
</g>
<!-- Bear hangout -->
<g id="node9" class="node">
<title>Bear hangout</title>
<ellipse fill="none" stroke="#000000" cx="57.8449" cy="-2394" rx="57.6901" ry="18"/>
<text text-anchor="middle" x="57.8449" y="-2390.3" font-family="Times,serif" font-size="14.00" fill="#000000">Bear hangout</text>
</g>
<!-- SE/NW road&#45;&gt;Bear hangout -->
<g id="edge8" class="edge">
<title>SE/NW road&#45;&gt;Bear hangout</title>
<path fill="none" stroke="#000000" d="M57.8449,-2447.8314C57.8449,-2440.131 57.8449,-2430.9743 57.8449,-2422.4166"/>
<polygon fill="#000000" stroke="#000000" points="61.345,-2422.4132 57.8449,-2412.4133 54.345,-2422.4133 61.345,-2422.4132"/>
</g>
<!-- food -->
<g id="node8" class="node">
<title>food</title>
<ellipse fill="none" stroke="#000000" cx="57.8449" cy="-2538" rx="27" ry="18"/>
<text text-anchor="middle" x="57.8449" y="-2534.3" font-family="Times,serif" font-size="14.00" fill="#000000">food</text>
</g>
<!-- food&#45;&gt;SE/NW road -->
<g id="edge7" class="edge">
<title>food&#45;&gt;SE/NW road</title>
<path fill="none" stroke="#000000" d="M57.8449,-2519.8314C57.8449,-2512.131 57.8449,-2502.9743 57.8449,-2494.4166"/>
<polygon fill="#000000" stroke="#000000" points="61.345,-2494.4132 57.8449,-2484.4133 54.345,-2494.4133 61.345,-2494.4132"/>
</g>
<!-- Hidden area -->
<g id="node11" class="node">
<title>Hidden area</title>
<ellipse fill="none" stroke="#000000" cx="93.8449" cy="-2322" rx="53.8905" ry="18"/>
<text text-anchor="middle" x="93.8449" y="-2318.3" font-family="Times,serif" font-size="14.00" fill="#000000">Hidden area</text>
</g>
<!-- Bear hangout&#45;&gt;Hidden area -->
<g id="edge10" class="edge">
<title>Bear hangout&#45;&gt;Hidden area</title>
<path fill="none" stroke="#000000" d="M66.7437,-2376.2022C70.8544,-2367.981 75.8243,-2358.041 80.3798,-2348.9301"/>
<polygon fill="#000000" stroke="#000000" points="83.5819,-2350.3521 84.9236,-2339.8425 77.3209,-2347.2216 83.5819,-2350.3521"/>
</g>
<!-- key -->
<g id="node10" class="node">
<title>key</title>
<ellipse fill="none" stroke="#000000" cx="159.8449" cy="-2466" rx="27" ry="18"/>
<text text-anchor="middle" x="159.8449" y="-2462.3" font-family="Times,serif" font-size="14.00" fill="#000000">key</text>
</g>
<!-- key&#45;&gt;Bear hangout -->
<g id="edge9" class="edge">
<title>key&#45;&gt;Bear hangout</title>
<path fill="none" stroke="#000000" d="M141.1365,-2452.7941C126.8356,-2442.6993 106.78,-2428.5424 89.9323,-2416.65"/>
<polygon fill="#000000" stroke="#000000" points="91.6501,-2413.5784 81.462,-2410.6709 87.6133,-2419.2972 91.6501,-2413.5784"/>
</g>
<!-- bracelet -->
<g id="node12" class="node">
<title>bracelet</title>
<ellipse fill="none" stroke="#000000" cx="171.8449" cy="-2394" rx="38.1938" ry="18"/>
<text text-anchor="middle" x="171.8449" y="-2390.3" font-family="Times,serif" font-size="14.00" fill="#000000">bracelet</text>
</g>
<!-- bracelet&#45;&gt;Hidden area -->
<g id="edge11" class="edge">
<title>bracelet&#45;&gt;Hidden area</title>
<path fill="none" stroke="#000000" d="M154.1455,-2377.6621C143.9929,-2368.2905 131.0622,-2356.3545 119.7806,-2345.9407"/>
<polygon fill="#000000" stroke="#000000" points="122.0101,-2343.2355 112.2881,-2339.0245 117.2622,-2348.3792 122.0101,-2343.2355"/>
</g>
<!-- Building front -->
<g id="node14" class="node">
<title>Building front</title>
<ellipse fill="none" stroke="#000000" cx="288.8449" cy="-2394" rx="61.1893" ry="18"/>
<text text-anchor="middle" x="288.8449" y="-2390.3" font-family="Times,serif" font-size="14.00" fill="#000000">Building front</text>
</g>
<!-- NE/SW road&#45;&gt;Building front -->
<g id="edge13" class="edge">
<title>NE/SW road&#45;&gt;Building front</title>
<path fill="none" stroke="#000000" d="M278.3777,-2447.8314C279.875,-2440.131 281.6554,-2430.9743 283.3194,-2422.4166"/>
<polygon fill="#000000" stroke="#000000" points="286.7914,-2422.8975 285.2645,-2412.4133 279.9201,-2421.5614 286.7914,-2422.8975"/>
</g>
<!-- Old Building hallway -->
<g id="node15" class="node">
<title>Old Building hallway</title>
<ellipse fill="none" stroke="#000000" cx="288.8449" cy="-2322" rx="87.1846" ry="18"/>
<text text-anchor="middle" x="288.8449" y="-2318.3" font-family="Times,serif" font-size="14.00" fill="#000000">Old Building hallway</text>
</g>
<!-- Building front&#45;&gt;Old Building hallway -->
<g id="edge14" class="edge">
<title>Building front&#45;&gt;Old Building hallway</title>
<path fill="none" stroke="#000000" d="M288.8449,-2375.8314C288.8449,-2368.131 288.8449,-2358.9743 288.8449,-2350.4166"/>
<polygon fill="#000000" stroke="#000000" points="292.345,-2350.4132 288.8449,-2340.4133 285.345,-2350.4133 292.345,-2350.4132"/>
</g>
<!-- Computer room -->
<g id="node16" class="node">
<title>Computer room</title>
<ellipse fill="none" stroke="#000000" cx="356.8449" cy="-2250" rx="67.6881" ry="18"/>
<text text-anchor="middle" x="356.8449" y="-2246.3" font-family="Times,serif" font-size="14.00" fill="#000000">Computer room</text>
</g>
<!-- Old Building hallway&#45;&gt;Computer room -->
<g id="edge15" class="edge">
<title>Old Building hallway&#45;&gt;Computer room</title>
<path fill="none" stroke="#000000" d="M305.6539,-2304.2022C313.9708,-2295.396 324.1502,-2284.6179 333.2348,-2274.9989"/>
<polygon fill="#000000" stroke="#000000" points="335.9075,-2277.2664 340.2292,-2267.593 330.8184,-2272.46 335.9075,-2277.2664"/>
</g>
<!-- Pockey -->
<g id="node18" class="node">
<title>Pockey</title>
<ellipse fill="none" stroke="#000000" cx="356.8449" cy="-2178" rx="36.2938" ry="18"/>
<text text-anchor="middle" x="356.8449" y="-2174.3" font-family="Times,serif" font-size="14.00" fill="#000000">Pockey</text>
</g>
<!-- Computer room&#45;&gt;Pockey -->
<g id="edge17" class="edge">
<title>Computer room&#45;&gt;Pockey</title>
<path fill="none" stroke="#000000" d="M356.8449,-2231.8314C356.8449,-2224.131 356.8449,-2214.9743 356.8449,-2206.4166"/>
<polygon fill="#000000" stroke="#000000" points="360.345,-2206.4132 356.8449,-2196.4133 353.345,-2206.4133 360.345,-2206.4132"/>
</g>
<!-- paper -->
<g id="node17" class="node">
<title>paper</title>
<ellipse fill="none" stroke="#000000" cx="424.8449" cy="-2322" rx="30.5947" ry="18"/>
<text text-anchor="middle" x="424.8449" y="-2318.3" font-family="Times,serif" font-size="14.00" fill="#000000">paper</text>
</g>
<!-- paper&#45;&gt;Computer room -->
<g id="edge16" class="edge">
<title>paper&#45;&gt;Computer room</title>
<path fill="none" stroke="#000000" d="M409.7535,-2306.0209C401.2102,-2296.975 390.3315,-2285.4564 380.6629,-2275.2191"/>
<polygon fill="#000000" stroke="#000000" points="382.9747,-2272.5695 373.5639,-2267.7025 377.8856,-2277.3759 382.9747,-2272.5695"/>
</g>
<!-- Receiving room -->
<g id="node19" class="node">
<title>Receiving room</title>
<ellipse fill="none" stroke="#000000" cx="356.8449" cy="-2106" rx="67.6881" ry="18"/>
<text text-anchor="middle" x="356.8449" y="-2102.3" font-family="Times,serif" font-size="14.00" fill="#000000">Receiving room</text>
</g>
<!-- Pockey&#45;&gt;Receiving room -->
<g id="edge18" class="edge">
<title>Pockey&#45;&gt;Receiving room</title>
<path fill="none" stroke="#000000" d="M356.8449,-2159.8314C356.8449,-2152.131 356.8449,-2142.9743 356.8449,-2134.4166"/>
<polygon fill="#000000" stroke="#000000" points="360.345,-2134.4132 356.8449,-2124.4133 353.345,-2134.4133 360.345,-2134.4132"/>
</g>
<!-- Northbound Hallway -->
<g id="node20" class="node">
<title>Northbound Hallway</title>
<ellipse fill="none" stroke="#000000" cx="356.8449" cy="-2034" rx="85.2851" ry="18"/>
<text text-anchor="middle" x="356.8449" y="-2030.3" font-family="Times,serif" font-size="14.00" fill="#000000">Northbound Hallway</text>
</g>
<!-- Receiving room&#45;&gt;Northbound Hallway -->
<g id="edge19" class="edge">
<title>Receiving room&#45;&gt;Northbound Hallway</title>
<path fill="none" stroke="#000000" d="M356.8449,-2087.8314C356.8449,-2080.131 356.8449,-2070.9743 356.8449,-2062.4166"/>
<polygon fill="#000000" stroke="#000000" points="360.345,-2062.4132 356.8449,-2052.4133 353.345,-2062.4133 360.345,-2062.4132"/>
</g>
<!-- Sauna -->
<g id="node21" class="node">
<title>Sauna</title>
<ellipse fill="none" stroke="#000000" cx="289.8449" cy="-1962" rx="32.4942" ry="18"/>
<text text-anchor="middle" x="289.8449" y="-1958.3" font-family="Times,serif" font-size="14.00" fill="#000000">Sauna</text>
</g>
<!-- Northbound Hallway&#45;&gt;Sauna -->
<g id="edge20" class="edge">
<title>Northbound Hallway&#45;&gt;Sauna</title>
<path fill="none" stroke="#000000" d="M340.2831,-2016.2022C331.7215,-2007.0017 321.1568,-1995.6487 311.9121,-1985.7141"/>
<polygon fill="#000000" stroke="#000000" points="314.2191,-1983.0554 304.8445,-1978.119 309.0946,-1987.824 314.2191,-1983.0554"/>
</g>
<!-- End of N/S Hallway -->
<g id="node22" class="node">
<title>End of N/S Hallway</title>
<ellipse fill="none" stroke="#000000" cx="423.8449" cy="-1962" rx="83.3857" ry="18"/>
<text text-anchor="middle" x="423.8449" y="-1958.3" font-family="Times,serif" font-size="14.00" fill="#000000">End of N/S Hallway</text>
</g>
<!-- Northbound Hallway&#45;&gt;End of N/S Hallway -->
<g id="edge21" class="edge">
<title>Northbound Hallway&#45;&gt;End of N/S Hallway</title>
<path fill="none" stroke="#000000" d="M373.4067,-2016.2022C381.5402,-2007.4617 391.4814,-1996.7786 400.3814,-1987.2144"/>
<polygon fill="#000000" stroke="#000000" points="402.9913,-1989.5476 407.2414,-1979.8425 397.8668,-1984.7789 402.9913,-1989.5476"/>
</g>
<!-- Weight room -->
<g id="node23" class="node">
<title>Weight room</title>
<ellipse fill="none" stroke="#000000" cx="423.8449" cy="-1890" rx="58.4896" ry="18"/>
<text text-anchor="middle" x="423.8449" y="-1886.3" font-family="Times,serif" font-size="14.00" fill="#000000">Weight room</text>
</g>
<!-- End of N/S Hallway&#45;&gt;Weight room -->
<g id="edge22" class="edge">
<title>End of N/S Hallway&#45;&gt;Weight room</title>
<path fill="none" stroke="#000000" d="M423.8449,-1943.8314C423.8449,-1936.131 423.8449,-1926.9743 423.8449,-1918.4166"/>
<polygon fill="#000000" stroke="#000000" points="427.345,-1918.4132 423.8449,-1908.4133 420.345,-1918.4133 427.345,-1918.4132"/>
</g>
<!-- Maze button room -->
<g id="node24" class="node">
<title>Maze button room</title>
<ellipse fill="none" stroke="#000000" cx="478.8449" cy="-1818" rx="77.1866" ry="18"/>
<text text-anchor="middle" x="478.8449" y="-1814.3" font-family="Times,serif" font-size="14.00" fill="#000000">Maze button room</text>
</g>
<!-- Weight room&#45;&gt;Maze button room -->
<g id="edge23" class="edge">
<title>Weight room&#45;&gt;Maze button room</title>
<path fill="none" stroke="#000000" d="M437.4404,-1872.2022C443.9188,-1863.7214 451.7944,-1853.4115 458.9306,-1844.0696"/>
<polygon fill="#000000" stroke="#000000" points="461.9261,-1845.9139 465.2151,-1835.8425 456.3633,-1841.6646 461.9261,-1845.9139"/>
</g>
<!-- Maze -->
<g id="node26" class="node">
<title>Maze</title>
<ellipse fill="none" stroke="#000000" cx="614.8449" cy="-1746" rx="30.5947" ry="18"/>
<text text-anchor="middle" x="614.8449" y="-1742.3" font-family="Times,serif" font-size="14.00" fill="#000000">Maze</text>
</g>
<!-- Maze button room&#45;&gt;Maze -->
<g id="edge25" class="edge">
<title>Maze button room&#45;&gt;Maze</title>
<path fill="none" stroke="#000000" d="M510.046,-1801.4817C531.8668,-1789.9296 560.9222,-1774.5473 582.904,-1762.9099"/>
<polygon fill="#000000" stroke="#000000" points="584.6498,-1765.9459 591.8501,-1758.1737 581.3745,-1759.7594 584.6498,-1765.9459"/>
</g>
<!-- button -->
<g id="node25" class="node">
<title>button</title>
<ellipse fill="none" stroke="#000000" cx="533.8449" cy="-1890" rx="33.2948" ry="18"/>
<text text-anchor="middle" x="533.8449" y="-1886.3" font-family="Times,serif" font-size="14.00" fill="#000000">button</text>
</g>
<!-- button&#45;&gt;Maze button room -->
<g id="edge24" class="edge">
<title>button&#45;&gt;Maze button room</title>
<path fill="none" stroke="#000000" d="M521.0885,-1873.3008C514.4617,-1864.6256 506.2131,-1853.8275 498.7681,-1844.0813"/>
<polygon fill="#000000" stroke="#000000" points="501.3452,-1841.6892 492.4934,-1835.8671 495.7824,-1845.9385 501.3452,-1841.6892"/>
</g>
<!-- Reception area -->
<g id="node29" class="node">
<title>Reception area</title>
<ellipse fill="none" stroke="#000000" cx="614.8449" cy="-1674" rx="63.8893" ry="18"/>
<text text-anchor="middle" x="614.8449" y="-1670.3" font-family="Times,serif" font-size="14.00" fill="#000000">Reception area</text>
</g>
<!-- Maze&#45;&gt;Reception area -->
<g id="edge28" class="edge">
<title>Maze&#45;&gt;Reception area</title>
<path fill="none" stroke="#000000" d="M614.8449,-1727.8314C614.8449,-1720.131 614.8449,-1710.9743 614.8449,-1702.4166"/>
<polygon fill="#000000" stroke="#000000" points="618.345,-1702.4132 614.8449,-1692.4133 611.345,-1702.4133 618.345,-1702.4132"/>
</g>
<!-- statuette -->
<g id="node27" class="node">
<title>statuette</title>
<ellipse fill="none" stroke="#000000" cx="614.8449" cy="-1818" rx="40.0939" ry="18"/>
<text text-anchor="middle" x="614.8449" y="-1814.3" font-family="Times,serif" font-size="14.00" fill="#000000">statuette</text>
</g>
<!-- statuette&#45;&gt;Maze -->
<g id="edge26" class="edge">
<title>statuette&#45;&gt;Maze</title>
<path fill="none" stroke="#000000" d="M614.8449,-1799.8314C614.8449,-1792.131 614.8449,-1782.9743 614.8449,-1774.4166"/>
<polygon fill="#000000" stroke="#000000" points="618.345,-1774.4132 614.8449,-1764.4133 611.345,-1774.4133 618.345,-1774.4132"/>
</g>
<!-- floppy -->
<g id="node28" class="node">
<title>floppy</title>
<ellipse fill="none" stroke="#000000" cx="706.8449" cy="-1818" rx="33.5952" ry="18"/>
<text text-anchor="middle" x="706.8449" y="-1814.3" font-family="Times,serif" font-size="14.00" fill="#000000">floppy</text>
</g>
<!-- floppy&#45;&gt;Maze -->
<g id="edge27" class="edge">
<title>floppy&#45;&gt;Maze</title>
<path fill="none" stroke="#000000" d="M687.7824,-1803.0816C674.4074,-1792.6142 656.3412,-1778.4754 641.5356,-1766.8884"/>
<polygon fill="#000000" stroke="#000000" points="643.2873,-1763.8149 633.2551,-1760.408 638.9731,-1769.3274 643.2873,-1763.8149"/>
</g>
<!-- Health Club front -->
<g id="node30" class="node">
<title>Health Club front</title>
<ellipse fill="none" stroke="#000000" cx="614.8449" cy="-1602" rx="73.387" ry="18"/>
<text text-anchor="middle" x="614.8449" y="-1598.3" font-family="Times,serif" font-size="14.00" fill="#000000">Health Club front</text>
</g>
<!-- Reception area&#45;&gt;Health Club front -->
<g id="edge29" class="edge">
<title>Reception area&#45;&gt;Health Club front</title>
<path fill="none" stroke="#000000" d="M614.8449,-1655.8314C614.8449,-1648.131 614.8449,-1638.9743 614.8449,-1630.4166"/>
<polygon fill="#000000" stroke="#000000" points="618.345,-1630.4132 614.8449,-1620.4133 611.345,-1630.4133 618.345,-1630.4132"/>
</g>
<!-- Lakefront North -->
<g id="node31" class="node">
<title>Lakefront North</title>
<ellipse fill="none" stroke="#000000" cx="614.8449" cy="-1530" rx="68.4888" ry="18"/>
<text text-anchor="middle" x="614.8449" y="-1526.3" font-family="Times,serif" font-size="14.00" fill="#000000">Lakefront North</text>
</g>
<!-- Health Club front&#45;&gt;Lakefront North -->
<g id="edge30" class="edge">
<title>Health Club front&#45;&gt;Lakefront North</title>
<path fill="none" stroke="#000000" d="M614.8449,-1583.8314C614.8449,-1576.131 614.8449,-1566.9743 614.8449,-1558.4166"/>
<polygon fill="#000000" stroke="#000000" points="618.345,-1558.4132 614.8449,-1548.4133 611.345,-1558.4133 618.345,-1558.4132"/>
</g>
<!-- Lakefront South -->
<g id="node32" class="node">
<title>Lakefront South</title>
<ellipse fill="none" stroke="#000000" cx="614.8449" cy="-1458" rx="68.4888" ry="18"/>
<text text-anchor="middle" x="614.8449" y="-1454.3" font-family="Times,serif" font-size="14.00" fill="#000000">Lakefront South</text>
</g>
<!-- Lakefront North&#45;&gt;Lakefront South -->
<g id="edge31" class="edge">
<title>Lakefront North&#45;&gt;Lakefront South</title>
<path fill="none" stroke="#000000" d="M614.8449,-1511.8314C614.8449,-1504.131 614.8449,-1494.9743 614.8449,-1486.4166"/>
<polygon fill="#000000" stroke="#000000" points="618.345,-1486.4132 614.8449,-1476.4133 611.345,-1486.4133 618.345,-1486.4132"/>
</g>
<!-- Cave Entrance -->
<g id="node33" class="node">
<title>Cave Entrance</title>
<ellipse fill="none" stroke="#000000" cx="672.8449" cy="-1386" rx="62.2891" ry="18"/>
<text text-anchor="middle" x="672.8449" y="-1382.3" font-family="Times,serif" font-size="14.00" fill="#000000">Cave Entrance</text>
</g>
<!-- Lakefront South&#45;&gt;Cave Entrance -->
<g id="edge32" class="edge">
<title>Lakefront South&#45;&gt;Cave Entrance</title>
<path fill="none" stroke="#000000" d="M629.1819,-1440.2022C636.1354,-1431.5704 644.615,-1421.0439 652.2455,-1411.5717"/>
<polygon fill="#000000" stroke="#000000" points="655.125,-1413.5763 658.6727,-1403.593 649.6737,-1409.1849 655.125,-1413.5763"/>
</g>
<!-- Misty Room -->
<g id="node35" class="node">
<title>Misty Room</title>
<ellipse fill="none" stroke="#000000" cx="732.8449" cy="-1314" rx="55.7903" ry="18"/>
<text text-anchor="middle" x="732.8449" y="-1310.3" font-family="Times,serif" font-size="14.00" fill="#000000">Misty Room</text>
</g>
<!-- Cave Entrance&#45;&gt;Misty Room -->
<g id="edge34" class="edge">
<title>Cave Entrance&#45;&gt;Misty Room</title>
<path fill="none" stroke="#000000" d="M687.6763,-1368.2022C694.9422,-1359.4832 703.819,-1348.8311 711.7741,-1339.2849"/>
<polygon fill="#000000" stroke="#000000" points="714.4709,-1341.5159 718.184,-1331.593 709.0933,-1337.0346 714.4709,-1341.5159"/>
</g>
<!-- chute -->
<g id="node34" class="node">
<title>chute</title>
<ellipse fill="none" stroke="#000000" cx="730.8449" cy="-1458" rx="29.795" ry="18"/>
<text text-anchor="middle" x="730.8449" y="-1454.3" font-family="Times,serif" font-size="14.00" fill="#000000">chute</text>
</g>
<!-- chute&#45;&gt;Cave Entrance -->
<g id="edge33" class="edge">
<title>chute&#45;&gt;Cave Entrance</title>
<path fill="none" stroke="#000000" d="M717.6838,-1441.6621C710.5814,-1432.8454 701.6508,-1421.759 693.6328,-1411.8058"/>
<polygon fill="#000000" stroke="#000000" points="696.1716,-1409.3781 687.1726,-1403.7862 690.7203,-1413.7694 696.1716,-1409.3781"/>
</g>
<!-- Cave E/W passage -->
<g id="node37" class="node">
<title>Cave E/W passage</title>
<ellipse fill="none" stroke="#000000" cx="732.8449" cy="-1242" rx="77.1866" ry="18"/>
<text text-anchor="middle" x="732.8449" y="-1238.3" font-family="Times,serif" font-size="14.00" fill="#000000">Cave E/W passage</text>
</g>
<!-- Misty Room&#45;&gt;Cave E/W passage -->
<g id="edge36" class="edge">
<title>Misty Room&#45;&gt;Cave E/W passage</title>
<path fill="none" stroke="#000000" d="M732.8449,-1295.8314C732.8449,-1288.131 732.8449,-1278.9743 732.8449,-1270.4166"/>
<polygon fill="#000000" stroke="#000000" points="736.345,-1270.4132 732.8449,-1260.4133 729.345,-1270.4133 736.345,-1270.4132"/>
</g>
<!-- gold bar -->
<g id="node36" class="node">
<title>gold bar</title>
<ellipse fill="none" stroke="#000000" cx="793.8449" cy="-1386" rx="40.0939" ry="18"/>
<text text-anchor="middle" x="793.8449" y="-1382.3" font-family="Times,serif" font-size="14.00" fill="#000000">gold bar</text>
</g>
<!-- gold bar&#45;&gt;Misty Room -->
<g id="edge35" class="edge">
<title>gold bar&#45;&gt;Misty Room</title>
<path fill="none" stroke="#000000" d="M779.3887,-1368.937C771.902,-1360.1003 762.6123,-1349.1354 754.3059,-1339.3311"/>
<polygon fill="#000000" stroke="#000000" points="756.7557,-1336.8081 747.621,-1331.4407 751.4147,-1341.333 756.7557,-1336.8081"/>
</g>
<!-- N/S/W Junction -->
<g id="node38" class="node">
<title>N/S/W Junction</title>
<ellipse fill="none" stroke="#000000" cx="732.8449" cy="-1170" rx="67.6881" ry="18"/>
<text text-anchor="middle" x="732.8449" y="-1166.3" font-family="Times,serif" font-size="14.00" fill="#000000">N/S/W Junction</text>
</g>
<!-- Cave E/W passage&#45;&gt;N/S/W Junction -->
<g id="edge37" class="edge">
<title>Cave E/W passage&#45;&gt;N/S/W Junction</title>
<path fill="none" stroke="#000000" d="M732.8449,-1223.8314C732.8449,-1216.131 732.8449,-1206.9743 732.8449,-1198.4166"/>
<polygon fill="#000000" stroke="#000000" points="736.345,-1198.4132 732.8449,-1188.4133 729.345,-1198.4133 736.345,-1198.4132"/>
</g>
<!-- North end of cave passage -->
<g id="node39" class="node">
<title>North end of cave passage</title>
<ellipse fill="none" stroke="#000000" cx="617.8449" cy="-1098" rx="104.7816" ry="18"/>
<text text-anchor="middle" x="617.8449" y="-1094.3" font-family="Times,serif" font-size="14.00" fill="#000000">North end of cave passage</text>
</g>
<!-- N/S/W Junction&#45;&gt;North end of cave passage -->
<g id="edge38" class="edge">
<title>N/S/W Junction&#45;&gt;North end of cave passage</title>
<path fill="none" stroke="#000000" d="M706.1725,-1153.3008C690.6907,-1143.6079 670.9758,-1131.2646 654.1012,-1120.6996"/>
<polygon fill="#000000" stroke="#000000" points="655.9064,-1117.7005 645.5732,-1115.3603 652.1917,-1123.6336 655.9064,-1117.7005"/>
</g>
<!-- Bedroom -->
<g id="node40" class="node">
<title>Bedroom</title>
<ellipse fill="none" stroke="#000000" cx="629.8449" cy="-1026" rx="44.393" ry="18"/>
<text text-anchor="middle" x="629.8449" y="-1022.3" font-family="Times,serif" font-size="14.00" fill="#000000">Bedroom</text>
</g>
<!-- North end of cave passage&#45;&gt;Bedroom -->
<g id="edge39" class="edge">
<title>North end of cave passage&#45;&gt;Bedroom</title>
<path fill="none" stroke="#000000" d="M620.873,-1079.8314C622.1564,-1072.131 623.6825,-1062.9743 625.1088,-1054.4166"/>
<polygon fill="#000000" stroke="#000000" points="628.5843,-1054.8526 626.776,-1044.4133 621.6795,-1053.7018 628.5843,-1054.8526"/>
</g>
<!-- NE end of NE/SW cave passage -->
<g id="node42" class="node">
<title>NE end of NE/SW cave passage</title>
<ellipse fill="none" stroke="#000000" cx="629.8449" cy="-954" rx="126.1777" ry="18"/>
<text text-anchor="middle" x="629.8449" y="-950.3" font-family="Times,serif" font-size="14.00" fill="#000000">NE end of NE/SW cave passage</text>
</g>
<!-- Bedroom&#45;&gt;NE end of NE/SW cave passage -->
<g id="edge41" class="edge">
<title>Bedroom&#45;&gt;NE end of NE/SW cave passage</title>
<path fill="none" stroke="#000000" d="M629.8449,-1007.8314C629.8449,-1000.131 629.8449,-990.9743 629.8449,-982.4166"/>
<polygon fill="#000000" stroke="#000000" points="633.345,-982.4132 629.8449,-972.4133 626.345,-982.4133 633.345,-982.4132"/>
</g>
<!-- painting -->
<g id="node41" class="node">
<title>painting</title>
<ellipse fill="none" stroke="#000000" cx="779.8449" cy="-1098" rx="39.7935" ry="18"/>
<text text-anchor="middle" x="779.8449" y="-1094.3" font-family="Times,serif" font-size="14.00" fill="#000000">painting</text>
</g>
<!-- painting&#45;&gt;Bedroom -->
<g id="edge40" class="edge">
<title>painting&#45;&gt;Bedroom</title>
<path fill="none" stroke="#000000" d="M752.3326,-1084.7941C728.6046,-1073.4047 694.1039,-1056.8443 667.7602,-1044.1994"/>
<polygon fill="#000000" stroke="#000000" points="668.9886,-1040.9067 658.4588,-1039.7347 665.9595,-1047.2174 668.9886,-1040.9067"/>
</g>
<!-- NE/SW&#45;E/W junction -->
<g id="node43" class="node">
<title>NE/SW&#45;E/W junction</title>
<ellipse fill="none" stroke="#000000" cx="629.8449" cy="-882" rx="89.0842" ry="18"/>
<text text-anchor="middle" x="629.8449" y="-878.3" font-family="Times,serif" font-size="14.00" fill="#000000">NE/SW&#45;E/W junction</text>
</g>
<!-- NE end of NE/SW cave passage&#45;&gt;NE/SW&#45;E/W junction -->
<g id="edge42" class="edge">
<title>NE end of NE/SW cave passage&#45;&gt;NE/SW&#45;E/W junction</title>
<path fill="none" stroke="#000000" d="M629.8449,-935.8314C629.8449,-928.131 629.8449,-918.9743 629.8449,-910.4166"/>
<polygon fill="#000000" stroke="#000000" points="633.345,-910.4132 629.8449,-900.4133 626.345,-910.4133 633.345,-910.4132"/>
</g>
<!-- East end of E/W cave passage -->
<g id="node44" class="node">
<title>East end of E/W cave passage</title>
<ellipse fill="none" stroke="#000000" cx="375.8449" cy="-810" rx="118.0794" ry="18"/>
<text text-anchor="middle" x="375.8449" y="-806.3" font-family="Times,serif" font-size="14.00" fill="#000000">East end of E/W cave passage</text>
</g>
<!-- NE/SW&#45;E/W junction&#45;&gt;East end of E/W cave passage -->
<g id="edge43" class="edge">
<title>NE/SW&#45;E/W junction&#45;&gt;East end of E/W cave passage</title>
<path fill="none" stroke="#000000" d="M578.138,-867.3429C538.7095,-856.1664 484.1275,-840.6943 441.5958,-828.6381"/>
<polygon fill="#000000" stroke="#000000" points="442.4645,-825.2465 431.889,-825.8865 440.5554,-831.9811 442.4645,-825.2465"/>
</g>
<!-- West end of E/W cave passage -->
<g id="node46" class="node">
<title>West end of E/W cave passage</title>
<ellipse fill="none" stroke="#000000" cx="633.8449" cy="-810" rx="121.5784" ry="18"/>
<text text-anchor="middle" x="633.8449" y="-806.3" font-family="Times,serif" font-size="14.00" fill="#000000">West end of E/W cave passage</text>
</g>
<!-- NE/SW&#45;E/W junction&#45;&gt;West end of E/W cave passage -->
<g id="edge45" class="edge">
<title>NE/SW&#45;E/W junction&#45;&gt;West end of E/W cave passage</title>
<path fill="none" stroke="#000000" d="M630.8542,-863.8314C631.282,-856.131 631.7907,-846.9743 632.2662,-838.4166"/>
<polygon fill="#000000" stroke="#000000" points="635.7617,-838.592 632.8219,-828.4133 628.7725,-838.2037 635.7617,-838.592"/>
</g>
<!-- Horseshoe boulder room -->
<g id="node45" class="node">
<title>Horseshoe boulder room</title>
<ellipse fill="none" stroke="#000000" cx="375.8449" cy="-738" rx="98.5829" ry="18"/>
<text text-anchor="middle" x="375.8449" y="-734.3" font-family="Times,serif" font-size="14.00" fill="#000000">Horseshoe boulder room</text>
</g>
<!-- East end of E/W cave passage&#45;&gt;Horseshoe boulder room -->
<g id="edge44" class="edge">
<title>East end of E/W cave passage&#45;&gt;Horseshoe boulder room</title>
<path fill="none" stroke="#000000" d="M375.8449,-791.8314C375.8449,-784.131 375.8449,-774.9743 375.8449,-766.4166"/>
<polygon fill="#000000" stroke="#000000" points="379.345,-766.4132 375.8449,-756.4133 372.345,-766.4133 379.345,-766.4132"/>
</g>
<!-- Empty room -->
<g id="node47" class="node">
<title>Empty room</title>
<ellipse fill="none" stroke="#000000" cx="633.8449" cy="-738" rx="55.7903" ry="18"/>
<text text-anchor="middle" x="633.8449" y="-734.3" font-family="Times,serif" font-size="14.00" fill="#000000">Empty room</text>
</g>
<!-- West end of E/W cave passage&#45;&gt;Empty room -->
<g id="edge46" class="edge">
<title>West end of E/W cave passage&#45;&gt;Empty room</title>
<path fill="none" stroke="#000000" d="M633.8449,-791.8314C633.8449,-784.131 633.8449,-774.9743 633.8449,-766.4166"/>
<polygon fill="#000000" stroke="#000000" points="637.345,-766.4132 633.8449,-756.4133 630.345,-766.4133 637.345,-766.4132"/>
</g>
<!-- Blue room -->
<g id="node48" class="node">
<title>Blue room</title>
<ellipse fill="none" stroke="#000000" cx="555.8449" cy="-666" rx="48.9926" ry="18"/>
<text text-anchor="middle" x="555.8449" y="-662.3" font-family="Times,serif" font-size="14.00" fill="#000000">Blue room</text>
</g>
<!-- Empty room&#45;&gt;Blue room -->
<g id="edge47" class="edge">
<title>Empty room&#45;&gt;Blue room</title>
<path fill="none" stroke="#000000" d="M615.36,-720.937C605.3546,-711.7013 592.8309,-700.141 581.8564,-690.0106"/>
<polygon fill="#000000" stroke="#000000" points="583.9191,-687.1515 574.1971,-682.9405 579.1712,-692.2952 583.9191,-687.1515"/>
</g>
<!-- Red room -->
<g id="node49" class="node">
<title>Red room</title>
<ellipse fill="none" stroke="#000000" cx="636.8449" cy="-522" rx="46.2923" ry="18"/>
<text text-anchor="middle" x="636.8449" y="-518.3" font-family="Times,serif" font-size="14.00" fill="#000000">Red room</text>
</g>
<!-- Empty room&#45;&gt;Red room -->
<g id="edge48" class="edge">
<title>Empty room&#45;&gt;Red room</title>
<path fill="none" stroke="#000000" d="M634.0955,-719.9555C634.6172,-682.3938 635.8233,-595.5541 636.4503,-550.4103"/>
<polygon fill="#000000" stroke="#000000" points="639.9535,-550.1927 636.5929,-540.1451 632.9542,-550.0955 639.9535,-550.1927"/>
</g>
<!-- Yellow room -->
<g id="node50" class="node">
<title>Yellow room</title>
<ellipse fill="none" stroke="#000000" cx="550.8449" cy="-594" rx="57.6901" ry="18"/>
<text text-anchor="middle" x="550.8449" y="-590.3" font-family="Times,serif" font-size="14.00" fill="#000000">Yellow room</text>
</g>
<!-- Blue room&#45;&gt;Yellow room -->
<g id="edge49" class="edge">
<title>Blue room&#45;&gt;Yellow room</title>
<path fill="none" stroke="#000000" d="M554.5832,-647.8314C554.0484,-640.131 553.4125,-630.9743 552.8182,-622.4166"/>
<polygon fill="#000000" stroke="#000000" points="556.308,-622.1467 552.1236,-612.4133 549.3248,-622.6317 556.308,-622.1467"/>
</g>
<!-- Long n/s hallway -->
<g id="node52" class="node">
<title>Long n/s hallway</title>
<ellipse fill="none" stroke="#000000" cx="636.8449" cy="-450" rx="72.2875" ry="18"/>
<text text-anchor="middle" x="636.8449" y="-446.3" font-family="Times,serif" font-size="14.00" fill="#000000">Long n/s hallway</text>
</g>
<!-- Red room&#45;&gt;Long n/s hallway -->
<g id="edge52" class="edge">
<title>Red room&#45;&gt;Long n/s hallway</title>
<path fill="none" stroke="#000000" d="M636.8449,-503.8314C636.8449,-496.131 636.8449,-486.9743 636.8449,-478.4166"/>
<polygon fill="#000000" stroke="#000000" points="640.345,-478.4132 636.8449,-468.4133 633.345,-478.4133 640.345,-478.4132"/>
</g>
<!-- Yellow room&#45;&gt;Red room -->
<g id="edge50" class="edge">
<title>Yellow room&#45;&gt;Red room</title>
<path fill="none" stroke="#000000" d="M571.2257,-576.937C582.6344,-567.3855 597.0128,-555.3477 609.4005,-544.9766"/>
<polygon fill="#000000" stroke="#000000" points="611.7815,-547.548 617.2023,-538.4449 607.2879,-542.1807 611.7815,-547.548"/>
</g>
<!-- towel -->
<g id="node51" class="node">
<title>towel</title>
<ellipse fill="none" stroke="#000000" cx="695.8449" cy="-594" rx="30.5947" ry="18"/>
<text text-anchor="middle" x="695.8449" y="-590.3" font-family="Times,serif" font-size="14.00" fill="#000000">towel</text>
</g>
<!-- towel&#45;&gt;Red room -->
<g id="edge51" class="edge">
<title>towel&#45;&gt;Red room</title>
<path fill="none" stroke="#000000" d="M682.4569,-577.6621C675.0525,-568.6263 665.6947,-557.2066 657.3849,-547.0658"/>
<polygon fill="#000000" stroke="#000000" points="660.0481,-544.7937 651.0026,-539.2773 654.6337,-549.2305 660.0481,-544.7937"/>
</g>
<!-- 3/4 north -->
<g id="node53" class="node">
<title>3/4 north</title>
<ellipse fill="none" stroke="#000000" cx="636.8449" cy="-378" rx="42.7926" ry="18"/>
<text text-anchor="middle" x="636.8449" y="-374.3" font-family="Times,serif" font-size="14.00" fill="#000000">3/4 north</text>
</g>
<!-- Long n/s hallway&#45;&gt;3/4 north -->
<g id="edge53" class="edge">
<title>Long n/s hallway&#45;&gt;3/4 north</title>
<path fill="none" stroke="#000000" d="M636.8449,-431.8314C636.8449,-424.131 636.8449,-414.9743 636.8449,-406.4166"/>
<polygon fill="#000000" stroke="#000000" points="640.345,-406.4132 636.8449,-396.4133 633.345,-406.4133 640.345,-406.4132"/>
</g>
<!-- North end of long hallway -->
<g id="node54" class="node">
<title>North end of long hallway</title>
<ellipse fill="none" stroke="#000000" cx="636.8449" cy="-306" rx="104.7816" ry="18"/>
<text text-anchor="middle" x="636.8449" y="-302.3" font-family="Times,serif" font-size="14.00" fill="#000000">North end of long hallway</text>
</g>
<!-- 3/4 north&#45;&gt;North end of long hallway -->
<g id="edge54" class="edge">
<title>3/4 north&#45;&gt;North end of long hallway</title>
<path fill="none" stroke="#000000" d="M636.8449,-359.8314C636.8449,-352.131 636.8449,-342.9743 636.8449,-334.4166"/>
<polygon fill="#000000" stroke="#000000" points="640.345,-334.4132 636.8449,-324.4133 633.345,-334.4133 640.345,-334.4132"/>
</g>
<!-- Stair landing -->
<g id="node55" class="node">
<title>Stair landing</title>
<ellipse fill="none" stroke="#000000" cx="751.8449" cy="-234" rx="55.7903" ry="18"/>
<text text-anchor="middle" x="751.8449" y="-230.3" font-family="Times,serif" font-size="14.00" fill="#000000">Stair landing</text>
</g>
<!-- North end of long hallway&#45;&gt;Stair landing -->
<g id="edge55" class="edge">
<title>North end of long hallway&#45;&gt;Stair landing</title>
<path fill="none" stroke="#000000" d="M664.6832,-288.5708C680.6462,-278.5765 700.8093,-265.9527 717.721,-255.3645"/>
<polygon fill="#000000" stroke="#000000" points="719.6104,-258.311 726.2289,-250.0378 715.8957,-252.3779 719.6104,-258.311"/>
</g>
<!-- Top of staircase -->
<g id="node57" class="node">
<title>Top of staircase</title>
<ellipse fill="none" stroke="#000000" cx="751.8449" cy="-162" rx="67.6881" ry="18"/>
<text text-anchor="middle" x="751.8449" y="-158.3" font-family="Times,serif" font-size="14.00" fill="#000000">Top of staircase</text>
</g>
<!-- Stair landing&#45;&gt;Top of staircase -->
<g id="edge57" class="edge">
<title>Stair landing&#45;&gt;Top of staircase</title>
<path fill="none" stroke="#000000" d="M751.8449,-215.8314C751.8449,-208.131 751.8449,-198.9743 751.8449,-190.4166"/>
<polygon fill="#000000" stroke="#000000" points="755.345,-190.4132 751.8449,-180.4133 748.345,-190.4133 755.345,-190.4132"/>
</g>
<!-- box -->
<g id="node56" class="node">
<title>box</title>
<ellipse fill="none" stroke="#000000" cx="786.8449" cy="-306" rx="27" ry="18"/>
<text text-anchor="middle" x="786.8449" y="-302.3" font-family="Times,serif" font-size="14.00" fill="#000000">box</text>
</g>
<!-- box&#45;&gt;Stair landing -->
<g id="edge56" class="edge">
<title>box&#45;&gt;Stair landing</title>
<path fill="none" stroke="#000000" d="M778.3723,-288.5708C774.3783,-280.3544 769.5203,-270.3608 765.0584,-261.1821"/>
<polygon fill="#000000" stroke="#000000" points="768.1247,-259.4841 760.6049,-252.0206 761.8291,-262.5445 768.1247,-259.4841"/>
</g>
<!-- NE crawlway -->
<g id="node58" class="node">
<title>NE crawlway</title>
<ellipse fill="none" stroke="#000000" cx="756.8449" cy="-90" rx="59.2899" ry="18"/>
<text text-anchor="middle" x="756.8449" y="-86.3" font-family="Times,serif" font-size="14.00" fill="#000000">NE crawlway</text>
</g>
<!-- Top of staircase&#45;&gt;NE crawlway -->
<g id="edge58" class="edge">
<title>Top of staircase&#45;&gt;NE crawlway</title>
<path fill="none" stroke="#000000" d="M753.1066,-143.8314C753.6413,-136.131 754.2772,-126.9743 754.8715,-118.4166"/>
<polygon fill="#000000" stroke="#000000" points="758.3649,-118.6317 755.5662,-108.4133 751.3817,-118.1467 758.3649,-118.6317"/>
</g>
<!-- Small crawlspace -->
<g id="node59" class="node">
<title>Small crawlspace</title>
<ellipse fill="none" stroke="#000000" cx="847.8449" cy="-18" rx="73.387" ry="18"/>
<text text-anchor="middle" x="847.8449" y="-14.3" font-family="Times,serif" font-size="14.00" fill="#000000">Small crawlspace</text>
</g>
<!-- NE crawlway&#45;&gt;Small crawlspace -->
<g id="edge59" class="edge">
<title>NE crawlway&#45;&gt;Small crawlspace</title>
<path fill="none" stroke="#000000" d="M778.4106,-72.937C790.1377,-63.6584 804.8302,-52.0336 817.6764,-41.8696"/>
<polygon fill="#000000" stroke="#000000" points="820.1313,-44.3903 825.8018,-35.4407 815.7879,-38.9008 820.1313,-44.3903"/>
</g>
<!-- Small crawlspace&#45;&gt;N/S/W Junction -->
<g id="edge61" class="edge">
<title>Small crawlspace&#45;&gt;N/S/W Junction</title>
<path fill="none" stroke="#000000" d="M847.8449,-36.1854C847.8449,-63.5017 847.8449,-116.75 847.8449,-162 847.8449,-1026 847.8449,-1026 847.8449,-1026 847.8449,-1066.8816 853.0367,-1083.0445 828.8449,-1116 817.5786,-1131.3475 800.5551,-1142.9251 783.9565,-1151.3436"/>
<polygon fill="#000000" stroke="#000000" points="782.3391,-1148.2373 774.8181,-1155.6995 785.3511,-1154.5562 782.3391,-1148.2373"/>
</g>
<!-- axe -->
<g id="node60" class="node">
<title>axe</title>
<ellipse fill="none" stroke="#000000" cx="902.8449" cy="-90" rx="27" ry="18"/>
<text text-anchor="middle" x="902.8449" y="-86.3" font-family="Times,serif" font-size="14.00" fill="#000000">axe</text>
</g>
<!-- axe&#45;&gt;Small crawlspace -->
<g id="edge60" class="edge">
<title>axe&#45;&gt;Small crawlspace</title>
<path fill="none" stroke="#000000" d="M890.3645,-73.6621C883.6296,-64.8454 875.1608,-53.759 867.5576,-43.8058"/>
<polygon fill="#000000" stroke="#000000" points="870.2833,-41.6083 861.4316,-35.7862 864.7206,-45.8576 870.2833,-41.6083"/>
</g>
</g>
</svg>
