<?xml version="1.0" encoding="UTF-8" standalone="no"?>
<!DOCTYPE svg PUBLIC "-//W3C//DTD SVG 1.1//EN"
 "http://www.w3.org/Graphics/SVG/1.1/DTD/svg11.dtd">
<!-- Generated by graphviz version 2.40.1 (20161225.0304)
 -->
<!-- Title: %3 Pages: 1 -->
<svg width="1369pt" height="2198pt"
 viewBox="0.00 0.00 1369.00 2197.57" xmlns="http://www.w3.org/2000/svg" xmlns:xlink="http://www.w3.org/1999/xlink">
<g id="graph0" class="graph" transform="scale(1 1) rotate(0) translate(4 2193.5675)">
<title>%3</title>
<polygon fill="#ffffff" stroke="transparent" points="-4,4 -4,-2193.5675 1365.0014,-2193.5675 1365.0014,4 -4,4"/>
<!-- shovel -->
<g id="node1" class="node">
<title>shovel</title>
<ellipse fill="none" stroke="#000000" cx="33.797" cy="-258.7475" rx="33.5952" ry="18"/>
<text text-anchor="middle" x="33.797" y="-255.0475" font-family="Times,serif" font-size="14.00" fill="#000000">shovel</text>
</g>
<!-- Dead end -->
<g id="node2" class="node">
<title>Dead end</title>
<ellipse fill="none" stroke="#000000" cx="110.4948" cy="-274.5806" rx="44.393" ry="18"/>
<text text-anchor="middle" x="110.4948" y="-270.8806" font-family="Times,serif" font-size="14.00" fill="#000000">Dead end</text>
</g>
<!-- shovel&#45;&gt;Dead end -->
<g id="edge1" class="edge">
<title>shovel&#45;&gt;Dead end</title>
<path fill="none" stroke="#000000" d="M65.4357,-265.2789C65.5492,-265.3023 65.6628,-265.3257 65.7764,-265.3492"/>
<polygon fill="#000000" stroke="#000000" points="60.4266,-267.8185 70.9278,-266.4126 61.8419,-260.963 60.4266,-267.8185"/>
</g>
<!-- E/W Dirt road -->
<g id="node3" class="node">
<title>E/W Dirt road</title>
<ellipse fill="none" stroke="#000000" cx="180.0902" cy="-315.7838" rx="61.99" ry="18"/>
<text text-anchor="middle" x="180.0902" y="-312.0838" font-family="Times,serif" font-size="14.00" fill="#000000">E/W Dirt road</text>
</g>
<!-- Dead end&#45;&gt;E/W Dirt road -->
<g id="edge2" class="edge">
<title>Dead end&#45;&gt;E/W Dirt road</title>
<path fill="none" stroke="#000000" d="M135.6203,-289.4559C138.2606,-291.0191 140.9816,-292.63 143.7156,-294.2486"/>
<polygon fill="#000000" stroke="#000000" points="142.0211,-297.3128 152.4092,-299.3956 145.5873,-291.2893 142.0211,-297.3128"/>
</g>
<!-- Fork -->
<g id="node5" class="node">
<title>Fork</title>
<ellipse fill="none" stroke="#000000" cx="272.4232" cy="-325.5368" rx="27.0966" ry="18"/>
<text text-anchor="middle" x="272.4232" y="-321.8368" font-family="Times,serif" font-size="14.00" fill="#000000">Fork</text>
</g>
<!-- E/W Dirt road&#45;&gt;Fork -->
<g id="edge4" class="edge">
<title>E/W Dirt road&#45;&gt;Fork</title>
<path fill="none" stroke="#000000" d="M238.3041,-321.9328C238.4482,-321.9481 238.5921,-321.9633 238.7358,-321.9784"/>
<polygon fill="#000000" stroke="#000000" points="234.7515,-325.0769 245.0639,-322.6469 235.4869,-318.1156 234.7515,-325.0769"/>
</g>
<!-- boulder -->
<g id="node4" class="node">
<title>boulder</title>
<ellipse fill="none" stroke="#000000" cx="113.8192" cy="-366.1006" rx="37.8943" ry="18"/>
<text text-anchor="middle" x="113.8192" y="-362.4006" font-family="Times,serif" font-size="14.00" fill="#000000">boulder</text>
</g>
<!-- boulder&#45;&gt;E/W Dirt road -->
<g id="edge3" class="edge">
<title>boulder&#45;&gt;E/W Dirt road</title>
<path fill="none" stroke="#000000" d="M134.0628,-350.7305C138.9588,-347.0131 144.2998,-342.9579 149.5531,-338.9693"/>
<polygon fill="#000000" stroke="#000000" points="151.8116,-341.6491 157.6596,-332.8144 147.5786,-336.0739 151.8116,-341.6491"/>
</g>
<!-- SE/NW road -->
<g id="node7" class="node">
<title>SE/NW road</title>
<ellipse fill="none" stroke="#000000" cx="316.765" cy="-251.6551" rx="56.59" ry="18"/>
<text text-anchor="middle" x="316.765" y="-247.9551" font-family="Times,serif" font-size="14.00" fill="#000000">SE/NW road</text>
</g>
<!-- Fork&#45;&gt;SE/NW road -->
<g id="edge6" class="edge">
<title>Fork&#45;&gt;SE/NW road</title>
<path fill="none" stroke="#000000" d="M282.4851,-308.7719C287.9396,-299.6835 294.8048,-288.2449 300.9561,-277.9957"/>
<polygon fill="#000000" stroke="#000000" points="303.9796,-279.7593 306.1246,-269.3839 297.9776,-276.1571 303.9796,-279.7593"/>
</g>
<!-- NE/SW road -->
<g id="node13" class="node">
<title>NE/SW road</title>
<ellipse fill="none" stroke="#000000" cx="318.984" cy="-401.5458" rx="56.59" ry="18"/>
<text text-anchor="middle" x="318.984" y="-397.8458" font-family="Times,serif" font-size="14.00" fill="#000000">NE/SW road</text>
</g>
<!-- Fork&#45;&gt;NE/SW road -->
<g id="edge12" class="edge">
<title>Fork&#45;&gt;NE/SW road</title>
<path fill="none" stroke="#000000" d="M282.7566,-342.4057C288.6172,-351.9729 296.0829,-364.1604 302.7123,-374.9828"/>
<polygon fill="#000000" stroke="#000000" points="299.8226,-376.966 308.0308,-383.665 305.7917,-373.3095 299.8226,-376.966"/>
</g>
<!-- cpu -->
<g id="node6" class="node">
<title>cpu</title>
<ellipse fill="none" stroke="#000000" cx="228.1203" cy="-372.551" rx="27" ry="18"/>
<text text-anchor="middle" x="228.1203" y="-368.851" font-family="Times,serif" font-size="14.00" fill="#000000">cpu</text>
</g>
<!-- cpu&#45;&gt;Fork -->
<g id="edge5" class="edge">
<title>cpu&#45;&gt;Fork</title>
<path fill="none" stroke="#000000" d="M242.6267,-357.1568C245.2007,-354.4252 247.9317,-351.5271 250.655,-348.6371"/>
<polygon fill="#000000" stroke="#000000" points="253.4216,-350.8047 257.7325,-341.1265 248.3271,-346.004 253.4216,-350.8047"/>
</g>
<!-- Bear hangout -->
<g id="node9" class="node">
<title>Bear hangout</title>
<ellipse fill="none" stroke="#000000" cx="334.8483" cy="-168.7595" rx="57.6901" ry="18"/>
<text text-anchor="middle" x="334.8483" y="-165.0595" font-family="Times,serif" font-size="14.00" fill="#000000">Bear hangout</text>
</g>
<!-- SE/NW road&#45;&gt;Bear hangout -->
<g id="edge8" class="edge">
<title>SE/NW road&#45;&gt;Bear hangout</title>
<path fill="none" stroke="#000000" d="M320.6888,-233.668C323.0187,-222.9875 326.0247,-209.208 328.6672,-197.0944"/>
<polygon fill="#000000" stroke="#000000" points="332.1579,-197.514 330.8697,-186.9977 325.3187,-196.022 332.1579,-197.514"/>
</g>
<!-- food -->
<g id="node8" class="node">
<title>food</title>
<ellipse fill="none" stroke="#000000" cx="394.0881" cy="-246.3256" rx="27" ry="18"/>
<text text-anchor="middle" x="394.0881" y="-242.6256" font-family="Times,serif" font-size="14.00" fill="#000000">food</text>
</g>
<!-- food&#45;&gt;SE/NW road -->
<g id="edge7" class="edge">
<title>food&#45;&gt;SE/NW road</title>
<path fill="none" stroke="#000000" d="M367.0442,-248.1896C367.0007,-248.1926 366.9571,-248.1956 366.9135,-248.1986"/>
<polygon fill="#000000" stroke="#000000" points="376.5159,-244.0212 366.7827,-248.2076 377.0022,-251.0047 376.5159,-244.0212"/>
</g>
<!-- Hidden area -->
<g id="node11" class="node">
<title>Hidden area</title>
<ellipse fill="none" stroke="#000000" cx="308.2912" cy="-94.1438" rx="53.8905" ry="18"/>
<text text-anchor="middle" x="308.2912" y="-90.4438" font-family="Times,serif" font-size="14.00" fill="#000000">Hidden area</text>
</g>
<!-- Bear hangout&#45;&gt;Hidden area -->
<g id="edge10" class="edge">
<title>Bear hangout&#45;&gt;Hidden area</title>
<path fill="none" stroke="#000000" d="M328.4196,-150.6971C325.3206,-141.9902 321.5362,-131.3574 318.0887,-121.671"/>
<polygon fill="#000000" stroke="#000000" points="321.3113,-120.2873 314.6608,-112.0398 314.7166,-122.6345 321.3113,-120.2873"/>
</g>
<!-- key -->
<g id="node10" class="node">
<title>key</title>
<ellipse fill="none" stroke="#000000" cx="409.8696" cy="-129.6714" rx="27" ry="18"/>
<text text-anchor="middle" x="409.8696" y="-125.9714" font-family="Times,serif" font-size="14.00" fill="#000000">key</text>
</g>
<!-- key&#45;&gt;Bear hangout -->
<g id="edge9" class="edge">
<title>key&#45;&gt;Bear hangout</title>
<path fill="none" stroke="#000000" d="M388.5722,-140.7679C383.9154,-143.1943 378.8457,-145.8357 373.7418,-148.495"/>
<polygon fill="#000000" stroke="#000000" points="371.8509,-145.5335 364.5997,-153.2582 375.0855,-151.7414 371.8509,-145.5335"/>
</g>
<!-- bracelet -->
<g id="node12" class="node">
<title>bracelet</title>
<ellipse fill="none" stroke="#000000" cx="313.0045" cy="-18" rx="38.1938" ry="18"/>
<text text-anchor="middle" x="313.0045" y="-14.3" font-family="Times,serif" font-size="14.00" fill="#000000">bracelet</text>
</g>
<!-- bracelet&#45;&gt;Hidden area -->
<g id="edge11" class="edge">
<title>bracelet&#45;&gt;Hidden area</title>
<path fill="none" stroke="#000000" d="M311.8875,-36.045C311.3397,-44.8942 310.6671,-55.7614 310.0523,-65.6936"/>
<polygon fill="#000000" stroke="#000000" points="306.5411,-65.7672 309.4165,-75.9644 313.5277,-66.1998 306.5411,-65.7672"/>
</g>
<!-- Building front -->
<g id="node14" class="node">
<title>Building front</title>
<ellipse fill="none" stroke="#000000" cx="352.0138" cy="-474.4646" rx="61.1893" ry="18"/>
<text text-anchor="middle" x="352.0138" y="-470.7646" font-family="Times,serif" font-size="14.00" fill="#000000">Building front</text>
</g>
<!-- NE/SW road&#45;&gt;Building front -->
<g id="edge13" class="edge">
<title>NE/SW road&#45;&gt;Building front</title>
<path fill="none" stroke="#000000" d="M327.1486,-419.5707C330.9201,-427.8969 335.4801,-437.9636 339.6597,-447.1908"/>
<polygon fill="#000000" stroke="#000000" points="336.5142,-448.7294 343.8286,-456.3943 342.8906,-445.8411 336.5142,-448.7294"/>
</g>
<!-- Old Building hallway -->
<g id="node15" class="node">
<title>Old Building hallway</title>
<ellipse fill="none" stroke="#000000" cx="392.1299" cy="-541.154" rx="87.1846" ry="18"/>
<text text-anchor="middle" x="392.1299" y="-537.454" font-family="Times,serif" font-size="14.00" fill="#000000">Old Building hallway</text>
</g>
<!-- Building front&#45;&gt;Old Building hallway -->
<g id="edge14" class="edge">
<title>Building front&#45;&gt;Old Building hallway</title>
<path fill="none" stroke="#000000" d="M362.7642,-492.3361C366.8112,-499.0639 371.5078,-506.8716 375.942,-514.2432"/>
<polygon fill="#000000" stroke="#000000" points="373.196,-516.4682 381.3498,-523.2332 379.1944,-512.8599 373.196,-516.4682"/>
</g>
<!-- Computer room -->
<g id="node16" class="node">
<title>Computer room</title>
<ellipse fill="none" stroke="#000000" cx="453.0459" cy="-593.8592" rx="67.6881" ry="18"/>
<text text-anchor="middle" x="453.0459" y="-590.1592" font-family="Times,serif" font-size="14.00" fill="#000000">Computer room</text>
</g>
<!-- Old Building hallway&#45;&gt;Computer room -->
<g id="edge15" class="edge">
<title>Old Building hallway&#45;&gt;Computer room</title>
<path fill="none" stroke="#000000" d="M412.414,-558.7041C416.5673,-562.2975 421.0057,-566.1376 425.3674,-569.9115"/>
<polygon fill="#000000" stroke="#000000" points="423.2051,-572.6688 433.0576,-576.565 427.7853,-567.3752 423.2051,-572.6688"/>
</g>
<!-- Pockey -->
<g id="node18" class="node">
<title>Pockey</title>
<ellipse fill="none" stroke="#000000" cx="454.2442" cy="-674.4531" rx="36.2938" ry="18"/>
<text text-anchor="middle" x="454.2442" y="-670.7531" font-family="Times,serif" font-size="14.00" fill="#000000">Pockey</text>
</g>
<!-- Computer room&#45;&gt;Pockey -->
<g id="edge17" class="edge">
<title>Computer room&#45;&gt;Pockey</title>
<path fill="none" stroke="#000000" d="M453.3179,-612.1472C453.4665,-622.1425 453.6538,-634.7438 453.8211,-645.9941"/>
<polygon fill="#000000" stroke="#000000" points="450.325,-646.2906 453.9734,-656.2375 457.3243,-646.1865 450.325,-646.2906"/>
</g>
<!-- paper -->
<g id="node17" class="node">
<title>paper</title>
<ellipse fill="none" stroke="#000000" cx="528.0844" cy="-556.2353" rx="30.5947" ry="18"/>
<text text-anchor="middle" x="528.0844" y="-552.5353" font-family="Times,serif" font-size="14.00" fill="#000000">paper</text>
</g>
<!-- paper&#45;&gt;Computer room -->
<g id="edge16" class="edge">
<title>paper&#45;&gt;Computer room</title>
<path fill="none" stroke="#000000" d="M504.7531,-567.9335C501.318,-569.6558 497.6968,-571.4714 494.0311,-573.3094"/>
<polygon fill="#000000" stroke="#000000" points="492.2786,-570.2727 484.9081,-577.8836 495.4161,-576.5302 492.2786,-570.2727"/>
</g>
<!-- Receiving room -->
<g id="node19" class="node">
<title>Receiving room</title>
<ellipse fill="none" stroke="#000000" cx="481.484" cy="-746.9195" rx="67.6881" ry="18"/>
<text text-anchor="middle" x="481.484" y="-743.2195" font-family="Times,serif" font-size="14.00" fill="#000000">Receiving room</text>
</g>
<!-- Pockey&#45;&gt;Receiving room -->
<g id="edge18" class="edge">
<title>Pockey&#45;&gt;Receiving room</title>
<path fill="none" stroke="#000000" d="M460.9777,-692.3661C464.0553,-700.5535 467.7695,-710.4345 471.1866,-719.525"/>
<polygon fill="#000000" stroke="#000000" points="467.9388,-720.8323 474.7336,-728.9613 474.4912,-718.3693 467.9388,-720.8323"/>
</g>
<!-- Northbound Hallway -->
<g id="node20" class="node">
<title>Northbound Hallway</title>
<ellipse fill="none" stroke="#000000" cx="536.5952" cy="-805.7342" rx="85.2851" ry="18"/>
<text text-anchor="middle" x="536.5952" y="-802.0342" font-family="Times,serif" font-size="14.00" fill="#000000">Northbound Hallway</text>
</g>
<!-- Receiving room&#45;&gt;Northbound Hallway -->
<g id="edge19" class="edge">
<title>Receiving room&#45;&gt;Northbound Hallway</title>
<path fill="none" stroke="#000000" d="M498.0192,-764.5658C502.6205,-769.4763 507.7126,-774.9107 512.6476,-780.1774"/>
<polygon fill="#000000" stroke="#000000" points="510.2986,-782.7892 519.6902,-787.6932 515.4065,-778.0029 510.2986,-782.7892"/>
</g>
<!-- Sauna -->
<g id="node21" class="node">
<title>Sauna</title>
<ellipse fill="none" stroke="#000000" cx="615.087" cy="-775.8554" rx="32.4942" ry="18"/>
<text text-anchor="middle" x="615.087" y="-772.1554" font-family="Times,serif" font-size="14.00" fill="#000000">Sauna</text>
</g>
<!-- Northbound Hallway&#45;&gt;Sauna -->
<g id="edge20" class="edge">
<title>Northbound Hallway&#45;&gt;Sauna</title>
<path fill="none" stroke="#000000" d="M578.1395,-789.9199C578.2452,-789.8796 578.3509,-789.8394 578.4566,-789.7992"/>
<polygon fill="#000000" stroke="#000000" points="580.0186,-792.9497 588.1192,-786.121 577.5283,-786.4076 580.0186,-792.9497"/>
</g>
<!-- End of N/S Hallway -->
<g id="node22" class="node">
<title>End of N/S Hallway</title>
<ellipse fill="none" stroke="#000000" cx="527.1948" cy="-885.5304" rx="83.3857" ry="18"/>
<text text-anchor="middle" x="527.1948" y="-881.8304" font-family="Times,serif" font-size="14.00" fill="#000000">End of N/S Hallway</text>
</g>
<!-- Northbound Hallway&#45;&gt;End of N/S Hallway -->
<g id="edge21" class="edge">
<title>Northbound Hallway&#45;&gt;End of N/S Hallway</title>
<path fill="none" stroke="#000000" d="M534.4621,-823.8412C533.2962,-833.7376 531.8264,-846.2142 530.5142,-857.3531"/>
<polygon fill="#000000" stroke="#000000" points="527.0135,-857.1542 529.3195,-867.4951 533.9655,-857.9732 527.0135,-857.1542"/>
</g>
<!-- Weight room -->
<g id="node23" class="node">
<title>Weight room</title>
<ellipse fill="none" stroke="#000000" cx="538.9442" cy="-962.2425" rx="58.4896" ry="18"/>
<text text-anchor="middle" x="538.9442" y="-958.5425" font-family="Times,serif" font-size="14.00" fill="#000000">Weight room</text>
</g>
<!-- End of N/S Hallway&#45;&gt;Weight room -->
<g id="edge22" class="edge">
<title>End of N/S Hallway&#45;&gt;Weight room</title>
<path fill="none" stroke="#000000" d="M529.9792,-903.7101C531.3693,-912.786 533.0821,-923.9688 534.6368,-934.1199"/>
<polygon fill="#000000" stroke="#000000" points="531.206,-934.8385 536.1797,-944.1933 538.1253,-933.7787 531.206,-934.8385"/>
</g>
<!-- Maze button room -->
<g id="node24" class="node">
<title>Maze button room</title>
<ellipse fill="none" stroke="#000000" cx="553.7392" cy="-1041.7945" rx="77.1866" ry="18"/>
<text text-anchor="middle" x="553.7392" y="-1038.0945" font-family="Times,serif" font-size="14.00" fill="#000000">Maze button room</text>
</g>
<!-- Weight room&#45;&gt;Maze button room -->
<g id="edge23" class="edge">
<title>Weight room&#45;&gt;Maze button room</title>
<path fill="none" stroke="#000000" d="M542.3014,-980.2941C544.1233,-990.0907 546.417,-1002.4235 548.4712,-1013.4687"/>
<polygon fill="#000000" stroke="#000000" points="545.0745,-1014.3476 550.344,-1023.539 551.9565,-1013.0676 545.0745,-1014.3476"/>
</g>
<!-- Maze -->
<g id="node26" class="node">
<title>Maze</title>
<ellipse fill="none" stroke="#000000" cx="624.1903" cy="-1092.3451" rx="30.5947" ry="18"/>
<text text-anchor="middle" x="624.1903" y="-1088.6451" font-family="Times,serif" font-size="14.00" fill="#000000">Maze</text>
</g>
<!-- Maze button room&#45;&gt;Maze -->
<g id="edge25" class="edge">
<title>Maze button room&#45;&gt;Maze</title>
<path fill="none" stroke="#000000" d="M577.9844,-1059.1912C584.0046,-1063.5108 590.5002,-1068.1715 596.6649,-1072.5949"/>
<polygon fill="#000000" stroke="#000000" points="594.6253,-1075.4392 604.7906,-1078.4253 598.7062,-1069.7518 594.6253,-1075.4392"/>
</g>
<!-- button -->
<g id="node25" class="node">
<title>button</title>
<ellipse fill="none" stroke="#000000" cx="474.3063" cy="-1067.4515" rx="33.2948" ry="18"/>
<text text-anchor="middle" x="474.3063" y="-1063.7515" font-family="Times,serif" font-size="14.00" fill="#000000">button</text>
</g>
<!-- button&#45;&gt;Maze button room -->
<g id="edge24" class="edge">
<title>button&#45;&gt;Maze button room</title>
<path fill="none" stroke="#000000" d="M502.9834,-1058.1887C503.0945,-1058.1528 503.2057,-1058.1169 503.317,-1058.081"/>
<polygon fill="#000000" stroke="#000000" points="499.9562,-1062.8447 508.3963,-1056.4403 497.8046,-1056.1836 499.9562,-1062.8447"/>
</g>
<!-- Reception area -->
<g id="node29" class="node">
<title>Reception area</title>
<ellipse fill="none" stroke="#000000" cx="619.7099" cy="-1174.622" rx="63.8893" ry="18"/>
<text text-anchor="middle" x="619.7099" y="-1170.922" font-family="Times,serif" font-size="14.00" fill="#000000">Reception area</text>
</g>
<!-- Maze&#45;&gt;Reception area -->
<g id="edge28" class="edge">
<title>Maze&#45;&gt;Reception area</title>
<path fill="none" stroke="#000000" d="M623.1959,-1110.605C622.6275,-1121.0441 621.9021,-1134.365 621.2604,-1146.1494"/>
<polygon fill="#000000" stroke="#000000" points="617.7505,-1146.2376 620.7015,-1156.4132 624.7401,-1146.6183 617.7505,-1146.2376"/>
</g>
<!-- statuette -->
<g id="node27" class="node">
<title>statuette</title>
<ellipse fill="none" stroke="#000000" cx="706.2968" cy="-1088.6966" rx="40.0939" ry="18"/>
<text text-anchor="middle" x="706.2968" y="-1084.9966" font-family="Times,serif" font-size="14.00" fill="#000000">statuette</text>
</g>
<!-- statuette&#45;&gt;Maze -->
<g id="edge26" class="edge">
<title>statuette&#45;&gt;Maze</title>
<path fill="none" stroke="#000000" d="M665.7246,-1090.4994C665.3761,-1090.5149 665.0276,-1090.5304 664.6792,-1090.5459"/>
<polygon fill="#000000" stroke="#000000" points="664.5146,-1087.0497 654.6798,-1090.9902 664.8254,-1094.0428 664.5146,-1087.0497"/>
</g>
<!-- floppy -->
<g id="node28" class="node">
<title>floppy</title>
<ellipse fill="none" stroke="#000000" cx="688.335" cy="-1043.0002" rx="33.5952" ry="18"/>
<text text-anchor="middle" x="688.335" y="-1039.3002" font-family="Times,serif" font-size="14.00" fill="#000000">floppy</text>
</g>
<!-- floppy&#45;&gt;Maze -->
<g id="edge27" class="edge">
<title>floppy&#45;&gt;Maze</title>
<path fill="none" stroke="#000000" d="M669.0895,-1057.8053C663.4064,-1062.1771 657.0801,-1067.0438 651.0116,-1071.7121"/>
<polygon fill="#000000" stroke="#000000" points="648.7728,-1069.0185 642.9808,-1077.89 653.041,-1074.5668 648.7728,-1069.0185"/>
</g>
<!-- Health Club front -->
<g id="node30" class="node">
<title>Health Club front</title>
<ellipse fill="none" stroke="#000000" cx="631.8887" cy="-1250.6346" rx="73.387" ry="18"/>
<text text-anchor="middle" x="631.8887" y="-1246.9346" font-family="Times,serif" font-size="14.00" fill="#000000">Health Club front</text>
</g>
<!-- Reception area&#45;&gt;Health Club front -->
<g id="edge29" class="edge">
<title>Reception area&#45;&gt;Health Club front</title>
<path fill="none" stroke="#000000" d="M622.5961,-1192.636C624.0265,-1201.5639 625.7866,-1212.5494 627.3889,-1222.5496"/>
<polygon fill="#000000" stroke="#000000" points="623.943,-1223.1662 628.981,-1232.4866 630.8548,-1222.0588 623.943,-1223.1662"/>
</g>
<!-- Lakefront North -->
<g id="node31" class="node">
<title>Lakefront North</title>
<ellipse fill="none" stroke="#000000" cx="655.0727" cy="-1322.6178" rx="68.4888" ry="18"/>
<text text-anchor="middle" x="655.0727" y="-1318.9178" font-family="Times,serif" font-size="14.00" fill="#000000">Lakefront North</text>
</g>
<!-- Health Club front&#45;&gt;Lakefront North -->
<g id="edge30" class="edge">
<title>Health Club front&#45;&gt;Lakefront North</title>
<path fill="none" stroke="#000000" d="M637.739,-1268.799C640.2458,-1276.5822 643.2318,-1285.8534 646.0133,-1294.4896"/>
<polygon fill="#000000" stroke="#000000" points="642.7464,-1295.7633 649.1436,-1304.2088 649.4094,-1293.6173 642.7464,-1295.7633"/>
</g>
<!-- Lakefront South -->
<g id="node32" class="node">
<title>Lakefront South</title>
<ellipse fill="none" stroke="#000000" cx="678.2573" cy="-1395.3713" rx="68.4888" ry="18"/>
<text text-anchor="middle" x="678.2573" y="-1391.6713" font-family="Times,serif" font-size="14.00" fill="#000000">Lakefront South</text>
</g>
<!-- Lakefront North&#45;&gt;Lakefront South -->
<g id="edge31" class="edge">
<title>Lakefront North&#45;&gt;Lakefront South</title>
<path fill="none" stroke="#000000" d="M660.8038,-1340.6018C663.3953,-1348.7342 666.5173,-1358.5309 669.4,-1367.5767"/>
<polygon fill="#000000" stroke="#000000" points="666.1408,-1368.8768 672.5119,-1377.342 672.8103,-1366.7514 666.1408,-1368.8768"/>
</g>
<!-- Cave Entrance -->
<g id="node33" class="node">
<title>Cave Entrance</title>
<ellipse fill="none" stroke="#000000" cx="687.9843" cy="-1475.41" rx="62.2891" ry="18"/>
<text text-anchor="middle" x="687.9843" y="-1471.71" font-family="Times,serif" font-size="14.00" fill="#000000">Cave Entrance</text>
</g>
<!-- Lakefront South&#45;&gt;Cave Entrance -->
<g id="edge32" class="edge">
<title>Lakefront South&#45;&gt;Cave Entrance</title>
<path fill="none" stroke="#000000" d="M680.4645,-1413.5333C681.6709,-1423.4598 683.1917,-1435.9743 684.5495,-1447.1471"/>
<polygon fill="#000000" stroke="#000000" points="681.1049,-1447.8152 685.7858,-1457.3199 688.0538,-1446.9706 681.1049,-1447.8152"/>
</g>
<!-- Misty Room -->
<g id="node35" class="node">
<title>Misty Room</title>
<ellipse fill="none" stroke="#000000" cx="752.5495" cy="-1530.1804" rx="55.7903" ry="18"/>
<text text-anchor="middle" x="752.5495" y="-1526.4804" font-family="Times,serif" font-size="14.00" fill="#000000">Misty Room</text>
</g>
<!-- Cave Entrance&#45;&gt;Misty Room -->
<g id="edge34" class="edge">
<title>Cave Entrance&#45;&gt;Misty Room</title>
<path fill="none" stroke="#000000" d="M708.4131,-1492.7397C713.5761,-1497.1195 719.2089,-1501.8977 724.6703,-1506.5306"/>
<polygon fill="#000000" stroke="#000000" points="722.5846,-1509.351 732.4746,-1513.1509 727.1129,-1504.0129 722.5846,-1509.351"/>
</g>
<!-- chute -->
<g id="node34" class="node">
<title>chute</title>
<ellipse fill="none" stroke="#000000" cx="608.5316" cy="-1500.1018" rx="29.795" ry="18"/>
<text text-anchor="middle" x="608.5316" y="-1496.4018" font-family="Times,serif" font-size="14.00" fill="#000000">chute</text>
</g>
<!-- chute&#45;&gt;Cave Entrance -->
<g id="edge33" class="edge">
<title>chute&#45;&gt;Cave Entrance</title>
<path fill="none" stroke="#000000" d="M635.4306,-1491.7423C635.5319,-1491.7108 635.6333,-1491.6793 635.7349,-1491.6477"/>
<polygon fill="#000000" stroke="#000000" points="636.9269,-1494.9425 645.4377,-1488.6324 634.8495,-1488.2578 636.9269,-1494.9425"/>
</g>
<!-- Cave E/W passage -->
<g id="node37" class="node">
<title>Cave E/W passage</title>
<ellipse fill="none" stroke="#000000" cx="775.425" cy="-1610.0094" rx="77.1866" ry="18"/>
<text text-anchor="middle" x="775.425" y="-1606.3094" font-family="Times,serif" font-size="14.00" fill="#000000">Cave E/W passage</text>
</g>
<!-- Misty Room&#45;&gt;Cave E/W passage -->
<g id="edge36" class="edge">
<title>Misty Room&#45;&gt;Cave E/W passage</title>
<path fill="none" stroke="#000000" d="M757.7403,-1548.2949C760.6066,-1558.2974 764.2279,-1570.9347 767.4459,-1582.1648"/>
<polygon fill="#000000" stroke="#000000" points="764.1354,-1583.3178 770.2547,-1591.9667 770.8646,-1581.3894 764.1354,-1583.3178"/>
</g>
<!-- gold bar -->
<g id="node36" class="node">
<title>gold bar</title>
<ellipse fill="none" stroke="#000000" cx="821.9312" cy="-1488.701" rx="40.0939" ry="18"/>
<text text-anchor="middle" x="821.9312" y="-1485.001" font-family="Times,serif" font-size="14.00" fill="#000000">gold bar</text>
</g>
<!-- gold bar&#45;&gt;Misty Room -->
<g id="edge35" class="edge">
<title>gold bar&#45;&gt;Misty Room</title>
<path fill="none" stroke="#000000" d="M797.6649,-1503.2085C794.5094,-1505.095 791.227,-1507.0573 787.9363,-1509.0247"/>
<polygon fill="#000000" stroke="#000000" points="786.0746,-1506.0598 779.2875,-1514.1953 789.6665,-1512.068 786.0746,-1506.0598"/>
</g>
<!-- N/S/W Junction -->
<g id="node38" class="node">
<title>N/S/W Junction</title>
<ellipse fill="none" stroke="#000000" cx="803.7082" cy="-1690.4568" rx="67.6881" ry="18"/>
<text text-anchor="middle" x="803.7082" y="-1686.7568" font-family="Times,serif" font-size="14.00" fill="#000000">N/S/W Junction</text>
</g>
<!-- Cave E/W passage&#45;&gt;N/S/W Junction -->
<g id="edge37" class="edge">
<title>Cave E/W passage&#45;&gt;N/S/W Junction</title>
<path fill="none" stroke="#000000" d="M781.8429,-1628.2642C785.4229,-1638.4471 789.9556,-1651.3395 793.9646,-1662.7425"/>
<polygon fill="#000000" stroke="#000000" points="790.697,-1664.0012 797.3157,-1672.2743 797.3008,-1661.6795 790.697,-1664.0012"/>
</g>
<!-- North end of cave passage -->
<g id="node39" class="node">
<title>North end of cave passage</title>
<ellipse fill="none" stroke="#000000" cx="892.929" cy="-1697.9804" rx="104.7816" ry="18"/>
<text text-anchor="middle" x="892.929" y="-1694.2804" font-family="Times,serif" font-size="14.00" fill="#000000">North end of cave passage</text>
</g>
<!-- N/S/W Junction&#45;&gt;North end of cave passage -->
<g id="edge38" class="edge">
<title>N/S/W Junction&#45;&gt;North end of cave passage</title>
<path fill="none" stroke="#000000" d="M868.549,-1695.9246C868.6031,-1695.9291 868.6571,-1695.9337 868.7111,-1695.9382"/>
<polygon fill="#000000" stroke="#000000" points="858.612,-1698.5936 868.8728,-1695.9519 859.2042,-1691.6183 858.612,-1698.5936"/>
</g>
<!-- Bedroom -->
<g id="node40" class="node">
<title>Bedroom</title>
<ellipse fill="none" stroke="#000000" cx="982.1628" cy="-1712.8783" rx="44.393" ry="18"/>
<text text-anchor="middle" x="982.1628" y="-1709.1783" font-family="Times,serif" font-size="14.00" fill="#000000">Bedroom</text>
</g>
<!-- North end of cave passage&#45;&gt;Bedroom -->
<g id="edge39" class="edge">
<title>North end of cave passage&#45;&gt;Bedroom</title>
<path fill="none" stroke="#000000" d="M968.2201,-1710.5505C968.2854,-1710.5614 968.3506,-1710.5723 968.4156,-1710.5832"/>
<polygon fill="#000000" stroke="#000000" points="958.1687,-1712.4169 968.6101,-1710.6156 959.3244,-1705.5124 958.1687,-1712.4169"/>
</g>
<!-- NE end of NE/SW cave passage -->
<g id="node42" class="node">
<title>NE end of NE/SW cave passage</title>
<ellipse fill="none" stroke="#000000" cx="1052.7862" cy="-1770.8505" rx="126.1777" ry="18"/>
<text text-anchor="middle" x="1052.7862" y="-1767.1505" font-family="Times,serif" font-size="14.00" fill="#000000">NE end of NE/SW cave passage</text>
</g>
<!-- Bedroom&#45;&gt;NE end of NE/SW cave passage -->
<g id="edge41" class="edge">
<title>Bedroom&#45;&gt;NE end of NE/SW cave passage</title>
<path fill="none" stroke="#000000" d="M1001.8354,-1729.0268C1008.3478,-1734.3726 1015.7496,-1740.4485 1022.8539,-1746.2801"/>
<polygon fill="#000000" stroke="#000000" points="1021.0359,-1749.316 1030.986,-1752.9555 1025.4772,-1743.9054 1021.0359,-1749.316"/>
</g>
<!-- painting -->
<g id="node41" class="node">
<title>painting</title>
<ellipse fill="none" stroke="#000000" cx="971.4454" cy="-1764.9828" rx="39.7935" ry="18"/>
<text text-anchor="middle" x="971.4454" y="-1761.2828" font-family="Times,serif" font-size="14.00" fill="#000000">painting</text>
</g>
<!-- painting&#45;&gt;Bedroom -->
<g id="edge40" class="edge">
<title>painting&#45;&gt;Bedroom</title>
<path fill="none" stroke="#000000" d="M975.1337,-1747.0514C975.55,-1745.0276 975.9812,-1742.9311 976.4159,-1740.818"/>
<polygon fill="#000000" stroke="#000000" points="979.8447,-1741.5198 978.4313,-1731.0196 972.9883,-1740.1094 979.8447,-1741.5198"/>
</g>
<!-- NE/SW&#45;E/W junction -->
<g id="node43" class="node">
<title>NE/SW&#45;E/W junction</title>
<ellipse fill="none" stroke="#000000" cx="1104.2323" cy="-1841.6166" rx="89.0842" ry="18"/>
<text text-anchor="middle" x="1104.2323" y="-1837.9166" font-family="Times,serif" font-size="14.00" fill="#000000">NE/SW&#45;E/W junction</text>
</g>
<!-- NE end of NE/SW cave passage&#45;&gt;NE/SW&#45;E/W junction -->
<g id="edge42" class="edge">
<title>NE end of NE/SW cave passage&#45;&gt;NE/SW&#45;E/W junction</title>
<path fill="none" stroke="#000000" d="M1066.0349,-1789.0746C1071.9008,-1797.1434 1078.9087,-1806.7831 1085.311,-1815.5896"/>
<polygon fill="#000000" stroke="#000000" points="1082.4954,-1817.6689 1091.2066,-1823.6993 1088.1574,-1813.5528 1082.4954,-1817.6689"/>
</g>
<!-- East end of E/W cave passage -->
<g id="node44" class="node">
<title>East end of E/W cave passage</title>
<ellipse fill="none" stroke="#000000" cx="1185.1266" cy="-1817.0808" rx="118.0794" ry="18"/>
<text text-anchor="middle" x="1185.1266" y="-1813.3808" font-family="Times,serif" font-size="14.00" fill="#000000">East end of E/W cave passage</text>
</g>
<!-- NE/SW&#45;E/W junction&#45;&gt;East end of E/W cave passage -->
<g id="edge43" class="edge">
<title>NE/SW&#45;E/W junction&#45;&gt;East end of E/W cave passage</title>
<path fill="none" stroke="#000000" d="M1153.6191,-1826.6372C1153.6849,-1826.6173 1153.7507,-1826.5973 1153.8164,-1826.5774"/>
<polygon fill="#000000" stroke="#000000" points="1145.4608,-1832.773 1154.0134,-1826.5176 1143.4267,-1826.0742 1145.4608,-1832.773"/>
</g>
<!-- West end of E/W cave passage -->
<g id="node46" class="node">
<title>West end of E/W cave passage</title>
<ellipse fill="none" stroke="#000000" cx="1097.8653" cy="-1928.7642" rx="121.5784" ry="18"/>
<text text-anchor="middle" x="1097.8653" y="-1925.0642" font-family="Times,serif" font-size="14.00" fill="#000000">West end of E/W cave passage</text>
</g>
<!-- NE/SW&#45;E/W junction&#45;&gt;West end of E/W cave passage -->
<g id="edge45" class="edge">
<title>NE/SW&#45;E/W junction&#45;&gt;West end of E/W cave passage</title>
<path fill="none" stroke="#000000" d="M1102.9131,-1859.6736C1102.0508,-1871.4754 1100.9069,-1887.133 1099.926,-1900.5583"/>
<polygon fill="#000000" stroke="#000000" points="1096.4209,-1900.5018 1099.1828,-1910.7303 1103.4023,-1901.0119 1096.4209,-1900.5018"/>
</g>
<!-- Horseshoe boulder room -->
<g id="node45" class="node">
<title>Horseshoe boulder room</title>
<ellipse fill="none" stroke="#000000" cx="1262.2101" cy="-1801.5773" rx="98.5829" ry="18"/>
<text text-anchor="middle" x="1262.2101" y="-1797.8773" font-family="Times,serif" font-size="14.00" fill="#000000">Horseshoe boulder room</text>
</g>
<!-- East end of E/W cave passage&#45;&gt;Horseshoe boulder room -->
<g id="edge44" class="edge">
<title>East end of E/W cave passage&#45;&gt;Horseshoe boulder room</title>
<path fill="none" stroke="#000000" d="M1256.6665,-1802.6923C1256.7207,-1802.6814 1256.7745,-1802.6705 1256.8281,-1802.6598"/>
<polygon fill="#000000" stroke="#000000" points="1247.8756,-1808.0357 1256.9876,-1802.6277 1246.4919,-1801.1731 1247.8756,-1808.0357"/>
</g>
<!-- Empty room -->
<g id="node47" class="node">
<title>Empty room</title>
<ellipse fill="none" stroke="#000000" cx="1083.5235" cy="-2013.4015" rx="55.7903" ry="18"/>
<text text-anchor="middle" x="1083.5235" y="-2009.7015" font-family="Times,serif" font-size="14.00" fill="#000000">Empty room</text>
</g>
<!-- West end of E/W cave passage&#45;&gt;Empty room -->
<g id="edge46" class="edge">
<title>West end of E/W cave passage&#45;&gt;Empty room</title>
<path fill="none" stroke="#000000" d="M1094.7533,-1947.1292C1092.8611,-1958.2962 1090.4066,-1972.7812 1088.2751,-1985.3599"/>
<polygon fill="#000000" stroke="#000000" points="1084.8001,-1984.9188 1086.5801,-1995.363 1091.7017,-1986.0883 1084.8001,-1984.9188"/>
</g>
<!-- Blue room -->
<g id="node48" class="node">
<title>Blue room</title>
<ellipse fill="none" stroke="#000000" cx="1153.0502" cy="-2058.4726" rx="48.9926" ry="18"/>
<text text-anchor="middle" x="1153.0502" y="-2054.7726" font-family="Times,serif" font-size="14.00" fill="#000000">Blue room</text>
</g>
<!-- Empty room&#45;&gt;Blue room -->
<g id="edge47" class="edge">
<title>Empty room&#45;&gt;Blue room</title>
<path fill="none" stroke="#000000" d="M1108.6242,-2029.6732C1112.4021,-2032.1222 1116.3453,-2034.6784 1120.2552,-2037.213"/>
<polygon fill="#000000" stroke="#000000" points="1118.3893,-2040.1745 1128.6843,-2042.6772 1122.197,-2034.3007 1118.3893,-2040.1745"/>
</g>
<!-- Red room -->
<g id="node49" class="node">
<title>Red room</title>
<ellipse fill="none" stroke="#000000" cx="1034.522" cy="-2087.9897" rx="46.2923" ry="18"/>
<text text-anchor="middle" x="1034.522" y="-2084.2897" font-family="Times,serif" font-size="14.00" fill="#000000">Red room</text>
</g>
<!-- Empty room&#45;&gt;Red room -->
<g id="edge48" class="edge">
<title>Empty room&#45;&gt;Red room</title>
<path fill="none" stroke="#000000" d="M1071.9109,-2031.0778C1065.8693,-2040.274 1058.3663,-2051.6949 1051.6706,-2061.8868"/>
<polygon fill="#000000" stroke="#000000" points="1048.6169,-2060.1607 1046.0513,-2070.4402 1054.4673,-2064.0042 1048.6169,-2060.1607"/>
</g>
<!-- Yellow room -->
<g id="node50" class="node">
<title>Yellow room</title>
<ellipse fill="none" stroke="#000000" cx="1109.4786" cy="-2124.1276" rx="57.6901" ry="18"/>
<text text-anchor="middle" x="1109.4786" y="-2120.4276" font-family="Times,serif" font-size="14.00" fill="#000000">Yellow room</text>
</g>
<!-- Blue room&#45;&gt;Yellow room -->
<g id="edge49" class="edge">
<title>Blue room&#45;&gt;Yellow room</title>
<path fill="none" stroke="#000000" d="M1141.3738,-2076.0669C1136.8805,-2082.8376 1131.65,-2090.7191 1126.7402,-2098.1173"/>
<polygon fill="#000000" stroke="#000000" points="1123.8006,-2096.2172 1121.1872,-2106.4847 1129.6331,-2100.0879 1123.8006,-2096.2172"/>
</g>
<!-- Long n/s hallway -->
<g id="node52" class="node">
<title>Long n/s hallway</title>
<ellipse fill="none" stroke="#000000" cx="950.2121" cy="-2103.7058" rx="72.2875" ry="18"/>
<text text-anchor="middle" x="950.2121" y="-2100.0058" font-family="Times,serif" font-size="14.00" fill="#000000">Long n/s hallway</text>
</g>
<!-- Red room&#45;&gt;Long n/s hallway -->
<g id="edge52" class="edge">
<title>Red room&#45;&gt;Long n/s hallway</title>
<path fill="none" stroke="#000000" d="M992.8611,-2095.7557C992.7781,-2095.7712 992.6951,-2095.7866 992.6121,-2095.8021"/>
<polygon fill="#000000" stroke="#000000" points="1001.5514,-2090.572 992.3632,-2095.8485 1002.8365,-2097.4535 1001.5514,-2090.572"/>
</g>
<!-- Yellow room&#45;&gt;Red room -->
<g id="edge50" class="edge">
<title>Yellow room&#45;&gt;Red room</title>
<path fill="none" stroke="#000000" d="M1077.6903,-2108.8019C1076.0992,-2108.0348 1074.4941,-2107.261 1072.8869,-2106.4861"/>
<polygon fill="#000000" stroke="#000000" points="1074.2681,-2103.2665 1063.7403,-2102.0764 1071.2281,-2109.5719 1074.2681,-2103.2665"/>
</g>
<!-- towel -->
<g id="node51" class="node">
<title>towel</title>
<ellipse fill="none" stroke="#000000" cx="1041.0212" cy="-2171.5675" rx="30.5947" ry="18"/>
<text text-anchor="middle" x="1041.0212" y="-2167.8675" font-family="Times,serif" font-size="14.00" fill="#000000">towel</text>
</g>
<!-- towel&#45;&gt;Red room -->
<g id="edge51" class="edge">
<title>towel&#45;&gt;Red room</title>
<path fill="none" stroke="#000000" d="M1039.611,-2153.4324C1038.7678,-2142.5897 1037.6783,-2128.5793 1036.7239,-2116.3053"/>
<polygon fill="#000000" stroke="#000000" points="1040.1943,-2115.788 1035.9295,-2106.0894 1033.2154,-2116.3307 1040.1943,-2115.788"/>
</g>
<!-- 3/4 north -->
<g id="node53" class="node">
<title>3/4 north</title>
<ellipse fill="none" stroke="#000000" cx="867.3722" cy="-2096.3391" rx="42.7926" ry="18"/>
<text text-anchor="middle" x="867.3722" y="-2092.6391" font-family="Times,serif" font-size="14.00" fill="#000000">3/4 north</text>
</g>
<!-- Long n/s hallway&#45;&gt;3/4 north -->
<g id="edge53" class="edge">
<title>Long n/s hallway&#45;&gt;3/4 north</title>
<path fill="none" stroke="#000000" d="M882.1823,-2097.6561C882.1136,-2097.65 882.0451,-2097.6439 881.9768,-2097.6379"/>
<polygon fill="#000000" stroke="#000000" points="892.0445,-2095.0236 881.7723,-2097.6197 891.4214,-2101.9961 892.0445,-2095.0236"/>
</g>
<!-- North end of long hallway -->
<g id="node54" class="node">
<title>North end of long hallway</title>
<ellipse fill="none" stroke="#000000" cx="793.4675" cy="-2057.9599" rx="104.7816" ry="18"/>
<text text-anchor="middle" x="793.4675" y="-2054.2599" font-family="Times,serif" font-size="14.00" fill="#000000">North end of long hallway</text>
</g>
<!-- 3/4 north&#45;&gt;North end of long hallway -->
<g id="edge54" class="edge">
<title>3/4 north&#45;&gt;North end of long hallway</title>
<path fill="none" stroke="#000000" d="M840.2725,-2082.266C838.7431,-2081.4718 837.1894,-2080.665 835.6229,-2079.8515"/>
<polygon fill="#000000" stroke="#000000" points="837.0807,-2076.6647 826.5929,-2075.1621 833.8545,-2082.877 837.0807,-2076.6647"/>
</g>
<!-- Stair landing -->
<g id="node55" class="node">
<title>Stair landing</title>
<ellipse fill="none" stroke="#000000" cx="727.9384" cy="-2002.9331" rx="55.7903" ry="18"/>
<text text-anchor="middle" x="727.9384" y="-1999.2331" font-family="Times,serif" font-size="14.00" fill="#000000">Stair landing</text>
</g>
<!-- North end of long hallway&#45;&gt;Stair landing -->
<g id="edge55" class="edge">
<title>North end of long hallway&#45;&gt;Stair landing</title>
<path fill="none" stroke="#000000" d="M772.3729,-2040.2462C767.1443,-2035.8555 761.4595,-2031.0818 755.9571,-2026.4613"/>
<polygon fill="#000000" stroke="#000000" points="758.0093,-2023.6142 748.1004,-2019.8638 753.5078,-2028.9749 758.0093,-2023.6142"/>
</g>
<!-- Top of staircase -->
<g id="node57" class="node">
<title>Top of staircase</title>
<ellipse fill="none" stroke="#000000" cx="709.357" cy="-1920.6812" rx="67.6881" ry="18"/>
<text text-anchor="middle" x="709.357" y="-1916.9812" font-family="Times,serif" font-size="14.00" fill="#000000">Top of staircase</text>
</g>
<!-- Stair landing&#45;&gt;Top of staircase -->
<g id="edge57" class="edge">
<title>Stair landing&#45;&gt;Top of staircase</title>
<path fill="none" stroke="#000000" d="M723.8146,-1984.6787C721.433,-1974.1364 718.3871,-1960.6539 715.7058,-1948.785"/>
<polygon fill="#000000" stroke="#000000" points="719.0869,-1947.8675 713.4693,-1938.8846 712.2589,-1949.41 719.0869,-1947.8675"/>
</g>
<!-- box -->
<g id="node56" class="node">
<title>box</title>
<ellipse fill="none" stroke="#000000" cx="660.0114" cy="-2050.1502" rx="27" ry="18"/>
<text text-anchor="middle" x="660.0114" y="-2046.4502" font-family="Times,serif" font-size="14.00" fill="#000000">box</text>
</g>
<!-- box&#45;&gt;Stair landing -->
<g id="edge56" class="edge">
<title>box&#45;&gt;Stair landing</title>
<path fill="none" stroke="#000000" d="M678.9329,-2036.9976C684.2079,-2033.3309 690.0896,-2029.2424 695.8961,-2025.2062"/>
<polygon fill="#000000" stroke="#000000" points="698.0568,-2027.9668 704.2702,-2019.3852 694.0614,-2022.219 698.0568,-2027.9668"/>
</g>
<!-- NE crawlway -->
<g id="node58" class="node">
<title>NE crawlway</title>
<ellipse fill="none" stroke="#000000" cx="720.0681" cy="-1839.2945" rx="59.2899" ry="18"/>
<text text-anchor="middle" x="720.0681" y="-1835.5945" font-family="Times,serif" font-size="14.00" fill="#000000">NE crawlway</text>
</g>
<!-- Top of staircase&#45;&gt;NE crawlway -->
<g id="edge58" class="edge">
<title>Top of staircase&#45;&gt;NE crawlway</title>
<path fill="none" stroke="#000000" d="M711.7341,-1902.6189C713.0931,-1892.2928 714.8273,-1879.1159 716.3614,-1867.459"/>
<polygon fill="#000000" stroke="#000000" points="719.8627,-1867.6776 717.6976,-1857.3063 712.9226,-1866.7641 719.8627,-1867.6776"/>
</g>
<!-- Small crawlspace -->
<g id="node59" class="node">
<title>Small crawlspace</title>
<ellipse fill="none" stroke="#000000" cx="742.7353" cy="-1757.3819" rx="73.387" ry="18"/>
<text text-anchor="middle" x="742.7353" y="-1753.6819" font-family="Times,serif" font-size="14.00" fill="#000000">Small crawlspace</text>
</g>
<!-- NE crawlway&#45;&gt;Small crawlspace -->
<g id="edge59" class="edge">
<title>NE crawlway&#45;&gt;Small crawlspace</title>
<path fill="none" stroke="#000000" d="M725.0987,-1821.1154C728.0039,-1810.6165 731.7195,-1797.1897 734.9904,-1785.3698"/>
<polygon fill="#000000" stroke="#000000" points="738.4249,-1786.0814 737.7187,-1775.5102 731.6784,-1784.2145 738.4249,-1786.0814"/>
</g>
<!-- Small crawlspace&#45;&gt;N/S/W Junction -->
<g id="edge61" class="edge">
<title>Small crawlspace&#45;&gt;N/S/W Junction</title>
<path fill="none" stroke="#000000" d="M758.7552,-1739.7982C765.4238,-1732.4786 773.2946,-1723.8394 780.5714,-1715.8523"/>
<polygon fill="#000000" stroke="#000000" points="783.4361,-1717.9049 787.5836,-1708.1555 778.2616,-1713.1906 783.4361,-1717.9049"/>
</g>
<!-- axe -->
<g id="node60" class="node">
<title>axe</title>
<ellipse fill="none" stroke="#000000" cx="661.8453" cy="-1758.3163" rx="27" ry="18"/>
<text text-anchor="middle" x="661.8453" y="-1754.6163" font-family="Times,serif" font-size="14.00" fill="#000000">axe</text>
</g>
<!-- axe&#45;&gt;Small crawlspace -->
<g id="edge60" class="edge">
<title>axe&#45;&gt;Small crawlspace</title>
<path fill="none" stroke="#000000" d="M689.2309,-1757.9999C689.2768,-1757.9994 689.3226,-1757.9989 689.3685,-1757.9984"/>
<polygon fill="#000000" stroke="#000000" points="679.5498,-1761.6192 689.5062,-1757.9968 679.464,-1754.6197 679.5498,-1761.6192"/>
</g>
</g>
</svg>
