<?xml version="1.0" encoding="UTF-8" standalone="no"?>
<!DOCTYPE svg PUBLIC "-//W3C//DTD SVG 1.1//EN"
 "http://www.w3.org/Graphics/SVG/1.1/DTD/svg11.dtd">
<!-- Generated by graphviz version 2.40.1 (20161225.0304)
 -->
<!-- Title: %3 Pages: 1 -->
<svg width="1183pt" height="2780pt"
 viewBox="0.00 0.00 1182.64 2780.00" xmlns="http://www.w3.org/2000/svg" xmlns:xlink="http://www.w3.org/1999/xlink">
<g id="graph0" class="graph" transform="scale(1 1) rotate(0) translate(4 2776)">
<title>%3</title>
<polygon fill="#ffffff" stroke="transparent" points="-4,4 -4,-2776 1178.6361,-2776 1178.6361,4 -4,4"/>
<!-- shovel -->
<g id="node1" class="node">
<title>shovel</title>
<ellipse fill="none" stroke="#000000" cx="204.3466" cy="-2754" rx="33.5952" ry="18"/>
<text text-anchor="middle" x="204.3466" y="-2750.3" font-family="Times,serif" font-size="14.00" fill="#000000">shovel</text>
</g>
<!-- Dead end -->
<g id="node2" class="node">
<title>Dead end</title>
<ellipse fill="none" stroke="#000000" cx="204.3466" cy="-2682" rx="44.393" ry="18"/>
<text text-anchor="middle" x="204.3466" y="-2678.3" font-family="Times,serif" font-size="14.00" fill="#000000">Dead end</text>
</g>
<!-- shovel&#45;&gt;Dead end -->
<g id="edge1" class="edge">
<title>shovel&#45;&gt;Dead end</title>
<path fill="none" stroke="#000000" stroke-dasharray="1,5" d="M204.3466,-2735.8314C204.3466,-2725 204.3466,-2711.2876 204.3466,-2700.4133"/>
</g>
<!-- E/W Dirt road -->
<g id="node3" class="node">
<title>E/W Dirt road</title>
<ellipse fill="none" stroke="#000000" cx="254.3466" cy="-2610" rx="61.99" ry="18"/>
<text text-anchor="middle" x="254.3466" y="-2606.3" font-family="Times,serif" font-size="14.00" fill="#000000">E/W Dirt road</text>
</g>
<!-- Dead end&#45;&gt;E/W Dirt road -->
<g id="edge2" class="edge">
<title>Dead end&#45;&gt;E/W Dirt road</title>
<path fill="none" stroke="#000000" d="M216.4502,-2664.5708C224.1958,-2653.4171 234.2159,-2638.9882 242.0071,-2627.7689"/>
</g>
<!-- Fork -->
<g id="node5" class="node">
<title>Fork</title>
<ellipse fill="none" stroke="#000000" cx="307.3466" cy="-2538" rx="27.0966" ry="18"/>
<text text-anchor="middle" x="307.3466" y="-2534.3" font-family="Times,serif" font-size="14.00" fill="#000000">Fork</text>
</g>
<!-- E/W Dirt road&#45;&gt;Fork -->
<g id="edge4" class="edge">
<title>E/W Dirt road&#45;&gt;Fork</title>
<path fill="none" stroke="#000000" d="M267.4477,-2592.2022C275.9082,-2580.7088 286.8414,-2565.8561 295.1229,-2554.6058"/>
</g>
<!-- boulder -->
<g id="node4" class="node">
<title>boulder</title>
<ellipse fill="none" stroke="#000000" cx="304.3466" cy="-2682" rx="37.8943" ry="18"/>
<text text-anchor="middle" x="304.3466" y="-2678.3" font-family="Times,serif" font-size="14.00" fill="#000000">boulder</text>
</g>
<!-- boulder&#45;&gt;E/W Dirt road -->
<g id="edge3" class="edge">
<title>boulder&#45;&gt;E/W Dirt road</title>
<path fill="none" stroke="#000000" d="M292.243,-2664.5708C284.4974,-2653.4171 274.4773,-2638.9882 266.6861,-2627.7689"/>
</g>
<!-- SE/NW road -->
<g id="node7" class="node">
<title>SE/NW road</title>
<ellipse fill="none" stroke="#000000" cx="206.3466" cy="-2466" rx="56.59" ry="18"/>
<text text-anchor="middle" x="206.3466" y="-2462.3" font-family="Times,serif" font-size="14.00" fill="#000000">SE/NW road</text>
</g>
<!-- Fork&#45;&gt;SE/NW road -->
<g id="edge6" class="edge">
<title>Fork&#45;&gt;SE/NW road</title>
<path fill="none" stroke="#000000" d="M288.3493,-2524.4574C271.6635,-2512.5625 247.338,-2495.2216 229.5141,-2482.5154"/>
</g>
<!-- NE/SW road -->
<g id="node13" class="node">
<title>NE/SW road</title>
<ellipse fill="none" stroke="#000000" cx="337.3466" cy="-2466" rx="56.59" ry="18"/>
<text text-anchor="middle" x="337.3466" y="-2462.3" font-family="Times,serif" font-size="14.00" fill="#000000">NE/SW road</text>
</g>
<!-- Fork&#45;&gt;NE/SW road -->
<g id="edge12" class="edge">
<title>Fork&#45;&gt;NE/SW road</title>
<path fill="none" stroke="#000000" d="M314.6088,-2520.5708C319.2215,-2509.5003 325.1785,-2495.2034 329.838,-2484.0206"/>
</g>
<!-- cpu -->
<g id="node6" class="node">
<title>cpu</title>
<ellipse fill="none" stroke="#000000" cx="361.3466" cy="-2610" rx="27" ry="18"/>
<text text-anchor="middle" x="361.3466" y="-2606.3" font-family="Times,serif" font-size="14.00" fill="#000000">cpu</text>
</g>
<!-- cpu&#45;&gt;Fork -->
<g id="edge5" class="edge">
<title>cpu&#45;&gt;Fork</title>
<path fill="none" stroke="#000000" stroke-dasharray="1,5" d="M349.0932,-2593.6621C340.2557,-2581.8788 328.3778,-2566.0416 319.5515,-2554.2733"/>
</g>
<!-- Bear hangout -->
<g id="node9" class="node">
<title>Bear hangout</title>
<ellipse fill="none" stroke="#000000" cx="152.3466" cy="-2394" rx="57.6901" ry="18"/>
<text text-anchor="middle" x="152.3466" y="-2390.3" font-family="Times,serif" font-size="14.00" fill="#000000">Bear hangout</text>
</g>
<!-- SE/NW road&#45;&gt;Bear hangout -->
<g id="edge8" class="edge">
<title>SE/NW road&#45;&gt;Bear hangout</title>
<path fill="none" stroke="#000000" d="M192.9983,-2448.2022C184.628,-2437.0419 173.8823,-2422.7143 165.5414,-2411.593"/>
</g>
<!-- food -->
<g id="node8" class="node">
<title>food</title>
<ellipse fill="none" stroke="#000000" cx="206.3466" cy="-2538" rx="27" ry="18"/>
<text text-anchor="middle" x="206.3466" y="-2534.3" font-family="Times,serif" font-size="14.00" fill="#000000">food</text>
</g>
<!-- food&#45;&gt;SE/NW road -->
<g id="edge7" class="edge">
<title>food&#45;&gt;SE/NW road</title>
<path fill="none" stroke="#000000" stroke-dasharray="1,5" d="M206.3466,-2519.8314C206.3466,-2509 206.3466,-2495.2876 206.3466,-2484.4133"/>
</g>
<!-- Hidden area -->
<g id="node11" class="node">
<title>Hidden area</title>
<ellipse fill="none" stroke="#000000" cx="69.3466" cy="-2322" rx="53.8905" ry="18"/>
<text text-anchor="middle" x="69.3466" y="-2318.3" font-family="Times,serif" font-size="14.00" fill="#000000">Hidden area</text>
</g>
<!-- Bear hangout&#45;&gt;Hidden area -->
<g id="edge10" class="edge">
<title>Bear hangout&#45;&gt;Hidden area</title>
<path fill="none" stroke="#000000" d="M132.6768,-2376.937C119.4459,-2365.4596 102.0765,-2350.3922 88.8752,-2338.9405"/>
</g>
<!-- key -->
<g id="node10" class="node">
<title>key</title>
<ellipse fill="none" stroke="#000000" cx="104.3466" cy="-2466" rx="27" ry="18"/>
<text text-anchor="middle" x="104.3466" y="-2462.3" font-family="Times,serif" font-size="14.00" fill="#000000">key</text>
</g>
<!-- key&#45;&gt;Bear hangout -->
<g id="edge9" class="edge">
<title>key&#45;&gt;Bear hangout</title>
<path fill="none" stroke="#000000" stroke-dasharray="1,5" d="M115.4794,-2449.3008C122.957,-2438.0844 132.8005,-2423.3191 140.4352,-2411.8671"/>
</g>
<!-- bracelet -->
<g id="node12" class="node">
<title>bracelet</title>
<ellipse fill="none" stroke="#000000" cx="38.3466" cy="-2394" rx="38.1938" ry="18"/>
<text text-anchor="middle" x="38.3466" y="-2390.3" font-family="Times,serif" font-size="14.00" fill="#000000">bracelet</text>
</g>
<!-- bracelet&#45;&gt;Hidden area -->
<g id="edge11" class="edge">
<title>bracelet&#45;&gt;Hidden area</title>
<path fill="none" stroke="#000000" stroke-dasharray="1,5" d="M46.0095,-2376.2022C50.7788,-2365.1252 56.8915,-2350.928 61.6644,-2339.8425"/>
</g>
<!-- Building front -->
<g id="node14" class="node">
<title>Building front</title>
<ellipse fill="none" stroke="#000000" cx="337.3466" cy="-2394" rx="61.1893" ry="18"/>
<text text-anchor="middle" x="337.3466" y="-2390.3" font-family="Times,serif" font-size="14.00" fill="#000000">Building front</text>
</g>
<!-- NE/SW road&#45;&gt;Building front -->
<g id="edge13" class="edge">
<title>NE/SW road&#45;&gt;Building front</title>
<path fill="none" stroke="#000000" d="M337.3466,-2447.8314C337.3466,-2437 337.3466,-2423.2876 337.3466,-2412.4133"/>
</g>
<!-- Old Building hallway -->
<g id="node15" class="node">
<title>Old Building hallway</title>
<ellipse fill="none" stroke="#000000" cx="337.3466" cy="-2322" rx="87.1846" ry="18"/>
<text text-anchor="middle" x="337.3466" y="-2318.3" font-family="Times,serif" font-size="14.00" fill="#000000">Old Building hallway</text>
</g>
<!-- Building front&#45;&gt;Old Building hallway -->
<g id="edge14" class="edge">
<title>Building front&#45;&gt;Old Building hallway</title>
<path fill="none" stroke="#000000" d="M337.3466,-2375.8314C337.3466,-2365 337.3466,-2351.2876 337.3466,-2340.4133"/>
</g>
<!-- Computer room -->
<g id="node16" class="node">
<title>Computer room</title>
<ellipse fill="none" stroke="#000000" cx="269.3466" cy="-2250" rx="67.6881" ry="18"/>
<text text-anchor="middle" x="269.3466" y="-2246.3" font-family="Times,serif" font-size="14.00" fill="#000000">Computer room</text>
</g>
<!-- Old Building hallway&#45;&gt;Computer room -->
<g id="edge15" class="edge">
<title>Old Building hallway&#45;&gt;Computer room</title>
<path fill="none" stroke="#000000" d="M320.5376,-2304.2022C309.9973,-2293.0419 296.4657,-2278.7143 285.9622,-2267.593"/>
</g>
<!-- Pockey -->
<g id="node18" class="node">
<title>Pockey</title>
<ellipse fill="none" stroke="#000000" cx="269.3466" cy="-2178" rx="36.2938" ry="18"/>
<text text-anchor="middle" x="269.3466" y="-2174.3" font-family="Times,serif" font-size="14.00" fill="#000000">Pockey</text>
</g>
<!-- Computer room&#45;&gt;Pockey -->
<g id="edge17" class="edge">
<title>Computer room&#45;&gt;Pockey</title>
<path fill="none" stroke="#000000" d="M269.3466,-2231.8314C269.3466,-2221 269.3466,-2207.2876 269.3466,-2196.4133"/>
</g>
<!-- paper -->
<g id="node17" class="node">
<title>paper</title>
<ellipse fill="none" stroke="#000000" cx="201.3466" cy="-2322" rx="30.5947" ry="18"/>
<text text-anchor="middle" x="201.3466" y="-2318.3" font-family="Times,serif" font-size="14.00" fill="#000000">paper</text>
</g>
<!-- paper&#45;&gt;Computer room -->
<g id="edge16" class="edge">
<title>paper&#45;&gt;Computer room</title>
<path fill="none" stroke="#000000" stroke-dasharray="1,5" d="M216.438,-2306.0209C227.159,-2294.6692 241.5578,-2279.4235 252.6276,-2267.7025"/>
</g>
<!-- Receiving room -->
<g id="node19" class="node">
<title>Receiving room</title>
<ellipse fill="none" stroke="#000000" cx="269.3466" cy="-2106" rx="67.6881" ry="18"/>
<text text-anchor="middle" x="269.3466" y="-2102.3" font-family="Times,serif" font-size="14.00" fill="#000000">Receiving room</text>
</g>
<!-- Pockey&#45;&gt;Receiving room -->
<g id="edge18" class="edge">
<title>Pockey&#45;&gt;Receiving room</title>
<path fill="none" stroke="#000000" d="M269.3466,-2159.8314C269.3466,-2149 269.3466,-2135.2876 269.3466,-2124.4133"/>
</g>
<!-- Northbound Hallway -->
<g id="node20" class="node">
<title>Northbound Hallway</title>
<ellipse fill="none" stroke="#000000" cx="269.3466" cy="-2034" rx="85.2851" ry="18"/>
<text text-anchor="middle" x="269.3466" y="-2030.3" font-family="Times,serif" font-size="14.00" fill="#000000">Northbound Hallway</text>
</g>
<!-- Receiving room&#45;&gt;Northbound Hallway -->
<g id="edge19" class="edge">
<title>Receiving room&#45;&gt;Northbound Hallway</title>
<path fill="none" stroke="#000000" d="M269.3466,-2087.8314C269.3466,-2077 269.3466,-2063.2876 269.3466,-2052.4133"/>
</g>
<!-- Sauna -->
<g id="node21" class="node">
<title>Sauna</title>
<ellipse fill="none" stroke="#000000" cx="202.3466" cy="-1962" rx="32.4942" ry="18"/>
<text text-anchor="middle" x="202.3466" y="-1958.3" font-family="Times,serif" font-size="14.00" fill="#000000">Sauna</text>
</g>
<!-- Northbound Hallway&#45;&gt;Sauna -->
<g id="edge20" class="edge">
<title>Northbound Hallway&#45;&gt;Sauna</title>
<path fill="none" stroke="#000000" d="M252.7848,-2016.2022C241.9345,-2004.5422 227.867,-1989.4249 217.3462,-1978.119"/>
</g>
<!-- End of N/S Hallway -->
<g id="node22" class="node">
<title>End of N/S Hallway</title>
<ellipse fill="none" stroke="#000000" cx="336.3466" cy="-1962" rx="83.3857" ry="18"/>
<text text-anchor="middle" x="336.3466" y="-1958.3" font-family="Times,serif" font-size="14.00" fill="#000000">End of N/S Hallway</text>
</g>
<!-- Northbound Hallway&#45;&gt;End of N/S Hallway -->
<g id="edge21" class="edge">
<title>Northbound Hallway&#45;&gt;End of N/S Hallway</title>
<path fill="none" stroke="#000000" d="M285.9084,-2016.2022C296.2162,-2005.1252 309.4275,-1990.928 319.7431,-1979.8425"/>
</g>
<!-- Weight room -->
<g id="node23" class="node">
<title>Weight room</title>
<ellipse fill="none" stroke="#000000" cx="336.3466" cy="-1890" rx="58.4896" ry="18"/>
<text text-anchor="middle" x="336.3466" y="-1886.3" font-family="Times,serif" font-size="14.00" fill="#000000">Weight room</text>
</g>
<!-- End of N/S Hallway&#45;&gt;Weight room -->
<g id="edge22" class="edge">
<title>End of N/S Hallway&#45;&gt;Weight room</title>
<path fill="none" stroke="#000000" d="M336.3466,-1943.8314C336.3466,-1933 336.3466,-1919.2876 336.3466,-1908.4133"/>
</g>
<!-- Maze button room -->
<g id="node24" class="node">
<title>Maze button room</title>
<ellipse fill="none" stroke="#000000" cx="391.3466" cy="-1818" rx="77.1866" ry="18"/>
<text text-anchor="middle" x="391.3466" y="-1814.3" font-family="Times,serif" font-size="14.00" fill="#000000">Maze button room</text>
</g>
<!-- Weight room&#45;&gt;Maze button room -->
<g id="edge23" class="edge">
<title>Weight room&#45;&gt;Maze button room</title>
<path fill="none" stroke="#000000" d="M349.9421,-1872.2022C358.4038,-1861.1252 369.2488,-1846.928 377.7169,-1835.8425"/>
</g>
<!-- Maze -->
<g id="node26" class="node">
<title>Maze</title>
<ellipse fill="none" stroke="#000000" cx="527.3466" cy="-1746" rx="30.5947" ry="18"/>
<text text-anchor="middle" x="527.3466" y="-1742.3" font-family="Times,serif" font-size="14.00" fill="#000000">Maze</text>
</g>
<!-- Maze button room&#45;&gt;Maze -->
<g id="edge25" class="edge">
<title>Maze button room&#45;&gt;Maze</title>
<path fill="none" stroke="#000000" d="M422.5477,-1801.4817C447.4858,-1788.2792 481.8731,-1770.0742 504.3518,-1758.1737"/>
</g>
<!-- button -->
<g id="node25" class="node">
<title>button</title>
<ellipse fill="none" stroke="#000000" cx="446.3466" cy="-1890" rx="33.2948" ry="18"/>
<text text-anchor="middle" x="446.3466" y="-1886.3" font-family="Times,serif" font-size="14.00" fill="#000000">button</text>
</g>
<!-- button&#45;&gt;Maze button room -->
<g id="edge24" class="edge">
<title>button&#45;&gt;Maze button room</title>
<path fill="none" stroke="#000000" stroke-dasharray="1,5" d="M433.5902,-1873.3008C425.0222,-1862.0844 413.7432,-1847.3191 404.9951,-1835.8671"/>
</g>
<!-- Maze&#45;&gt;Maze -->
<g id="edge28" class="edge">
<title>Maze&#45;&gt;Maze</title>
<path fill="none" stroke="#000000" d="M549.3146,-1758.5475C562.9333,-1761.5731 575.8939,-1757.3906 575.8939,-1746 575.8939,-1734.6094 562.9333,-1730.4269 549.3146,-1733.4525"/>
<text text-anchor="middle" x="592.8146" y="-1762.3475" font-family="Times,serif" font-size="14.00" fill="#000000">lot of directions</text>
</g>
<!-- Reception area -->
<g id="node29" class="node">
<title>Reception area</title>
<ellipse fill="none" stroke="#000000" cx="527.3466" cy="-1674" rx="63.8893" ry="18"/>
<text text-anchor="middle" x="527.3466" y="-1670.3" font-family="Times,serif" font-size="14.00" fill="#000000">Reception area</text>
</g>
<!-- Maze&#45;&gt;Reception area -->
<g id="edge29" class="edge">
<title>Maze&#45;&gt;Reception area</title>
<path fill="none" stroke="#000000" d="M527.3466,-1727.8314C527.3466,-1717 527.3466,-1703.2876 527.3466,-1692.4133"/>
</g>
<!-- statuette -->
<g id="node27" class="node">
<title>statuette</title>
<ellipse fill="none" stroke="#000000" cx="527.3466" cy="-1818" rx="40.0939" ry="18"/>
<text text-anchor="middle" x="527.3466" y="-1814.3" font-family="Times,serif" font-size="14.00" fill="#000000">statuette</text>
</g>
<!-- statuette&#45;&gt;Maze -->
<g id="edge26" class="edge">
<title>statuette&#45;&gt;Maze</title>
<path fill="none" stroke="#000000" stroke-dasharray="1,5" d="M527.3466,-1799.8314C527.3466,-1789 527.3466,-1775.2876 527.3466,-1764.4133"/>
</g>
<!-- floppy -->
<g id="node28" class="node">
<title>floppy</title>
<ellipse fill="none" stroke="#000000" cx="619.3466" cy="-1818" rx="33.5952" ry="18"/>
<text text-anchor="middle" x="619.3466" y="-1814.3" font-family="Times,serif" font-size="14.00" fill="#000000">floppy</text>
</g>
<!-- floppy&#45;&gt;Maze -->
<g id="edge27" class="edge">
<title>floppy&#45;&gt;Maze</title>
<path fill="none" stroke="#000000" stroke-dasharray="1,5" d="M600.2841,-1803.0816C584.2841,-1790.5598 561.5708,-1772.7842 545.7568,-1760.408"/>
</g>
<!-- Health Club front -->
<g id="node30" class="node">
<title>Health Club front</title>
<ellipse fill="none" stroke="#000000" cx="527.3466" cy="-1602" rx="73.387" ry="18"/>
<text text-anchor="middle" x="527.3466" y="-1598.3" font-family="Times,serif" font-size="14.00" fill="#000000">Health Club front</text>
</g>
<!-- Reception area&#45;&gt;Health Club front -->
<g id="edge30" class="edge">
<title>Reception area&#45;&gt;Health Club front</title>
<path fill="none" stroke="#000000" d="M527.3466,-1655.8314C527.3466,-1645 527.3466,-1631.2876 527.3466,-1620.4133"/>
</g>
<!-- Lakefront North -->
<g id="node31" class="node">
<title>Lakefront North</title>
<ellipse fill="none" stroke="#000000" cx="527.3466" cy="-1530" rx="68.4888" ry="18"/>
<text text-anchor="middle" x="527.3466" y="-1526.3" font-family="Times,serif" font-size="14.00" fill="#000000">Lakefront North</text>
</g>
<!-- Health Club front&#45;&gt;Lakefront North -->
<g id="edge31" class="edge">
<title>Health Club front&#45;&gt;Lakefront North</title>
<path fill="none" stroke="#000000" d="M527.3466,-1583.8314C527.3466,-1573 527.3466,-1559.2876 527.3466,-1548.4133"/>
</g>
<!-- Lakefront South -->
<g id="node32" class="node">
<title>Lakefront South</title>
<ellipse fill="none" stroke="#000000" cx="527.3466" cy="-1458" rx="68.4888" ry="18"/>
<text text-anchor="middle" x="527.3466" y="-1454.3" font-family="Times,serif" font-size="14.00" fill="#000000">Lakefront South</text>
</g>
<!-- Lakefront North&#45;&gt;Lakefront South -->
<g id="edge32" class="edge">
<title>Lakefront North&#45;&gt;Lakefront South</title>
<path fill="none" stroke="#000000" d="M527.3466,-1511.8314C527.3466,-1501 527.3466,-1487.2876 527.3466,-1476.4133"/>
</g>
<!-- Cave Entrance -->
<g id="node33" class="node">
<title>Cave Entrance</title>
<ellipse fill="none" stroke="#000000" cx="585.3466" cy="-1386" rx="62.2891" ry="18"/>
<text text-anchor="middle" x="585.3466" y="-1382.3" font-family="Times,serif" font-size="14.00" fill="#000000">Cave Entrance</text>
</g>
<!-- Lakefront South&#45;&gt;Cave Entrance -->
<g id="edge33" class="edge">
<title>Lakefront South&#45;&gt;Cave Entrance</title>
<path fill="none" stroke="#000000" d="M541.6837,-1440.2022C550.674,-1429.0419 562.2156,-1414.7143 571.1744,-1403.593"/>
<text text-anchor="middle" x="538.6837" y="-1429.0022" font-family="Times,serif" font-size="14.00" fill="#000000">s</text>
</g>
<!-- Misty Room -->
<g id="node35" class="node">
<title>Misty Room</title>
<ellipse fill="none" stroke="#000000" cx="645.3466" cy="-1314" rx="55.7903" ry="18"/>
<text text-anchor="middle" x="645.3466" y="-1310.3" font-family="Times,serif" font-size="14.00" fill="#000000">Misty Room</text>
</g>
<!-- Cave Entrance&#45;&gt;Misty Room -->
<g id="edge35" class="edge">
<title>Cave Entrance&#45;&gt;Misty Room</title>
<path fill="none" stroke="#000000" d="M600.1781,-1368.2022C609.4784,-1357.0419 621.418,-1342.7143 630.6857,-1331.593"/>
<text text-anchor="middle" x="597.1781" y="-1357.0022" font-family="Times,serif" font-size="14.00" fill="#000000">s</text>
</g>
<!-- chute -->
<g id="node34" class="node">
<title>chute</title>
<ellipse fill="none" stroke="#000000" cx="643.3466" cy="-1458" rx="29.795" ry="18"/>
<text text-anchor="middle" x="643.3466" y="-1454.3" font-family="Times,serif" font-size="14.00" fill="#000000">chute</text>
</g>
<!-- chute&#45;&gt;Cave Entrance -->
<g id="edge34" class="edge">
<title>chute&#45;&gt;Cave Entrance</title>
<path fill="none" stroke="#000000" stroke-dasharray="1,5" d="M630.1855,-1441.6621C621.0945,-1430.3767 609.008,-1415.3727 599.6744,-1403.7862"/>
</g>
<!-- Cave E/W passage -->
<g id="node37" class="node">
<title>Cave E/W passage</title>
<ellipse fill="none" stroke="#000000" cx="645.3466" cy="-1242" rx="77.1866" ry="18"/>
<text text-anchor="middle" x="645.3466" y="-1238.3" font-family="Times,serif" font-size="14.00" fill="#000000">Cave E/W passage</text>
</g>
<!-- Misty Room&#45;&gt;Cave E/W passage -->
<g id="edge37" class="edge">
<title>Misty Room&#45;&gt;Cave E/W passage</title>
<path fill="none" stroke="#000000" d="M645.3466,-1295.8314C645.3466,-1285 645.3466,-1271.2876 645.3466,-1260.4133"/>
<text text-anchor="middle" x="641.8466" y="-1284.6314" font-family="Times,serif" font-size="14.00" fill="#000000">e</text>
</g>
<!-- gold bar -->
<g id="node36" class="node">
<title>gold bar</title>
<ellipse fill="none" stroke="#000000" cx="706.3466" cy="-1386" rx="40.0939" ry="18"/>
<text text-anchor="middle" x="706.3466" y="-1382.3" font-family="Times,serif" font-size="14.00" fill="#000000">gold bar</text>
</g>
<!-- gold bar&#45;&gt;Misty Room -->
<g id="edge36" class="edge">
<title>gold bar&#45;&gt;Misty Room</title>
<path fill="none" stroke="#000000" stroke-dasharray="1,5" d="M691.8904,-1368.937C682.3075,-1357.626 669.7705,-1342.8282 660.1227,-1331.4407"/>
</g>
<!-- N/S/W Junction -->
<g id="node38" class="node">
<title>N/S/W Junction</title>
<ellipse fill="none" stroke="#000000" cx="645.3466" cy="-1170" rx="67.6881" ry="18"/>
<text text-anchor="middle" x="645.3466" y="-1166.3" font-family="Times,serif" font-size="14.00" fill="#000000">N/S/W Junction</text>
</g>
<!-- Cave E/W passage&#45;&gt;N/S/W Junction -->
<g id="edge38" class="edge">
<title>Cave E/W passage&#45;&gt;N/S/W Junction</title>
<path fill="none" stroke="#000000" d="M645.3466,-1223.8314C645.3466,-1213 645.3466,-1199.2876 645.3466,-1188.4133"/>
<text text-anchor="middle" x="641.8466" y="-1212.6314" font-family="Times,serif" font-size="14.00" fill="#000000">e</text>
</g>
<!-- North end of cave passage -->
<g id="node39" class="node">
<title>North end of cave passage</title>
<ellipse fill="none" stroke="#000000" cx="969.3466" cy="-1098" rx="104.7816" ry="18"/>
<text text-anchor="middle" x="969.3466" y="-1094.3" font-family="Times,serif" font-size="14.00" fill="#000000">North end of cave passage</text>
</g>
<!-- N/S/W Junction&#45;&gt;North end of cave passage -->
<g id="edge39" class="edge">
<title>N/S/W Junction&#45;&gt;North end of cave passage</title>
<path fill="none" stroke="#000000" d="M697.4028,-1158.432C753.9293,-1145.8705 844.2699,-1125.7948 905.1531,-1112.2652"/>
<text text-anchor="middle" x="693.9028" y="-1147.232" font-family="Times,serif" font-size="14.00" fill="#000000">n</text>
</g>
<!-- South end of cave passage -->
<g id="node40" class="node">
<title>South end of cave passage</title>
<ellipse fill="none" stroke="#000000" cx="645.3466" cy="-1098" rx="104.7816" ry="18"/>
<text text-anchor="middle" x="645.3466" y="-1094.3" font-family="Times,serif" font-size="14.00" fill="#000000">South end of cave passage</text>
</g>
<!-- N/S/W Junction&#45;&gt;South end of cave passage -->
<g id="edge40" class="edge">
<title>N/S/W Junction&#45;&gt;South end of cave passage</title>
<path fill="none" stroke="#000000" d="M645.3466,-1151.8314C645.3466,-1141 645.3466,-1127.2876 645.3466,-1116.4133"/>
<text text-anchor="middle" x="642.3466" y="-1140.6314" font-family="Times,serif" font-size="14.00" fill="#000000">s</text>
</g>
<!-- Bedroom -->
<g id="node42" class="node">
<title>Bedroom</title>
<ellipse fill="none" stroke="#000000" cx="814.3466" cy="-1026" rx="44.393" ry="18"/>
<text text-anchor="middle" x="814.3466" y="-1022.3" font-family="Times,serif" font-size="14.00" fill="#000000">Bedroom</text>
</g>
<!-- North end of cave passage&#45;&gt;Bedroom -->
<g id="edge42" class="edge">
<title>North end of cave passage&#45;&gt;Bedroom</title>
<path fill="none" stroke="#000000" d="M933.006,-1081.1192C905.8043,-1068.4836 869.0726,-1051.4211 843.7173,-1039.6432"/>
<text text-anchor="middle" x="929.506" y="-1069.9192" font-family="Times,serif" font-size="14.00" fill="#000000">d</text>
</g>
<!-- ??? -->
<g id="node43" class="node">
<title>???</title>
<ellipse fill="none" stroke="#000000" cx="969.3466" cy="-1026" rx="27" ry="18"/>
<text text-anchor="middle" x="969.3466" y="-1022.3" font-family="Times,serif" font-size="14.00" fill="#000000">???</text>
</g>
<!-- North end of cave passage&#45;&gt;??? -->
<g id="edge43" class="edge">
<title>North end of cave passage&#45;&gt;???</title>
<path fill="none" stroke="#000000" d="M969.3466,-1079.8314C969.3466,-1069 969.3466,-1055.2876 969.3466,-1044.4133"/>
<text text-anchor="middle" x="964.3466" y="-1068.6314" font-family="Times,serif" font-size="14.00" fill="#000000">w</text>
</g>
<!-- Bathroom -->
<g id="node41" class="node">
<title>Bathroom</title>
<ellipse fill="none" stroke="#000000" cx="638.3466" cy="-954" rx="46.2923" ry="18"/>
<text text-anchor="middle" x="638.3466" y="-950.3" font-family="Times,serif" font-size="14.00" fill="#000000">Bathroom</text>
</g>
<!-- South end of cave passage&#45;&gt;Bathroom -->
<g id="edge41" class="edge">
<title>South end of cave passage&#45;&gt;Bathroom</title>
<path fill="none" stroke="#000000" d="M644.46,-1079.7623C643.1136,-1052.0633 640.5681,-999.7005 639.226,-972.0896"/>
<text text-anchor="middle" x="640.96" y="-1068.5623" font-family="Times,serif" font-size="14.00" fill="#000000">d</text>
</g>
<!-- Bedroom&#45;&gt;Bathroom -->
<g id="edge46" class="edge">
<title>Bedroom&#45;&gt;Bathroom</title>
<path fill="none" stroke="#000000" d="M782.8813,-1013.1278C751.1426,-1000.1438 702.3889,-980.1991 670.431,-967.1255"/>
<text text-anchor="middle" x="779.8813" y="-1001.9278" font-family="Times,serif" font-size="14.00" fill="#000000">s</text>
</g>
<!-- NE end of NE/SW cave passage -->
<g id="node45" class="node">
<title>NE end of NE/SW cave passage</title>
<ellipse fill="none" stroke="#000000" cx="828.3466" cy="-954" rx="126.1777" ry="18"/>
<text text-anchor="middle" x="828.3466" y="-950.3" font-family="Times,serif" font-size="14.00" fill="#000000">NE end of NE/SW cave passage</text>
</g>
<!-- Bedroom&#45;&gt;NE end of NE/SW cave passage -->
<g id="edge45" class="edge">
<title>Bedroom&#45;&gt;NE end of NE/SW cave passage</title>
<path fill="none" stroke="#000000" d="M817.8794,-1007.8314C819.9855,-997 822.6518,-983.2876 824.7662,-972.4133"/>
<text text-anchor="middle" x="814.3794" y="-996.6314" font-family="Times,serif" font-size="14.00" fill="#000000">d</text>
</g>
<!-- painting -->
<g id="node44" class="node">
<title>painting</title>
<ellipse fill="none" stroke="#000000" cx="807.3466" cy="-1098" rx="39.7935" ry="18"/>
<text text-anchor="middle" x="807.3466" y="-1094.3" font-family="Times,serif" font-size="14.00" fill="#000000">painting</text>
</g>
<!-- painting&#45;&gt;Bedroom -->
<g id="edge44" class="edge">
<title>painting&#45;&gt;Bedroom</title>
<path fill="none" stroke="#000000" stroke-dasharray="1,5" d="M809.113,-1079.8314C810.166,-1069 811.4992,-1055.2876 812.5564,-1044.4133"/>
</g>
<!-- NE/SW&#45;E/W junction -->
<g id="node47" class="node">
<title>NE/SW&#45;E/W junction</title>
<ellipse fill="none" stroke="#000000" cx="828.3466" cy="-882" rx="89.0842" ry="18"/>
<text text-anchor="middle" x="828.3466" y="-878.3" font-family="Times,serif" font-size="14.00" fill="#000000">NE/SW&#45;E/W junction</text>
</g>
<!-- NE end of NE/SW cave passage&#45;&gt;NE/SW&#45;E/W junction -->
<g id="edge48" class="edge">
<title>NE end of NE/SW cave passage&#45;&gt;NE/SW&#45;E/W junction</title>
<path fill="none" stroke="#000000" d="M828.3466,-935.8314C828.3466,-925 828.3466,-911.2876 828.3466,-900.4133"/>
<text text-anchor="middle" x="820.3466" y="-924.6314" font-family="Times,serif" font-size="14.00" fill="#000000">sw</text>
</g>
<!-- urinal -->
<g id="node46" class="node">
<title>urinal</title>
<ellipse fill="none" stroke="#000000" cx="586.3466" cy="-1026" rx="31.3957" ry="18"/>
<text text-anchor="middle" x="586.3466" y="-1022.3" font-family="Times,serif" font-size="14.00" fill="#000000">urinal</text>
</g>
<!-- urinal&#45;&gt;Bathroom -->
<g id="edge47" class="edge">
<title>urinal&#45;&gt;Bathroom</title>
<path fill="none" stroke="#000000" stroke-dasharray="1,5" d="M598.4071,-1009.3008C606.5678,-998.0013 617.3298,-983.1002 625.626,-971.6132"/>
</g>
<!-- East end of E/W cave passage -->
<g id="node48" class="node">
<title>East end of E/W cave passage</title>
<ellipse fill="none" stroke="#000000" cx="1056.3466" cy="-810" rx="118.0794" ry="18"/>
<text text-anchor="middle" x="1056.3466" y="-806.3" font-family="Times,serif" font-size="14.00" fill="#000000">East end of E/W cave passage</text>
</g>
<!-- NE/SW&#45;E/W junction&#45;&gt;East end of E/W cave passage -->
<g id="edge49" class="edge">
<title>NE/SW&#45;E/W junction&#45;&gt;East end of E/W cave passage</title>
<path fill="none" stroke="#000000" d="M876.4209,-866.8186C914.048,-854.9364 966.2742,-838.4439 1004.7701,-826.2873"/>
<text text-anchor="middle" x="872.9209" y="-855.6186" font-family="Times,serif" font-size="14.00" fill="#000000">e</text>
</g>
<!-- West end of E/W cave passage -->
<g id="node50" class="node">
<title>West end of E/W cave passage</title>
<ellipse fill="none" stroke="#000000" cx="798.3466" cy="-810" rx="121.5784" ry="18"/>
<text text-anchor="middle" x="798.3466" y="-806.3" font-family="Times,serif" font-size="14.00" fill="#000000">West end of E/W cave passage</text>
</g>
<!-- NE/SW&#45;E/W junction&#45;&gt;West end of E/W cave passage -->
<g id="edge51" class="edge">
<title>NE/SW&#45;E/W junction&#45;&gt;West end of E/W cave passage</title>
<path fill="none" stroke="#000000" d="M820.7763,-863.8314C816.2633,-853 810.5498,-839.2876 806.0188,-828.4133"/>
<text text-anchor="middle" x="815.7763" y="-852.6314" font-family="Times,serif" font-size="14.00" fill="#000000">w</text>
</g>
<!-- Horseshoe boulder room -->
<g id="node49" class="node">
<title>Horseshoe boulder room</title>
<ellipse fill="none" stroke="#000000" cx="1056.3466" cy="-738" rx="98.5829" ry="18"/>
<text text-anchor="middle" x="1056.3466" y="-734.3" font-family="Times,serif" font-size="14.00" fill="#000000">Horseshoe boulder room</text>
</g>
<!-- East end of E/W cave passage&#45;&gt;Horseshoe boulder room -->
<g id="edge50" class="edge">
<title>East end of E/W cave passage&#45;&gt;Horseshoe boulder room</title>
<path fill="none" stroke="#000000" d="M1056.3466,-791.8314C1056.3466,-781 1056.3466,-767.2876 1056.3466,-756.4133"/>
<text text-anchor="middle" x="1052.8466" y="-780.6314" font-family="Times,serif" font-size="14.00" fill="#000000">u</text>
</g>
<!-- Empty room -->
<g id="node51" class="node">
<title>Empty room</title>
<ellipse fill="none" stroke="#000000" cx="798.3466" cy="-738" rx="55.7903" ry="18"/>
<text text-anchor="middle" x="798.3466" y="-734.3" font-family="Times,serif" font-size="14.00" fill="#000000">Empty room</text>
</g>
<!-- West end of E/W cave passage&#45;&gt;Empty room -->
<g id="edge52" class="edge">
<title>West end of E/W cave passage&#45;&gt;Empty room</title>
<path fill="none" stroke="#000000" d="M798.3466,-791.8314C798.3466,-781 798.3466,-767.2876 798.3466,-756.4133"/>
<text text-anchor="middle" x="794.8466" y="-780.6314" font-family="Times,serif" font-size="14.00" fill="#000000">d</text>
</g>
<!-- Blue room -->
<g id="node52" class="node">
<title>Blue room</title>
<ellipse fill="none" stroke="#000000" cx="755.3466" cy="-666" rx="48.9926" ry="18"/>
<text text-anchor="middle" x="755.3466" y="-662.3" font-family="Times,serif" font-size="14.00" fill="#000000">Blue room</text>
</g>
<!-- Empty room&#45;&gt;Blue room -->
<g id="edge53" class="edge">
<title>Empty room&#45;&gt;Blue room</title>
<path fill="none" stroke="#000000" d="M787.7174,-720.2022C781.0522,-709.0419 772.4954,-694.7143 765.8535,-683.593"/>
<text text-anchor="middle" x="784.2174" y="-709.0022" font-family="Times,serif" font-size="14.00" fill="#000000">n</text>
</g>
<!-- Red room -->
<g id="node53" class="node">
<title>Red room</title>
<ellipse fill="none" stroke="#000000" cx="751.3466" cy="-522" rx="46.2923" ry="18"/>
<text text-anchor="middle" x="751.3466" y="-518.3" font-family="Times,serif" font-size="14.00" fill="#000000">Red room</text>
</g>
<!-- Empty room&#45;&gt;Red room -->
<g id="edge54" class="edge">
<title>Empty room&#45;&gt;Red room</title>
<path fill="none" stroke="#000000" d="M806.697,-719.9546C819.7747,-688.8996 841.3382,-624.06 818.3466,-576 810.2231,-559.0191 793.8655,-545.6724 779.3472,-536.496"/>
<text text-anchor="middle" x="803.197" y="-708.7546" font-family="Times,serif" font-size="14.00" fill="#000000">e</text>
</g>
<!-- Yellow room -->
<g id="node54" class="node">
<title>Yellow room</title>
<ellipse fill="none" stroke="#000000" cx="751.3466" cy="-594" rx="57.6901" ry="18"/>
<text text-anchor="middle" x="751.3466" y="-590.3" font-family="Times,serif" font-size="14.00" fill="#000000">Yellow room</text>
</g>
<!-- Blue room&#45;&gt;Yellow room -->
<g id="edge55" class="edge">
<title>Blue room&#45;&gt;Yellow room</title>
<path fill="none" stroke="#000000" d="M754.3372,-647.8314C753.7355,-637 752.9737,-623.2876 752.3696,-612.4133"/>
<text text-anchor="middle" x="750.8372" y="-636.6314" font-family="Times,serif" font-size="14.00" fill="#000000">e</text>
</g>
<!-- Long n/s hallway -->
<g id="node56" class="node">
<title>Long n/s hallway</title>
<ellipse fill="none" stroke="#000000" cx="751.3466" cy="-450" rx="72.2875" ry="18"/>
<text text-anchor="middle" x="751.3466" y="-446.3" font-family="Times,serif" font-size="14.00" fill="#000000">Long n/s hallway</text>
</g>
<!-- Red room&#45;&gt;Long n/s hallway -->
<g id="edge58" class="edge">
<title>Red room&#45;&gt;Long n/s hallway</title>
<path fill="none" stroke="#000000" d="M751.3466,-503.8314C751.3466,-493 751.3466,-479.2876 751.3466,-468.4133"/>
<text text-anchor="middle" x="747.8466" y="-492.6314" font-family="Times,serif" font-size="14.00" fill="#000000">d</text>
</g>
<!-- Yellow room&#45;&gt;Red room -->
<g id="edge56" class="edge">
<title>Yellow room&#45;&gt;Red room</title>
<path fill="none" stroke="#000000" d="M751.3466,-575.8314C751.3466,-565 751.3466,-551.2876 751.3466,-540.4133"/>
<text text-anchor="middle" x="748.3466" y="-564.6314" font-family="Times,serif" font-size="14.00" fill="#000000">s</text>
</g>
<!-- towel -->
<g id="node55" class="node">
<title>towel</title>
<ellipse fill="none" stroke="#000000" cx="645.3466" cy="-594" rx="30.5947" ry="18"/>
<text text-anchor="middle" x="645.3466" y="-590.3" font-family="Times,serif" font-size="14.00" fill="#000000">towel</text>
</g>
<!-- towel&#45;&gt;Red room -->
<g id="edge57" class="edge">
<title>towel&#45;&gt;Red room</title>
<path fill="none" stroke="#000000" stroke-dasharray="1,5" d="M665.7845,-580.1177C683.5921,-568.0219 709.4069,-550.4873 728.0189,-537.8453"/>
</g>
<!-- 3/4 north -->
<g id="node57" class="node">
<title>3/4 north</title>
<ellipse fill="none" stroke="#000000" cx="895.3466" cy="-378" rx="42.7926" ry="18"/>
<text text-anchor="middle" x="895.3466" y="-374.3" font-family="Times,serif" font-size="14.00" fill="#000000">3/4 north</text>
</g>
<!-- Long n/s hallway&#45;&gt;3/4 north -->
<g id="edge59" class="edge">
<title>Long n/s hallway&#45;&gt;3/4 north</title>
<path fill="none" stroke="#000000" d="M783.663,-433.8418C808.8713,-421.2377 843.5175,-403.9145 867.5073,-391.9197"/>
<text text-anchor="middle" x="780.163" y="-422.6418" font-family="Times,serif" font-size="14.00" fill="#000000">n</text>
</g>
<!-- 3/4 south -->
<g id="node65" class="node">
<title>3/4 south</title>
<ellipse fill="none" stroke="#000000" cx="730.3466" cy="-378" rx="43.5923" ry="18"/>
<text text-anchor="middle" x="730.3466" y="-374.3" font-family="Times,serif" font-size="14.00" fill="#000000">3/4 south</text>
</g>
<!-- Long n/s hallway&#45;&gt;3/4 south -->
<g id="edge68" class="edge">
<title>Long n/s hallway&#45;&gt;3/4 south</title>
<path fill="none" stroke="#000000" d="M746.0474,-431.8314C742.8397,-420.8334 738.7655,-406.865 735.5713,-395.9134"/>
<text text-anchor="middle" x="743.0474" y="-420.6314" font-family="Times,serif" font-size="14.00" fill="#000000">s</text>
</g>
<!-- North end of long hallway -->
<g id="node58" class="node">
<title>North end of long hallway</title>
<ellipse fill="none" stroke="#000000" cx="944.3466" cy="-306" rx="104.7816" ry="18"/>
<text text-anchor="middle" x="944.3466" y="-302.3" font-family="Times,serif" font-size="14.00" fill="#000000">North end of long hallway</text>
</g>
<!-- 3/4 north&#45;&gt;North end of long hallway -->
<g id="edge60" class="edge">
<title>3/4 north&#45;&gt;North end of long hallway</title>
<path fill="none" stroke="#000000" d="M907.2081,-360.5708C914.7422,-349.5003 924.4721,-335.2034 932.0826,-324.0206"/>
<text text-anchor="middle" x="903.7081" y="-349.3708" font-family="Times,serif" font-size="14.00" fill="#000000">n</text>
</g>
<!-- Stair landing -->
<g id="node59" class="node">
<title>Stair landing</title>
<ellipse fill="none" stroke="#000000" cx="944.3466" cy="-234" rx="55.7903" ry="18"/>
<text text-anchor="middle" x="944.3466" y="-230.3" font-family="Times,serif" font-size="14.00" fill="#000000">Stair landing</text>
</g>
<!-- North end of long hallway&#45;&gt;Stair landing -->
<g id="edge61" class="edge">
<title>North end of long hallway&#45;&gt;Stair landing</title>
<path fill="none" stroke="#000000" d="M944.3466,-287.8314C944.3466,-277 944.3466,-263.2876 944.3466,-252.4133"/>
<text text-anchor="middle" x="940.8466" y="-276.6314" font-family="Times,serif" font-size="14.00" fill="#000000">u</text>
</g>
<!-- Top of staircase -->
<g id="node61" class="node">
<title>Top of staircase</title>
<ellipse fill="none" stroke="#000000" cx="776.3466" cy="-162" rx="67.6881" ry="18"/>
<text text-anchor="middle" x="776.3466" y="-158.3" font-family="Times,serif" font-size="14.00" fill="#000000">Top of staircase</text>
</g>
<!-- Stair landing&#45;&gt;Top of staircase -->
<g id="edge63" class="edge">
<title>Stair landing&#45;&gt;Top of staircase</title>
<path fill="none" stroke="#000000" d="M910.7531,-219.6028C882.218,-207.3735 841.368,-189.8663 812.2049,-177.3678"/>
<text text-anchor="middle" x="907.2531" y="-208.4028" font-family="Times,serif" font-size="14.00" fill="#000000">u</text>
</g>
<!-- box -->
<g id="node60" class="node">
<title>box</title>
<ellipse fill="none" stroke="#000000" cx="1094.3466" cy="-306" rx="27" ry="18"/>
<text text-anchor="middle" x="1094.3466" y="-302.3" font-family="Times,serif" font-size="14.00" fill="#000000">box</text>
</g>
<!-- box&#45;&gt;Stair landing -->
<g id="edge62" class="edge">
<title>box&#45;&gt;Stair landing</title>
<path fill="none" stroke="#000000" stroke-dasharray="1,5" d="M1072.6815,-295.0742C1067.9654,-292.722 1062.9959,-290.2632 1058.3466,-288 1030.7794,-274.581 999.2696,-259.6891 976.374,-248.9486"/>
</g>
<!-- NE crawlway -->
<g id="node62" class="node">
<title>NE crawlway</title>
<ellipse fill="none" stroke="#000000" cx="603.3466" cy="-90" rx="59.2899" ry="18"/>
<text text-anchor="middle" x="603.3466" y="-86.3" font-family="Times,serif" font-size="14.00" fill="#000000">NE crawlway</text>
</g>
<!-- Top of staircase&#45;&gt;NE crawlway -->
<g id="edge64" class="edge">
<title>Top of staircase&#45;&gt;NE crawlway</title>
<path fill="none" stroke="#000000" d="M739.6577,-146.7307C709.8031,-134.3056 667.9398,-116.8827 638.5056,-104.6326"/>
<text text-anchor="middle" x="733.1577" y="-135.5307" font-family="Times,serif" font-size="14.00" fill="#000000">ne</text>
</g>
<!-- Small crawlspace -->
<g id="node63" class="node">
<title>Small crawlspace</title>
<ellipse fill="none" stroke="#000000" cx="603.3466" cy="-18" rx="73.387" ry="18"/>
<text text-anchor="middle" x="603.3466" y="-14.3" font-family="Times,serif" font-size="14.00" fill="#000000">Small crawlspace</text>
</g>
<!-- NE crawlway&#45;&gt;Small crawlspace -->
<g id="edge65" class="edge">
<title>NE crawlway&#45;&gt;Small crawlspace</title>
<path fill="none" stroke="#000000" d="M603.3466,-71.8314C603.3466,-61 603.3466,-47.2876 603.3466,-36.4133"/>
<text text-anchor="middle" x="596.8466" y="-60.6314" font-family="Times,serif" font-size="14.00" fill="#000000">ne</text>
</g>
<!-- Small crawlspace&#45;&gt;N/S/W Junction -->
<g id="edge67" class="edge">
<title>Small crawlspace&#45;&gt;N/S/W Junction</title>
<path fill="none" stroke="#000000" d="M574.492,-34.6737C560.7398,-44.004 545.1836,-56.8181 535.3466,-72 512.8966,-106.6481 512.3466,-120.7145 512.3466,-162 512.3466,-1026 512.3466,-1026 512.3466,-1026 512.3466,-1066.8816 506.0161,-1083.9114 531.3466,-1116 547.4261,-1136.3695 573.046,-1149.4518 595.9287,-1157.6286"/>
<text text-anchor="middle" x="570.992" y="-38.4737" font-family="Times,serif" font-size="14.00" fill="#000000">d</text>
</g>
<!-- axe -->
<g id="node64" class="node">
<title>axe</title>
<ellipse fill="none" stroke="#000000" cx="707.3466" cy="-90" rx="27" ry="18"/>
<text text-anchor="middle" x="707.3466" y="-86.3" font-family="Times,serif" font-size="14.00" fill="#000000">axe</text>
</g>
<!-- axe&#45;&gt;Small crawlspace -->
<g id="edge66" class="edge">
<title>axe&#45;&gt;Small crawlspace</title>
<path fill="none" stroke="#000000" stroke-dasharray="1,5" d="M688.2714,-76.7941C671.3829,-65.1021 646.6233,-47.9608 628.1911,-35.2"/>
</g>
<!-- South end of long hallway -->
<g id="node66" class="node">
<title>South end of long hallway</title>
<ellipse fill="none" stroke="#000000" cx="717.3466" cy="-306" rx="104.7816" ry="18"/>
<text text-anchor="middle" x="717.3466" y="-302.3" font-family="Times,serif" font-size="14.00" fill="#000000">South end of long hallway</text>
</g>
<!-- 3/4 south&#45;&gt;South end of long hallway -->
<g id="edge69" class="edge">
<title>3/4 south&#45;&gt;South end of long hallway</title>
<path fill="none" stroke="#000000" d="M727.0661,-359.8314C725.1105,-349 722.6346,-335.2876 720.6712,-324.4133"/>
<text text-anchor="middle" x="724.0661" y="-348.6314" font-family="Times,serif" font-size="14.00" fill="#000000">s</text>
</g>
<!-- PC area -->
<g id="node67" class="node">
<title>PC area</title>
<ellipse fill="none" stroke="#000000" cx="648.3466" cy="-234" rx="38.1938" ry="18"/>
<text text-anchor="middle" x="648.3466" y="-230.3" font-family="Times,serif" font-size="14.00" fill="#000000">PC area</text>
</g>
<!-- South end of long hallway&#45;&gt;PC area -->
<g id="edge70" class="edge">
<title>South end of long hallway&#45;&gt;PC area</title>
<path fill="none" stroke="#000000" d="M700.2904,-288.2022C689.2758,-276.7088 675.0421,-261.8561 664.2605,-250.6058"/>
<text text-anchor="middle" x="697.2904" y="-277.0022" font-family="Times,serif" font-size="14.00" fill="#000000">s</text>
</g>
<!-- pc -->
<g id="node68" class="node">
<title>pc</title>
<ellipse fill="none" stroke="#000000" cx="567.3466" cy="-306" rx="27" ry="18"/>
<text text-anchor="middle" x="567.3466" y="-302.3" font-family="Times,serif" font-size="14.00" fill="#000000">pc</text>
</g>
<!-- pc&#45;&gt;PC area -->
<g id="edge71" class="edge">
<title>pc&#45;&gt;PC area</title>
<path fill="none" stroke="#000000" stroke-dasharray="1,5" d="M583.7382,-291.4297C597.2366,-279.4311 616.3527,-262.4391 630.2883,-250.0518"/>
</g>
</g>
</svg>
