<?xml version="1.0" encoding="UTF-8" standalone="no"?>
<!DOCTYPE svg PUBLIC "-//W3C//DTD SVG 1.1//EN"
 "http://www.w3.org/Graphics/SVG/1.1/DTD/svg11.dtd">
<!-- Generated by graphviz version 2.36.0 (20140111.2315)
 -->
<!-- Title: %3 Pages: 1 -->
<svg width="1196pt" height="2780pt"
 viewBox="0.00 0.00 1196.00 2780.00" xmlns="http://www.w3.org/2000/svg" xmlns:xlink="http://www.w3.org/1999/xlink">
<g id="graph0" class="graph" transform="scale(1 1) rotate(0) translate(4 2776)">
<title>%3</title>
<polygon fill="white" stroke="none" points="-4,4 -4,-2776 1192,-2776 1192,4 -4,4"/>
<!-- shovel -->
<g id="node1" class="node"><title>shovel</title>
<ellipse fill="none" stroke="black" cx="204" cy="-2754" rx="33.1991" ry="18"/>
<text text-anchor="middle" x="204" y="-2750.3" font-family="Times,serif" font-size="14.00">shovel</text>
</g>
<!-- Dead end -->
<g id="node2" class="node"><title>Dead end</title>
<ellipse fill="none" stroke="black" cx="204" cy="-2682" rx="44.2946" ry="18"/>
<text text-anchor="middle" x="204" y="-2678.3" font-family="Times,serif" font-size="14.00">Dead end</text>
</g>
<!-- shovel&#45;&gt;Dead end -->
<g id="edge1" class="edge"><title>shovel&#45;&gt;Dead end</title>
<path fill="none" stroke="black" stroke-dasharray="1,5" d="M204,-2735.7C204,-2724.85 204,-2710.92 204,-2700.1"/>
</g>
<!-- E/W Dirt road -->
<g id="node3" class="node"><title>E/W Dirt road</title>
<ellipse fill="none" stroke="black" cx="254" cy="-2610" rx="61.6163" ry="18"/>
<text text-anchor="middle" x="254" y="-2606.3" font-family="Times,serif" font-size="14.00">E/W Dirt road</text>
</g>
<!-- Dead end&#45;&gt;E/W Dirt road -->
<g id="edge2" class="edge"><title>Dead end&#45;&gt;E/W Dirt road</title>
<path fill="none" stroke="black" d="M215.849,-2664.41C223.704,-2653.41 233.98,-2639.03 241.888,-2627.96"/>
</g>
<!-- Fork -->
<g id="node5" class="node"><title>Fork</title>
<ellipse fill="none" stroke="black" cx="307" cy="-2538" rx="26.949" ry="18"/>
<text text-anchor="middle" x="307" y="-2534.3" font-family="Times,serif" font-size="14.00">Fork</text>
</g>
<!-- E/W Dirt road&#45;&gt;Fork -->
<g id="edge4" class="edge"><title>E/W Dirt road&#45;&gt;Fork</title>
<path fill="none" stroke="black" d="M266.83,-2592.05C275.53,-2580.56 286.938,-2565.5 295.373,-2554.36"/>
</g>
<!-- boulder -->
<g id="node4" class="node"><title>boulder</title>
<ellipse fill="none" stroke="black" cx="304" cy="-2682" rx="37.5442" ry="18"/>
<text text-anchor="middle" x="304" y="-2678.3" font-family="Times,serif" font-size="14.00">boulder</text>
</g>
<!-- boulder&#45;&gt;E/W Dirt road -->
<g id="edge3" class="edge"><title>boulder&#45;&gt;E/W Dirt road</title>
<path fill="none" stroke="black" d="M292.403,-2664.76C284.556,-2653.78 274.208,-2639.29 266.231,-2628.12"/>
</g>
<!-- SE/NW road -->
<g id="node7" class="node"><title>SE/NW road</title>
<ellipse fill="none" stroke="black" cx="206" cy="-2466" rx="56.3173" ry="18"/>
<text text-anchor="middle" x="206" y="-2462.3" font-family="Times,serif" font-size="14.00">SE/NW road</text>
</g>
<!-- Fork&#45;&gt;SE/NW road -->
<g id="edge6" class="edge"><title>Fork&#45;&gt;SE/NW road</title>
<path fill="none" stroke="black" d="M288.943,-2524.49C272.035,-2512.77 246.711,-2495.22 228.496,-2482.59"/>
</g>
<!-- NE/SW road -->
<g id="node13" class="node"><title>NE/SW road</title>
<ellipse fill="none" stroke="black" cx="337" cy="-2466" rx="56.3173" ry="18"/>
<text text-anchor="middle" x="337" y="-2462.3" font-family="Times,serif" font-size="14.00">NE/SW road</text>
</g>
<!-- Fork&#45;&gt;NE/SW road -->
<g id="edge12" class="edge"><title>Fork&#45;&gt;NE/SW road</title>
<path fill="none" stroke="black" d="M314.11,-2520.41C318.823,-2509.41 324.988,-2495.03 329.733,-2483.96"/>
</g>
<!-- cpu -->
<g id="node6" class="node"><title>cpu</title>
<ellipse fill="none" stroke="black" cx="361" cy="-2610" rx="27" ry="18"/>
<text text-anchor="middle" x="361" y="-2606.3" font-family="Times,serif" font-size="14.00">cpu</text>
</g>
<!-- cpu&#45;&gt;Fork -->
<g id="edge5" class="edge"><title>cpu&#45;&gt;Fork</title>
<path fill="none" stroke="black" stroke-dasharray="1,5" d="M349.016,-2593.46C340.067,-2581.86 327.892,-2566.08 318.951,-2554.49"/>
</g>
<!-- Bear hangout -->
<g id="node9" class="node"><title>Bear hangout</title>
<ellipse fill="none" stroke="black" cx="152" cy="-2394" rx="57.2688" ry="18"/>
<text text-anchor="middle" x="152" y="-2390.3" font-family="Times,serif" font-size="14.00">Bear hangout</text>
</g>
<!-- SE/NW road&#45;&gt;Bear hangout -->
<g id="edge8" class="edge"><title>SE/NW road&#45;&gt;Bear hangout</title>
<path fill="none" stroke="black" d="M193.203,-2448.41C184.719,-2437.41 173.621,-2423.03 165.081,-2411.96"/>
</g>
<!-- food -->
<g id="node8" class="node"><title>food</title>
<ellipse fill="none" stroke="black" cx="206" cy="-2538" rx="27" ry="18"/>
<text text-anchor="middle" x="206" y="-2534.3" font-family="Times,serif" font-size="14.00">food</text>
</g>
<!-- food&#45;&gt;SE/NW road -->
<g id="edge7" class="edge"><title>food&#45;&gt;SE/NW road</title>
<path fill="none" stroke="black" stroke-dasharray="1,5" d="M206,-2519.7C206,-2508.85 206,-2494.92 206,-2484.1"/>
</g>
<!-- Hidden area -->
<g id="node11" class="node"><title>Hidden area</title>
<ellipse fill="none" stroke="black" cx="69" cy="-2322" rx="53.4184" ry="18"/>
<text text-anchor="middle" x="69" y="-2318.3" font-family="Times,serif" font-size="14.00">Hidden area</text>
</g>
<!-- Bear hangout&#45;&gt;Hidden area -->
<g id="edge10" class="edge"><title>Bear hangout&#45;&gt;Hidden area</title>
<path fill="none" stroke="black" d="M132.75,-2376.76C119.245,-2365.38 101.277,-2350.22 87.8599,-2338.91"/>
</g>
<!-- key -->
<g id="node10" class="node"><title>key</title>
<ellipse fill="none" stroke="black" cx="104" cy="-2466" rx="27" ry="18"/>
<text text-anchor="middle" x="104" y="-2462.3" font-family="Times,serif" font-size="14.00">key</text>
</g>
<!-- key&#45;&gt;Bear hangout -->
<g id="edge9" class="edge"><title>key&#45;&gt;Bear hangout</title>
<path fill="none" stroke="black" stroke-dasharray="1,5" d="M114.892,-2449.12C122.526,-2437.98 132.713,-2423.13 140.482,-2411.8"/>
</g>
<!-- bracelet -->
<g id="node12" class="node"><title>bracelet</title>
<ellipse fill="none" stroke="black" cx="38" cy="-2394" rx="38.0212" ry="18"/>
<text text-anchor="middle" x="38" y="-2390.3" font-family="Times,serif" font-size="14.00">bracelet</text>
</g>
<!-- bracelet&#45;&gt;Hidden area -->
<g id="edge11" class="edge"><title>bracelet&#45;&gt;Hidden area</title>
<path fill="none" stroke="black" stroke-dasharray="1,5" d="M45.5042,-2376.05C50.3065,-2365.21 56.519,-2351.18 61.3495,-2340.28"/>
</g>
<!-- Building front -->
<g id="node14" class="node"><title>Building front</title>
<ellipse fill="none" stroke="black" cx="337" cy="-2394" rx="61.1419" ry="18"/>
<text text-anchor="middle" x="337" y="-2390.3" font-family="Times,serif" font-size="14.00">Building front</text>
</g>
<!-- NE/SW road&#45;&gt;Building front -->
<g id="edge13" class="edge"><title>NE/SW road&#45;&gt;Building front</title>
<path fill="none" stroke="black" d="M337,-2447.7C337,-2436.85 337,-2422.92 337,-2412.1"/>
</g>
<!-- Old Building hallway -->
<g id="node15" class="node"><title>Old Building hallway</title>
<ellipse fill="none" stroke="black" cx="337" cy="-2322" rx="87.1385" ry="18"/>
<text text-anchor="middle" x="337" y="-2318.3" font-family="Times,serif" font-size="14.00">Old Building hallway</text>
</g>
<!-- Building front&#45;&gt;Old Building hallway -->
<g id="edge14" class="edge"><title>Building front&#45;&gt;Old Building hallway</title>
<path fill="none" stroke="black" d="M337,-2375.7C337,-2364.85 337,-2350.92 337,-2340.1"/>
</g>
<!-- Computer room -->
<g id="node16" class="node"><title>Computer room</title>
<ellipse fill="none" stroke="black" cx="269" cy="-2250" rx="67.3907" ry="18"/>
<text text-anchor="middle" x="269" y="-2246.3" font-family="Times,serif" font-size="14.00">Computer room</text>
</g>
<!-- Old Building hallway&#45;&gt;Computer room -->
<g id="edge15" class="edge"><title>Old Building hallway&#45;&gt;Computer room</title>
<path fill="none" stroke="black" d="M320.539,-2304.05C309.848,-2293.05 295.97,-2278.76 285.309,-2267.79"/>
</g>
<!-- Pockey -->
<g id="node18" class="node"><title>Pockey</title>
<ellipse fill="none" stroke="black" cx="269" cy="-2178" rx="36.096" ry="18"/>
<text text-anchor="middle" x="269" y="-2174.3" font-family="Times,serif" font-size="14.00">Pockey</text>
</g>
<!-- Computer room&#45;&gt;Pockey -->
<g id="edge17" class="edge"><title>Computer room&#45;&gt;Pockey</title>
<path fill="none" stroke="black" d="M269,-2231.7C269,-2220.85 269,-2206.92 269,-2196.1"/>
</g>
<!-- paper -->
<g id="node17" class="node"><title>paper</title>
<ellipse fill="none" stroke="black" cx="201" cy="-2322" rx="30.3206" ry="18"/>
<text text-anchor="middle" x="201" y="-2318.3" font-family="Times,serif" font-size="14.00">paper</text>
</g>
<!-- paper&#45;&gt;Computer room -->
<g id="edge16" class="edge"><title>paper&#45;&gt;Computer room</title>
<path fill="none" stroke="black" stroke-dasharray="1,5" d="M215.421,-2306.15C226.337,-2294.92 241.338,-2279.48 252.691,-2267.79"/>
</g>
<!-- Receiving room -->
<g id="node19" class="node"><title>Receiving room</title>
<ellipse fill="none" stroke="black" cx="269" cy="-2106" rx="67.3907" ry="18"/>
<text text-anchor="middle" x="269" y="-2102.3" font-family="Times,serif" font-size="14.00">Receiving room</text>
</g>
<!-- Pockey&#45;&gt;Receiving room -->
<g id="edge18" class="edge"><title>Pockey&#45;&gt;Receiving room</title>
<path fill="none" stroke="black" d="M269,-2159.7C269,-2148.85 269,-2134.92 269,-2124.1"/>
</g>
<!-- Northbound Hallway -->
<g id="node20" class="node"><title>Northbound Hallway</title>
<ellipse fill="none" stroke="black" cx="269" cy="-2034" rx="85.2138" ry="18"/>
<text text-anchor="middle" x="269" y="-2030.3" font-family="Times,serif" font-size="14.00">Northbound Hallway</text>
</g>
<!-- Receiving room&#45;&gt;Northbound Hallway -->
<g id="edge19" class="edge"><title>Receiving room&#45;&gt;Northbound Hallway</title>
<path fill="none" stroke="black" d="M269,-2087.7C269,-2076.85 269,-2062.92 269,-2052.1"/>
</g>
<!-- Sauna -->
<g id="node21" class="node"><title>Sauna</title>
<ellipse fill="none" stroke="black" cx="202" cy="-1962" rx="32.2457" ry="18"/>
<text text-anchor="middle" x="202" y="-1958.3" font-family="Times,serif" font-size="14.00">Sauna</text>
</g>
<!-- Northbound Hallway&#45;&gt;Sauna -->
<g id="edge20" class="edge"><title>Northbound Hallway&#45;&gt;Sauna</title>
<path fill="none" stroke="black" d="M252.781,-2016.05C241.782,-2004.56 227.361,-1989.5 216.698,-1978.36"/>
</g>
<!-- End of N/S Hallway -->
<g id="node22" class="node"><title>End of N/S Hallway</title>
<ellipse fill="none" stroke="black" cx="336" cy="-1962" rx="83.2892" ry="18"/>
<text text-anchor="middle" x="336" y="-1958.3" font-family="Times,serif" font-size="14.00">End of N/S Hallway</text>
</g>
<!-- Northbound Hallway&#45;&gt;End of N/S Hallway -->
<g id="edge21" class="edge"><title>Northbound Hallway&#45;&gt;End of N/S Hallway</title>
<path fill="none" stroke="black" d="M285.219,-2016.05C295.753,-2005.05 309.426,-1990.76 319.931,-1979.79"/>
</g>
<!-- Weight room -->
<g id="node23" class="node"><title>Weight room</title>
<ellipse fill="none" stroke="black" cx="336" cy="-1890" rx="58.2422" ry="18"/>
<text text-anchor="middle" x="336" y="-1886.3" font-family="Times,serif" font-size="14.00">Weight room</text>
</g>
<!-- End of N/S Hallway&#45;&gt;Weight room -->
<g id="edge22" class="edge"><title>End of N/S Hallway&#45;&gt;Weight room</title>
<path fill="none" stroke="black" d="M336,-1943.7C336,-1932.85 336,-1918.92 336,-1908.1"/>
</g>
<!-- Maze button room -->
<g id="node24" class="node"><title>Maze button room</title>
<ellipse fill="none" stroke="black" cx="391" cy="-1818" rx="77.0154" ry="18"/>
<text text-anchor="middle" x="391" y="-1814.3" font-family="Times,serif" font-size="14.00">Maze button room</text>
</g>
<!-- Weight room&#45;&gt;Maze button room -->
<g id="edge23" class="edge"><title>Weight room&#45;&gt;Maze button room</title>
<path fill="none" stroke="black" d="M349.034,-1872.41C357.675,-1861.41 368.978,-1847.03 377.677,-1835.96"/>
</g>
<!-- Maze -->
<g id="node26" class="node"><title>Maze</title>
<ellipse fill="none" stroke="black" cx="527" cy="-1746" rx="30.3206" ry="18"/>
<text text-anchor="middle" x="527" y="-1742.3" font-family="Times,serif" font-size="14.00">Maze</text>
</g>
<!-- Maze button room&#45;&gt;Maze -->
<g id="edge25" class="edge"><title>Maze button room&#45;&gt;Maze</title>
<path fill="none" stroke="black" d="M421.521,-1801.29C446.739,-1788.31 481.956,-1770.18 504.622,-1758.52"/>
</g>
<!-- button -->
<g id="node25" class="node"><title>button</title>
<ellipse fill="none" stroke="black" cx="446" cy="-1890" rx="33.2209" ry="18"/>
<text text-anchor="middle" x="446" y="-1886.3" font-family="Times,serif" font-size="14.00">button</text>
</g>
<!-- button&#45;&gt;Maze button room -->
<g id="edge24" class="edge"><title>button&#45;&gt;Maze button room</title>
<path fill="none" stroke="black" stroke-dasharray="1,5" d="M433.52,-1873.12C424.772,-1861.98 413.1,-1847.13 404.198,-1835.8"/>
</g>
<!-- Reception area -->
<g id="node29" class="node"><title>Reception area</title>
<ellipse fill="none" stroke="black" cx="527" cy="-1674" rx="63.5411" ry="18"/>
<text text-anchor="middle" x="527" y="-1670.3" font-family="Times,serif" font-size="14.00">Reception area</text>
</g>
<!-- Maze&#45;&gt;Reception area -->
<g id="edge28" class="edge"><title>Maze&#45;&gt;Reception area</title>
<path fill="none" stroke="black" d="M527,-1727.7C527,-1716.85 527,-1702.92 527,-1692.1"/>
</g>
<!-- statuette -->
<g id="node27" class="node"><title>statuette</title>
<ellipse fill="none" stroke="black" cx="527" cy="-1818" rx="39.9464" ry="18"/>
<text text-anchor="middle" x="527" y="-1814.3" font-family="Times,serif" font-size="14.00">statuette</text>
</g>
<!-- statuette&#45;&gt;Maze -->
<g id="edge26" class="edge"><title>statuette&#45;&gt;Maze</title>
<path fill="none" stroke="black" stroke-dasharray="1,5" d="M527,-1799.7C527,-1788.85 527,-1774.92 527,-1764.1"/>
</g>
<!-- floppy -->
<g id="node28" class="node"><title>floppy</title>
<ellipse fill="none" stroke="black" cx="619" cy="-1818" rx="33.1991" ry="18"/>
<text text-anchor="middle" x="619" y="-1814.3" font-family="Times,serif" font-size="14.00">floppy</text>
</g>
<!-- floppy&#45;&gt;Maze -->
<g id="edge27" class="edge"><title>floppy&#45;&gt;Maze</title>
<path fill="none" stroke="black" stroke-dasharray="1,5" d="M600.382,-1802.83C584.211,-1790.53 560.94,-1772.82 544.964,-1760.67"/>
</g>
<!-- Health Club front -->
<g id="node30" class="node"><title>Health Club front</title>
<ellipse fill="none" stroke="black" cx="527" cy="-1602" rx="73.1654" ry="18"/>
<text text-anchor="middle" x="527" y="-1598.3" font-family="Times,serif" font-size="14.00">Health Club front</text>
</g>
<!-- Reception area&#45;&gt;Health Club front -->
<g id="edge29" class="edge"><title>Reception area&#45;&gt;Health Club front</title>
<path fill="none" stroke="black" d="M527,-1655.7C527,-1644.85 527,-1630.92 527,-1620.1"/>
</g>
<!-- Lakefront North -->
<g id="node31" class="node"><title>Lakefront North</title>
<ellipse fill="none" stroke="black" cx="527" cy="-1530" rx="68.3664" ry="18"/>
<text text-anchor="middle" x="527" y="-1526.3" font-family="Times,serif" font-size="14.00">Lakefront North</text>
</g>
<!-- Health Club front&#45;&gt;Lakefront North -->
<g id="edge30" class="edge"><title>Health Club front&#45;&gt;Lakefront North</title>
<path fill="none" stroke="black" d="M527,-1583.7C527,-1572.85 527,-1558.92 527,-1548.1"/>
</g>
<!-- Lakefront South -->
<g id="node32" class="node"><title>Lakefront South</title>
<ellipse fill="none" stroke="black" cx="527" cy="-1458" rx="68.3664" ry="18"/>
<text text-anchor="middle" x="527" y="-1454.3" font-family="Times,serif" font-size="14.00">Lakefront South</text>
</g>
<!-- Lakefront North&#45;&gt;Lakefront South -->
<g id="edge31" class="edge"><title>Lakefront North&#45;&gt;Lakefront South</title>
<path fill="none" stroke="black" d="M527,-1511.7C527,-1500.85 527,-1486.92 527,-1476.1"/>
</g>
<!-- Cave Entrance -->
<g id="node33" class="node"><title>Cave Entrance</title>
<ellipse fill="none" stroke="black" cx="585" cy="-1386" rx="62.0922" ry="18"/>
<text text-anchor="middle" x="585" y="-1382.3" font-family="Times,serif" font-size="14.00">Cave Entrance</text>
</g>
<!-- Lakefront South&#45;&gt;Cave Entrance -->
<g id="edge32" class="edge"><title>Lakefront South&#45;&gt;Cave Entrance</title>
<path fill="none" stroke="black" d="M541.04,-1440.05C550.159,-1429.05 561.996,-1414.76 571.089,-1403.79"/>
<text text-anchor="middle" x="538.04" y="-1428.85" font-family="Times,serif" font-size="14.00">s</text>
</g>
<!-- Misty Room -->
<g id="node35" class="node"><title>Misty Room</title>
<ellipse fill="none" stroke="black" cx="645" cy="-1314" rx="55.3436" ry="18"/>
<text text-anchor="middle" x="645" y="-1310.3" font-family="Times,serif" font-size="14.00">Misty Room</text>
</g>
<!-- Cave Entrance&#45;&gt;Misty Room -->
<g id="edge34" class="edge"><title>Cave Entrance&#45;&gt;Misty Room</title>
<path fill="none" stroke="black" d="M599.219,-1368.41C608.784,-1357.25 621.34,-1342.6 630.883,-1331.47"/>
<text text-anchor="middle" x="596.219" y="-1357.21" font-family="Times,serif" font-size="14.00">s</text>
</g>
<!-- chute -->
<g id="node34" class="node"><title>chute</title>
<ellipse fill="none" stroke="black" cx="643" cy="-1458" rx="29.3479" ry="18"/>
<text text-anchor="middle" x="643" y="-1454.3" font-family="Times,serif" font-size="14.00">chute</text>
</g>
<!-- chute&#45;&gt;Cave Entrance -->
<g id="edge33" class="edge"><title>chute&#45;&gt;Cave Entrance</title>
<path fill="none" stroke="black" stroke-dasharray="1,5" d="M630.128,-1441.46C620.917,-1430.35 608.523,-1415.39 599.054,-1403.96"/>
</g>
<!-- Cave E/W passage -->
<g id="node37" class="node"><title>Cave E/W passage</title>
<ellipse fill="none" stroke="black" cx="645" cy="-1242" rx="77.0154" ry="18"/>
<text text-anchor="middle" x="645" y="-1238.3" font-family="Times,serif" font-size="14.00">Cave E/W passage</text>
</g>
<!-- Misty Room&#45;&gt;Cave E/W passage -->
<g id="edge36" class="edge"><title>Misty Room&#45;&gt;Cave E/W passage</title>
<path fill="none" stroke="black" d="M645,-1295.7C645,-1284.85 645,-1270.92 645,-1260.1"/>
<text text-anchor="middle" x="641.5" y="-1284.5" font-family="Times,serif" font-size="14.00">e</text>
</g>
<!-- gold bar -->
<g id="node36" class="node"><title>gold bar</title>
<ellipse fill="none" stroke="black" cx="706" cy="-1386" rx="39.9464" ry="18"/>
<text text-anchor="middle" x="706" y="-1382.3" font-family="Times,serif" font-size="14.00">gold bar</text>
</g>
<!-- gold bar&#45;&gt;Misty Room -->
<g id="edge35" class="edge"><title>gold bar&#45;&gt;Misty Room</title>
<path fill="none" stroke="black" stroke-dasharray="1,5" d="M691.852,-1368.76C682.138,-1357.62 669.282,-1342.87 659.495,-1331.63"/>
</g>
<!-- N/S/W Junction -->
<g id="node38" class="node"><title>N/S/W Junction</title>
<ellipse fill="none" stroke="black" cx="645" cy="-1170" rx="67.3907" ry="18"/>
<text text-anchor="middle" x="645" y="-1166.3" font-family="Times,serif" font-size="14.00">N/S/W Junction</text>
</g>
<!-- Cave E/W passage&#45;&gt;N/S/W Junction -->
<g id="edge37" class="edge"><title>Cave E/W passage&#45;&gt;N/S/W Junction</title>
<path fill="none" stroke="black" d="M645,-1223.7C645,-1212.85 645,-1198.92 645,-1188.1"/>
<text text-anchor="middle" x="641.5" y="-1212.5" font-family="Times,serif" font-size="14.00">e</text>
</g>
<!-- North end of cave passage -->
<g id="node39" class="node"><title>North end of cave passage</title>
<ellipse fill="none" stroke="black" cx="969" cy="-1098" rx="104.461" ry="18"/>
<text text-anchor="middle" x="969" y="-1094.3" font-family="Times,serif" font-size="14.00">North end of cave passage</text>
</g>
<!-- N/S/W Junction&#45;&gt;North end of cave passage -->
<g id="edge38" class="edge"><title>N/S/W Junction&#45;&gt;North end of cave passage</title>
<path fill="none" stroke="black" d="M695.625,-1158.06C752.578,-1145.76 845.127,-1125.76 906.53,-1112.5"/>
<text text-anchor="middle" x="692.125" y="-1146.86" font-family="Times,serif" font-size="14.00">n</text>
</g>
<!-- South end of cave passage -->
<g id="node40" class="node"><title>South end of cave passage</title>
<ellipse fill="none" stroke="black" cx="645" cy="-1098" rx="104.461" ry="18"/>
<text text-anchor="middle" x="645" y="-1094.3" font-family="Times,serif" font-size="14.00">South end of cave passage</text>
</g>
<!-- N/S/W Junction&#45;&gt;South end of cave passage -->
<g id="edge39" class="edge"><title>N/S/W Junction&#45;&gt;South end of cave passage</title>
<path fill="none" stroke="black" d="M645,-1151.7C645,-1140.85 645,-1126.92 645,-1116.1"/>
<text text-anchor="middle" x="642" y="-1140.5" font-family="Times,serif" font-size="14.00">s</text>
</g>
<!-- Bedroom -->
<g id="node42" class="node"><title>Bedroom</title>
<ellipse fill="none" stroke="black" cx="814" cy="-1026" rx="44.2946" ry="18"/>
<text text-anchor="middle" x="814" y="-1022.3" font-family="Times,serif" font-size="14.00">Bedroom</text>
</g>
<!-- North end of cave passage&#45;&gt;Bedroom -->
<g id="edge41" class="edge"><title>North end of cave passage&#45;&gt;Bedroom</title>
<path fill="none" stroke="black" d="M933.44,-1080.94C905.912,-1068.51 868.281,-1051.51 842.664,-1039.94"/>
<text text-anchor="middle" x="929.94" y="-1069.74" font-family="Times,serif" font-size="14.00">d</text>
</g>
<!-- ??? -->
<g id="node43" class="node"><title>???</title>
<ellipse fill="none" stroke="black" cx="969" cy="-1026" rx="27" ry="18"/>
<text text-anchor="middle" x="969" y="-1022.3" font-family="Times,serif" font-size="14.00">???</text>
</g>
<!-- North end of cave passage&#45;&gt;??? -->
<g id="edge42" class="edge"><title>North end of cave passage&#45;&gt;???</title>
<path fill="none" stroke="black" d="M969,-1079.7C969,-1068.85 969,-1054.92 969,-1044.1"/>
<text text-anchor="middle" x="964" y="-1068.5" font-family="Times,serif" font-size="14.00">w</text>
</g>
<!-- Bathroom -->
<g id="node41" class="node"><title>Bathroom</title>
<ellipse fill="none" stroke="black" cx="638" cy="-954" rx="46.2191" ry="18"/>
<text text-anchor="middle" x="638" y="-950.3" font-family="Times,serif" font-size="14.00">Bathroom</text>
</g>
<!-- South end of cave passage&#45;&gt;Bathroom -->
<g id="edge40" class="edge"><title>South end of cave passage&#45;&gt;Bathroom</title>
<path fill="none" stroke="black" d="M644.156,-1079.87C642.81,-1052.58 640.195,-999.52 638.847,-972.189"/>
<text text-anchor="middle" x="640.656" y="-1068.67" font-family="Times,serif" font-size="14.00">d</text>
</g>
<!-- Bedroom&#45;&gt;Bathroom -->
<g id="edge45" class="edge"><title>Bedroom&#45;&gt;Bathroom</title>
<path fill="none" stroke="black" d="M783.343,-1012.81C751.335,-1000.08 701.399,-980.216 669.193,-967.406"/>
<text text-anchor="middle" x="780.343" y="-1001.61" font-family="Times,serif" font-size="14.00">s</text>
</g>
<!-- NE end of NE/SW cave passage -->
<g id="node45" class="node"><title>NE end of NE/SW cave passage</title>
<ellipse fill="none" stroke="black" cx="828" cy="-954" rx="126.133" ry="18"/>
<text text-anchor="middle" x="828" y="-950.3" font-family="Times,serif" font-size="14.00">NE end of NE/SW cave passage</text>
</g>
<!-- Bedroom&#45;&gt;NE end of NE/SW cave passage -->
<g id="edge44" class="edge"><title>Bedroom&#45;&gt;NE end of NE/SW cave passage</title>
<path fill="none" stroke="black" d="M817.461,-1007.7C819.631,-996.846 822.417,-982.917 824.579,-972.104"/>
<text text-anchor="middle" x="813.961" y="-996.497" font-family="Times,serif" font-size="14.00">d</text>
</g>
<!-- painting -->
<g id="node44" class="node"><title>painting</title>
<ellipse fill="none" stroke="black" cx="807" cy="-1098" rx="39.4691" ry="18"/>
<text text-anchor="middle" x="807" y="-1094.3" font-family="Times,serif" font-size="14.00">painting</text>
</g>
<!-- painting&#45;&gt;Bedroom -->
<g id="edge43" class="edge"><title>painting&#45;&gt;Bedroom</title>
<path fill="none" stroke="black" stroke-dasharray="1,5" d="M808.73,-1079.7C809.815,-1068.85 811.208,-1054.92 812.29,-1044.1"/>
</g>
<!-- NE/SW&#45;E/W junction -->
<g id="node47" class="node"><title>NE/SW&#45;E/W junction</title>
<ellipse fill="none" stroke="black" cx="828" cy="-882" rx="89.0632" ry="18"/>
<text text-anchor="middle" x="828" y="-878.3" font-family="Times,serif" font-size="14.00">NE/SW&#45;E/W junction</text>
</g>
<!-- NE end of NE/SW cave passage&#45;&gt;NE/SW&#45;E/W junction -->
<g id="edge47" class="edge"><title>NE end of NE/SW cave passage&#45;&gt;NE/SW&#45;E/W junction</title>
<path fill="none" stroke="black" d="M828,-935.697C828,-924.846 828,-910.917 828,-900.104"/>
<text text-anchor="middle" x="820" y="-924.497" font-family="Times,serif" font-size="14.00">sw</text>
</g>
<!-- urinal -->
<g id="node46" class="node"><title>urinal</title>
<ellipse fill="none" stroke="black" cx="586" cy="-1026" rx="31.2965" ry="18"/>
<text text-anchor="middle" x="586" y="-1022.3" font-family="Times,serif" font-size="14.00">urinal</text>
</g>
<!-- urinal&#45;&gt;Bathroom -->
<g id="edge46" class="edge"><title>urinal&#45;&gt;Bathroom</title>
<path fill="none" stroke="black" stroke-dasharray="1,5" d="M597.8,-1009.12C606.07,-997.983 617.106,-983.127 625.522,-971.797"/>
</g>
<!-- East end of E/W cave passage -->
<g id="node48" class="node"><title>East end of E/W cave passage</title>
<ellipse fill="none" stroke="black" cx="1070" cy="-810" rx="117.935" ry="18"/>
<text text-anchor="middle" x="1070" y="-806.3" font-family="Times,serif" font-size="14.00">East end of E/W cave passage</text>
</g>
<!-- NE/SW&#45;E/W junction&#45;&gt;East end of E/W cave passage -->
<g id="edge48" class="edge"><title>NE/SW&#45;E/W junction&#45;&gt;East end of E/W cave passage</title>
<path fill="none" stroke="black" d="M876.681,-866.919C917.536,-855.101 975.765,-838.258 1017.62,-826.15"/>
<text text-anchor="middle" x="873.181" y="-855.719" font-family="Times,serif" font-size="14.00">e</text>
</g>
<!-- West end of E/W cave passage -->
<g id="node50" class="node"><title>West end of E/W cave passage</title>
<ellipse fill="none" stroke="black" cx="812" cy="-810" rx="121.309" ry="18"/>
<text text-anchor="middle" x="812" y="-806.3" font-family="Times,serif" font-size="14.00">West end of E/W cave passage</text>
</g>
<!-- NE/SW&#45;E/W junction&#45;&gt;West end of E/W cave passage -->
<g id="edge50" class="edge"><title>NE/SW&#45;E/W junction&#45;&gt;West end of E/W cave passage</title>
<path fill="none" stroke="black" d="M824.045,-863.697C821.565,-852.846 818.381,-838.917 815.91,-828.104"/>
<text text-anchor="middle" x="819.045" y="-852.497" font-family="Times,serif" font-size="14.00">w</text>
</g>
<!-- Horseshoe boulder room -->
<g id="node49" class="node"><title>Horseshoe boulder room</title>
<ellipse fill="none" stroke="black" cx="1070" cy="-738" rx="98.1881" ry="18"/>
<text text-anchor="middle" x="1070" y="-734.3" font-family="Times,serif" font-size="14.00">Horseshoe boulder room</text>
</g>
<!-- East end of E/W cave passage&#45;&gt;Horseshoe boulder room -->
<g id="edge49" class="edge"><title>East end of E/W cave passage&#45;&gt;Horseshoe boulder room</title>
<path fill="none" stroke="black" d="M1070,-791.697C1070,-780.846 1070,-766.917 1070,-756.104"/>
<text text-anchor="middle" x="1066.5" y="-780.497" font-family="Times,serif" font-size="14.00">u</text>
</g>
<!-- Empty room -->
<g id="node51" class="node"><title>Empty room</title>
<ellipse fill="none" stroke="black" cx="812" cy="-738" rx="55.3436" ry="18"/>
<text text-anchor="middle" x="812" y="-734.3" font-family="Times,serif" font-size="14.00">Empty room</text>
</g>
<!-- West end of E/W cave passage&#45;&gt;Empty room -->
<g id="edge51" class="edge"><title>West end of E/W cave passage&#45;&gt;Empty room</title>
<path fill="none" stroke="black" d="M812,-791.697C812,-780.846 812,-766.917 812,-756.104"/>
<text text-anchor="middle" x="808.5" y="-780.497" font-family="Times,serif" font-size="14.00">d</text>
</g>
<!-- Blue room -->
<g id="node52" class="node"><title>Blue room</title>
<ellipse fill="none" stroke="black" cx="769" cy="-666" rx="48.6179" ry="18"/>
<text text-anchor="middle" x="769" y="-662.3" font-family="Times,serif" font-size="14.00">Blue room</text>
</g>
<!-- Empty room&#45;&gt;Blue room -->
<g id="edge52" class="edge"><title>Empty room&#45;&gt;Blue room</title>
<path fill="none" stroke="black" d="M801.591,-720.055C794.83,-709.049 786.055,-694.764 779.313,-683.789"/>
<text text-anchor="middle" x="798.091" y="-708.855" font-family="Times,serif" font-size="14.00">n</text>
</g>
<!-- Red room -->
<g id="node53" class="node"><title>Red room</title>
<ellipse fill="none" stroke="black" cx="765" cy="-522" rx="46.2191" ry="18"/>
<text text-anchor="middle" x="765" y="-518.3" font-family="Times,serif" font-size="14.00">Red room</text>
</g>
<!-- Empty room&#45;&gt;Red room -->
<g id="edge53" class="edge"><title>Empty room&#45;&gt;Red room</title>
<path fill="none" stroke="black" d="M819.748,-720.029C832.456,-689.549 854.121,-624.22 831,-576 822.867,-559.039 806.367,-545.789 791.9,-536.779"/>
<text text-anchor="middle" x="816.248" y="-708.829" font-family="Times,serif" font-size="14.00">e</text>
</g>
<!-- Yellow room -->
<g id="node54" class="node"><title>Yellow room</title>
<ellipse fill="none" stroke="black" cx="765" cy="-594" rx="57.2688" ry="18"/>
<text text-anchor="middle" x="765" y="-590.3" font-family="Times,serif" font-size="14.00">Yellow room</text>
</g>
<!-- Blue room&#45;&gt;Yellow room -->
<g id="edge54" class="edge"><title>Blue room&#45;&gt;Yellow room</title>
<path fill="none" stroke="black" d="M768.011,-647.697C767.391,-636.846 766.595,-622.917 765.977,-612.104"/>
<text text-anchor="middle" x="764.511" y="-636.497" font-family="Times,serif" font-size="14.00">e</text>
</g>
<!-- Long n/s hallway -->
<g id="node56" class="node"><title>Long n/s hallway</title>
<ellipse fill="none" stroke="black" cx="765" cy="-450" rx="72.2155" ry="18"/>
<text text-anchor="middle" x="765" y="-446.3" font-family="Times,serif" font-size="14.00">Long n/s hallway</text>
</g>
<!-- Red room&#45;&gt;Long n/s hallway -->
<g id="edge57" class="edge"><title>Red room&#45;&gt;Long n/s hallway</title>
<path fill="none" stroke="black" d="M765,-503.697C765,-492.846 765,-478.917 765,-468.104"/>
<text text-anchor="middle" x="761.5" y="-492.497" font-family="Times,serif" font-size="14.00">d</text>
</g>
<!-- Yellow room&#45;&gt;Red room -->
<g id="edge55" class="edge"><title>Yellow room&#45;&gt;Red room</title>
<path fill="none" stroke="black" d="M765,-575.697C765,-564.846 765,-550.917 765,-540.104"/>
<text text-anchor="middle" x="762" y="-564.497" font-family="Times,serif" font-size="14.00">s</text>
</g>
<!-- towel -->
<g id="node55" class="node"><title>towel</title>
<ellipse fill="none" stroke="black" cx="659" cy="-594" rx="30.3206" ry="18"/>
<text text-anchor="middle" x="659" y="-590.3" font-family="Times,serif" font-size="14.00">towel</text>
</g>
<!-- towel&#45;&gt;Red room -->
<g id="edge56" class="edge"><title>towel&#45;&gt;Red room</title>
<path fill="none" stroke="black" stroke-dasharray="1,5" d="M678.442,-580.161C696.492,-568.241 723.364,-550.496 742.37,-537.944"/>
</g>
<!-- 3/4 north -->
<g id="node57" class="node"><title>3/4 north</title>
<ellipse fill="none" stroke="black" cx="898" cy="-378" rx="42.3456" ry="18"/>
<text text-anchor="middle" x="898" y="-374.3" font-family="Times,serif" font-size="14.00">3/4 north</text>
</g>
<!-- Long n/s hallway&#45;&gt;3/4 north -->
<g id="edge58" class="edge"><title>Long n/s hallway&#45;&gt;3/4 north</title>
<path fill="none" stroke="black" d="M794.517,-433.465C817.782,-421.22 849.901,-404.315 872.159,-392.6"/>
<text text-anchor="middle" x="791.017" y="-422.265" font-family="Times,serif" font-size="14.00">n</text>
</g>
<!-- 3/4 south -->
<g id="node65" class="node"><title>3/4 south</title>
<ellipse fill="none" stroke="black" cx="733" cy="-378" rx="43.319" ry="18"/>
<text text-anchor="middle" x="733" y="-374.3" font-family="Times,serif" font-size="14.00">3/4 south</text>
</g>
<!-- Long n/s hallway&#45;&gt;3/4 south -->
<g id="edge67" class="edge"><title>Long n/s hallway&#45;&gt;3/4 south</title>
<path fill="none" stroke="black" d="M757.254,-432.055C752.222,-421.049 745.692,-406.764 740.675,-395.789"/>
<text text-anchor="middle" x="754.254" y="-420.855" font-family="Times,serif" font-size="14.00">s</text>
</g>
<!-- North end of long hallway -->
<g id="node58" class="node"><title>North end of long hallway</title>
<ellipse fill="none" stroke="black" cx="944" cy="-306" rx="104.461" ry="18"/>
<text text-anchor="middle" x="944" y="-302.3" font-family="Times,serif" font-size="14.00">North end of long hallway</text>
</g>
<!-- 3/4 north&#45;&gt;North end of long hallway -->
<g id="edge59" class="edge"><title>3/4 north&#45;&gt;North end of long hallway</title>
<path fill="none" stroke="black" d="M908.901,-360.411C916.128,-349.414 925.582,-335.027 932.857,-323.956"/>
<text text-anchor="middle" x="905.401" y="-349.211" font-family="Times,serif" font-size="14.00">n</text>
</g>
<!-- Stair landing -->
<g id="node59" class="node"><title>Stair landing</title>
<ellipse fill="none" stroke="black" cx="944" cy="-234" rx="55.3436" ry="18"/>
<text text-anchor="middle" x="944" y="-230.3" font-family="Times,serif" font-size="14.00">Stair landing</text>
</g>
<!-- North end of long hallway&#45;&gt;Stair landing -->
<g id="edge60" class="edge"><title>North end of long hallway&#45;&gt;Stair landing</title>
<path fill="none" stroke="black" d="M944,-287.697C944,-276.846 944,-262.917 944,-252.104"/>
<text text-anchor="middle" x="940.5" y="-276.497" font-family="Times,serif" font-size="14.00">u</text>
</g>
<!-- Top of staircase -->
<g id="node61" class="node"><title>Top of staircase</title>
<ellipse fill="none" stroke="black" cx="776" cy="-162" rx="67.3907" ry="18"/>
<text text-anchor="middle" x="776" y="-158.3" font-family="Times,serif" font-size="14.00">Top of staircase</text>
</g>
<!-- Stair landing&#45;&gt;Top of staircase -->
<g id="edge62" class="edge"><title>Stair landing&#45;&gt;Top of staircase</title>
<path fill="none" stroke="black" d="M911.209,-219.337C882.276,-207.281 840.234,-189.764 810.732,-177.472"/>
<text text-anchor="middle" x="907.709" y="-208.137" font-family="Times,serif" font-size="14.00">u</text>
</g>
<!-- box -->
<g id="node60" class="node"><title>box</title>
<ellipse fill="none" stroke="black" cx="1094" cy="-306" rx="27" ry="18"/>
<text text-anchor="middle" x="1094" y="-302.3" font-family="Times,serif" font-size="14.00">box</text>
</g>
<!-- box&#45;&gt;Stair landing -->
<g id="edge61" class="edge"><title>box&#45;&gt;Stair landing</title>
<path fill="none" stroke="black" stroke-dasharray="1,5" d="M1072.51,-294.971C1046.75,-282.949 1003.41,-262.726 974.273,-249.127"/>
</g>
<!-- NE crawlway -->
<g id="node62" class="node"><title>NE crawlway</title>
<ellipse fill="none" stroke="black" cx="687" cy="-90" rx="59.2173" ry="18"/>
<text text-anchor="middle" x="687" y="-86.3" font-family="Times,serif" font-size="14.00">NE crawlway</text>
</g>
<!-- Top of staircase&#45;&gt;NE crawlway -->
<g id="edge63" class="edge"><title>Top of staircase&#45;&gt;NE crawlway</title>
<path fill="none" stroke="black" d="M755.358,-144.765C740.98,-133.456 721.884,-118.437 707.53,-107.147"/>
<text text-anchor="middle" x="748.858" y="-133.565" font-family="Times,serif" font-size="14.00">ne</text>
</g>
<!-- Small crawlspace -->
<g id="node63" class="node"><title>Small crawlspace</title>
<ellipse fill="none" stroke="black" cx="687" cy="-18" rx="73.1654" ry="18"/>
<text text-anchor="middle" x="687" y="-14.3" font-family="Times,serif" font-size="14.00">Small crawlspace</text>
</g>
<!-- NE crawlway&#45;&gt;Small crawlspace -->
<g id="edge64" class="edge"><title>NE crawlway&#45;&gt;Small crawlspace</title>
<path fill="none" stroke="black" d="M687,-71.6966C687,-60.8463 687,-46.9167 687,-36.1043"/>
<text text-anchor="middle" x="680.5" y="-60.4966" font-family="Times,serif" font-size="14.00">ne</text>
</g>
<!-- Small crawlspace&#45;&gt;N/S/W Junction -->
<g id="edge66" class="edge"><title>Small crawlspace&#45;&gt;N/S/W Junction</title>
<path fill="none" stroke="black" d="M643.742,-32.7557C591.919,-52.2603 512,-93.3125 512,-161 512,-1027 512,-1027 512,-1027 512,-1067.45 505.789,-1084.37 531,-1116 547.325,-1136.48 573.394,-1149.41 596.485,-1157.36"/>
<text text-anchor="middle" x="640.242" y="-36.5557" font-family="Times,serif" font-size="14.00">d</text>
</g>
<!-- axe -->
<g id="node64" class="node"><title>axe</title>
<ellipse fill="none" stroke="black" cx="791" cy="-90" rx="27" ry="18"/>
<text text-anchor="middle" x="791" y="-86.3" font-family="Times,serif" font-size="14.00">axe</text>
</g>
<!-- axe&#45;&gt;Small crawlspace -->
<g id="edge65" class="edge"><title>axe&#45;&gt;Small crawlspace</title>
<path fill="none" stroke="black" stroke-dasharray="1,5" d="M772.407,-76.4854C755.23,-64.9238 729.618,-47.6855 710.923,-35.102"/>
</g>
<!-- South end of long hallway -->
<g id="node66" class="node"><title>South end of long hallway</title>
<ellipse fill="none" stroke="black" cx="717" cy="-306" rx="104.461" ry="18"/>
<text text-anchor="middle" x="717" y="-302.3" font-family="Times,serif" font-size="14.00">South end of long hallway</text>
</g>
<!-- 3/4 south&#45;&gt;South end of long hallway -->
<g id="edge68" class="edge"><title>3/4 south&#45;&gt;South end of long hallway</title>
<path fill="none" stroke="black" d="M729.127,-360.055C726.648,-349.211 723.442,-335.183 720.949,-324.275"/>
<text text-anchor="middle" x="726.127" y="-348.855" font-family="Times,serif" font-size="14.00">s</text>
</g>
<!-- PC area -->
<g id="node67" class="node"><title>PC area</title>
<ellipse fill="none" stroke="black" cx="648" cy="-234" rx="38.0212" ry="18"/>
<text text-anchor="middle" x="648" y="-230.3" font-family="Times,serif" font-size="14.00">PC area</text>
</g>
<!-- South end of long hallway&#45;&gt;PC area -->
<g id="edge69" class="edge"><title>South end of long hallway&#45;&gt;PC area</title>
<path fill="none" stroke="black" d="M700.297,-288.055C689.129,-276.726 674.536,-261.92 663.603,-250.829"/>
<text text-anchor="middle" x="697.297" y="-276.855" font-family="Times,serif" font-size="14.00">s</text>
</g>
<!-- pc -->
<g id="node68" class="node"><title>pc</title>
<ellipse fill="none" stroke="black" cx="567" cy="-306" rx="27" ry="18"/>
<text text-anchor="middle" x="567" y="-302.3" font-family="Times,serif" font-size="14.00">pc</text>
</g>
<!-- pc&#45;&gt;PC area -->
<g id="edge70" class="edge"><title>pc&#45;&gt;PC area</title>
<path fill="none" stroke="black" stroke-dasharray="1,5" d="M583.003,-291.17C596.65,-279.376 616.242,-262.446 630.343,-250.259"/>
</g>
</g>
</svg>
