<?xml version="1.0" encoding="UTF-8" standalone="no"?>
<!DOCTYPE svg PUBLIC "-//W3C//DTD SVG 1.1//EN"
 "http://www.w3.org/Graphics/SVG/1.1/DTD/svg11.dtd">
<!-- Generated by graphviz version 2.40.1 (20161225.0304)
 -->
<!-- Title: %0 Pages: 1 -->
<svg width="1301pt" height="2852pt"
 viewBox="0.00 0.00 1300.63 2852.00" xmlns="http://www.w3.org/2000/svg" xmlns:xlink="http://www.w3.org/1999/xlink">
<g id="graph0" class="graph" transform="scale(1 1) rotate(0) translate(4 2848)">
<title>%0</title>
<polygon fill="#ffffff" stroke="transparent" points="-4,4 -4,-2848 1296.6326,-2848 1296.6326,4 -4,4"/>
<!-- shovel -->
<g id="node1" class="node">
<title>shovel</title>
<ellipse fill="none" stroke="#000000" cx="319.7947" cy="-2826" rx="37.0935" ry="18"/>
<text text-anchor="middle" x="319.7947" y="-2822.3" font-family="Times,serif" font-size="14.00" fill="#000000">shovel</text>
</g>
<!-- Dead end -->
<g id="node2" class="node">
<title>Dead end</title>
<ellipse fill="none" stroke="#000000" cx="319.7947" cy="-2754" rx="48.9926" ry="18"/>
<text text-anchor="middle" x="319.7947" y="-2750.3" font-family="Times,serif" font-size="14.00" fill="#000000">Dead end</text>
</g>
<!-- shovel&#45;&gt;Dead end -->
<g id="edge1" class="edge">
<title>shovel&#45;&gt;Dead end</title>
<path fill="none" stroke="#000000" stroke-dasharray="1,5" d="M319.7947,-2807.8314C319.7947,-2797 319.7947,-2783.2876 319.7947,-2772.4133"/>
</g>
<!-- E/W Dirt road -->
<g id="node3" class="node">
<title>E/W Dirt road</title>
<ellipse fill="none" stroke="#000000" cx="373.7947" cy="-2682" rx="66.8882" ry="18"/>
<text text-anchor="middle" x="373.7947" y="-2678.3" font-family="Times,serif" font-size="14.00" fill="#000000">E/W Dirt road</text>
</g>
<!-- Dead end&#45;&gt;E/W Dirt road -->
<g id="edge2" class="edge">
<title>Dead end&#45;&gt;E/W Dirt road</title>
<path fill="none" stroke="#000000" d="M332.8666,-2736.5708C341.2319,-2725.4171 352.0535,-2710.9882 360.468,-2699.7689"/>
</g>
<!-- Fork -->
<g id="node5" class="node">
<title>Fork</title>
<ellipse fill="none" stroke="#000000" cx="429.7947" cy="-2610" rx="29.4969" ry="18"/>
<text text-anchor="middle" x="429.7947" y="-2606.3" font-family="Times,serif" font-size="14.00" fill="#000000">Fork</text>
</g>
<!-- E/W Dirt road&#45;&gt;Fork -->
<g id="edge4" class="edge">
<title>E/W Dirt road&#45;&gt;Fork</title>
<path fill="none" stroke="#000000" d="M387.6374,-2664.2022C396.5768,-2652.7088 408.1288,-2637.8561 416.879,-2626.6058"/>
</g>
<!-- boulder -->
<g id="node4" class="node">
<title>boulder</title>
<ellipse fill="none" stroke="#000000" cx="427.7947" cy="-2754" rx="40.8928" ry="18"/>
<text text-anchor="middle" x="427.7947" y="-2750.3" font-family="Times,serif" font-size="14.00" fill="#000000">boulder</text>
</g>
<!-- boulder&#45;&gt;E/W Dirt road -->
<g id="edge3" class="edge">
<title>boulder&#45;&gt;E/W Dirt road</title>
<path fill="none" stroke="#000000" stroke-dasharray="1,5" d="M414.7228,-2736.5708C406.3575,-2725.4171 395.5359,-2710.9882 387.1214,-2699.7689"/>
</g>
<!-- SE/NW road -->
<g id="node7" class="node">
<title>SE/NW road</title>
<ellipse fill="none" stroke="#000000" cx="320.7947" cy="-2538" rx="61.99" ry="18"/>
<text text-anchor="middle" x="320.7947" y="-2534.3" font-family="Times,serif" font-size="14.00" fill="#000000">SE/NW road</text>
</g>
<!-- Fork&#45;&gt;SE/NW road -->
<g id="edge6" class="edge">
<title>Fork&#45;&gt;SE/NW road</title>
<path fill="none" stroke="#000000" d="M409.8024,-2596.7941C391.8562,-2584.9397 365.4295,-2567.4836 346.0326,-2554.6709"/>
</g>
<!-- NE/SW road -->
<g id="node13" class="node">
<title>NE/SW road</title>
<ellipse fill="none" stroke="#000000" cx="471.7947" cy="-2538" rx="61.99" ry="18"/>
<text text-anchor="middle" x="471.7947" y="-2534.3" font-family="Times,serif" font-size="14.00" fill="#000000">NE/SW road</text>
</g>
<!-- Fork&#45;&gt;NE/SW road -->
<g id="edge12" class="edge">
<title>Fork&#45;&gt;NE/SW road</title>
<path fill="none" stroke="#000000" d="M439.7481,-2592.937C446.2492,-2581.7923 454.7248,-2567.2627 461.3266,-2555.9453"/>
</g>
<!-- cpu -->
<g id="node6" class="node">
<title>cpu</title>
<ellipse fill="none" stroke="#000000" cx="485.7947" cy="-2682" rx="27" ry="18"/>
<text text-anchor="middle" x="485.7947" y="-2678.3" font-family="Times,serif" font-size="14.00" fill="#000000">cpu</text>
</g>
<!-- cpu&#45;&gt;Fork -->
<g id="edge5" class="edge">
<title>cpu&#45;&gt;Fork</title>
<path fill="none" stroke="#000000" stroke-dasharray="1,5" d="M473.0874,-2665.6621C463.9227,-2653.8788 451.6049,-2638.0416 442.4517,-2626.2733"/>
</g>
<!-- Bear hangout -->
<g id="node9" class="node">
<title>Bear hangout</title>
<ellipse fill="none" stroke="#000000" cx="192.7947" cy="-2466" rx="65.7887" ry="18"/>
<text text-anchor="middle" x="192.7947" y="-2462.3" font-family="Times,serif" font-size="14.00" fill="#000000">Bear hangout</text>
</g>
<!-- SE/NW road&#45;&gt;Bear hangout -->
<g id="edge8" class="edge">
<title>SE/NW road&#45;&gt;Bear hangout</title>
<path fill="none" stroke="#000000" d="M292.069,-2521.8418C271.1358,-2510.0669 242.8809,-2494.1735 221.8674,-2482.3534"/>
</g>
<!-- food -->
<g id="node8" class="node">
<title>food</title>
<ellipse fill="none" stroke="#000000" cx="320.7947" cy="-2610" rx="30.5947" ry="18"/>
<text text-anchor="middle" x="320.7947" y="-2606.3" font-family="Times,serif" font-size="14.00" fill="#000000">food</text>
</g>
<!-- food&#45;&gt;SE/NW road -->
<g id="edge7" class="edge">
<title>food&#45;&gt;SE/NW road</title>
<path fill="none" stroke="#000000" stroke-dasharray="1,5" d="M320.7947,-2591.8314C320.7947,-2581 320.7947,-2567.2876 320.7947,-2556.4133"/>
</g>
<!-- Hidden area -->
<g id="node11" class="node">
<title>Hidden area</title>
<ellipse fill="none" stroke="#000000" cx="59.7947" cy="-2394" rx="59.5901" ry="18"/>
<text text-anchor="middle" x="59.7947" y="-2390.3" font-family="Times,serif" font-size="14.00" fill="#000000">Hidden area</text>
</g>
<!-- Bear hangout&#45;&gt;Hidden area -->
<g id="edge10" class="edge">
<title>Bear hangout&#45;&gt;Hidden area</title>
<path fill="none" stroke="#000000" d="M162.9469,-2449.8418C140.8897,-2437.901 111.0088,-2421.7249 89.085,-2409.8564"/>
</g>
<!-- key -->
<g id="node10" class="node">
<title>key</title>
<ellipse fill="none" stroke="#000000" cx="192.7947" cy="-2538" rx="27" ry="18"/>
<text text-anchor="middle" x="192.7947" y="-2534.3" font-family="Times,serif" font-size="14.00" fill="#000000">key</text>
</g>
<!-- key&#45;&gt;Bear hangout -->
<g id="edge9" class="edge">
<title>key&#45;&gt;Bear hangout</title>
<path fill="none" stroke="#000000" stroke-dasharray="1,5" d="M192.7947,-2519.8314C192.7947,-2509 192.7947,-2495.2876 192.7947,-2484.4133"/>
</g>
<!-- bracelet -->
<g id="node12" class="node">
<title>bracelet</title>
<ellipse fill="none" stroke="#000000" cx="59.7947" cy="-2466" rx="44.393" ry="18"/>
<text text-anchor="middle" x="59.7947" y="-2462.3" font-family="Times,serif" font-size="14.00" fill="#000000">bracelet</text>
</g>
<!-- bracelet&#45;&gt;Hidden area -->
<g id="edge11" class="edge">
<title>bracelet&#45;&gt;Hidden area</title>
<path fill="none" stroke="#000000" stroke-dasharray="1,5" d="M59.7947,-2447.8314C59.7947,-2437 59.7947,-2423.2876 59.7947,-2412.4133"/>
</g>
<!-- Building front -->
<g id="node14" class="node">
<title>Building front</title>
<ellipse fill="none" stroke="#000000" cx="474.7947" cy="-2466" rx="65.7887" ry="18"/>
<text text-anchor="middle" x="474.7947" y="-2462.3" font-family="Times,serif" font-size="14.00" fill="#000000">Building front</text>
</g>
<!-- NE/SW road&#45;&gt;Building front -->
<g id="edge13" class="edge">
<title>NE/SW road&#45;&gt;Building front</title>
<path fill="none" stroke="#000000" d="M472.5517,-2519.8314C473.003,-2509 473.5744,-2495.2876 474.0275,-2484.4133"/>
</g>
<!-- Old Building hallway -->
<g id="node15" class="node">
<title>Old Building hallway</title>
<ellipse fill="none" stroke="#000000" cx="477.7947" cy="-2394" rx="89.8845" ry="18"/>
<text text-anchor="middle" x="477.7947" y="-2390.3" font-family="Times,serif" font-size="14.00" fill="#000000">Old Building hallway</text>
</g>
<!-- Building front&#45;&gt;Old Building hallway -->
<g id="edge14" class="edge">
<title>Building front&#45;&gt;Old Building hallway</title>
<path fill="none" stroke="#000000" d="M475.5517,-2447.8314C476.003,-2437 476.5744,-2423.2876 477.0275,-2412.4133"/>
</g>
<!-- Computer room -->
<g id="node16" class="node">
<title>Computer room</title>
<ellipse fill="none" stroke="#000000" cx="296.7947" cy="-2322" rx="75.2868" ry="18"/>
<text text-anchor="middle" x="296.7947" y="-2318.3" font-family="Times,serif" font-size="14.00" fill="#000000">Computer room</text>
</g>
<!-- Old Building hallway&#45;&gt;Computer room -->
<g id="edge15" class="edge">
<title>Old Building hallway&#45;&gt;Computer room</title>
<path fill="none" stroke="#000000" d="M437.1748,-2377.8418C406.8444,-2365.7767 365.6438,-2349.3875 335.7271,-2337.4869"/>
</g>
<!-- Pockey -->
<g id="node19" class="node">
<title>Pockey</title>
<ellipse fill="none" stroke="#000000" cx="296.7947" cy="-2250" rx="40.0939" ry="18"/>
<text text-anchor="middle" x="296.7947" y="-2246.3" font-family="Times,serif" font-size="14.00" fill="#000000">Pockey</text>
</g>
<!-- Computer room&#45;&gt;Pockey -->
<g id="edge18" class="edge">
<title>Computer room&#45;&gt;Pockey</title>
<path fill="none" stroke="#000000" d="M296.7947,-2303.8314C296.7947,-2293 296.7947,-2279.2876 296.7947,-2268.4133"/>
</g>
<!-- paper -->
<g id="node17" class="node">
<title>paper</title>
<ellipse fill="none" stroke="#000000" cx="171.7947" cy="-2394" rx="33.5952" ry="18"/>
<text text-anchor="middle" x="171.7947" y="-2390.3" font-family="Times,serif" font-size="14.00" fill="#000000">paper</text>
</g>
<!-- paper&#45;&gt;Computer room -->
<g id="edge16" class="edge">
<title>paper&#45;&gt;Computer room</title>
<path fill="none" stroke="#000000" stroke-dasharray="1,5" d="M195.0133,-2380.6261C215.4883,-2368.8325 245.4221,-2351.5906 267.5309,-2338.8559"/>
</g>
<!-- shiny brass key -->
<g id="node18" class="node">
<title>shiny brass key</title>
<ellipse fill="none" stroke="#000000" cx="296.7947" cy="-2394" rx="73.387" ry="18"/>
<text text-anchor="middle" x="296.7947" y="-2390.3" font-family="Times,serif" font-size="14.00" fill="#000000">shiny brass key</text>
</g>
<!-- shiny brass key&#45;&gt;Computer room -->
<g id="edge17" class="edge">
<title>shiny brass key&#45;&gt;Computer room</title>
<path fill="none" stroke="#000000" stroke-dasharray="1,5" d="M296.7947,-2375.8314C296.7947,-2365 296.7947,-2351.2876 296.7947,-2340.4133"/>
</g>
<!-- Receiving room -->
<g id="node20" class="node">
<title>Receiving room</title>
<ellipse fill="none" stroke="#000000" cx="296.7947" cy="-2178" rx="73.387" ry="18"/>
<text text-anchor="middle" x="296.7947" y="-2174.3" font-family="Times,serif" font-size="14.00" fill="#000000">Receiving room</text>
</g>
<!-- Pockey&#45;&gt;Receiving room -->
<g id="edge19" class="edge">
<title>Pockey&#45;&gt;Receiving room</title>
<path fill="none" stroke="#000000" d="M296.7947,-2231.8314C296.7947,-2221 296.7947,-2207.2876 296.7947,-2196.4133"/>
</g>
<!-- Northbound Hallway -->
<g id="node21" class="node">
<title>Northbound Hallway</title>
<ellipse fill="none" stroke="#000000" cx="296.7947" cy="-2106" rx="93.6835" ry="18"/>
<text text-anchor="middle" x="296.7947" y="-2102.3" font-family="Times,serif" font-size="14.00" fill="#000000">Northbound Hallway</text>
</g>
<!-- Receiving room&#45;&gt;Northbound Hallway -->
<g id="edge20" class="edge">
<title>Receiving room&#45;&gt;Northbound Hallway</title>
<path fill="none" stroke="#000000" d="M296.7947,-2159.8314C296.7947,-2149 296.7947,-2135.2876 296.7947,-2124.4133"/>
</g>
<!-- Sauna -->
<g id="node22" class="node">
<title>Sauna</title>
<ellipse fill="none" stroke="#000000" cx="224.7947" cy="-2034" rx="35.9954" ry="18"/>
<text text-anchor="middle" x="224.7947" y="-2030.3" font-family="Times,serif" font-size="14.00" fill="#000000">Sauna</text>
</g>
<!-- Northbound Hallway&#45;&gt;Sauna -->
<g id="edge21" class="edge">
<title>Northbound Hallway&#45;&gt;Sauna</title>
<path fill="none" stroke="#000000" d="M278.9969,-2088.2022C267.3369,-2076.5422 252.2196,-2061.4249 240.9137,-2050.119"/>
</g>
<!-- End of N/S Hallway -->
<g id="node23" class="node">
<title>End of N/S Hallway</title>
<ellipse fill="none" stroke="#000000" cx="368.7947" cy="-2034" rx="90.1842" ry="18"/>
<text text-anchor="middle" x="368.7947" y="-2030.3" font-family="Times,serif" font-size="14.00" fill="#000000">End of N/S Hallway</text>
</g>
<!-- Northbound Hallway&#45;&gt;End of N/S Hallway -->
<g id="edge22" class="edge">
<title>Northbound Hallway&#45;&gt;End of N/S Hallway</title>
<path fill="none" stroke="#000000" d="M314.5925,-2088.2022C325.6695,-2077.1252 339.8667,-2062.928 350.9521,-2051.8425"/>
</g>
<!-- Weight room -->
<g id="node24" class="node">
<title>Weight room</title>
<ellipse fill="none" stroke="#000000" cx="368.7947" cy="-1962" rx="63.8893" ry="18"/>
<text text-anchor="middle" x="368.7947" y="-1958.3" font-family="Times,serif" font-size="14.00" fill="#000000">Weight room</text>
</g>
<!-- End of N/S Hallway&#45;&gt;Weight room -->
<g id="edge23" class="edge">
<title>End of N/S Hallway&#45;&gt;Weight room</title>
<path fill="none" stroke="#000000" d="M368.7947,-2015.8314C368.7947,-2005 368.7947,-1991.2876 368.7947,-1980.4133"/>
</g>
<!-- Maze button room -->
<g id="node25" class="node">
<title>Maze button room</title>
<ellipse fill="none" stroke="#000000" cx="427.7947" cy="-1890" rx="87.1846" ry="18"/>
<text text-anchor="middle" x="427.7947" y="-1886.3" font-family="Times,serif" font-size="14.00" fill="#000000">Maze button room</text>
</g>
<!-- Weight room&#45;&gt;Maze button room -->
<g id="edge24" class="edge">
<title>Weight room&#45;&gt;Maze button room</title>
<path fill="none" stroke="#000000" d="M383.379,-1944.2022C392.456,-1933.1252 404.0898,-1918.928 413.1737,-1907.8425"/>
</g>
<!-- Maze -->
<g id="node27" class="node">
<title>Maze</title>
<ellipse fill="none" stroke="#000000" cx="581.7947" cy="-1818" rx="33.5952" ry="18"/>
<text text-anchor="middle" x="581.7947" y="-1814.3" font-family="Times,serif" font-size="14.00" fill="#000000">Maze</text>
</g>
<!-- Maze button room&#45;&gt;Maze -->
<g id="edge26" class="edge">
<title>Maze button room&#45;&gt;Maze</title>
<path fill="none" stroke="#000000" d="M463.1254,-1873.4817C491.5417,-1860.1962 530.7928,-1841.845 556.2351,-1829.9499"/>
</g>
<!-- button -->
<g id="node26" class="node">
<title>button</title>
<ellipse fill="none" stroke="#000000" cx="487.7947" cy="-1962" rx="37.8943" ry="18"/>
<text text-anchor="middle" x="487.7947" y="-1958.3" font-family="Times,serif" font-size="14.00" fill="#000000">button</text>
</g>
<!-- button&#45;&gt;Maze button room -->
<g id="edge25" class="edge">
<title>button&#45;&gt;Maze button room</title>
<path fill="none" stroke="#000000" stroke-dasharray="1,5" d="M473.5755,-1944.937C464.2883,-1933.7923 452.1803,-1919.2627 442.7491,-1907.9453"/>
</g>
<!-- Maze&#45;&gt;Maze -->
<g id="edge29" class="edge">
<title>Maze&#45;&gt;Maze</title>
<path fill="none" stroke="#000000" d="M606.0397,-1830.7082C620.271,-1833.4157 633.5917,-1829.1797 633.5917,-1818 633.5917,-1806.8203 620.271,-1802.5843 606.0397,-1805.2918"/>
<text text-anchor="middle" x="656.5397" y="-1834.5082" font-family="Times,serif" font-size="14.00" fill="#000000">lot of directions</text>
</g>
<!-- Reception area -->
<g id="node30" class="node">
<title>Reception area</title>
<ellipse fill="none" stroke="#000000" cx="581.7947" cy="-1746" rx="72.2875" ry="18"/>
<text text-anchor="middle" x="581.7947" y="-1742.3" font-family="Times,serif" font-size="14.00" fill="#000000">Reception area</text>
</g>
<!-- Maze&#45;&gt;Reception area -->
<g id="edge30" class="edge">
<title>Maze&#45;&gt;Reception area</title>
<path fill="none" stroke="#000000" d="M581.7947,-1799.8314C581.7947,-1789 581.7947,-1775.2876 581.7947,-1764.4133"/>
</g>
<!-- statuette -->
<g id="node28" class="node">
<title>statuette</title>
<ellipse fill="none" stroke="#000000" cx="581.7947" cy="-1890" rx="48.9926" ry="18"/>
<text text-anchor="middle" x="581.7947" y="-1886.3" font-family="Times,serif" font-size="14.00" fill="#000000">statuette</text>
</g>
<!-- statuette&#45;&gt;Maze -->
<g id="edge27" class="edge">
<title>statuette&#45;&gt;Maze</title>
<path fill="none" stroke="#000000" stroke-dasharray="1,5" d="M581.7947,-1871.8314C581.7947,-1861 581.7947,-1847.2876 581.7947,-1836.4133"/>
</g>
<!-- floppy -->
<g id="node29" class="node">
<title>floppy</title>
<ellipse fill="none" stroke="#000000" cx="683.7947" cy="-1890" rx="35.9954" ry="18"/>
<text text-anchor="middle" x="683.7947" y="-1886.3" font-family="Times,serif" font-size="14.00" fill="#000000">floppy</text>
</g>
<!-- floppy&#45;&gt;Maze -->
<g id="edge28" class="edge">
<title>floppy&#45;&gt;Maze</title>
<path fill="none" stroke="#000000" stroke-dasharray="1,5" d="M662.6602,-1875.0816C644.9211,-1862.5598 619.7389,-1844.7842 602.2061,-1832.408"/>
</g>
<!-- Health Club front -->
<g id="node31" class="node">
<title>Health Club front</title>
<ellipse fill="none" stroke="#000000" cx="581.7947" cy="-1674" rx="81.4863" ry="18"/>
<text text-anchor="middle" x="581.7947" y="-1670.3" font-family="Times,serif" font-size="14.00" fill="#000000">Health Club front</text>
</g>
<!-- Reception area&#45;&gt;Health Club front -->
<g id="edge31" class="edge">
<title>Reception area&#45;&gt;Health Club front</title>
<path fill="none" stroke="#000000" d="M581.7947,-1727.8314C581.7947,-1717 581.7947,-1703.2876 581.7947,-1692.4133"/>
</g>
<!-- Lakefront North -->
<g id="node32" class="node">
<title>Lakefront North</title>
<ellipse fill="none" stroke="#000000" cx="581.7947" cy="-1602" rx="77.1866" ry="18"/>
<text text-anchor="middle" x="581.7947" y="-1598.3" font-family="Times,serif" font-size="14.00" fill="#000000">Lakefront North</text>
</g>
<!-- Health Club front&#45;&gt;Lakefront North -->
<g id="edge32" class="edge">
<title>Health Club front&#45;&gt;Lakefront North</title>
<path fill="none" stroke="#000000" d="M581.7947,-1655.8314C581.7947,-1645 581.7947,-1631.2876 581.7947,-1620.4133"/>
</g>
<!-- Lakefront South -->
<g id="node33" class="node">
<title>Lakefront South</title>
<ellipse fill="none" stroke="#000000" cx="581.7947" cy="-1530" rx="77.1866" ry="18"/>
<text text-anchor="middle" x="581.7947" y="-1526.3" font-family="Times,serif" font-size="14.00" fill="#000000">Lakefront South</text>
</g>
<!-- Lakefront North&#45;&gt;Lakefront South -->
<g id="edge33" class="edge">
<title>Lakefront North&#45;&gt;Lakefront South</title>
<path fill="none" stroke="#000000" d="M581.7947,-1583.8314C581.7947,-1573 581.7947,-1559.2876 581.7947,-1548.4133"/>
</g>
<!-- Cave Entrance -->
<g id="node34" class="node">
<title>Cave Entrance</title>
<ellipse fill="none" stroke="#000000" cx="645.7947" cy="-1458" rx="69.5877" ry="18"/>
<text text-anchor="middle" x="645.7947" y="-1454.3" font-family="Times,serif" font-size="14.00" fill="#000000">Cave Entrance</text>
</g>
<!-- Lakefront South&#45;&gt;Cave Entrance -->
<g id="edge34" class="edge">
<title>Lakefront South&#45;&gt;Cave Entrance</title>
<path fill="none" stroke="#000000" d="M597.6149,-1512.2022C607.5352,-1501.0419 620.2708,-1486.7143 630.1564,-1475.593"/>
<text text-anchor="middle" x="593.6149" y="-1501.0022" font-family="Times,serif" font-size="14.00" fill="#000000">s</text>
</g>
<!-- Misty Room -->
<g id="node36" class="node">
<title>Misty Room</title>
<ellipse fill="none" stroke="#000000" cx="710.7947" cy="-1386" rx="60.3893" ry="18"/>
<text text-anchor="middle" x="710.7947" y="-1382.3" font-family="Times,serif" font-size="14.00" fill="#000000">Misty Room</text>
</g>
<!-- Cave Entrance&#45;&gt;Misty Room -->
<g id="edge36" class="edge">
<title>Cave Entrance&#45;&gt;Misty Room</title>
<path fill="none" stroke="#000000" d="M661.8621,-1440.2022C671.9374,-1429.0419 684.872,-1414.7143 694.9121,-1403.593"/>
<text text-anchor="middle" x="657.8621" y="-1429.0022" font-family="Times,serif" font-size="14.00" fill="#000000">s</text>
</g>
<!-- chute -->
<g id="node35" class="node">
<title>chute</title>
<ellipse fill="none" stroke="#000000" cx="710.7947" cy="-1530" rx="33.5952" ry="18"/>
<text text-anchor="middle" x="710.7947" y="-1526.3" font-family="Times,serif" font-size="14.00" fill="#000000">chute</text>
</g>
<!-- chute&#45;&gt;Cave Entrance -->
<g id="edge35" class="edge">
<title>chute&#45;&gt;Cave Entrance</title>
<path fill="none" stroke="#000000" stroke-dasharray="1,5" d="M696.0452,-1513.6621C685.7821,-1502.2938 672.1124,-1487.1519 661.6215,-1475.5312"/>
</g>
<!-- Cave E/W passage -->
<g id="node38" class="node">
<title>Cave E/W passage</title>
<ellipse fill="none" stroke="#000000" cx="710.7947" cy="-1314" rx="87.1846" ry="18"/>
<text text-anchor="middle" x="710.7947" y="-1310.3" font-family="Times,serif" font-size="14.00" fill="#000000">Cave E/W passage</text>
</g>
<!-- Misty Room&#45;&gt;Cave E/W passage -->
<g id="edge38" class="edge">
<title>Misty Room&#45;&gt;Cave E/W passage</title>
<path fill="none" stroke="#000000" d="M710.7947,-1367.8314C710.7947,-1357 710.7947,-1343.2876 710.7947,-1332.4133"/>
<text text-anchor="middle" x="706.7947" y="-1356.6314" font-family="Times,serif" font-size="14.00" fill="#000000">e</text>
</g>
<!-- gold bar -->
<g id="node37" class="node">
<title>gold bar</title>
<ellipse fill="none" stroke="#000000" cx="776.7947" cy="-1458" rx="43.5923" ry="18"/>
<text text-anchor="middle" x="776.7947" y="-1454.3" font-family="Times,serif" font-size="14.00" fill="#000000">gold bar</text>
</g>
<!-- gold bar&#45;&gt;Misty Room -->
<g id="edge37" class="edge">
<title>gold bar&#45;&gt;Misty Room</title>
<path fill="none" stroke="#000000" stroke-dasharray="1,5" d="M761.1536,-1440.937C750.7852,-1429.626 737.2206,-1414.8282 726.782,-1403.4407"/>
</g>
<!-- N/S/W Junction -->
<g id="node39" class="node">
<title>N/S/W Junction</title>
<ellipse fill="none" stroke="#000000" cx="710.7947" cy="-1242" rx="76.8869" ry="18"/>
<text text-anchor="middle" x="710.7947" y="-1238.3" font-family="Times,serif" font-size="14.00" fill="#000000">N/S/W Junction</text>
</g>
<!-- Cave E/W passage&#45;&gt;N/S/W Junction -->
<g id="edge39" class="edge">
<title>Cave E/W passage&#45;&gt;N/S/W Junction</title>
<path fill="none" stroke="#000000" d="M710.7947,-1295.8314C710.7947,-1285 710.7947,-1271.2876 710.7947,-1260.4133"/>
<text text-anchor="middle" x="706.7947" y="-1284.6314" font-family="Times,serif" font-size="14.00" fill="#000000">e</text>
</g>
<!-- North end of cave passage -->
<g id="node40" class="node">
<title>North end of cave passage</title>
<ellipse fill="none" stroke="#000000" cx="1074.7947" cy="-1170" rx="121.5784" ry="18"/>
<text text-anchor="middle" x="1074.7947" y="-1166.3" font-family="Times,serif" font-size="14.00" fill="#000000">North end of cave passage</text>
</g>
<!-- N/S/W Junction&#45;&gt;North end of cave passage -->
<g id="edge40" class="edge">
<title>N/S/W Junction&#45;&gt;North end of cave passage</title>
<path fill="none" stroke="#000000" d="M769.6821,-1230.3519C832.9629,-1217.8349 933.6251,-1197.9237 1001.8684,-1184.425"/>
<text text-anchor="middle" x="765.6821" y="-1219.1519" font-family="Times,serif" font-size="14.00" fill="#000000">n</text>
</g>
<!-- South end of cave passage -->
<g id="node41" class="node">
<title>South end of cave passage</title>
<ellipse fill="none" stroke="#000000" cx="710.7947" cy="-1170" rx="121.5784" ry="18"/>
<text text-anchor="middle" x="710.7947" y="-1166.3" font-family="Times,serif" font-size="14.00" fill="#000000">South end of cave passage</text>
</g>
<!-- N/S/W Junction&#45;&gt;South end of cave passage -->
<g id="edge41" class="edge">
<title>N/S/W Junction&#45;&gt;South end of cave passage</title>
<path fill="none" stroke="#000000" d="M710.7947,-1223.8314C710.7947,-1213 710.7947,-1199.2876 710.7947,-1188.4133"/>
<text text-anchor="middle" x="706.7947" y="-1212.6314" font-family="Times,serif" font-size="14.00" fill="#000000">s</text>
</g>
<!-- Bedroom -->
<g id="node43" class="node">
<title>Bedroom</title>
<ellipse fill="none" stroke="#000000" cx="892.7947" cy="-1098" rx="48.1917" ry="18"/>
<text text-anchor="middle" x="892.7947" y="-1094.3" font-family="Times,serif" font-size="14.00" fill="#000000">Bedroom</text>
</g>
<!-- North end of cave passage&#45;&gt;Bedroom -->
<g id="edge43" class="edge">
<title>North end of cave passage&#45;&gt;Bedroom</title>
<path fill="none" stroke="#000000" d="M1032.1238,-1153.1192C999.7635,-1140.3173 955.9166,-1122.9713 926.1134,-1111.181"/>
<text text-anchor="middle" x="1028.1238" y="-1141.9192" font-family="Times,serif" font-size="14.00" fill="#000000">d</text>
</g>
<!-- Gamma Computing Center -->
<g id="node44" class="node">
<title>Gamma Computing Center</title>
<ellipse fill="none" stroke="#000000" cx="1076.7947" cy="-1098" rx="118.0794" ry="18"/>
<text text-anchor="middle" x="1076.7947" y="-1094.3" font-family="Times,serif" font-size="14.00" fill="#000000">Gamma Computing Center</text>
</g>
<!-- North end of cave passage&#45;&gt;Gamma Computing Center -->
<g id="edge44" class="edge">
<title>North end of cave passage&#45;&gt;Gamma Computing Center</title>
<path fill="none" stroke="#000000" d="M1075.2994,-1151.8314C1075.6002,-1141 1075.9812,-1127.2876 1076.2832,-1116.4133"/>
<text text-anchor="middle" x="1069.7994" y="-1140.6314" font-family="Times,serif" font-size="14.00" fill="#000000">w</text>
</g>
<!-- Bathroom -->
<g id="node42" class="node">
<title>Bathroom</title>
<ellipse fill="none" stroke="#000000" cx="695.7947" cy="-1026" rx="51.9908" ry="18"/>
<text text-anchor="middle" x="695.7947" y="-1022.3" font-family="Times,serif" font-size="14.00" fill="#000000">Bathroom</text>
</g>
<!-- South end of cave passage&#45;&gt;Bathroom -->
<g id="edge42" class="edge">
<title>South end of cave passage&#45;&gt;Bathroom</title>
<path fill="none" stroke="#000000" d="M708.8949,-1151.7623C706.0096,-1124.0633 700.5552,-1071.7005 697.679,-1044.0896"/>
<text text-anchor="middle" x="704.8949" y="-1140.5623" font-family="Times,serif" font-size="14.00" fill="#000000">d</text>
</g>
<!-- Bedroom&#45;&gt;Bathroom -->
<g id="edge47" class="edge">
<title>Bedroom&#45;&gt;Bathroom</title>
<path fill="none" stroke="#000000" d="M858.0285,-1085.2936C822.5713,-1072.3346 767.8048,-1052.3184 731.8783,-1039.1879"/>
<text text-anchor="middle" x="854.0285" y="-1074.0936" font-family="Times,serif" font-size="14.00" fill="#000000">s</text>
</g>
<!-- NE end of NE/SW cave passage -->
<g id="node46" class="node">
<title>NE end of NE/SW cave passage</title>
<ellipse fill="none" stroke="#000000" cx="907.7947" cy="-1026" rx="141.8751" ry="18"/>
<text text-anchor="middle" x="907.7947" y="-1022.3" font-family="Times,serif" font-size="14.00" fill="#000000">NE end of NE/SW cave passage</text>
</g>
<!-- Bedroom&#45;&gt;NE end of NE/SW cave passage -->
<g id="edge46" class="edge">
<title>Bedroom&#45;&gt;NE end of NE/SW cave passage</title>
<path fill="none" stroke="#000000" d="M896.5798,-1079.8314C898.8364,-1069 901.6931,-1055.2876 903.9586,-1044.4133"/>
<text text-anchor="middle" x="892.5798" y="-1068.6314" font-family="Times,serif" font-size="14.00" fill="#000000">d</text>
</g>
<!-- painting -->
<g id="node45" class="node">
<title>painting</title>
<ellipse fill="none" stroke="#000000" cx="892.7947" cy="-1170" rx="42.4939" ry="18"/>
<text text-anchor="middle" x="892.7947" y="-1166.3" font-family="Times,serif" font-size="14.00" fill="#000000">painting</text>
</g>
<!-- painting&#45;&gt;Bedroom -->
<g id="edge45" class="edge">
<title>painting&#45;&gt;Bedroom</title>
<path fill="none" stroke="#000000" stroke-dasharray="1,5" d="M892.7947,-1151.8314C892.7947,-1141 892.7947,-1127.2876 892.7947,-1116.4133"/>
</g>
<!-- NE/SW&#45;E/W junction -->
<g id="node48" class="node">
<title>NE/SW&#45;E/W junction</title>
<ellipse fill="none" stroke="#000000" cx="907.7947" cy="-954" rx="94.7833" ry="18"/>
<text text-anchor="middle" x="907.7947" y="-950.3" font-family="Times,serif" font-size="14.00" fill="#000000">NE/SW&#45;E/W junction</text>
</g>
<!-- NE end of NE/SW cave passage&#45;&gt;NE/SW&#45;E/W junction -->
<g id="edge49" class="edge">
<title>NE end of NE/SW cave passage&#45;&gt;NE/SW&#45;E/W junction</title>
<path fill="none" stroke="#000000" d="M907.7947,-1007.8314C907.7947,-997 907.7947,-983.2876 907.7947,-972.4133"/>
<text text-anchor="middle" x="898.2947" y="-996.6314" font-family="Times,serif" font-size="14.00" fill="#000000">sw</text>
</g>
<!-- urinal -->
<g id="node47" class="node">
<title>urinal</title>
<ellipse fill="none" stroke="#000000" cx="650.7947" cy="-1098" rx="32.4942" ry="18"/>
<text text-anchor="middle" x="650.7947" y="-1094.3" font-family="Times,serif" font-size="14.00" fill="#000000">urinal</text>
</g>
<!-- urinal&#45;&gt;Bathroom -->
<g id="edge48" class="edge">
<title>urinal&#45;&gt;Bathroom</title>
<path fill="none" stroke="#000000" stroke-dasharray="1,5" d="M661.4591,-1080.937C668.4765,-1069.7091 677.6412,-1055.0456 684.7369,-1043.6924"/>
</g>
<!-- East end of E/W cave passage -->
<g id="node49" class="node">
<title>East end of E/W cave passage</title>
<ellipse fill="none" stroke="#000000" cx="1156.7947" cy="-882" rx="135.6761" ry="18"/>
<text text-anchor="middle" x="1156.7947" y="-878.3" font-family="Times,serif" font-size="14.00" fill="#000000">East end of E/W cave passage</text>
</g>
<!-- NE/SW&#45;E/W junction&#45;&gt;East end of E/W cave passage -->
<g id="edge50" class="edge">
<title>NE/SW&#45;E/W junction&#45;&gt;East end of E/W cave passage</title>
<path fill="none" stroke="#000000" d="M959.9933,-938.9064C1000.9215,-927.0718 1057.8028,-910.6241 1099.8922,-898.4537"/>
<text text-anchor="middle" x="955.9933" y="-927.7064" font-family="Times,serif" font-size="14.00" fill="#000000">e</text>
</g>
<!-- West end of E/W cave passage -->
<g id="node51" class="node">
<title>West end of E/W cave passage</title>
<ellipse fill="none" stroke="#000000" cx="863.7947" cy="-882" rx="139.1754" ry="18"/>
<text text-anchor="middle" x="863.7947" y="-878.3" font-family="Times,serif" font-size="14.00" fill="#000000">West end of E/W cave passage</text>
</g>
<!-- NE/SW&#45;E/W junction&#45;&gt;West end of E/W cave passage -->
<g id="edge52" class="edge">
<title>NE/SW&#45;E/W junction&#45;&gt;West end of E/W cave passage</title>
<path fill="none" stroke="#000000" d="M896.6916,-935.8314C890.0725,-925 881.6927,-911.2876 875.0472,-900.4133"/>
<text text-anchor="middle" x="891.1916" y="-924.6314" font-family="Times,serif" font-size="14.00" fill="#000000">w</text>
</g>
<!-- Horseshoe boulder room -->
<g id="node50" class="node">
<title>Horseshoe boulder room</title>
<ellipse fill="none" stroke="#000000" cx="1156.7947" cy="-810" rx="113.18" ry="18"/>
<text text-anchor="middle" x="1156.7947" y="-806.3" font-family="Times,serif" font-size="14.00" fill="#000000">Horseshoe boulder room</text>
</g>
<!-- East end of E/W cave passage&#45;&gt;Horseshoe boulder room -->
<g id="edge51" class="edge">
<title>East end of E/W cave passage&#45;&gt;Horseshoe boulder room</title>
<path fill="none" stroke="#000000" d="M1156.7947,-863.8314C1156.7947,-853 1156.7947,-839.2876 1156.7947,-828.4133"/>
<text text-anchor="middle" x="1152.7947" y="-852.6314" font-family="Times,serif" font-size="14.00" fill="#000000">u</text>
</g>
<!-- Empty room -->
<g id="node52" class="node">
<title>Empty room</title>
<ellipse fill="none" stroke="#000000" cx="863.7947" cy="-810" rx="61.1893" ry="18"/>
<text text-anchor="middle" x="863.7947" y="-806.3" font-family="Times,serif" font-size="14.00" fill="#000000">Empty room</text>
</g>
<!-- West end of E/W cave passage&#45;&gt;Empty room -->
<g id="edge53" class="edge">
<title>West end of E/W cave passage&#45;&gt;Empty room</title>
<path fill="none" stroke="#000000" d="M863.7947,-863.8314C863.7947,-853 863.7947,-839.2876 863.7947,-828.4133"/>
<text text-anchor="middle" x="859.7947" y="-852.6314" font-family="Times,serif" font-size="14.00" fill="#000000">d</text>
</g>
<!-- Blue room -->
<g id="node53" class="node">
<title>Blue room</title>
<ellipse fill="none" stroke="#000000" cx="819.7947" cy="-738" rx="52.7911" ry="18"/>
<text text-anchor="middle" x="819.7947" y="-734.3" font-family="Times,serif" font-size="14.00" fill="#000000">Blue room</text>
</g>
<!-- Empty room&#45;&gt;Blue room -->
<g id="edge54" class="edge">
<title>Empty room&#45;&gt;Blue room</title>
<path fill="none" stroke="#000000" d="M852.9183,-792.2022C846.149,-781.1252 837.4729,-766.928 830.6985,-755.8425"/>
<text text-anchor="middle" x="848.9183" y="-781.0022" font-family="Times,serif" font-size="14.00" fill="#000000">n</text>
</g>
<!-- Red room -->
<g id="node54" class="node">
<title>Red room</title>
<ellipse fill="none" stroke="#000000" cx="815.7947" cy="-594" rx="50.8918" ry="18"/>
<text text-anchor="middle" x="815.7947" y="-590.3" font-family="Times,serif" font-size="14.00" fill="#000000">Red room</text>
</g>
<!-- Empty room&#45;&gt;Red room -->
<g id="edge55" class="edge">
<title>Empty room&#45;&gt;Red room</title>
<path fill="none" stroke="#000000" d="M872.6093,-791.9182C886.435,-760.8081 909.3337,-695.8878 885.7947,-648 877.3989,-630.9196 860.7132,-617.7164 845.7383,-608.6418"/>
<text text-anchor="middle" x="868.6093" y="-780.7182" font-family="Times,serif" font-size="14.00" fill="#000000">e</text>
</g>
<!-- Yellow room -->
<g id="node55" class="node">
<title>Yellow room</title>
<ellipse fill="none" stroke="#000000" cx="815.7947" cy="-666" rx="61.1893" ry="18"/>
<text text-anchor="middle" x="815.7947" y="-662.3" font-family="Times,serif" font-size="14.00" fill="#000000">Yellow room</text>
</g>
<!-- Blue room&#45;&gt;Yellow room -->
<g id="edge56" class="edge">
<title>Blue room&#45;&gt;Yellow room</title>
<path fill="none" stroke="#000000" d="M818.7853,-719.8314C818.1836,-709 817.4218,-695.2876 816.8177,-684.4133"/>
<text text-anchor="middle" x="814.7853" y="-708.6314" font-family="Times,serif" font-size="14.00" fill="#000000">e</text>
</g>
<!-- Long n/s hallway -->
<g id="node57" class="node">
<title>Long n/s hallway</title>
<ellipse fill="none" stroke="#000000" cx="815.7947" cy="-522" rx="79.0865" ry="18"/>
<text text-anchor="middle" x="815.7947" y="-518.3" font-family="Times,serif" font-size="14.00" fill="#000000">Long n/s hallway</text>
</g>
<!-- Red room&#45;&gt;Long n/s hallway -->
<g id="edge59" class="edge">
<title>Red room&#45;&gt;Long n/s hallway</title>
<path fill="none" stroke="#000000" d="M815.7947,-575.8314C815.7947,-565 815.7947,-551.2876 815.7947,-540.4133"/>
<text text-anchor="middle" x="811.7947" y="-564.6314" font-family="Times,serif" font-size="14.00" fill="#000000">d</text>
</g>
<!-- Yellow room&#45;&gt;Red room -->
<g id="edge57" class="edge">
<title>Yellow room&#45;&gt;Red room</title>
<path fill="none" stroke="#000000" d="M815.7947,-647.8314C815.7947,-637 815.7947,-623.2876 815.7947,-612.4133"/>
<text text-anchor="middle" x="811.7947" y="-636.6314" font-family="Times,serif" font-size="14.00" fill="#000000">s</text>
</g>
<!-- towel -->
<g id="node56" class="node">
<title>towel</title>
<ellipse fill="none" stroke="#000000" cx="703.7947" cy="-666" rx="33.2948" ry="18"/>
<text text-anchor="middle" x="703.7947" y="-662.3" font-family="Times,serif" font-size="14.00" fill="#000000">towel</text>
</g>
<!-- towel&#45;&gt;Red room -->
<g id="edge58" class="edge">
<title>towel&#45;&gt;Red room</title>
<path fill="none" stroke="#000000" stroke-dasharray="1,5" d="M725.3894,-652.1177C744.205,-640.0219 771.4811,-622.4873 791.1465,-609.8453"/>
</g>
<!-- 3/4 north -->
<g id="node58" class="node">
<title>3/4 north</title>
<ellipse fill="none" stroke="#000000" cx="978.7947" cy="-450" rx="50.0912" ry="18"/>
<text text-anchor="middle" x="978.7947" y="-446.3" font-family="Times,serif" font-size="14.00" fill="#000000">3/4 north</text>
</g>
<!-- Long n/s hallway&#45;&gt;3/4 north -->
<g id="edge60" class="edge">
<title>Long n/s hallway&#45;&gt;3/4 north</title>
<path fill="none" stroke="#000000" d="M852.3751,-505.8418C880.8155,-493.2791 919.8692,-476.0284 947.0138,-464.0382"/>
<text text-anchor="middle" x="848.3751" y="-494.6418" font-family="Times,serif" font-size="14.00" fill="#000000">n</text>
</g>
<!-- 3/4 south -->
<g id="node67" class="node">
<title>3/4 south</title>
<ellipse fill="none" stroke="#000000" cx="795.7947" cy="-450" rx="51.1914" ry="18"/>
<text text-anchor="middle" x="795.7947" y="-446.3" font-family="Times,serif" font-size="14.00" fill="#000000">3/4 south</text>
</g>
<!-- Long n/s hallway&#45;&gt;3/4 south -->
<g id="edge70" class="edge">
<title>Long n/s hallway&#45;&gt;3/4 south</title>
<path fill="none" stroke="#000000" d="M810.7478,-503.8314C807.7391,-493 803.9301,-479.2876 800.9095,-468.4133"/>
<text text-anchor="middle" x="806.7478" y="-492.6314" font-family="Times,serif" font-size="14.00" fill="#000000">s</text>
</g>
<!-- North end of long hallway -->
<g id="node59" class="node">
<title>North end of long hallway</title>
<ellipse fill="none" stroke="#000000" cx="1023.7947" cy="-378" rx="115.0796" ry="18"/>
<text text-anchor="middle" x="1023.7947" y="-374.3" font-family="Times,serif" font-size="14.00" fill="#000000">North end of long hallway</text>
</g>
<!-- 3/4 north&#45;&gt;North end of long hallway -->
<g id="edge61" class="edge">
<title>3/4 north&#45;&gt;North end of long hallway</title>
<path fill="none" stroke="#000000" d="M989.9183,-432.2022C996.7894,-421.2085 1005.5814,-407.1413 1012.4865,-396.0931"/>
<text text-anchor="middle" x="985.9183" y="-421.0022" font-family="Times,serif" font-size="14.00" fill="#000000">n</text>
</g>
<!-- Stair landing -->
<g id="node60" class="node">
<title>Stair landing</title>
<ellipse fill="none" stroke="#000000" cx="1023.7947" cy="-306" rx="60.3893" ry="18"/>
<text text-anchor="middle" x="1023.7947" y="-302.3" font-family="Times,serif" font-size="14.00" fill="#000000">Stair landing</text>
</g>
<!-- North end of long hallway&#45;&gt;Stair landing -->
<g id="edge62" class="edge">
<title>North end of long hallway&#45;&gt;Stair landing</title>
<path fill="none" stroke="#000000" d="M1023.7947,-359.8314C1023.7947,-349 1023.7947,-335.2876 1023.7947,-324.4133"/>
<text text-anchor="middle" x="1019.7947" y="-348.6314" font-family="Times,serif" font-size="14.00" fill="#000000">u</text>
</g>
<!-- Up/down staircase -->
<g id="node62" class="node">
<title>Up/down staircase</title>
<ellipse fill="none" stroke="#000000" cx="849.7947" cy="-234" rx="87.9851" ry="18"/>
<text text-anchor="middle" x="849.7947" y="-230.3" font-family="Times,serif" font-size="14.00" fill="#000000">Up/down staircase</text>
</g>
<!-- Stair landing&#45;&gt;Up/down staircase -->
<g id="edge64" class="edge">
<title>Stair landing&#45;&gt;Up/down staircase</title>
<path fill="none" stroke="#000000" d="M988.1633,-291.256C959.3299,-279.3249 918.7684,-262.5409 889.0149,-250.229"/>
<text text-anchor="middle" x="984.1633" y="-280.056" font-family="Times,serif" font-size="14.00" fill="#000000">u</text>
</g>
<!-- box -->
<g id="node61" class="node">
<title>box</title>
<ellipse fill="none" stroke="#000000" cx="1183.7947" cy="-378" rx="27" ry="18"/>
<text text-anchor="middle" x="1183.7947" y="-374.3" font-family="Times,serif" font-size="14.00" fill="#000000">box</text>
</g>
<!-- box&#45;&gt;Stair landing -->
<g id="edge63" class="edge">
<title>box&#45;&gt;Stair landing</title>
<path fill="none" stroke="#000000" stroke-dasharray="1,5" d="M1162.183,-366.9622C1157.4636,-364.6169 1152.4793,-362.1893 1147.7947,-360 1118.12,-346.1318 1083.9656,-331.343 1059.0252,-320.7549"/>
</g>
<!-- Top of staircase -->
<g id="node63" class="node">
<title>Top of staircase</title>
<ellipse fill="none" stroke="#000000" cx="671.7947" cy="-162" rx="78.7863" ry="18"/>
<text text-anchor="middle" x="671.7947" y="-158.3" font-family="Times,serif" font-size="14.00" fill="#000000">Top of staircase</text>
</g>
<!-- Up/down staircase&#45;&gt;Top of staircase -->
<g id="edge65" class="edge">
<title>Up/down staircase&#45;&gt;Top of staircase</title>
<path fill="none" stroke="#000000" d="M809.848,-217.8418C780.2253,-205.8596 740.0591,-189.6126 710.69,-177.7329"/>
<text text-anchor="middle" x="805.848" y="-206.6418" font-family="Times,serif" font-size="14.00" fill="#000000">u</text>
</g>
<!-- NE crawlway -->
<g id="node64" class="node">
<title>NE crawlway</title>
<ellipse fill="none" stroke="#000000" cx="659.7947" cy="-90" rx="63.8893" ry="18"/>
<text text-anchor="middle" x="659.7947" y="-86.3" font-family="Times,serif" font-size="14.00" fill="#000000">NE crawlway</text>
</g>
<!-- Top of staircase&#45;&gt;NE crawlway -->
<g id="edge66" class="edge">
<title>Top of staircase&#45;&gt;NE crawlway</title>
<path fill="none" stroke="#000000" d="M668.7666,-143.8314C666.9614,-133 664.676,-119.2876 662.8636,-108.4133"/>
<text text-anchor="middle" x="660.7666" y="-132.6314" font-family="Times,serif" font-size="14.00" fill="#000000">ne</text>
</g>
<!-- Small crawlspace -->
<g id="node65" class="node">
<title>Small crawlspace</title>
<ellipse fill="none" stroke="#000000" cx="659.7947" cy="-18" rx="81.4863" ry="18"/>
<text text-anchor="middle" x="659.7947" y="-14.3" font-family="Times,serif" font-size="14.00" fill="#000000">Small crawlspace</text>
</g>
<!-- NE crawlway&#45;&gt;Small crawlspace -->
<g id="edge67" class="edge">
<title>NE crawlway&#45;&gt;Small crawlspace</title>
<path fill="none" stroke="#000000" d="M659.7947,-71.8314C659.7947,-61 659.7947,-47.2876 659.7947,-36.4133"/>
<text text-anchor="middle" x="651.7947" y="-60.6314" font-family="Times,serif" font-size="14.00" fill="#000000">ne</text>
</g>
<!-- Small crawlspace&#45;&gt;N/S/W Junction -->
<g id="edge69" class="edge">
<title>Small crawlspace&#45;&gt;N/S/W Junction</title>
<path fill="none" stroke="#000000" d="M628.2835,-34.8433C613.7534,-44.061 597.4139,-56.7272 586.7947,-72 563.026,-106.1845 560.7947,-120.3643 560.7947,-162 560.7947,-1098 560.7947,-1098 560.7947,-1098 560.7947,-1138.8816 553.6483,-1156.5727 579.7947,-1188 597.7303,-1209.5581 625.6697,-1222.6244 651.1466,-1230.4868"/>
<text text-anchor="middle" x="624.2835" y="-38.6433" font-family="Times,serif" font-size="14.00" fill="#000000">d</text>
</g>
<!-- axe -->
<g id="node66" class="node">
<title>axe</title>
<ellipse fill="none" stroke="#000000" cx="768.7947" cy="-90" rx="27" ry="18"/>
<text text-anchor="middle" x="768.7947" y="-86.3" font-family="Times,serif" font-size="14.00" fill="#000000">axe</text>
</g>
<!-- axe&#45;&gt;Small crawlspace -->
<g id="edge68" class="edge">
<title>axe&#45;&gt;Small crawlspace</title>
<path fill="none" stroke="#000000" stroke-dasharray="1,5" d="M749.5586,-77.2936C731.8348,-65.5861 705.391,-48.1187 685.7915,-35.1722"/>
</g>
<!-- South end of long hallway -->
<g id="node68" class="node">
<title>South end of long hallway</title>
<ellipse fill="none" stroke="#000000" cx="775.7947" cy="-378" rx="115.0796" ry="18"/>
<text text-anchor="middle" x="775.7947" y="-374.3" font-family="Times,serif" font-size="14.00" fill="#000000">South end of long hallway</text>
</g>
<!-- 3/4 south&#45;&gt;South end of long hallway -->
<g id="edge71" class="edge">
<title>3/4 south&#45;&gt;South end of long hallway</title>
<path fill="none" stroke="#000000" d="M790.7478,-431.8314C787.7391,-421 783.9301,-407.2876 780.9095,-396.4133"/>
<text text-anchor="middle" x="786.7478" y="-420.6314" font-family="Times,serif" font-size="14.00" fill="#000000">s</text>
</g>
<!-- PC area -->
<g id="node69" class="node">
<title>PC area</title>
<ellipse fill="none" stroke="#000000" cx="703.7947" cy="-306" rx="42.7926" ry="18"/>
<text text-anchor="middle" x="703.7947" y="-302.3" font-family="Times,serif" font-size="14.00" fill="#000000">PC area</text>
</g>
<!-- South end of long hallway&#45;&gt;PC area -->
<g id="edge72" class="edge">
<title>South end of long hallway&#45;&gt;PC area</title>
<path fill="none" stroke="#000000" d="M757.9969,-360.2022C746.5034,-348.7088 731.6508,-333.8561 720.4005,-322.6058"/>
<text text-anchor="middle" x="753.9969" y="-349.0022" font-family="Times,serif" font-size="14.00" fill="#000000">s</text>
</g>
<!-- pc -->
<g id="node70" class="node">
<title>pc</title>
<ellipse fill="none" stroke="#000000" cx="615.7947" cy="-378" rx="27" ry="18"/>
<text text-anchor="middle" x="615.7947" y="-374.3" font-family="Times,serif" font-size="14.00" fill="#000000">pc</text>
</g>
<!-- pc&#45;&gt;PC area -->
<g id="edge73" class="edge">
<title>pc&#45;&gt;PC area</title>
<path fill="none" stroke="#000000" stroke-dasharray="1,5" d="M633.1807,-363.7751C647.8068,-351.8082 668.7177,-334.6994 683.9875,-322.2059"/>
</g>
</g>
</svg>
