<?xml version="1.0" encoding="UTF-8" standalone="no"?>
<!DOCTYPE svg PUBLIC "-//W3C//DTD SVG 1.1//EN"
 "http://www.w3.org/Graphics/SVG/1.1/DTD/svg11.dtd">
<!-- Generated by graphviz version 2.36.0 (20140111.2315)
 -->
<!-- Title: %3 Pages: 1 -->
<svg width="1108pt" height="2780pt"
 viewBox="0.00 0.00 1108.00 2780.00" xmlns="http://www.w3.org/2000/svg" xmlns:xlink="http://www.w3.org/1999/xlink">
<g id="graph0" class="graph" transform="scale(1 1) rotate(0) translate(4 2776)">
<title>%3</title>
<polygon fill="white" stroke="none" points="-4,4 -4,-2776 1104,-2776 1104,4 -4,4"/>
<!-- shovel -->
<g id="node1" class="node"><title>shovel</title>
<ellipse fill="none" stroke="black" cx="204" cy="-2754" rx="33.1991" ry="18"/>
<text text-anchor="middle" x="204" y="-2750.3" font-family="Times,serif" font-size="14.00">shovel</text>
</g>
<!-- Dead end -->
<g id="node2" class="node"><title>Dead end</title>
<ellipse fill="none" stroke="black" cx="204" cy="-2682" rx="44.2946" ry="18"/>
<text text-anchor="middle" x="204" y="-2678.3" font-family="Times,serif" font-size="14.00">Dead end</text>
</g>
<!-- shovel&#45;&gt;Dead end -->
<g id="edge1" class="edge"><title>shovel&#45;&gt;Dead end</title>
<path fill="none" stroke="black" stroke-dasharray="1,5" d="M204,-2735.7C204,-2724.85 204,-2710.92 204,-2700.1"/>
</g>
<!-- E/W Dirt road -->
<g id="node3" class="node"><title>E/W Dirt road</title>
<ellipse fill="none" stroke="black" cx="254" cy="-2610" rx="61.6163" ry="18"/>
<text text-anchor="middle" x="254" y="-2606.3" font-family="Times,serif" font-size="14.00">E/W Dirt road</text>
</g>
<!-- Dead end&#45;&gt;E/W Dirt road -->
<g id="edge2" class="edge"><title>Dead end&#45;&gt;E/W Dirt road</title>
<path fill="none" stroke="black" d="M215.849,-2664.41C223.704,-2653.41 233.98,-2639.03 241.888,-2627.96"/>
</g>
<!-- Fork -->
<g id="node5" class="node"><title>Fork</title>
<ellipse fill="none" stroke="black" cx="307" cy="-2538" rx="26.949" ry="18"/>
<text text-anchor="middle" x="307" y="-2534.3" font-family="Times,serif" font-size="14.00">Fork</text>
</g>
<!-- E/W Dirt road&#45;&gt;Fork -->
<g id="edge4" class="edge"><title>E/W Dirt road&#45;&gt;Fork</title>
<path fill="none" stroke="black" d="M266.83,-2592.05C275.53,-2580.56 286.938,-2565.5 295.373,-2554.36"/>
</g>
<!-- boulder -->
<g id="node4" class="node"><title>boulder</title>
<ellipse fill="none" stroke="black" cx="304" cy="-2682" rx="37.5442" ry="18"/>
<text text-anchor="middle" x="304" y="-2678.3" font-family="Times,serif" font-size="14.00">boulder</text>
</g>
<!-- boulder&#45;&gt;E/W Dirt road -->
<g id="edge3" class="edge"><title>boulder&#45;&gt;E/W Dirt road</title>
<path fill="none" stroke="black" d="M292.403,-2664.76C284.556,-2653.78 274.208,-2639.29 266.231,-2628.12"/>
</g>
<!-- SE/NW road -->
<g id="node7" class="node"><title>SE/NW road</title>
<ellipse fill="none" stroke="black" cx="206" cy="-2466" rx="56.3173" ry="18"/>
<text text-anchor="middle" x="206" y="-2462.3" font-family="Times,serif" font-size="14.00">SE/NW road</text>
</g>
<!-- Fork&#45;&gt;SE/NW road -->
<g id="edge6" class="edge"><title>Fork&#45;&gt;SE/NW road</title>
<path fill="none" stroke="black" d="M288.943,-2524.49C272.035,-2512.77 246.711,-2495.22 228.496,-2482.59"/>
</g>
<!-- NE/SW road -->
<g id="node13" class="node"><title>NE/SW road</title>
<ellipse fill="none" stroke="black" cx="337" cy="-2466" rx="56.3173" ry="18"/>
<text text-anchor="middle" x="337" y="-2462.3" font-family="Times,serif" font-size="14.00">NE/SW road</text>
</g>
<!-- Fork&#45;&gt;NE/SW road -->
<g id="edge12" class="edge"><title>Fork&#45;&gt;NE/SW road</title>
<path fill="none" stroke="black" d="M314.11,-2520.41C318.823,-2509.41 324.988,-2495.03 329.733,-2483.96"/>
</g>
<!-- cpu -->
<g id="node6" class="node"><title>cpu</title>
<ellipse fill="none" stroke="black" cx="361" cy="-2610" rx="27" ry="18"/>
<text text-anchor="middle" x="361" y="-2606.3" font-family="Times,serif" font-size="14.00">cpu</text>
</g>
<!-- cpu&#45;&gt;Fork -->
<g id="edge5" class="edge"><title>cpu&#45;&gt;Fork</title>
<path fill="none" stroke="black" stroke-dasharray="1,5" d="M349.016,-2593.46C340.067,-2581.86 327.892,-2566.08 318.951,-2554.49"/>
</g>
<!-- Bear hangout -->
<g id="node9" class="node"><title>Bear hangout</title>
<ellipse fill="none" stroke="black" cx="152" cy="-2394" rx="57.2688" ry="18"/>
<text text-anchor="middle" x="152" y="-2390.3" font-family="Times,serif" font-size="14.00">Bear hangout</text>
</g>
<!-- SE/NW road&#45;&gt;Bear hangout -->
<g id="edge8" class="edge"><title>SE/NW road&#45;&gt;Bear hangout</title>
<path fill="none" stroke="black" d="M193.203,-2448.41C184.719,-2437.41 173.621,-2423.03 165.081,-2411.96"/>
</g>
<!-- food -->
<g id="node8" class="node"><title>food</title>
<ellipse fill="none" stroke="black" cx="206" cy="-2538" rx="27" ry="18"/>
<text text-anchor="middle" x="206" y="-2534.3" font-family="Times,serif" font-size="14.00">food</text>
</g>
<!-- food&#45;&gt;SE/NW road -->
<g id="edge7" class="edge"><title>food&#45;&gt;SE/NW road</title>
<path fill="none" stroke="black" stroke-dasharray="1,5" d="M206,-2519.7C206,-2508.85 206,-2494.92 206,-2484.1"/>
</g>
<!-- Hidden area -->
<g id="node11" class="node"><title>Hidden area</title>
<ellipse fill="none" stroke="black" cx="69" cy="-2322" rx="53.4184" ry="18"/>
<text text-anchor="middle" x="69" y="-2318.3" font-family="Times,serif" font-size="14.00">Hidden area</text>
</g>
<!-- Bear hangout&#45;&gt;Hidden area -->
<g id="edge10" class="edge"><title>Bear hangout&#45;&gt;Hidden area</title>
<path fill="none" stroke="black" d="M132.75,-2376.76C119.245,-2365.38 101.277,-2350.22 87.8599,-2338.91"/>
</g>
<!-- key -->
<g id="node10" class="node"><title>key</title>
<ellipse fill="none" stroke="black" cx="104" cy="-2466" rx="27" ry="18"/>
<text text-anchor="middle" x="104" y="-2462.3" font-family="Times,serif" font-size="14.00">key</text>
</g>
<!-- key&#45;&gt;Bear hangout -->
<g id="edge9" class="edge"><title>key&#45;&gt;Bear hangout</title>
<path fill="none" stroke="black" stroke-dasharray="1,5" d="M114.892,-2449.12C122.526,-2437.98 132.713,-2423.13 140.482,-2411.8"/>
</g>
<!-- bracelet -->
<g id="node12" class="node"><title>bracelet</title>
<ellipse fill="none" stroke="black" cx="38" cy="-2394" rx="38.0212" ry="18"/>
<text text-anchor="middle" x="38" y="-2390.3" font-family="Times,serif" font-size="14.00">bracelet</text>
</g>
<!-- bracelet&#45;&gt;Hidden area -->
<g id="edge11" class="edge"><title>bracelet&#45;&gt;Hidden area</title>
<path fill="none" stroke="black" stroke-dasharray="1,5" d="M45.5042,-2376.05C50.3065,-2365.21 56.519,-2351.18 61.3495,-2340.28"/>
</g>
<!-- Building front -->
<g id="node14" class="node"><title>Building front</title>
<ellipse fill="none" stroke="black" cx="337" cy="-2394" rx="61.1419" ry="18"/>
<text text-anchor="middle" x="337" y="-2390.3" font-family="Times,serif" font-size="14.00">Building front</text>
</g>
<!-- NE/SW road&#45;&gt;Building front -->
<g id="edge13" class="edge"><title>NE/SW road&#45;&gt;Building front</title>
<path fill="none" stroke="black" d="M337,-2447.7C337,-2436.85 337,-2422.92 337,-2412.1"/>
</g>
<!-- Old Building hallway -->
<g id="node15" class="node"><title>Old Building hallway</title>
<ellipse fill="none" stroke="black" cx="337" cy="-2322" rx="87.1385" ry="18"/>
<text text-anchor="middle" x="337" y="-2318.3" font-family="Times,serif" font-size="14.00">Old Building hallway</text>
</g>
<!-- Building front&#45;&gt;Old Building hallway -->
<g id="edge14" class="edge"><title>Building front&#45;&gt;Old Building hallway</title>
<path fill="none" stroke="black" d="M337,-2375.7C337,-2364.85 337,-2350.92 337,-2340.1"/>
</g>
<!-- Computer room -->
<g id="node16" class="node"><title>Computer room</title>
<ellipse fill="none" stroke="black" cx="269" cy="-2250" rx="67.3907" ry="18"/>
<text text-anchor="middle" x="269" y="-2246.3" font-family="Times,serif" font-size="14.00">Computer room</text>
</g>
<!-- Old Building hallway&#45;&gt;Computer room -->
<g id="edge15" class="edge"><title>Old Building hallway&#45;&gt;Computer room</title>
<path fill="none" stroke="black" d="M320.539,-2304.05C309.848,-2293.05 295.97,-2278.76 285.309,-2267.79"/>
</g>
<!-- Pockey -->
<g id="node18" class="node"><title>Pockey</title>
<ellipse fill="none" stroke="black" cx="269" cy="-2178" rx="36.096" ry="18"/>
<text text-anchor="middle" x="269" y="-2174.3" font-family="Times,serif" font-size="14.00">Pockey</text>
</g>
<!-- Computer room&#45;&gt;Pockey -->
<g id="edge17" class="edge"><title>Computer room&#45;&gt;Pockey</title>
<path fill="none" stroke="black" d="M269,-2231.7C269,-2220.85 269,-2206.92 269,-2196.1"/>
</g>
<!-- paper -->
<g id="node17" class="node"><title>paper</title>
<ellipse fill="none" stroke="black" cx="201" cy="-2322" rx="30.3206" ry="18"/>
<text text-anchor="middle" x="201" y="-2318.3" font-family="Times,serif" font-size="14.00">paper</text>
</g>
<!-- paper&#45;&gt;Computer room -->
<g id="edge16" class="edge"><title>paper&#45;&gt;Computer room</title>
<path fill="none" stroke="black" stroke-dasharray="1,5" d="M215.421,-2306.15C226.337,-2294.92 241.338,-2279.48 252.691,-2267.79"/>
</g>
<!-- Receiving room -->
<g id="node19" class="node"><title>Receiving room</title>
<ellipse fill="none" stroke="black" cx="269" cy="-2106" rx="67.3907" ry="18"/>
<text text-anchor="middle" x="269" y="-2102.3" font-family="Times,serif" font-size="14.00">Receiving room</text>
</g>
<!-- Pockey&#45;&gt;Receiving room -->
<g id="edge18" class="edge"><title>Pockey&#45;&gt;Receiving room</title>
<path fill="none" stroke="black" d="M269,-2159.7C269,-2148.85 269,-2134.92 269,-2124.1"/>
</g>
<!-- Northbound Hallway -->
<g id="node20" class="node"><title>Northbound Hallway</title>
<ellipse fill="none" stroke="black" cx="269" cy="-2034" rx="85.2138" ry="18"/>
<text text-anchor="middle" x="269" y="-2030.3" font-family="Times,serif" font-size="14.00">Northbound Hallway</text>
</g>
<!-- Receiving room&#45;&gt;Northbound Hallway -->
<g id="edge19" class="edge"><title>Receiving room&#45;&gt;Northbound Hallway</title>
<path fill="none" stroke="black" d="M269,-2087.7C269,-2076.85 269,-2062.92 269,-2052.1"/>
</g>
<!-- Sauna -->
<g id="node21" class="node"><title>Sauna</title>
<ellipse fill="none" stroke="black" cx="202" cy="-1962" rx="32.2457" ry="18"/>
<text text-anchor="middle" x="202" y="-1958.3" font-family="Times,serif" font-size="14.00">Sauna</text>
</g>
<!-- Northbound Hallway&#45;&gt;Sauna -->
<g id="edge20" class="edge"><title>Northbound Hallway&#45;&gt;Sauna</title>
<path fill="none" stroke="black" d="M252.781,-2016.05C241.782,-2004.56 227.361,-1989.5 216.698,-1978.36"/>
</g>
<!-- End of N/S Hallway -->
<g id="node22" class="node"><title>End of N/S Hallway</title>
<ellipse fill="none" stroke="black" cx="336" cy="-1962" rx="83.2892" ry="18"/>
<text text-anchor="middle" x="336" y="-1958.3" font-family="Times,serif" font-size="14.00">End of N/S Hallway</text>
</g>
<!-- Northbound Hallway&#45;&gt;End of N/S Hallway -->
<g id="edge21" class="edge"><title>Northbound Hallway&#45;&gt;End of N/S Hallway</title>
<path fill="none" stroke="black" d="M285.219,-2016.05C295.753,-2005.05 309.426,-1990.76 319.931,-1979.79"/>
</g>
<!-- Weight room -->
<g id="node23" class="node"><title>Weight room</title>
<ellipse fill="none" stroke="black" cx="336" cy="-1890" rx="58.2422" ry="18"/>
<text text-anchor="middle" x="336" y="-1886.3" font-family="Times,serif" font-size="14.00">Weight room</text>
</g>
<!-- End of N/S Hallway&#45;&gt;Weight room -->
<g id="edge22" class="edge"><title>End of N/S Hallway&#45;&gt;Weight room</title>
<path fill="none" stroke="black" d="M336,-1943.7C336,-1932.85 336,-1918.92 336,-1908.1"/>
</g>
<!-- Maze button room -->
<g id="node24" class="node"><title>Maze button room</title>
<ellipse fill="none" stroke="black" cx="391" cy="-1818" rx="77.0154" ry="18"/>
<text text-anchor="middle" x="391" y="-1814.3" font-family="Times,serif" font-size="14.00">Maze button room</text>
</g>
<!-- Weight room&#45;&gt;Maze button room -->
<g id="edge23" class="edge"><title>Weight room&#45;&gt;Maze button room</title>
<path fill="none" stroke="black" d="M349.034,-1872.41C357.675,-1861.41 368.978,-1847.03 377.677,-1835.96"/>
</g>
<!-- Maze -->
<g id="node26" class="node"><title>Maze</title>
<ellipse fill="none" stroke="black" cx="527" cy="-1746" rx="30.3206" ry="18"/>
<text text-anchor="middle" x="527" y="-1742.3" font-family="Times,serif" font-size="14.00">Maze</text>
</g>
<!-- Maze button room&#45;&gt;Maze -->
<g id="edge25" class="edge"><title>Maze button room&#45;&gt;Maze</title>
<path fill="none" stroke="black" d="M421.521,-1801.29C446.739,-1788.31 481.956,-1770.18 504.622,-1758.52"/>
</g>
<!-- button -->
<g id="node25" class="node"><title>button</title>
<ellipse fill="none" stroke="black" cx="446" cy="-1890" rx="33.2209" ry="18"/>
<text text-anchor="middle" x="446" y="-1886.3" font-family="Times,serif" font-size="14.00">button</text>
</g>
<!-- button&#45;&gt;Maze button room -->
<g id="edge24" class="edge"><title>button&#45;&gt;Maze button room</title>
<path fill="none" stroke="black" stroke-dasharray="1,5" d="M433.52,-1873.12C424.772,-1861.98 413.1,-1847.13 404.198,-1835.8"/>
</g>
<!-- Reception area -->
<g id="node29" class="node"><title>Reception area</title>
<ellipse fill="none" stroke="black" cx="527" cy="-1674" rx="63.5411" ry="18"/>
<text text-anchor="middle" x="527" y="-1670.3" font-family="Times,serif" font-size="14.00">Reception area</text>
</g>
<!-- Maze&#45;&gt;Reception area -->
<g id="edge28" class="edge"><title>Maze&#45;&gt;Reception area</title>
<path fill="none" stroke="black" d="M527,-1727.7C527,-1716.85 527,-1702.92 527,-1692.1"/>
</g>
<!-- statuette -->
<g id="node27" class="node"><title>statuette</title>
<ellipse fill="none" stroke="black" cx="527" cy="-1818" rx="39.9464" ry="18"/>
<text text-anchor="middle" x="527" y="-1814.3" font-family="Times,serif" font-size="14.00">statuette</text>
</g>
<!-- statuette&#45;&gt;Maze -->
<g id="edge26" class="edge"><title>statuette&#45;&gt;Maze</title>
<path fill="none" stroke="black" stroke-dasharray="1,5" d="M527,-1799.7C527,-1788.85 527,-1774.92 527,-1764.1"/>
</g>
<!-- floppy -->
<g id="node28" class="node"><title>floppy</title>
<ellipse fill="none" stroke="black" cx="619" cy="-1818" rx="33.1991" ry="18"/>
<text text-anchor="middle" x="619" y="-1814.3" font-family="Times,serif" font-size="14.00">floppy</text>
</g>
<!-- floppy&#45;&gt;Maze -->
<g id="edge27" class="edge"><title>floppy&#45;&gt;Maze</title>
<path fill="none" stroke="black" stroke-dasharray="1,5" d="M600.382,-1802.83C584.211,-1790.53 560.94,-1772.82 544.964,-1760.67"/>
</g>
<!-- Health Club front -->
<g id="node30" class="node"><title>Health Club front</title>
<ellipse fill="none" stroke="black" cx="527" cy="-1602" rx="73.1654" ry="18"/>
<text text-anchor="middle" x="527" y="-1598.3" font-family="Times,serif" font-size="14.00">Health Club front</text>
</g>
<!-- Reception area&#45;&gt;Health Club front -->
<g id="edge29" class="edge"><title>Reception area&#45;&gt;Health Club front</title>
<path fill="none" stroke="black" d="M527,-1655.7C527,-1644.85 527,-1630.92 527,-1620.1"/>
</g>
<!-- Lakefront North -->
<g id="node31" class="node"><title>Lakefront North</title>
<ellipse fill="none" stroke="black" cx="527" cy="-1530" rx="68.3664" ry="18"/>
<text text-anchor="middle" x="527" y="-1526.3" font-family="Times,serif" font-size="14.00">Lakefront North</text>
</g>
<!-- Health Club front&#45;&gt;Lakefront North -->
<g id="edge30" class="edge"><title>Health Club front&#45;&gt;Lakefront North</title>
<path fill="none" stroke="black" d="M527,-1583.7C527,-1572.85 527,-1558.92 527,-1548.1"/>
</g>
<!-- Lakefront South -->
<g id="node32" class="node"><title>Lakefront South</title>
<ellipse fill="none" stroke="black" cx="527" cy="-1458" rx="68.3664" ry="18"/>
<text text-anchor="middle" x="527" y="-1454.3" font-family="Times,serif" font-size="14.00">Lakefront South</text>
</g>
<!-- Lakefront North&#45;&gt;Lakefront South -->
<g id="edge31" class="edge"><title>Lakefront North&#45;&gt;Lakefront South</title>
<path fill="none" stroke="black" d="M527,-1511.7C527,-1500.85 527,-1486.92 527,-1476.1"/>
</g>
<!-- Cave Entrance -->
<g id="node33" class="node"><title>Cave Entrance</title>
<ellipse fill="none" stroke="black" cx="585" cy="-1386" rx="62.0922" ry="18"/>
<text text-anchor="middle" x="585" y="-1382.3" font-family="Times,serif" font-size="14.00">Cave Entrance</text>
</g>
<!-- Lakefront South&#45;&gt;Cave Entrance -->
<g id="edge32" class="edge"><title>Lakefront South&#45;&gt;Cave Entrance</title>
<path fill="none" stroke="black" d="M541.04,-1440.05C550.159,-1429.05 561.996,-1414.76 571.089,-1403.79"/>
<text text-anchor="middle" x="538.04" y="-1428.85" font-family="Times,serif" font-size="14.00">s</text>
</g>
<!-- Misty Room -->
<g id="node35" class="node"><title>Misty Room</title>
<ellipse fill="none" stroke="black" cx="645" cy="-1314" rx="55.3436" ry="18"/>
<text text-anchor="middle" x="645" y="-1310.3" font-family="Times,serif" font-size="14.00">Misty Room</text>
</g>
<!-- Cave Entrance&#45;&gt;Misty Room -->
<g id="edge34" class="edge"><title>Cave Entrance&#45;&gt;Misty Room</title>
<path fill="none" stroke="black" d="M599.219,-1368.41C608.784,-1357.25 621.34,-1342.6 630.883,-1331.47"/>
<text text-anchor="middle" x="596.219" y="-1357.21" font-family="Times,serif" font-size="14.00">s</text>
</g>
<!-- chute -->
<g id="node34" class="node"><title>chute</title>
<ellipse fill="none" stroke="black" cx="643" cy="-1458" rx="29.3479" ry="18"/>
<text text-anchor="middle" x="643" y="-1454.3" font-family="Times,serif" font-size="14.00">chute</text>
</g>
<!-- chute&#45;&gt;Cave Entrance -->
<g id="edge33" class="edge"><title>chute&#45;&gt;Cave Entrance</title>
<path fill="none" stroke="black" stroke-dasharray="1,5" d="M630.128,-1441.46C620.917,-1430.35 608.523,-1415.39 599.054,-1403.96"/>
</g>
<!-- Cave E/W passage -->
<g id="node37" class="node"><title>Cave E/W passage</title>
<ellipse fill="none" stroke="black" cx="645" cy="-1242" rx="77.0154" ry="18"/>
<text text-anchor="middle" x="645" y="-1238.3" font-family="Times,serif" font-size="14.00">Cave E/W passage</text>
</g>
<!-- Misty Room&#45;&gt;Cave E/W passage -->
<g id="edge36" class="edge"><title>Misty Room&#45;&gt;Cave E/W passage</title>
<path fill="none" stroke="black" d="M645,-1295.7C645,-1284.85 645,-1270.92 645,-1260.1"/>
<text text-anchor="middle" x="641.5" y="-1284.5" font-family="Times,serif" font-size="14.00">e</text>
</g>
<!-- gold bar -->
<g id="node36" class="node"><title>gold bar</title>
<ellipse fill="none" stroke="black" cx="706" cy="-1386" rx="39.9464" ry="18"/>
<text text-anchor="middle" x="706" y="-1382.3" font-family="Times,serif" font-size="14.00">gold bar</text>
</g>
<!-- gold bar&#45;&gt;Misty Room -->
<g id="edge35" class="edge"><title>gold bar&#45;&gt;Misty Room</title>
<path fill="none" stroke="black" stroke-dasharray="1,5" d="M691.852,-1368.76C682.138,-1357.62 669.282,-1342.87 659.495,-1331.63"/>
</g>
<!-- N/S/W Junction -->
<g id="node38" class="node"><title>N/S/W Junction</title>
<ellipse fill="none" stroke="black" cx="645" cy="-1170" rx="67.3907" ry="18"/>
<text text-anchor="middle" x="645" y="-1166.3" font-family="Times,serif" font-size="14.00">N/S/W Junction</text>
</g>
<!-- Cave E/W passage&#45;&gt;N/S/W Junction -->
<g id="edge37" class="edge"><title>Cave E/W passage&#45;&gt;N/S/W Junction</title>
<path fill="none" stroke="black" d="M645,-1223.7C645,-1212.85 645,-1198.92 645,-1188.1"/>
<text text-anchor="middle" x="641.5" y="-1212.5" font-family="Times,serif" font-size="14.00">e</text>
</g>
<!-- North end of cave passage -->
<g id="node39" class="node"><title>North end of cave passage</title>
<ellipse fill="none" stroke="black" cx="969" cy="-1098" rx="104.461" ry="18"/>
<text text-anchor="middle" x="969" y="-1094.3" font-family="Times,serif" font-size="14.00">North end of cave passage</text>
</g>
<!-- N/S/W Junction&#45;&gt;North end of cave passage -->
<g id="edge38" class="edge"><title>N/S/W Junction&#45;&gt;North end of cave passage</title>
<path fill="none" stroke="black" d="M695.625,-1158.06C752.578,-1145.76 845.127,-1125.76 906.53,-1112.5"/>
<text text-anchor="middle" x="692.125" y="-1146.86" font-family="Times,serif" font-size="14.00">n</text>
</g>
<!-- South end of cave passage -->
<g id="node40" class="node"><title>South end of cave passage</title>
<ellipse fill="none" stroke="black" cx="645" cy="-1098" rx="104.461" ry="18"/>
<text text-anchor="middle" x="645" y="-1094.3" font-family="Times,serif" font-size="14.00">South end of cave passage</text>
</g>
<!-- N/S/W Junction&#45;&gt;South end of cave passage -->
<g id="edge39" class="edge"><title>N/S/W Junction&#45;&gt;South end of cave passage</title>
<path fill="none" stroke="black" d="M645,-1151.7C645,-1140.85 645,-1126.92 645,-1116.1"/>
<text text-anchor="middle" x="642" y="-1140.5" font-family="Times,serif" font-size="14.00">s</text>
</g>
<!-- Bedroom -->
<g id="node42" class="node"><title>Bedroom</title>
<ellipse fill="none" stroke="black" cx="814" cy="-1026" rx="44.2946" ry="18"/>
<text text-anchor="middle" x="814" y="-1022.3" font-family="Times,serif" font-size="14.00">Bedroom</text>
</g>
<!-- North end of cave passage&#45;&gt;Bedroom -->
<g id="edge41" class="edge"><title>North end of cave passage&#45;&gt;Bedroom</title>
<path fill="none" stroke="black" d="M933.44,-1080.94C905.912,-1068.51 868.281,-1051.51 842.664,-1039.94"/>
<text text-anchor="middle" x="929.94" y="-1069.74" font-family="Times,serif" font-size="14.00">d</text>
</g>
<!-- ??? -->
<g id="node43" class="node"><title>???</title>
<ellipse fill="none" stroke="black" cx="969" cy="-1026" rx="27" ry="18"/>
<text text-anchor="middle" x="969" y="-1022.3" font-family="Times,serif" font-size="14.00">???</text>
</g>
<!-- North end of cave passage&#45;&gt;??? -->
<g id="edge42" class="edge"><title>North end of cave passage&#45;&gt;???</title>
<path fill="none" stroke="black" d="M969,-1079.7C969,-1068.85 969,-1054.92 969,-1044.1"/>
<text text-anchor="middle" x="964" y="-1068.5" font-family="Times,serif" font-size="14.00">w</text>
</g>
<!-- Bathroom -->
<g id="node41" class="node"><title>Bathroom</title>
<ellipse fill="none" stroke="black" cx="638" cy="-954" rx="46.2191" ry="18"/>
<text text-anchor="middle" x="638" y="-950.3" font-family="Times,serif" font-size="14.00">Bathroom</text>
</g>
<!-- South end of cave passage&#45;&gt;Bathroom -->
<g id="edge40" class="edge"><title>South end of cave passage&#45;&gt;Bathroom</title>
<path fill="none" stroke="black" d="M644.156,-1079.87C642.81,-1052.58 640.195,-999.52 638.847,-972.189"/>
<text text-anchor="middle" x="640.656" y="-1068.67" font-family="Times,serif" font-size="14.00">d</text>
</g>
<!-- Bedroom&#45;&gt;Bathroom -->
<g id="edge45" class="edge"><title>Bedroom&#45;&gt;Bathroom</title>
<path fill="none" stroke="black" d="M783.343,-1012.81C751.335,-1000.08 701.399,-980.216 669.193,-967.406"/>
<text text-anchor="middle" x="780.343" y="-1001.61" font-family="Times,serif" font-size="14.00">s</text>
</g>
<!-- NE end of NE/SW cave passage -->
<g id="node45" class="node"><title>NE end of NE/SW cave passage</title>
<ellipse fill="none" stroke="black" cx="828" cy="-954" rx="126.133" ry="18"/>
<text text-anchor="middle" x="828" y="-950.3" font-family="Times,serif" font-size="14.00">NE end of NE/SW cave passage</text>
</g>
<!-- Bedroom&#45;&gt;NE end of NE/SW cave passage -->
<g id="edge44" class="edge"><title>Bedroom&#45;&gt;NE end of NE/SW cave passage</title>
<path fill="none" stroke="black" d="M817.461,-1007.7C819.631,-996.846 822.417,-982.917 824.579,-972.104"/>
<text text-anchor="middle" x="813.961" y="-996.497" font-family="Times,serif" font-size="14.00">d</text>
</g>
<!-- painting -->
<g id="node44" class="node"><title>painting</title>
<ellipse fill="none" stroke="black" cx="807" cy="-1098" rx="39.4691" ry="18"/>
<text text-anchor="middle" x="807" y="-1094.3" font-family="Times,serif" font-size="14.00">painting</text>
</g>
<!-- painting&#45;&gt;Bedroom -->
<g id="edge43" class="edge"><title>painting&#45;&gt;Bedroom</title>
<path fill="none" stroke="black" stroke-dasharray="1,5" d="M808.73,-1079.7C809.815,-1068.85 811.208,-1054.92 812.29,-1044.1"/>
</g>
<!-- NE/SW&#45;E/W junction -->
<g id="node47" class="node"><title>NE/SW&#45;E/W junction</title>
<ellipse fill="none" stroke="black" cx="828" cy="-882" rx="89.0632" ry="18"/>
<text text-anchor="middle" x="828" y="-878.3" font-family="Times,serif" font-size="14.00">NE/SW&#45;E/W junction</text>
</g>
<!-- NE end of NE/SW cave passage&#45;&gt;NE/SW&#45;E/W junction -->
<g id="edge47" class="edge"><title>NE end of NE/SW cave passage&#45;&gt;NE/SW&#45;E/W junction</title>
<path fill="none" stroke="black" d="M828,-935.697C828,-924.846 828,-910.917 828,-900.104"/>
<text text-anchor="middle" x="820" y="-924.497" font-family="Times,serif" font-size="14.00">sw</text>
</g>
<!-- urinal -->
<g id="node46" class="node"><title>urinal</title>
<ellipse fill="none" stroke="black" cx="586" cy="-1026" rx="31.2965" ry="18"/>
<text text-anchor="middle" x="586" y="-1022.3" font-family="Times,serif" font-size="14.00">urinal</text>
</g>
<!-- urinal&#45;&gt;Bathroom -->
<g id="edge46" class="edge"><title>urinal&#45;&gt;Bathroom</title>
<path fill="none" stroke="black" stroke-dasharray="1,5" d="M597.8,-1009.12C606.07,-997.983 617.106,-983.127 625.522,-971.797"/>
</g>
<!-- East end of E/W cave passage -->
<g id="node48" class="node"><title>East end of E/W cave passage</title>
<ellipse fill="none" stroke="black" cx="982" cy="-810" rx="117.935" ry="18"/>
<text text-anchor="middle" x="982" y="-806.3" font-family="Times,serif" font-size="14.00">East end of E/W cave passage</text>
</g>
<!-- NE/SW&#45;E/W junction&#45;&gt;East end of E/W cave passage -->
<g id="edge48" class="edge"><title>NE/SW&#45;E/W junction&#45;&gt;East end of E/W cave passage</title>
<path fill="none" stroke="black" d="M862.561,-865.291C887.48,-853.964 921.023,-838.717 946.218,-827.265"/>
<text text-anchor="middle" x="859.061" y="-854.091" font-family="Times,serif" font-size="14.00">e</text>
</g>
<!-- West end of E/W cave passage -->
<g id="node50" class="node"><title>West end of E/W cave passage</title>
<ellipse fill="none" stroke="black" cx="724" cy="-810" rx="121.309" ry="18"/>
<text text-anchor="middle" x="724" y="-806.3" font-family="Times,serif" font-size="14.00">West end of E/W cave passage</text>
</g>
<!-- NE/SW&#45;E/W junction&#45;&gt;West end of E/W cave passage -->
<g id="edge50" class="edge"><title>NE/SW&#45;E/W junction&#45;&gt;West end of E/W cave passage</title>
<path fill="none" stroke="black" d="M803.617,-864.588C787.166,-853.516 765.521,-838.947 748.953,-827.795"/>
<text text-anchor="middle" x="798.617" y="-853.388" font-family="Times,serif" font-size="14.00">w</text>
</g>
<!-- Horseshoe boulder room -->
<g id="node49" class="node"><title>Horseshoe boulder room</title>
<ellipse fill="none" stroke="black" cx="982" cy="-738" rx="98.1881" ry="18"/>
<text text-anchor="middle" x="982" y="-734.3" font-family="Times,serif" font-size="14.00">Horseshoe boulder room</text>
</g>
<!-- East end of E/W cave passage&#45;&gt;Horseshoe boulder room -->
<g id="edge49" class="edge"><title>East end of E/W cave passage&#45;&gt;Horseshoe boulder room</title>
<path fill="none" stroke="black" d="M982,-791.697C982,-780.846 982,-766.917 982,-756.104"/>
<text text-anchor="middle" x="978.5" y="-780.497" font-family="Times,serif" font-size="14.00">u</text>
</g>
<!-- Empty room -->
<g id="node51" class="node"><title>Empty room</title>
<ellipse fill="none" stroke="black" cx="724" cy="-738" rx="55.3436" ry="18"/>
<text text-anchor="middle" x="724" y="-734.3" font-family="Times,serif" font-size="14.00">Empty room</text>
</g>
<!-- West end of E/W cave passage&#45;&gt;Empty room -->
<g id="edge51" class="edge"><title>West end of E/W cave passage&#45;&gt;Empty room</title>
<path fill="none" stroke="black" d="M724,-791.697C724,-780.846 724,-766.917 724,-756.104"/>
<text text-anchor="middle" x="720.5" y="-780.497" font-family="Times,serif" font-size="14.00">d</text>
</g>
<!-- Blue room -->
<g id="node52" class="node"><title>Blue room</title>
<ellipse fill="none" stroke="black" cx="681" cy="-666" rx="48.6179" ry="18"/>
<text text-anchor="middle" x="681" y="-662.3" font-family="Times,serif" font-size="14.00">Blue room</text>
</g>
<!-- Empty room&#45;&gt;Blue room -->
<g id="edge52" class="edge"><title>Empty room&#45;&gt;Blue room</title>
<path fill="none" stroke="black" d="M713.591,-720.055C706.83,-709.049 698.055,-694.764 691.313,-683.789"/>
<text text-anchor="middle" x="710.091" y="-708.855" font-family="Times,serif" font-size="14.00">n</text>
</g>
<!-- Red room -->
<g id="node53" class="node"><title>Red room</title>
<ellipse fill="none" stroke="black" cx="675" cy="-522" rx="46.2191" ry="18"/>
<text text-anchor="middle" x="675" y="-518.3" font-family="Times,serif" font-size="14.00">Red room</text>
</g>
<!-- Empty room&#45;&gt;Red room -->
<g id="edge53" class="edge"><title>Empty room&#45;&gt;Red room</title>
<path fill="none" stroke="black" d="M731.818,-719.995C744.636,-689.462 766.47,-624.05 743,-576 734.591,-558.785 717.591,-545.535 702.693,-536.589"/>
<text text-anchor="middle" x="728.318" y="-708.795" font-family="Times,serif" font-size="14.00">e</text>
</g>
<!-- Yellow room -->
<g id="node54" class="node"><title>Yellow room</title>
<ellipse fill="none" stroke="black" cx="677" cy="-594" rx="57.2688" ry="18"/>
<text text-anchor="middle" x="677" y="-590.3" font-family="Times,serif" font-size="14.00">Yellow room</text>
</g>
<!-- Blue room&#45;&gt;Yellow room -->
<g id="edge54" class="edge"><title>Blue room&#45;&gt;Yellow room</title>
<path fill="none" stroke="black" d="M680.011,-647.697C679.391,-636.846 678.595,-622.917 677.977,-612.104"/>
<text text-anchor="middle" x="676.511" y="-636.497" font-family="Times,serif" font-size="14.00">e</text>
</g>
<!-- Long n/s hallway -->
<g id="node56" class="node"><title>Long n/s hallway</title>
<ellipse fill="none" stroke="black" cx="659" cy="-450" rx="72.2155" ry="18"/>
<text text-anchor="middle" x="659" y="-446.3" font-family="Times,serif" font-size="14.00">Long n/s hallway</text>
</g>
<!-- Red room&#45;&gt;Long n/s hallway -->
<g id="edge57" class="edge"><title>Red room&#45;&gt;Long n/s hallway</title>
<path fill="none" stroke="black" d="M671.127,-504.055C668.648,-493.211 665.442,-479.183 662.949,-468.275"/>
<text text-anchor="middle" x="667.627" y="-492.855" font-family="Times,serif" font-size="14.00">d</text>
</g>
<!-- Yellow room&#45;&gt;Red room -->
<g id="edge55" class="edge"><title>Yellow room&#45;&gt;Red room</title>
<path fill="none" stroke="black" d="M676.506,-575.697C676.196,-564.846 675.798,-550.917 675.489,-540.104"/>
<text text-anchor="middle" x="673.506" y="-564.497" font-family="Times,serif" font-size="14.00">s</text>
</g>
<!-- towel -->
<g id="node55" class="node"><title>towel</title>
<ellipse fill="none" stroke="black" cx="571" cy="-594" rx="30.3206" ry="18"/>
<text text-anchor="middle" x="571" y="-590.3" font-family="Times,serif" font-size="14.00">towel</text>
</g>
<!-- towel&#45;&gt;Red room -->
<g id="edge56" class="edge"><title>towel&#45;&gt;Red room</title>
<path fill="none" stroke="black" stroke-dasharray="1,5" d="M590.562,-579.834C608.214,-567.952 634.169,-550.482 652.638,-538.052"/>
</g>
<!-- 3/4 north -->
<g id="node57" class="node"><title>3/4 north</title>
<ellipse fill="none" stroke="black" cx="651" cy="-378" rx="42.3456" ry="18"/>
<text text-anchor="middle" x="651" y="-374.3" font-family="Times,serif" font-size="14.00">3/4 north</text>
</g>
<!-- Long n/s hallway&#45;&gt;3/4 north -->
<g id="edge58" class="edge"><title>Long n/s hallway&#45;&gt;3/4 north</title>
<path fill="none" stroke="black" d="M657.022,-431.697C655.782,-420.846 654.19,-406.917 652.955,-396.104"/>
<text text-anchor="middle" x="653.522" y="-420.497" font-family="Times,serif" font-size="14.00">n</text>
</g>
<!-- North end of long hallway -->
<g id="node58" class="node"><title>North end of long hallway</title>
<ellipse fill="none" stroke="black" cx="647" cy="-306" rx="104.461" ry="18"/>
<text text-anchor="middle" x="647" y="-302.3" font-family="Times,serif" font-size="14.00">North end of long hallway</text>
</g>
<!-- 3/4 north&#45;&gt;North end of long hallway -->
<g id="edge59" class="edge"><title>3/4 north&#45;&gt;North end of long hallway</title>
<path fill="none" stroke="black" d="M650.011,-359.697C649.391,-348.846 648.595,-334.917 647.977,-324.104"/>
<text text-anchor="middle" x="646.511" y="-348.497" font-family="Times,serif" font-size="14.00">n</text>
</g>
<!-- Stair landing -->
<g id="node59" class="node"><title>Stair landing</title>
<ellipse fill="none" stroke="black" cx="647" cy="-234" rx="55.3436" ry="18"/>
<text text-anchor="middle" x="647" y="-230.3" font-family="Times,serif" font-size="14.00">Stair landing</text>
</g>
<!-- North end of long hallway&#45;&gt;Stair landing -->
<g id="edge60" class="edge"><title>North end of long hallway&#45;&gt;Stair landing</title>
<path fill="none" stroke="black" d="M647,-287.697C647,-276.846 647,-262.917 647,-252.104"/>
<text text-anchor="middle" x="643.5" y="-276.497" font-family="Times,serif" font-size="14.00">u</text>
</g>
<!-- Top of staircase -->
<g id="node61" class="node"><title>Top of staircase</title>
<ellipse fill="none" stroke="black" cx="627" cy="-162" rx="67.3907" ry="18"/>
<text text-anchor="middle" x="627" y="-158.3" font-family="Times,serif" font-size="14.00">Top of staircase</text>
</g>
<!-- Stair landing&#45;&gt;Top of staircase -->
<g id="edge62" class="edge"><title>Stair landing&#45;&gt;Top of staircase</title>
<path fill="none" stroke="black" d="M642.159,-216.055C639.06,-205.211 635.052,-191.183 631.936,-180.275"/>
<text text-anchor="middle" x="638.659" y="-204.855" font-family="Times,serif" font-size="14.00">u</text>
</g>
<!-- box -->
<g id="node60" class="node"><title>box</title>
<ellipse fill="none" stroke="black" cx="797" cy="-306" rx="27" ry="18"/>
<text text-anchor="middle" x="797" y="-302.3" font-family="Times,serif" font-size="14.00">box</text>
</g>
<!-- box&#45;&gt;Stair landing -->
<g id="edge61" class="edge"><title>box&#45;&gt;Stair landing</title>
<path fill="none" stroke="black" stroke-dasharray="1,5" d="M775.509,-294.971C749.748,-282.949 706.414,-262.726 677.273,-249.127"/>
</g>
<!-- NE crawlway -->
<g id="node62" class="node"><title>NE crawlway</title>
<ellipse fill="none" stroke="black" cx="613" cy="-90" rx="59.2173" ry="18"/>
<text text-anchor="middle" x="613" y="-86.3" font-family="Times,serif" font-size="14.00">NE crawlway</text>
</g>
<!-- Top of staircase&#45;&gt;NE crawlway -->
<g id="edge63" class="edge"><title>Top of staircase&#45;&gt;NE crawlway</title>
<path fill="none" stroke="black" d="M623.539,-143.697C621.369,-132.846 618.583,-118.917 616.421,-108.104"/>
<text text-anchor="middle" x="617.039" y="-132.497" font-family="Times,serif" font-size="14.00">ne</text>
</g>
<!-- Small crawlspace -->
<g id="node63" class="node"><title>Small crawlspace</title>
<ellipse fill="none" stroke="black" cx="613" cy="-18" rx="73.1654" ry="18"/>
<text text-anchor="middle" x="613" y="-14.3" font-family="Times,serif" font-size="14.00">Small crawlspace</text>
</g>
<!-- NE crawlway&#45;&gt;Small crawlspace -->
<g id="edge64" class="edge"><title>NE crawlway&#45;&gt;Small crawlspace</title>
<path fill="none" stroke="black" d="M613,-71.6966C613,-60.8463 613,-46.9167 613,-36.1043"/>
<text text-anchor="middle" x="606.5" y="-60.4966" font-family="Times,serif" font-size="14.00">ne</text>
</g>
<!-- Small crawlspace&#45;&gt;N/S/W Junction -->
<g id="edge66" class="edge"><title>Small crawlspace&#45;&gt;N/S/W Junction</title>
<path fill="none" stroke="black" d="M586.151,-34.7966C572.26,-44.1209 555.963,-57.0237 545,-72 520.081,-106.041 512,-118.813 512,-161 512,-1027 512,-1027 512,-1027 512,-1067.45 505.789,-1084.37 531,-1116 547.325,-1136.48 573.394,-1149.41 596.485,-1157.36"/>
<text text-anchor="middle" x="582.651" y="-38.5966" font-family="Times,serif" font-size="14.00">d</text>
</g>
<!-- axe -->
<g id="node64" class="node"><title>axe</title>
<ellipse fill="none" stroke="black" cx="717" cy="-90" rx="27" ry="18"/>
<text text-anchor="middle" x="717" y="-86.3" font-family="Times,serif" font-size="14.00">axe</text>
</g>
<!-- axe&#45;&gt;Small crawlspace -->
<g id="edge65" class="edge"><title>axe&#45;&gt;Small crawlspace</title>
<path fill="none" stroke="black" stroke-dasharray="1,5" d="M698.407,-76.4854C681.23,-64.9238 655.618,-47.6855 636.923,-35.102"/>
</g>
</g>
</svg>
