<?xml version="1.0" encoding="UTF-8" standalone="no"?>
<!DOCTYPE svg PUBLIC "-//W3C//DTD SVG 1.1//EN"
 "http://www.w3.org/Graphics/SVG/1.1/DTD/svg11.dtd">
<!-- Generated by graphviz version 2.36.0 (20140111.2315)
 -->
<!-- Title: %3 Pages: 1 -->
<svg width="574pt" height="980pt"
 viewBox="0.00 0.00 574.00 980.00" xmlns="http://www.w3.org/2000/svg" xmlns:xlink="http://www.w3.org/1999/xlink">
<g id="graph0" class="graph" transform="scale(1 1) rotate(0) translate(4 976)">
<title>%3</title>
<polygon fill="white" stroke="none" points="-4,4 -4,-976 570,-976 570,4 -4,4"/>
<!-- shovel -->
<g id="node1" class="node"><title>shovel</title>
<ellipse fill="none" stroke="black" cx="92" cy="-954" rx="33.1991" ry="18"/>
<text text-anchor="middle" x="92" y="-950.3" font-family="Times,serif" font-size="14.00">shovel</text>
</g>
<!-- Dead end -->
<g id="node2" class="node"><title>Dead end</title>
<ellipse fill="none" stroke="black" cx="92" cy="-882" rx="44.2946" ry="18"/>
<text text-anchor="middle" x="92" y="-878.3" font-family="Times,serif" font-size="14.00">Dead end</text>
</g>
<!-- shovel&#45;&gt;Dead end -->
<g id="edge1" class="edge"><title>shovel&#45;&gt;Dead end</title>
<path fill="none" stroke="black" d="M92,-935.697C92,-927.983 92,-918.712 92,-910.112"/>
<polygon fill="black" stroke="black" points="95.5001,-910.104 92,-900.104 88.5001,-910.104 95.5001,-910.104"/>
</g>
<!-- E/W Dirt road -->
<g id="node3" class="node"><title>E/W Dirt road</title>
<ellipse fill="none" stroke="black" cx="142" cy="-810" rx="61.6163" ry="18"/>
<text text-anchor="middle" x="142" y="-806.3" font-family="Times,serif" font-size="14.00">E/W Dirt road</text>
</g>
<!-- Dead end&#45;&gt;E/W Dirt road -->
<g id="edge2" class="edge"><title>Dead end&#45;&gt;E/W Dirt road</title>
<path fill="none" stroke="black" d="M103.849,-864.411C109.863,-855.992 117.296,-845.585 123.999,-836.201"/>
<polygon fill="black" stroke="black" points="126.924,-838.128 129.888,-827.956 121.228,-834.059 126.924,-838.128"/>
</g>
<!-- Fork -->
<g id="node5" class="node"><title>Fork</title>
<ellipse fill="none" stroke="black" cx="195" cy="-738" rx="26.949" ry="18"/>
<text text-anchor="middle" x="195" y="-734.3" font-family="Times,serif" font-size="14.00">Fork</text>
</g>
<!-- E/W Dirt road&#45;&gt;Fork -->
<g id="edge4" class="edge"><title>E/W Dirt road&#45;&gt;Fork</title>
<path fill="none" stroke="black" d="M154.83,-792.055C161.559,-783.167 169.908,-772.14 177.248,-762.446"/>
<polygon fill="black" stroke="black" points="180.127,-764.442 183.373,-754.356 174.546,-760.216 180.127,-764.442"/>
</g>
<!-- boulder -->
<g id="node4" class="node"><title>boulder</title>
<ellipse fill="none" stroke="black" cx="192" cy="-882" rx="37.5442" ry="18"/>
<text text-anchor="middle" x="192" y="-878.3" font-family="Times,serif" font-size="14.00">boulder</text>
</g>
<!-- boulder&#45;&gt;E/W Dirt road -->
<g id="edge3" class="edge"><title>boulder&#45;&gt;E/W Dirt road</title>
<path fill="none" stroke="black" d="M180.403,-864.765C174.396,-856.354 166.922,-845.89 160.168,-836.436"/>
<polygon fill="black" stroke="black" points="162.892,-834.227 154.231,-828.124 157.196,-838.296 162.892,-834.227"/>
</g>
<!-- SE/NW road -->
<g id="node7" class="node"><title>SE/NW road</title>
<ellipse fill="none" stroke="black" cx="57" cy="-666" rx="56.3173" ry="18"/>
<text text-anchor="middle" x="57" y="-662.3" font-family="Times,serif" font-size="14.00">SE/NW road</text>
</g>
<!-- Fork&#45;&gt;SE/NW road -->
<g id="edge6" class="edge"><title>Fork&#45;&gt;SE/NW road</title>
<path fill="none" stroke="black" d="M174.041,-726.369C153.022,-715.707 120.195,-699.056 94.6496,-686.098"/>
<polygon fill="black" stroke="black" points="96.1045,-682.911 85.6028,-681.509 92.9378,-689.154 96.1045,-682.911"/>
</g>
<!-- NE/SW road -->
<g id="node13" class="node"><title>NE/SW road</title>
<ellipse fill="none" stroke="black" cx="274" cy="-666" rx="56.3173" ry="18"/>
<text text-anchor="middle" x="274" y="-662.3" font-family="Times,serif" font-size="14.00">NE/SW road</text>
</g>
<!-- Fork&#45;&gt;NE/SW road -->
<g id="edge12" class="edge"><title>Fork&#45;&gt;NE/SW road</title>
<path fill="none" stroke="black" d="M210.608,-723.17C221.231,-713.757 235.548,-701.071 247.888,-690.138"/>
<polygon fill="black" stroke="black" points="250.489,-692.509 255.652,-683.257 245.847,-687.27 250.489,-692.509"/>
</g>
<!-- cpu -->
<g id="node6" class="node"><title>cpu</title>
<ellipse fill="none" stroke="black" cx="249" cy="-810" rx="27" ry="18"/>
<text text-anchor="middle" x="249" y="-806.3" font-family="Times,serif" font-size="14.00">cpu</text>
</g>
<!-- cpu&#45;&gt;Fork -->
<g id="edge5" class="edge"><title>cpu&#45;&gt;Fork</title>
<path fill="none" stroke="black" d="M237.016,-793.465C230.024,-784.402 221.064,-772.786 213.215,-762.612"/>
<polygon fill="black" stroke="black" points="215.83,-760.272 206.951,-754.492 210.288,-764.548 215.83,-760.272"/>
</g>
<!-- Bear hangout -->
<g id="node9" class="node"><title>Bear hangout</title>
<ellipse fill="none" stroke="black" cx="57" cy="-594" rx="57.2688" ry="18"/>
<text text-anchor="middle" x="57" y="-590.3" font-family="Times,serif" font-size="14.00">Bear hangout</text>
</g>
<!-- SE/NW road&#45;&gt;Bear hangout -->
<g id="edge8" class="edge"><title>SE/NW road&#45;&gt;Bear hangout</title>
<path fill="none" stroke="black" d="M57,-647.697C57,-639.983 57,-630.712 57,-622.112"/>
<polygon fill="black" stroke="black" points="60.5001,-622.104 57,-612.104 53.5001,-622.104 60.5001,-622.104"/>
</g>
<!-- food -->
<g id="node8" class="node"><title>food</title>
<ellipse fill="none" stroke="black" cx="57" cy="-738" rx="27" ry="18"/>
<text text-anchor="middle" x="57" y="-734.3" font-family="Times,serif" font-size="14.00">food</text>
</g>
<!-- food&#45;&gt;SE/NW road -->
<g id="edge7" class="edge"><title>food&#45;&gt;SE/NW road</title>
<path fill="none" stroke="black" d="M57,-719.697C57,-711.983 57,-702.712 57,-694.112"/>
<polygon fill="black" stroke="black" points="60.5001,-694.104 57,-684.104 53.5001,-694.104 60.5001,-694.104"/>
</g>
<!-- Hidden area -->
<g id="node11" class="node"><title>Hidden area</title>
<ellipse fill="none" stroke="black" cx="93" cy="-522" rx="53.4184" ry="18"/>
<text text-anchor="middle" x="93" y="-518.3" font-family="Times,serif" font-size="14.00">Hidden area</text>
</g>
<!-- Bear hangout&#45;&gt;Hidden area -->
<g id="edge10" class="edge"><title>Bear hangout&#45;&gt;Hidden area</title>
<path fill="none" stroke="black" d="M65.7146,-576.055C69.9154,-567.887 75.0455,-557.912 79.7189,-548.824"/>
<polygon fill="black" stroke="black" points="82.9046,-550.283 84.3657,-539.789 76.6796,-547.081 82.9046,-550.283"/>
</g>
<!-- key -->
<g id="node10" class="node"><title>key</title>
<ellipse fill="none" stroke="black" cx="159" cy="-666" rx="27" ry="18"/>
<text text-anchor="middle" x="159" y="-662.3" font-family="Times,serif" font-size="14.00">key</text>
</g>
<!-- key&#45;&gt;Bear hangout -->
<g id="edge9" class="edge"><title>key&#45;&gt;Bear hangout</title>
<path fill="none" stroke="black" d="M140.764,-652.485C126.223,-642.506 105.519,-628.297 88.3333,-616.503"/>
<polygon fill="black" stroke="black" points="89.9439,-613.364 79.7183,-610.591 85.983,-619.135 89.9439,-613.364"/>
</g>
<!-- bracelet -->
<g id="node12" class="node"><title>bracelet</title>
<ellipse fill="none" stroke="black" cx="171" cy="-594" rx="38.0212" ry="18"/>
<text text-anchor="middle" x="171" y="-590.3" font-family="Times,serif" font-size="14.00">bracelet</text>
</g>
<!-- bracelet&#45;&gt;Hidden area -->
<g id="edge11" class="edge"><title>bracelet&#45;&gt;Hidden area</title>
<path fill="none" stroke="black" d="M154.075,-577.811C143.736,-568.533 130.311,-556.484 118.682,-546.048"/>
<polygon fill="black" stroke="black" points="120.758,-543.208 110.977,-539.134 116.082,-548.418 120.758,-543.208"/>
</g>
<!-- Building front -->
<g id="node14" class="node"><title>Building front</title>
<ellipse fill="none" stroke="black" cx="288" cy="-594" rx="61.1419" ry="18"/>
<text text-anchor="middle" x="288" y="-590.3" font-family="Times,serif" font-size="14.00">Building front</text>
</g>
<!-- NE/SW road&#45;&gt;Building front -->
<g id="edge13" class="edge"><title>NE/SW road&#45;&gt;Building front</title>
<path fill="none" stroke="black" d="M277.461,-647.697C279.003,-639.983 280.858,-630.712 282.578,-622.112"/>
<polygon fill="black" stroke="black" points="286.05,-622.597 284.579,-612.104 279.186,-621.224 286.05,-622.597"/>
</g>
<!-- Old Building hallway -->
<g id="node15" class="node"><title>Old Building hallway</title>
<ellipse fill="none" stroke="black" cx="288" cy="-522" rx="87.1385" ry="18"/>
<text text-anchor="middle" x="288" y="-518.3" font-family="Times,serif" font-size="14.00">Old Building hallway</text>
</g>
<!-- Building front&#45;&gt;Old Building hallway -->
<g id="edge14" class="edge"><title>Building front&#45;&gt;Old Building hallway</title>
<path fill="none" stroke="black" d="M288,-575.697C288,-567.983 288,-558.712 288,-550.112"/>
<polygon fill="black" stroke="black" points="291.5,-550.104 288,-540.104 284.5,-550.104 291.5,-550.104"/>
</g>
<!-- Computer room -->
<g id="node16" class="node"><title>Computer room</title>
<ellipse fill="none" stroke="black" cx="356" cy="-450" rx="67.3907" ry="18"/>
<text text-anchor="middle" x="356" y="-446.3" font-family="Times,serif" font-size="14.00">Computer room</text>
</g>
<!-- Old Building hallway&#45;&gt;Computer room -->
<g id="edge15" class="edge"><title>Old Building hallway&#45;&gt;Computer room</title>
<path fill="none" stroke="black" d="M304.461,-504.055C312.897,-495.371 323.317,-484.644 332.575,-475.114"/>
<polygon fill="black" stroke="black" points="335.233,-477.401 339.691,-467.789 330.212,-472.523 335.233,-477.401"/>
</g>
<!-- Pockey -->
<g id="node18" class="node"><title>Pockey</title>
<ellipse fill="none" stroke="black" cx="356" cy="-378" rx="36.096" ry="18"/>
<text text-anchor="middle" x="356" y="-374.3" font-family="Times,serif" font-size="14.00">Pockey</text>
</g>
<!-- Computer room&#45;&gt;Pockey -->
<g id="edge17" class="edge"><title>Computer room&#45;&gt;Pockey</title>
<path fill="none" stroke="black" d="M356,-431.697C356,-423.983 356,-414.712 356,-406.112"/>
<polygon fill="black" stroke="black" points="359.5,-406.104 356,-396.104 352.5,-406.104 359.5,-406.104"/>
</g>
<!-- paper -->
<g id="node17" class="node"><title>paper</title>
<ellipse fill="none" stroke="black" cx="424" cy="-522" rx="30.3206" ry="18"/>
<text text-anchor="middle" x="424" y="-518.3" font-family="Times,serif" font-size="14.00">paper</text>
</g>
<!-- paper&#45;&gt;Computer room -->
<g id="edge16" class="edge"><title>paper&#45;&gt;Computer room</title>
<path fill="none" stroke="black" d="M409.579,-506.155C400.795,-497.112 389.366,-485.347 379.321,-475.007"/>
<polygon fill="black" stroke="black" points="381.788,-472.523 372.309,-467.789 376.767,-477.401 381.788,-472.523"/>
</g>
<!-- Receiving room -->
<g id="node19" class="node"><title>Receiving room</title>
<ellipse fill="none" stroke="black" cx="356" cy="-306" rx="67.3907" ry="18"/>
<text text-anchor="middle" x="356" y="-302.3" font-family="Times,serif" font-size="14.00">Receiving room</text>
</g>
<!-- Pockey&#45;&gt;Receiving room -->
<g id="edge18" class="edge"><title>Pockey&#45;&gt;Receiving room</title>
<path fill="none" stroke="black" d="M356,-359.697C356,-351.983 356,-342.712 356,-334.112"/>
<polygon fill="black" stroke="black" points="359.5,-334.104 356,-324.104 352.5,-334.104 359.5,-334.104"/>
</g>
<!-- Northbound Hallway -->
<g id="node20" class="node"><title>Northbound Hallway</title>
<ellipse fill="none" stroke="black" cx="356" cy="-234" rx="85.2138" ry="18"/>
<text text-anchor="middle" x="356" y="-230.3" font-family="Times,serif" font-size="14.00">Northbound Hallway</text>
</g>
<!-- Receiving room&#45;&gt;Northbound Hallway -->
<g id="edge19" class="edge"><title>Receiving room&#45;&gt;Northbound Hallway</title>
<path fill="none" stroke="black" d="M356,-287.697C356,-279.983 356,-270.712 356,-262.112"/>
<polygon fill="black" stroke="black" points="359.5,-262.104 356,-252.104 352.5,-262.104 359.5,-262.104"/>
</g>
<!-- Sauna -->
<g id="node21" class="node"><title>Sauna</title>
<ellipse fill="none" stroke="black" cx="289" cy="-162" rx="32.2457" ry="18"/>
<text text-anchor="middle" x="289" y="-158.3" font-family="Times,serif" font-size="14.00">Sauna</text>
</g>
<!-- Northbound Hallway&#45;&gt;Sauna -->
<g id="edge20" class="edge"><title>Northbound Hallway&#45;&gt;Sauna</title>
<path fill="none" stroke="black" d="M339.781,-216.055C331.102,-206.988 320.293,-195.694 310.88,-185.86"/>
<polygon fill="black" stroke="black" points="313.141,-183.16 303.698,-178.356 308.084,-188.001 313.141,-183.16"/>
</g>
<!-- End of N/S Hallway -->
<g id="node22" class="node"><title>End of N/S Hallway</title>
<ellipse fill="none" stroke="black" cx="423" cy="-162" rx="83.2892" ry="18"/>
<text text-anchor="middle" x="423" y="-158.3" font-family="Times,serif" font-size="14.00">End of N/S Hallway</text>
</g>
<!-- Northbound Hallway&#45;&gt;End of N/S Hallway -->
<g id="edge21" class="edge"><title>Northbound Hallway&#45;&gt;End of N/S Hallway</title>
<path fill="none" stroke="black" d="M372.219,-216.055C380.531,-207.371 390.798,-196.644 399.92,-187.114"/>
<polygon fill="black" stroke="black" points="402.544,-189.433 406.931,-179.789 397.487,-184.593 402.544,-189.433"/>
</g>
<!-- Weight room -->
<g id="node23" class="node"><title>Weight room</title>
<ellipse fill="none" stroke="black" cx="423" cy="-90" rx="58.2422" ry="18"/>
<text text-anchor="middle" x="423" y="-86.3" font-family="Times,serif" font-size="14.00">Weight room</text>
</g>
<!-- End of N/S Hallway&#45;&gt;Weight room -->
<g id="edge22" class="edge"><title>End of N/S Hallway&#45;&gt;Weight room</title>
<path fill="none" stroke="black" d="M423,-143.697C423,-135.983 423,-126.712 423,-118.112"/>
<polygon fill="black" stroke="black" points="426.5,-118.104 423,-108.104 419.5,-118.104 426.5,-118.104"/>
</g>
<!-- Maze button room -->
<g id="node24" class="node"><title>Maze button room</title>
<ellipse fill="none" stroke="black" cx="478" cy="-18" rx="77.0154" ry="18"/>
<text text-anchor="middle" x="478" y="-14.3" font-family="Times,serif" font-size="14.00">Maze button room</text>
</g>
<!-- Weight room&#45;&gt;Maze button room -->
<g id="edge23" class="edge"><title>Weight room&#45;&gt;Maze button room</title>
<path fill="none" stroke="black" d="M436.034,-72.411C442.717,-63.9056 450.993,-53.3724 458.425,-43.9138"/>
<polygon fill="black" stroke="black" points="461.251,-45.9818 464.677,-35.9562 455.747,-41.657 461.251,-45.9818"/>
</g>
<!-- button -->
<g id="node25" class="node"><title>button</title>
<ellipse fill="none" stroke="black" cx="533" cy="-90" rx="33.2209" ry="18"/>
<text text-anchor="middle" x="533" y="-86.3" font-family="Times,serif" font-size="14.00">button</text>
</g>
<!-- button&#45;&gt;Maze button room -->
<g id="edge24" class="edge"><title>button&#45;&gt;Maze button room</title>
<path fill="none" stroke="black" d="M520.52,-73.1159C513.686,-64.4181 505.066,-53.4483 497.378,-43.6627"/>
<polygon fill="black" stroke="black" points="500.128,-41.4982 491.198,-35.7973 494.624,-45.8229 500.128,-41.4982"/>
</g>
</g>
</svg>
