<?xml version="1.0" encoding="UTF-8" standalone="no"?>
<!DOCTYPE svg PUBLIC "-//W3C//DTD SVG 1.1//EN"
 "http://www.w3.org/Graphics/SVG/1.1/DTD/svg11.dtd">
<!-- Generated by graphviz version 2.40.1 (20161225.0304)
 -->
<!-- Title: %0 Pages: 1 -->
<svg width="1310pt" height="2852pt"
 viewBox="0.00 0.00 1310.03 2852.00" xmlns="http://www.w3.org/2000/svg" xmlns:xlink="http://www.w3.org/1999/xlink">
<g id="graph0" class="graph" transform="scale(1 1) rotate(0) translate(4 2848)">
<title>%0</title>
<polygon fill="#ffffff" stroke="transparent" points="-4,4 -4,-2848 1306.034,-2848 1306.034,4 -4,4"/>
<!-- shovel -->
<g id="node1" class="node">
<title>shovel</title>
<ellipse fill="none" stroke="#000000" cx="228.1961" cy="-2826" rx="37.0935" ry="18"/>
<text text-anchor="middle" x="228.1961" y="-2822.3" font-family="Times,serif" font-size="14.00" fill="#000000">shovel</text>
</g>
<!-- Dead end -->
<g id="node2" class="node">
<title>Dead end</title>
<ellipse fill="none" stroke="#000000" cx="228.1961" cy="-2754" rx="48.9926" ry="18"/>
<text text-anchor="middle" x="228.1961" y="-2750.3" font-family="Times,serif" font-size="14.00" fill="#000000">Dead end</text>
</g>
<!-- shovel&#45;&gt;Dead end -->
<g id="edge1" class="edge">
<title>shovel&#45;&gt;Dead end</title>
<path fill="none" stroke="#000000" stroke-dasharray="1,5" d="M228.1961,-2807.8314C228.1961,-2797 228.1961,-2783.2876 228.1961,-2772.4133"/>
</g>
<!-- E/W Dirt road -->
<g id="node3" class="node">
<title>E/W Dirt road</title>
<ellipse fill="none" stroke="#000000" cx="282.1961" cy="-2682" rx="66.8882" ry="18"/>
<text text-anchor="middle" x="282.1961" y="-2678.3" font-family="Times,serif" font-size="14.00" fill="#000000">E/W Dirt road</text>
</g>
<!-- Dead end&#45;&gt;E/W Dirt road -->
<g id="edge2" class="edge">
<title>Dead end&#45;&gt;E/W Dirt road</title>
<path fill="none" stroke="#000000" d="M241.268,-2736.5708C249.6333,-2725.4171 260.4549,-2710.9882 268.8694,-2699.7689"/>
</g>
<!-- Fork -->
<g id="node5" class="node">
<title>Fork</title>
<ellipse fill="none" stroke="#000000" cx="338.1961" cy="-2610" rx="29.4969" ry="18"/>
<text text-anchor="middle" x="338.1961" y="-2606.3" font-family="Times,serif" font-size="14.00" fill="#000000">Fork</text>
</g>
<!-- E/W Dirt road&#45;&gt;Fork -->
<g id="edge4" class="edge">
<title>E/W Dirt road&#45;&gt;Fork</title>
<path fill="none" stroke="#000000" d="M296.0388,-2664.2022C304.9782,-2652.7088 316.5302,-2637.8561 325.2804,-2626.6058"/>
</g>
<!-- boulder -->
<g id="node4" class="node">
<title>boulder</title>
<ellipse fill="none" stroke="#000000" cx="336.1961" cy="-2754" rx="40.8928" ry="18"/>
<text text-anchor="middle" x="336.1961" y="-2750.3" font-family="Times,serif" font-size="14.00" fill="#000000">boulder</text>
</g>
<!-- boulder&#45;&gt;E/W Dirt road -->
<g id="edge3" class="edge">
<title>boulder&#45;&gt;E/W Dirt road</title>
<path fill="none" stroke="#000000" stroke-dasharray="1,5" d="M323.1242,-2736.5708C314.7589,-2725.4171 303.9373,-2710.9882 295.5227,-2699.7689"/>
</g>
<!-- SE/NW road -->
<g id="node7" class="node">
<title>SE/NW road</title>
<ellipse fill="none" stroke="#000000" cx="229.1961" cy="-2538" rx="61.99" ry="18"/>
<text text-anchor="middle" x="229.1961" y="-2534.3" font-family="Times,serif" font-size="14.00" fill="#000000">SE/NW road</text>
</g>
<!-- Fork&#45;&gt;SE/NW road -->
<g id="edge6" class="edge">
<title>Fork&#45;&gt;SE/NW road</title>
<path fill="none" stroke="#000000" d="M318.2038,-2596.7941C300.2576,-2584.9397 273.8309,-2567.4836 254.434,-2554.6709"/>
</g>
<!-- NE/SW road -->
<g id="node13" class="node">
<title>NE/SW road</title>
<ellipse fill="none" stroke="#000000" cx="370.1961" cy="-2538" rx="61.99" ry="18"/>
<text text-anchor="middle" x="370.1961" y="-2534.3" font-family="Times,serif" font-size="14.00" fill="#000000">NE/SW road</text>
</g>
<!-- Fork&#45;&gt;NE/SW road -->
<g id="edge12" class="edge">
<title>Fork&#45;&gt;NE/SW road</title>
<path fill="none" stroke="#000000" d="M345.9424,-2592.5708C350.8626,-2581.5003 357.2168,-2567.2034 362.1869,-2556.0206"/>
</g>
<!-- cpu -->
<g id="node6" class="node">
<title>cpu</title>
<ellipse fill="none" stroke="#000000" cx="394.1961" cy="-2682" rx="27" ry="18"/>
<text text-anchor="middle" x="394.1961" y="-2678.3" font-family="Times,serif" font-size="14.00" fill="#000000">cpu</text>
</g>
<!-- cpu&#45;&gt;Fork -->
<g id="edge5" class="edge">
<title>cpu&#45;&gt;Fork</title>
<path fill="none" stroke="#000000" stroke-dasharray="1,5" d="M381.4888,-2665.6621C372.3241,-2653.8788 360.0062,-2638.0416 350.8531,-2626.2733"/>
</g>
<!-- Bear hangout -->
<g id="node9" class="node">
<title>Bear hangout</title>
<ellipse fill="none" stroke="#000000" cx="172.1961" cy="-2466" rx="65.7887" ry="18"/>
<text text-anchor="middle" x="172.1961" y="-2462.3" font-family="Times,serif" font-size="14.00" fill="#000000">Bear hangout</text>
</g>
<!-- SE/NW road&#45;&gt;Bear hangout -->
<g id="edge8" class="edge">
<title>SE/NW road&#45;&gt;Bear hangout</title>
<path fill="none" stroke="#000000" d="M215.1062,-2520.2022C206.2709,-2509.0419 194.9283,-2494.7143 186.1239,-2483.593"/>
</g>
<!-- food -->
<g id="node8" class="node">
<title>food</title>
<ellipse fill="none" stroke="#000000" cx="229.1961" cy="-2610" rx="30.5947" ry="18"/>
<text text-anchor="middle" x="229.1961" y="-2606.3" font-family="Times,serif" font-size="14.00" fill="#000000">food</text>
</g>
<!-- food&#45;&gt;SE/NW road -->
<g id="edge7" class="edge">
<title>food&#45;&gt;SE/NW road</title>
<path fill="none" stroke="#000000" stroke-dasharray="1,5" d="M229.1961,-2591.8314C229.1961,-2581 229.1961,-2567.2876 229.1961,-2556.4133"/>
</g>
<!-- Hidden area -->
<g id="node11" class="node">
<title>Hidden area</title>
<ellipse fill="none" stroke="#000000" cx="81.1961" cy="-2394" rx="59.5901" ry="18"/>
<text text-anchor="middle" x="81.1961" y="-2390.3" font-family="Times,serif" font-size="14.00" fill="#000000">Hidden area</text>
</g>
<!-- Bear hangout&#45;&gt;Hidden area -->
<g id="edge10" class="edge">
<title>Bear hangout&#45;&gt;Hidden area</title>
<path fill="none" stroke="#000000" d="M150.6303,-2448.937C136.1242,-2437.4596 117.0807,-2422.3922 102.607,-2410.9405"/>
</g>
<!-- key -->
<g id="node10" class="node">
<title>key</title>
<ellipse fill="none" stroke="#000000" cx="122.1961" cy="-2538" rx="27" ry="18"/>
<text text-anchor="middle" x="122.1961" y="-2534.3" font-family="Times,serif" font-size="14.00" fill="#000000">key</text>
</g>
<!-- key&#45;&gt;Bear hangout -->
<g id="edge9" class="edge">
<title>key&#45;&gt;Bear hangout</title>
<path fill="none" stroke="#000000" stroke-dasharray="1,5" d="M133.5419,-2521.6621C141.3789,-2510.3767 151.7983,-2495.3727 159.8445,-2483.7862"/>
</g>
<!-- bracelet -->
<g id="node12" class="node">
<title>bracelet</title>
<ellipse fill="none" stroke="#000000" cx="44.1961" cy="-2466" rx="44.393" ry="18"/>
<text text-anchor="middle" x="44.1961" y="-2462.3" font-family="Times,serif" font-size="14.00" fill="#000000">bracelet</text>
</g>
<!-- bracelet&#45;&gt;Hidden area -->
<g id="edge11" class="edge">
<title>bracelet&#45;&gt;Hidden area</title>
<path fill="none" stroke="#000000" stroke-dasharray="1,5" d="M53.3421,-2448.2022C59.0345,-2437.1252 66.3303,-2422.928 72.027,-2411.8425"/>
</g>
<!-- Building front -->
<g id="node14" class="node">
<title>Building front</title>
<ellipse fill="none" stroke="#000000" cx="370.1961" cy="-2466" rx="65.7887" ry="18"/>
<text text-anchor="middle" x="370.1961" y="-2462.3" font-family="Times,serif" font-size="14.00" fill="#000000">Building front</text>
</g>
<!-- NE/SW road&#45;&gt;Building front -->
<g id="edge13" class="edge">
<title>NE/SW road&#45;&gt;Building front</title>
<path fill="none" stroke="#000000" d="M370.1961,-2519.8314C370.1961,-2509 370.1961,-2495.2876 370.1961,-2484.4133"/>
</g>
<!-- Old Building hallway -->
<g id="node15" class="node">
<title>Old Building hallway</title>
<ellipse fill="none" stroke="#000000" cx="370.1961" cy="-2394" rx="89.8845" ry="18"/>
<text text-anchor="middle" x="370.1961" y="-2390.3" font-family="Times,serif" font-size="14.00" fill="#000000">Old Building hallway</text>
</g>
<!-- Building front&#45;&gt;Old Building hallway -->
<g id="edge14" class="edge">
<title>Building front&#45;&gt;Old Building hallway</title>
<path fill="none" stroke="#000000" d="M370.1961,-2447.8314C370.1961,-2437 370.1961,-2423.2876 370.1961,-2412.4133"/>
</g>
<!-- Computer room -->
<g id="node16" class="node">
<title>Computer room</title>
<ellipse fill="none" stroke="#000000" cx="299.1961" cy="-2322" rx="75.2868" ry="18"/>
<text text-anchor="middle" x="299.1961" y="-2318.3" font-family="Times,serif" font-size="14.00" fill="#000000">Computer room</text>
</g>
<!-- Old Building hallway&#45;&gt;Computer room -->
<g id="edge15" class="edge">
<title>Old Building hallway&#45;&gt;Computer room</title>
<path fill="none" stroke="#000000" d="M352.6455,-2376.2022C341.6402,-2365.0419 327.5116,-2350.7143 316.5448,-2339.593"/>
</g>
<!-- Pockey -->
<g id="node18" class="node">
<title>Pockey</title>
<ellipse fill="none" stroke="#000000" cx="299.1961" cy="-2250" rx="40.0939" ry="18"/>
<text text-anchor="middle" x="299.1961" y="-2246.3" font-family="Times,serif" font-size="14.00" fill="#000000">Pockey</text>
</g>
<!-- Computer room&#45;&gt;Pockey -->
<g id="edge17" class="edge">
<title>Computer room&#45;&gt;Pockey</title>
<path fill="none" stroke="#000000" d="M299.1961,-2303.8314C299.1961,-2293 299.1961,-2279.2876 299.1961,-2268.4133"/>
</g>
<!-- paper -->
<g id="node17" class="node">
<title>paper</title>
<ellipse fill="none" stroke="#000000" cx="229.1961" cy="-2394" rx="33.5952" ry="18"/>
<text text-anchor="middle" x="229.1961" y="-2390.3" font-family="Times,serif" font-size="14.00" fill="#000000">paper</text>
</g>
<!-- paper&#45;&gt;Computer room -->
<g id="edge16" class="edge">
<title>paper&#45;&gt;Computer room</title>
<path fill="none" stroke="#000000" stroke-dasharray="1,5" d="M245.0802,-2377.6621C256.052,-2366.3767 270.6392,-2351.3727 281.9039,-2339.7862"/>
</g>
<!-- Receiving room -->
<g id="node19" class="node">
<title>Receiving room</title>
<ellipse fill="none" stroke="#000000" cx="299.1961" cy="-2178" rx="73.387" ry="18"/>
<text text-anchor="middle" x="299.1961" y="-2174.3" font-family="Times,serif" font-size="14.00" fill="#000000">Receiving room</text>
</g>
<!-- Pockey&#45;&gt;Receiving room -->
<g id="edge18" class="edge">
<title>Pockey&#45;&gt;Receiving room</title>
<path fill="none" stroke="#000000" d="M299.1961,-2231.8314C299.1961,-2221 299.1961,-2207.2876 299.1961,-2196.4133"/>
</g>
<!-- Northbound Hallway -->
<g id="node20" class="node">
<title>Northbound Hallway</title>
<ellipse fill="none" stroke="#000000" cx="299.1961" cy="-2106" rx="93.6835" ry="18"/>
<text text-anchor="middle" x="299.1961" y="-2102.3" font-family="Times,serif" font-size="14.00" fill="#000000">Northbound Hallway</text>
</g>
<!-- Receiving room&#45;&gt;Northbound Hallway -->
<g id="edge19" class="edge">
<title>Receiving room&#45;&gt;Northbound Hallway</title>
<path fill="none" stroke="#000000" d="M299.1961,-2159.8314C299.1961,-2149 299.1961,-2135.2876 299.1961,-2124.4133"/>
</g>
<!-- Sauna -->
<g id="node21" class="node">
<title>Sauna</title>
<ellipse fill="none" stroke="#000000" cx="227.1961" cy="-2034" rx="35.9954" ry="18"/>
<text text-anchor="middle" x="227.1961" y="-2030.3" font-family="Times,serif" font-size="14.00" fill="#000000">Sauna</text>
</g>
<!-- Northbound Hallway&#45;&gt;Sauna -->
<g id="edge20" class="edge">
<title>Northbound Hallway&#45;&gt;Sauna</title>
<path fill="none" stroke="#000000" d="M281.3983,-2088.2022C269.7383,-2076.5422 254.621,-2061.4249 243.3151,-2050.119"/>
</g>
<!-- End of N/S Hallway -->
<g id="node22" class="node">
<title>End of N/S Hallway</title>
<ellipse fill="none" stroke="#000000" cx="371.1961" cy="-2034" rx="90.1842" ry="18"/>
<text text-anchor="middle" x="371.1961" y="-2030.3" font-family="Times,serif" font-size="14.00" fill="#000000">End of N/S Hallway</text>
</g>
<!-- Northbound Hallway&#45;&gt;End of N/S Hallway -->
<g id="edge21" class="edge">
<title>Northbound Hallway&#45;&gt;End of N/S Hallway</title>
<path fill="none" stroke="#000000" d="M316.9938,-2088.2022C328.0709,-2077.1252 342.2681,-2062.928 353.3535,-2051.8425"/>
</g>
<!-- Weight room -->
<g id="node23" class="node">
<title>Weight room</title>
<ellipse fill="none" stroke="#000000" cx="371.1961" cy="-1962" rx="63.8893" ry="18"/>
<text text-anchor="middle" x="371.1961" y="-1958.3" font-family="Times,serif" font-size="14.00" fill="#000000">Weight room</text>
</g>
<!-- End of N/S Hallway&#45;&gt;Weight room -->
<g id="edge22" class="edge">
<title>End of N/S Hallway&#45;&gt;Weight room</title>
<path fill="none" stroke="#000000" d="M371.1961,-2015.8314C371.1961,-2005 371.1961,-1991.2876 371.1961,-1980.4133"/>
</g>
<!-- Maze button room -->
<g id="node24" class="node">
<title>Maze button room</title>
<ellipse fill="none" stroke="#000000" cx="430.1961" cy="-1890" rx="87.1846" ry="18"/>
<text text-anchor="middle" x="430.1961" y="-1886.3" font-family="Times,serif" font-size="14.00" fill="#000000">Maze button room</text>
</g>
<!-- Weight room&#45;&gt;Maze button room -->
<g id="edge23" class="edge">
<title>Weight room&#45;&gt;Maze button room</title>
<path fill="none" stroke="#000000" d="M385.7804,-1944.2022C394.8574,-1933.1252 406.4912,-1918.928 415.5751,-1907.8425"/>
</g>
<!-- Maze -->
<g id="node26" class="node">
<title>Maze</title>
<ellipse fill="none" stroke="#000000" cx="584.1961" cy="-1818" rx="33.5952" ry="18"/>
<text text-anchor="middle" x="584.1961" y="-1814.3" font-family="Times,serif" font-size="14.00" fill="#000000">Maze</text>
</g>
<!-- Maze button room&#45;&gt;Maze -->
<g id="edge25" class="edge">
<title>Maze button room&#45;&gt;Maze</title>
<path fill="none" stroke="#000000" d="M465.5268,-1873.4817C493.9431,-1860.1962 533.1942,-1841.845 558.6365,-1829.9499"/>
</g>
<!-- button -->
<g id="node25" class="node">
<title>button</title>
<ellipse fill="none" stroke="#000000" cx="490.1961" cy="-1962" rx="37.8943" ry="18"/>
<text text-anchor="middle" x="490.1961" y="-1958.3" font-family="Times,serif" font-size="14.00" fill="#000000">button</text>
</g>
<!-- button&#45;&gt;Maze button room -->
<g id="edge24" class="edge">
<title>button&#45;&gt;Maze button room</title>
<path fill="none" stroke="#000000" stroke-dasharray="1,5" d="M475.9769,-1944.937C466.6897,-1933.7923 454.5817,-1919.2627 445.1505,-1907.9453"/>
</g>
<!-- Maze&#45;&gt;Maze -->
<g id="edge28" class="edge">
<title>Maze&#45;&gt;Maze</title>
<path fill="none" stroke="#000000" d="M608.441,-1830.7082C622.6724,-1833.4157 635.9931,-1829.1797 635.9931,-1818 635.9931,-1806.8203 622.6724,-1802.5843 608.441,-1805.2918"/>
<text text-anchor="middle" x="658.941" y="-1834.5082" font-family="Times,serif" font-size="14.00" fill="#000000">lot of directions</text>
</g>
<!-- Reception area -->
<g id="node29" class="node">
<title>Reception area</title>
<ellipse fill="none" stroke="#000000" cx="584.1961" cy="-1746" rx="72.2875" ry="18"/>
<text text-anchor="middle" x="584.1961" y="-1742.3" font-family="Times,serif" font-size="14.00" fill="#000000">Reception area</text>
</g>
<!-- Maze&#45;&gt;Reception area -->
<g id="edge29" class="edge">
<title>Maze&#45;&gt;Reception area</title>
<path fill="none" stroke="#000000" d="M584.1961,-1799.8314C584.1961,-1789 584.1961,-1775.2876 584.1961,-1764.4133"/>
</g>
<!-- statuette -->
<g id="node27" class="node">
<title>statuette</title>
<ellipse fill="none" stroke="#000000" cx="584.1961" cy="-1890" rx="48.9926" ry="18"/>
<text text-anchor="middle" x="584.1961" y="-1886.3" font-family="Times,serif" font-size="14.00" fill="#000000">statuette</text>
</g>
<!-- statuette&#45;&gt;Maze -->
<g id="edge26" class="edge">
<title>statuette&#45;&gt;Maze</title>
<path fill="none" stroke="#000000" stroke-dasharray="1,5" d="M584.1961,-1871.8314C584.1961,-1861 584.1961,-1847.2876 584.1961,-1836.4133"/>
</g>
<!-- floppy -->
<g id="node28" class="node">
<title>floppy</title>
<ellipse fill="none" stroke="#000000" cx="686.1961" cy="-1890" rx="35.9954" ry="18"/>
<text text-anchor="middle" x="686.1961" y="-1886.3" font-family="Times,serif" font-size="14.00" fill="#000000">floppy</text>
</g>
<!-- floppy&#45;&gt;Maze -->
<g id="edge27" class="edge">
<title>floppy&#45;&gt;Maze</title>
<path fill="none" stroke="#000000" stroke-dasharray="1,5" d="M665.0616,-1875.0816C647.3225,-1862.5598 622.1403,-1844.7842 604.6074,-1832.408"/>
</g>
<!-- Health Club front -->
<g id="node30" class="node">
<title>Health Club front</title>
<ellipse fill="none" stroke="#000000" cx="584.1961" cy="-1674" rx="81.4863" ry="18"/>
<text text-anchor="middle" x="584.1961" y="-1670.3" font-family="Times,serif" font-size="14.00" fill="#000000">Health Club front</text>
</g>
<!-- Reception area&#45;&gt;Health Club front -->
<g id="edge30" class="edge">
<title>Reception area&#45;&gt;Health Club front</title>
<path fill="none" stroke="#000000" d="M584.1961,-1727.8314C584.1961,-1717 584.1961,-1703.2876 584.1961,-1692.4133"/>
</g>
<!-- Lakefront North -->
<g id="node31" class="node">
<title>Lakefront North</title>
<ellipse fill="none" stroke="#000000" cx="584.1961" cy="-1602" rx="77.1866" ry="18"/>
<text text-anchor="middle" x="584.1961" y="-1598.3" font-family="Times,serif" font-size="14.00" fill="#000000">Lakefront North</text>
</g>
<!-- Health Club front&#45;&gt;Lakefront North -->
<g id="edge31" class="edge">
<title>Health Club front&#45;&gt;Lakefront North</title>
<path fill="none" stroke="#000000" d="M584.1961,-1655.8314C584.1961,-1645 584.1961,-1631.2876 584.1961,-1620.4133"/>
</g>
<!-- Lakefront South -->
<g id="node32" class="node">
<title>Lakefront South</title>
<ellipse fill="none" stroke="#000000" cx="584.1961" cy="-1530" rx="77.1866" ry="18"/>
<text text-anchor="middle" x="584.1961" y="-1526.3" font-family="Times,serif" font-size="14.00" fill="#000000">Lakefront South</text>
</g>
<!-- Lakefront North&#45;&gt;Lakefront South -->
<g id="edge32" class="edge">
<title>Lakefront North&#45;&gt;Lakefront South</title>
<path fill="none" stroke="#000000" d="M584.1961,-1583.8314C584.1961,-1573 584.1961,-1559.2876 584.1961,-1548.4133"/>
</g>
<!-- Cave Entrance -->
<g id="node33" class="node">
<title>Cave Entrance</title>
<ellipse fill="none" stroke="#000000" cx="648.1961" cy="-1458" rx="69.5877" ry="18"/>
<text text-anchor="middle" x="648.1961" y="-1454.3" font-family="Times,serif" font-size="14.00" fill="#000000">Cave Entrance</text>
</g>
<!-- Lakefront South&#45;&gt;Cave Entrance -->
<g id="edge33" class="edge">
<title>Lakefront South&#45;&gt;Cave Entrance</title>
<path fill="none" stroke="#000000" d="M600.0163,-1512.2022C609.9366,-1501.0419 622.6722,-1486.7143 632.5578,-1475.593"/>
<text text-anchor="middle" x="596.0163" y="-1501.0022" font-family="Times,serif" font-size="14.00" fill="#000000">s</text>
</g>
<!-- Misty Room -->
<g id="node35" class="node">
<title>Misty Room</title>
<ellipse fill="none" stroke="#000000" cx="713.1961" cy="-1386" rx="60.3893" ry="18"/>
<text text-anchor="middle" x="713.1961" y="-1382.3" font-family="Times,serif" font-size="14.00" fill="#000000">Misty Room</text>
</g>
<!-- Cave Entrance&#45;&gt;Misty Room -->
<g id="edge35" class="edge">
<title>Cave Entrance&#45;&gt;Misty Room</title>
<path fill="none" stroke="#000000" d="M664.2635,-1440.2022C674.3388,-1429.0419 687.2734,-1414.7143 697.3135,-1403.593"/>
<text text-anchor="middle" x="660.2635" y="-1429.0022" font-family="Times,serif" font-size="14.00" fill="#000000">s</text>
</g>
<!-- chute -->
<g id="node34" class="node">
<title>chute</title>
<ellipse fill="none" stroke="#000000" cx="713.1961" cy="-1530" rx="33.5952" ry="18"/>
<text text-anchor="middle" x="713.1961" y="-1526.3" font-family="Times,serif" font-size="14.00" fill="#000000">chute</text>
</g>
<!-- chute&#45;&gt;Cave Entrance -->
<g id="edge34" class="edge">
<title>chute&#45;&gt;Cave Entrance</title>
<path fill="none" stroke="#000000" stroke-dasharray="1,5" d="M698.4466,-1513.6621C688.1835,-1502.2938 674.5138,-1487.1519 664.0228,-1475.5312"/>
</g>
<!-- Cave E/W passage -->
<g id="node37" class="node">
<title>Cave E/W passage</title>
<ellipse fill="none" stroke="#000000" cx="713.1961" cy="-1314" rx="87.1846" ry="18"/>
<text text-anchor="middle" x="713.1961" y="-1310.3" font-family="Times,serif" font-size="14.00" fill="#000000">Cave E/W passage</text>
</g>
<!-- Misty Room&#45;&gt;Cave E/W passage -->
<g id="edge37" class="edge">
<title>Misty Room&#45;&gt;Cave E/W passage</title>
<path fill="none" stroke="#000000" d="M713.1961,-1367.8314C713.1961,-1357 713.1961,-1343.2876 713.1961,-1332.4133"/>
<text text-anchor="middle" x="709.1961" y="-1356.6314" font-family="Times,serif" font-size="14.00" fill="#000000">e</text>
</g>
<!-- gold bar -->
<g id="node36" class="node">
<title>gold bar</title>
<ellipse fill="none" stroke="#000000" cx="779.1961" cy="-1458" rx="43.5923" ry="18"/>
<text text-anchor="middle" x="779.1961" y="-1454.3" font-family="Times,serif" font-size="14.00" fill="#000000">gold bar</text>
</g>
<!-- gold bar&#45;&gt;Misty Room -->
<g id="edge36" class="edge">
<title>gold bar&#45;&gt;Misty Room</title>
<path fill="none" stroke="#000000" stroke-dasharray="1,5" d="M763.555,-1440.937C753.1865,-1429.626 739.6219,-1414.8282 729.1834,-1403.4407"/>
</g>
<!-- N/S/W Junction -->
<g id="node38" class="node">
<title>N/S/W Junction</title>
<ellipse fill="none" stroke="#000000" cx="713.1961" cy="-1242" rx="76.8869" ry="18"/>
<text text-anchor="middle" x="713.1961" y="-1238.3" font-family="Times,serif" font-size="14.00" fill="#000000">N/S/W Junction</text>
</g>
<!-- Cave E/W passage&#45;&gt;N/S/W Junction -->
<g id="edge38" class="edge">
<title>Cave E/W passage&#45;&gt;N/S/W Junction</title>
<path fill="none" stroke="#000000" d="M713.1961,-1295.8314C713.1961,-1285 713.1961,-1271.2876 713.1961,-1260.4133"/>
<text text-anchor="middle" x="709.1961" y="-1284.6314" font-family="Times,serif" font-size="14.00" fill="#000000">e</text>
</g>
<!-- North end of cave passage -->
<g id="node39" class="node">
<title>North end of cave passage</title>
<ellipse fill="none" stroke="#000000" cx="1077.1961" cy="-1170" rx="121.5784" ry="18"/>
<text text-anchor="middle" x="1077.1961" y="-1166.3" font-family="Times,serif" font-size="14.00" fill="#000000">North end of cave passage</text>
</g>
<!-- N/S/W Junction&#45;&gt;North end of cave passage -->
<g id="edge39" class="edge">
<title>N/S/W Junction&#45;&gt;North end of cave passage</title>
<path fill="none" stroke="#000000" d="M772.0835,-1230.3519C835.3643,-1217.8349 936.0265,-1197.9237 1004.2698,-1184.425"/>
<text text-anchor="middle" x="768.0835" y="-1219.1519" font-family="Times,serif" font-size="14.00" fill="#000000">n</text>
</g>
<!-- South end of cave passage -->
<g id="node40" class="node">
<title>South end of cave passage</title>
<ellipse fill="none" stroke="#000000" cx="713.1961" cy="-1170" rx="121.5784" ry="18"/>
<text text-anchor="middle" x="713.1961" y="-1166.3" font-family="Times,serif" font-size="14.00" fill="#000000">South end of cave passage</text>
</g>
<!-- N/S/W Junction&#45;&gt;South end of cave passage -->
<g id="edge40" class="edge">
<title>N/S/W Junction&#45;&gt;South end of cave passage</title>
<path fill="none" stroke="#000000" d="M713.1961,-1223.8314C713.1961,-1213 713.1961,-1199.2876 713.1961,-1188.4133"/>
<text text-anchor="middle" x="709.1961" y="-1212.6314" font-family="Times,serif" font-size="14.00" fill="#000000">s</text>
</g>
<!-- Bedroom -->
<g id="node42" class="node">
<title>Bedroom</title>
<ellipse fill="none" stroke="#000000" cx="902.1961" cy="-1098" rx="48.1917" ry="18"/>
<text text-anchor="middle" x="902.1961" y="-1094.3" font-family="Times,serif" font-size="14.00" fill="#000000">Bedroom</text>
</g>
<!-- North end of cave passage&#45;&gt;Bedroom -->
<g id="edge42" class="edge">
<title>North end of cave passage&#45;&gt;Bedroom</title>
<path fill="none" stroke="#000000" d="M1035.7235,-1152.937C1004.7949,-1140.2121 963.1406,-1123.0743 934.6286,-1111.3437"/>
<text text-anchor="middle" x="1031.7235" y="-1141.737" font-family="Times,serif" font-size="14.00" fill="#000000">d</text>
</g>
<!-- ??? -->
<g id="node43" class="node">
<title>???</title>
<ellipse fill="none" stroke="#000000" cx="1077.1961" cy="-1098" rx="27" ry="18"/>
<text text-anchor="middle" x="1077.1961" y="-1094.3" font-family="Times,serif" font-size="14.00" fill="#000000">???</text>
</g>
<!-- North end of cave passage&#45;&gt;??? -->
<g id="edge43" class="edge">
<title>North end of cave passage&#45;&gt;???</title>
<path fill="none" stroke="#000000" d="M1077.1961,-1151.8314C1077.1961,-1141 1077.1961,-1127.2876 1077.1961,-1116.4133"/>
<text text-anchor="middle" x="1071.6961" y="-1140.6314" font-family="Times,serif" font-size="14.00" fill="#000000">w</text>
</g>
<!-- Bathroom -->
<g id="node41" class="node">
<title>Bathroom</title>
<ellipse fill="none" stroke="#000000" cx="705.1961" cy="-1026" rx="51.9908" ry="18"/>
<text text-anchor="middle" x="705.1961" y="-1022.3" font-family="Times,serif" font-size="14.00" fill="#000000">Bathroom</text>
</g>
<!-- South end of cave passage&#45;&gt;Bathroom -->
<g id="edge41" class="edge">
<title>South end of cave passage&#45;&gt;Bathroom</title>
<path fill="none" stroke="#000000" d="M712.1829,-1151.7623C710.644,-1124.0633 707.735,-1071.7005 706.2011,-1044.0896"/>
<text text-anchor="middle" x="708.1829" y="-1140.5623" font-family="Times,serif" font-size="14.00" fill="#000000">d</text>
</g>
<!-- Bedroom&#45;&gt;Bathroom -->
<g id="edge46" class="edge">
<title>Bedroom&#45;&gt;Bathroom</title>
<path fill="none" stroke="#000000" d="M867.4299,-1085.2936C831.9727,-1072.3346 777.2062,-1052.3184 741.2797,-1039.1879"/>
<text text-anchor="middle" x="863.4299" y="-1074.0936" font-family="Times,serif" font-size="14.00" fill="#000000">s</text>
</g>
<!-- NE end of NE/SW cave passage -->
<g id="node45" class="node">
<title>NE end of NE/SW cave passage</title>
<ellipse fill="none" stroke="#000000" cx="917.1961" cy="-1026" rx="141.8751" ry="18"/>
<text text-anchor="middle" x="917.1961" y="-1022.3" font-family="Times,serif" font-size="14.00" fill="#000000">NE end of NE/SW cave passage</text>
</g>
<!-- Bedroom&#45;&gt;NE end of NE/SW cave passage -->
<g id="edge45" class="edge">
<title>Bedroom&#45;&gt;NE end of NE/SW cave passage</title>
<path fill="none" stroke="#000000" d="M905.9812,-1079.8314C908.2377,-1069 911.0945,-1055.2876 913.36,-1044.4133"/>
<text text-anchor="middle" x="901.9812" y="-1068.6314" font-family="Times,serif" font-size="14.00" fill="#000000">d</text>
</g>
<!-- painting -->
<g id="node44" class="node">
<title>painting</title>
<ellipse fill="none" stroke="#000000" cx="895.1961" cy="-1170" rx="42.4939" ry="18"/>
<text text-anchor="middle" x="895.1961" y="-1166.3" font-family="Times,serif" font-size="14.00" fill="#000000">painting</text>
</g>
<!-- painting&#45;&gt;Bedroom -->
<g id="edge44" class="edge">
<title>painting&#45;&gt;Bedroom</title>
<path fill="none" stroke="#000000" stroke-dasharray="1,5" d="M896.9625,-1151.8314C898.0155,-1141 899.3487,-1127.2876 900.4059,-1116.4133"/>
</g>
<!-- NE/SW&#45;E/W junction -->
<g id="node47" class="node">
<title>NE/SW&#45;E/W junction</title>
<ellipse fill="none" stroke="#000000" cx="917.1961" cy="-954" rx="94.7833" ry="18"/>
<text text-anchor="middle" x="917.1961" y="-950.3" font-family="Times,serif" font-size="14.00" fill="#000000">NE/SW&#45;E/W junction</text>
</g>
<!-- NE end of NE/SW cave passage&#45;&gt;NE/SW&#45;E/W junction -->
<g id="edge48" class="edge">
<title>NE end of NE/SW cave passage&#45;&gt;NE/SW&#45;E/W junction</title>
<path fill="none" stroke="#000000" d="M917.1961,-1007.8314C917.1961,-997 917.1961,-983.2876 917.1961,-972.4133"/>
<text text-anchor="middle" x="907.6961" y="-996.6314" font-family="Times,serif" font-size="14.00" fill="#000000">sw</text>
</g>
<!-- urinal -->
<g id="node46" class="node">
<title>urinal</title>
<ellipse fill="none" stroke="#000000" cx="653.1961" cy="-1098" rx="32.4942" ry="18"/>
<text text-anchor="middle" x="653.1961" y="-1094.3" font-family="Times,serif" font-size="14.00" fill="#000000">urinal</text>
</g>
<!-- urinal&#45;&gt;Bathroom -->
<g id="edge47" class="edge">
<title>urinal&#45;&gt;Bathroom</title>
<path fill="none" stroke="#000000" stroke-dasharray="1,5" d="M665.5194,-1080.937C673.6284,-1069.7091 684.2187,-1055.0456 692.4182,-1043.6924"/>
</g>
<!-- East end of E/W cave passage -->
<g id="node48" class="node">
<title>East end of E/W cave passage</title>
<ellipse fill="none" stroke="#000000" cx="1166.1961" cy="-882" rx="135.6761" ry="18"/>
<text text-anchor="middle" x="1166.1961" y="-878.3" font-family="Times,serif" font-size="14.00" fill="#000000">East end of E/W cave passage</text>
</g>
<!-- NE/SW&#45;E/W junction&#45;&gt;East end of E/W cave passage -->
<g id="edge49" class="edge">
<title>NE/SW&#45;E/W junction&#45;&gt;East end of E/W cave passage</title>
<path fill="none" stroke="#000000" d="M969.3946,-938.9064C1010.3228,-927.0718 1067.2042,-910.6241 1109.2936,-898.4537"/>
<text text-anchor="middle" x="965.3946" y="-927.7064" font-family="Times,serif" font-size="14.00" fill="#000000">e</text>
</g>
<!-- West end of E/W cave passage -->
<g id="node50" class="node">
<title>West end of E/W cave passage</title>
<ellipse fill="none" stroke="#000000" cx="873.1961" cy="-882" rx="139.1754" ry="18"/>
<text text-anchor="middle" x="873.1961" y="-878.3" font-family="Times,serif" font-size="14.00" fill="#000000">West end of E/W cave passage</text>
</g>
<!-- NE/SW&#45;E/W junction&#45;&gt;West end of E/W cave passage -->
<g id="edge51" class="edge">
<title>NE/SW&#45;E/W junction&#45;&gt;West end of E/W cave passage</title>
<path fill="none" stroke="#000000" d="M906.093,-935.8314C899.4739,-925 891.094,-911.2876 884.4486,-900.4133"/>
<text text-anchor="middle" x="900.593" y="-924.6314" font-family="Times,serif" font-size="14.00" fill="#000000">w</text>
</g>
<!-- Horseshoe boulder room -->
<g id="node49" class="node">
<title>Horseshoe boulder room</title>
<ellipse fill="none" stroke="#000000" cx="1166.1961" cy="-810" rx="113.18" ry="18"/>
<text text-anchor="middle" x="1166.1961" y="-806.3" font-family="Times,serif" font-size="14.00" fill="#000000">Horseshoe boulder room</text>
</g>
<!-- East end of E/W cave passage&#45;&gt;Horseshoe boulder room -->
<g id="edge50" class="edge">
<title>East end of E/W cave passage&#45;&gt;Horseshoe boulder room</title>
<path fill="none" stroke="#000000" d="M1166.1961,-863.8314C1166.1961,-853 1166.1961,-839.2876 1166.1961,-828.4133"/>
<text text-anchor="middle" x="1162.1961" y="-852.6314" font-family="Times,serif" font-size="14.00" fill="#000000">u</text>
</g>
<!-- Empty room -->
<g id="node51" class="node">
<title>Empty room</title>
<ellipse fill="none" stroke="#000000" cx="873.1961" cy="-810" rx="61.1893" ry="18"/>
<text text-anchor="middle" x="873.1961" y="-806.3" font-family="Times,serif" font-size="14.00" fill="#000000">Empty room</text>
</g>
<!-- West end of E/W cave passage&#45;&gt;Empty room -->
<g id="edge52" class="edge">
<title>West end of E/W cave passage&#45;&gt;Empty room</title>
<path fill="none" stroke="#000000" d="M873.1961,-863.8314C873.1961,-853 873.1961,-839.2876 873.1961,-828.4133"/>
<text text-anchor="middle" x="869.1961" y="-852.6314" font-family="Times,serif" font-size="14.00" fill="#000000">d</text>
</g>
<!-- Blue room -->
<g id="node52" class="node">
<title>Blue room</title>
<ellipse fill="none" stroke="#000000" cx="829.1961" cy="-738" rx="52.7911" ry="18"/>
<text text-anchor="middle" x="829.1961" y="-734.3" font-family="Times,serif" font-size="14.00" fill="#000000">Blue room</text>
</g>
<!-- Empty room&#45;&gt;Blue room -->
<g id="edge53" class="edge">
<title>Empty room&#45;&gt;Blue room</title>
<path fill="none" stroke="#000000" d="M862.3197,-792.2022C855.5504,-781.1252 846.8743,-766.928 840.0999,-755.8425"/>
<text text-anchor="middle" x="858.3197" y="-781.0022" font-family="Times,serif" font-size="14.00" fill="#000000">n</text>
</g>
<!-- Red room -->
<g id="node53" class="node">
<title>Red room</title>
<ellipse fill="none" stroke="#000000" cx="825.1961" cy="-594" rx="50.8918" ry="18"/>
<text text-anchor="middle" x="825.1961" y="-590.3" font-family="Times,serif" font-size="14.00" fill="#000000">Red room</text>
</g>
<!-- Empty room&#45;&gt;Red room -->
<g id="edge54" class="edge">
<title>Empty room&#45;&gt;Red room</title>
<path fill="none" stroke="#000000" d="M882.0107,-791.9182C895.8364,-760.8081 918.7351,-695.8878 895.1961,-648 886.8003,-630.9196 870.1146,-617.7164 855.1396,-608.6418"/>
<text text-anchor="middle" x="878.0107" y="-780.7182" font-family="Times,serif" font-size="14.00" fill="#000000">e</text>
</g>
<!-- Yellow room -->
<g id="node54" class="node">
<title>Yellow room</title>
<ellipse fill="none" stroke="#000000" cx="825.1961" cy="-666" rx="61.1893" ry="18"/>
<text text-anchor="middle" x="825.1961" y="-662.3" font-family="Times,serif" font-size="14.00" fill="#000000">Yellow room</text>
</g>
<!-- Blue room&#45;&gt;Yellow room -->
<g id="edge55" class="edge">
<title>Blue room&#45;&gt;Yellow room</title>
<path fill="none" stroke="#000000" d="M828.1867,-719.8314C827.585,-709 826.8232,-695.2876 826.219,-684.4133"/>
<text text-anchor="middle" x="824.1867" y="-708.6314" font-family="Times,serif" font-size="14.00" fill="#000000">e</text>
</g>
<!-- Long n/s hallway -->
<g id="node56" class="node">
<title>Long n/s hallway</title>
<ellipse fill="none" stroke="#000000" cx="825.1961" cy="-522" rx="79.0865" ry="18"/>
<text text-anchor="middle" x="825.1961" y="-518.3" font-family="Times,serif" font-size="14.00" fill="#000000">Long n/s hallway</text>
</g>
<!-- Red room&#45;&gt;Long n/s hallway -->
<g id="edge58" class="edge">
<title>Red room&#45;&gt;Long n/s hallway</title>
<path fill="none" stroke="#000000" d="M825.1961,-575.8314C825.1961,-565 825.1961,-551.2876 825.1961,-540.4133"/>
<text text-anchor="middle" x="821.1961" y="-564.6314" font-family="Times,serif" font-size="14.00" fill="#000000">d</text>
</g>
<!-- Yellow room&#45;&gt;Red room -->
<g id="edge56" class="edge">
<title>Yellow room&#45;&gt;Red room</title>
<path fill="none" stroke="#000000" d="M825.1961,-647.8314C825.1961,-637 825.1961,-623.2876 825.1961,-612.4133"/>
<text text-anchor="middle" x="821.1961" y="-636.6314" font-family="Times,serif" font-size="14.00" fill="#000000">s</text>
</g>
<!-- towel -->
<g id="node55" class="node">
<title>towel</title>
<ellipse fill="none" stroke="#000000" cx="713.1961" cy="-666" rx="33.2948" ry="18"/>
<text text-anchor="middle" x="713.1961" y="-662.3" font-family="Times,serif" font-size="14.00" fill="#000000">towel</text>
</g>
<!-- towel&#45;&gt;Red room -->
<g id="edge57" class="edge">
<title>towel&#45;&gt;Red room</title>
<path fill="none" stroke="#000000" stroke-dasharray="1,5" d="M734.7908,-652.1177C753.6064,-640.0219 780.8825,-622.4873 800.5479,-609.8453"/>
</g>
<!-- 3/4 north -->
<g id="node57" class="node">
<title>3/4 north</title>
<ellipse fill="none" stroke="#000000" cx="981.1961" cy="-450" rx="50.0912" ry="18"/>
<text text-anchor="middle" x="981.1961" y="-446.3" font-family="Times,serif" font-size="14.00" fill="#000000">3/4 north</text>
</g>
<!-- Long n/s hallway&#45;&gt;3/4 north -->
<g id="edge59" class="edge">
<title>Long n/s hallway&#45;&gt;3/4 north</title>
<path fill="none" stroke="#000000" d="M860.2055,-505.8418C887.245,-493.3621 924.3081,-476.256 950.2641,-464.2763"/>
<text text-anchor="middle" x="856.2055" y="-494.6418" font-family="Times,serif" font-size="14.00" fill="#000000">n</text>
</g>
<!-- 3/4 south -->
<g id="node66" class="node">
<title>3/4 south</title>
<ellipse fill="none" stroke="#000000" cx="798.1961" cy="-450" rx="51.1914" ry="18"/>
<text text-anchor="middle" x="798.1961" y="-446.3" font-family="Times,serif" font-size="14.00" fill="#000000">3/4 south</text>
</g>
<!-- Long n/s hallway&#45;&gt;3/4 south -->
<g id="edge69" class="edge">
<title>Long n/s hallway&#45;&gt;3/4 south</title>
<path fill="none" stroke="#000000" d="M818.3828,-503.8314C814.2586,-492.8334 809.0204,-478.865 804.9136,-467.9134"/>
<text text-anchor="middle" x="814.3828" y="-492.6314" font-family="Times,serif" font-size="14.00" fill="#000000">s</text>
</g>
<!-- North end of long hallway -->
<g id="node58" class="node">
<title>North end of long hallway</title>
<ellipse fill="none" stroke="#000000" cx="1026.1961" cy="-378" rx="115.0796" ry="18"/>
<text text-anchor="middle" x="1026.1961" y="-374.3" font-family="Times,serif" font-size="14.00" fill="#000000">North end of long hallway</text>
</g>
<!-- 3/4 north&#45;&gt;North end of long hallway -->
<g id="edge60" class="edge">
<title>3/4 north&#45;&gt;North end of long hallway</title>
<path fill="none" stroke="#000000" d="M992.3197,-432.2022C999.1908,-421.2085 1007.9828,-407.1413 1014.8879,-396.0931"/>
<text text-anchor="middle" x="988.3197" y="-421.0022" font-family="Times,serif" font-size="14.00" fill="#000000">n</text>
</g>
<!-- Stair landing -->
<g id="node59" class="node">
<title>Stair landing</title>
<ellipse fill="none" stroke="#000000" cx="1026.1961" cy="-306" rx="60.3893" ry="18"/>
<text text-anchor="middle" x="1026.1961" y="-302.3" font-family="Times,serif" font-size="14.00" fill="#000000">Stair landing</text>
</g>
<!-- North end of long hallway&#45;&gt;Stair landing -->
<g id="edge61" class="edge">
<title>North end of long hallway&#45;&gt;Stair landing</title>
<path fill="none" stroke="#000000" d="M1026.1961,-359.8314C1026.1961,-349 1026.1961,-335.2876 1026.1961,-324.4133"/>
<text text-anchor="middle" x="1022.1961" y="-348.6314" font-family="Times,serif" font-size="14.00" fill="#000000">u</text>
</g>
<!-- Up/down staircase -->
<g id="node61" class="node">
<title>Up/down staircase</title>
<ellipse fill="none" stroke="#000000" cx="852.1961" cy="-234" rx="87.9851" ry="18"/>
<text text-anchor="middle" x="852.1961" y="-230.3" font-family="Times,serif" font-size="14.00" fill="#000000">Up/down staircase</text>
</g>
<!-- Stair landing&#45;&gt;Up/down staircase -->
<g id="edge63" class="edge">
<title>Stair landing&#45;&gt;Up/down staircase</title>
<path fill="none" stroke="#000000" d="M990.5647,-291.256C961.7312,-279.3249 921.1698,-262.5409 891.4162,-250.229"/>
<text text-anchor="middle" x="986.5647" y="-280.056" font-family="Times,serif" font-size="14.00" fill="#000000">u</text>
</g>
<!-- box -->
<g id="node60" class="node">
<title>box</title>
<ellipse fill="none" stroke="#000000" cx="1186.1961" cy="-378" rx="27" ry="18"/>
<text text-anchor="middle" x="1186.1961" y="-374.3" font-family="Times,serif" font-size="14.00" fill="#000000">box</text>
</g>
<!-- box&#45;&gt;Stair landing -->
<g id="edge62" class="edge">
<title>box&#45;&gt;Stair landing</title>
<path fill="none" stroke="#000000" stroke-dasharray="1,5" d="M1164.5844,-366.9622C1159.865,-364.6169 1154.8807,-362.1893 1150.1961,-360 1120.5214,-346.1318 1086.367,-331.343 1061.4266,-320.7549"/>
</g>
<!-- Top of staircase -->
<g id="node62" class="node">
<title>Top of staircase</title>
<ellipse fill="none" stroke="#000000" cx="674.1961" cy="-162" rx="78.7863" ry="18"/>
<text text-anchor="middle" x="674.1961" y="-158.3" font-family="Times,serif" font-size="14.00" fill="#000000">Top of staircase</text>
</g>
<!-- Up/down staircase&#45;&gt;Top of staircase -->
<g id="edge64" class="edge">
<title>Up/down staircase&#45;&gt;Top of staircase</title>
<path fill="none" stroke="#000000" d="M812.2494,-217.8418C782.6267,-205.8596 742.4605,-189.6126 713.0914,-177.7329"/>
<text text-anchor="middle" x="808.2494" y="-206.6418" font-family="Times,serif" font-size="14.00" fill="#000000">u</text>
</g>
<!-- NE crawlway -->
<g id="node63" class="node">
<title>NE crawlway</title>
<ellipse fill="none" stroke="#000000" cx="662.1961" cy="-90" rx="63.8893" ry="18"/>
<text text-anchor="middle" x="662.1961" y="-86.3" font-family="Times,serif" font-size="14.00" fill="#000000">NE crawlway</text>
</g>
<!-- Top of staircase&#45;&gt;NE crawlway -->
<g id="edge65" class="edge">
<title>Top of staircase&#45;&gt;NE crawlway</title>
<path fill="none" stroke="#000000" d="M671.168,-143.8314C669.3627,-133 667.0773,-119.2876 665.265,-108.4133"/>
<text text-anchor="middle" x="663.168" y="-132.6314" font-family="Times,serif" font-size="14.00" fill="#000000">ne</text>
</g>
<!-- Small crawlspace -->
<g id="node64" class="node">
<title>Small crawlspace</title>
<ellipse fill="none" stroke="#000000" cx="662.1961" cy="-18" rx="81.4863" ry="18"/>
<text text-anchor="middle" x="662.1961" y="-14.3" font-family="Times,serif" font-size="14.00" fill="#000000">Small crawlspace</text>
</g>
<!-- NE crawlway&#45;&gt;Small crawlspace -->
<g id="edge66" class="edge">
<title>NE crawlway&#45;&gt;Small crawlspace</title>
<path fill="none" stroke="#000000" d="M662.1961,-71.8314C662.1961,-61 662.1961,-47.2876 662.1961,-36.4133"/>
<text text-anchor="middle" x="654.1961" y="-60.6314" font-family="Times,serif" font-size="14.00" fill="#000000">ne</text>
</g>
<!-- Small crawlspace&#45;&gt;N/S/W Junction -->
<g id="edge68" class="edge">
<title>Small crawlspace&#45;&gt;N/S/W Junction</title>
<path fill="none" stroke="#000000" d="M630.6849,-34.8433C616.1548,-44.061 599.8153,-56.7272 589.1961,-72 565.4274,-106.1845 563.1961,-120.3643 563.1961,-162 563.1961,-1098 563.1961,-1098 563.1961,-1098 563.1961,-1138.8816 556.0497,-1156.5727 582.1961,-1188 600.1317,-1209.5581 628.0711,-1222.6244 653.548,-1230.4868"/>
<text text-anchor="middle" x="626.6849" y="-38.6433" font-family="Times,serif" font-size="14.00" fill="#000000">d</text>
</g>
<!-- axe -->
<g id="node65" class="node">
<title>axe</title>
<ellipse fill="none" stroke="#000000" cx="771.1961" cy="-90" rx="27" ry="18"/>
<text text-anchor="middle" x="771.1961" y="-86.3" font-family="Times,serif" font-size="14.00" fill="#000000">axe</text>
</g>
<!-- axe&#45;&gt;Small crawlspace -->
<g id="edge67" class="edge">
<title>axe&#45;&gt;Small crawlspace</title>
<path fill="none" stroke="#000000" stroke-dasharray="1,5" d="M751.96,-77.2936C734.2361,-65.5861 707.7924,-48.1187 688.1928,-35.1722"/>
</g>
<!-- South end of long hallway -->
<g id="node67" class="node">
<title>South end of long hallway</title>
<ellipse fill="none" stroke="#000000" cx="778.1961" cy="-378" rx="115.0796" ry="18"/>
<text text-anchor="middle" x="778.1961" y="-374.3" font-family="Times,serif" font-size="14.00" fill="#000000">South end of long hallway</text>
</g>
<!-- 3/4 south&#45;&gt;South end of long hallway -->
<g id="edge70" class="edge">
<title>3/4 south&#45;&gt;South end of long hallway</title>
<path fill="none" stroke="#000000" d="M793.1492,-431.8314C790.1405,-421 786.3315,-407.2876 783.3109,-396.4133"/>
<text text-anchor="middle" x="789.1492" y="-420.6314" font-family="Times,serif" font-size="14.00" fill="#000000">s</text>
</g>
<!-- PC area -->
<g id="node68" class="node">
<title>PC area</title>
<ellipse fill="none" stroke="#000000" cx="706.1961" cy="-306" rx="42.7926" ry="18"/>
<text text-anchor="middle" x="706.1961" y="-302.3" font-family="Times,serif" font-size="14.00" fill="#000000">PC area</text>
</g>
<!-- South end of long hallway&#45;&gt;PC area -->
<g id="edge71" class="edge">
<title>South end of long hallway&#45;&gt;PC area</title>
<path fill="none" stroke="#000000" d="M760.3983,-360.2022C748.9048,-348.7088 734.0522,-333.8561 722.8019,-322.6058"/>
<text text-anchor="middle" x="756.3983" y="-349.0022" font-family="Times,serif" font-size="14.00" fill="#000000">s</text>
</g>
<!-- pc -->
<g id="node69" class="node">
<title>pc</title>
<ellipse fill="none" stroke="#000000" cx="618.1961" cy="-378" rx="27" ry="18"/>
<text text-anchor="middle" x="618.1961" y="-374.3" font-family="Times,serif" font-size="14.00" fill="#000000">pc</text>
</g>
<!-- pc&#45;&gt;PC area -->
<g id="edge72" class="edge">
<title>pc&#45;&gt;PC area</title>
<path fill="none" stroke="#000000" stroke-dasharray="1,5" d="M635.582,-363.7751C650.2082,-351.8082 671.1191,-334.6994 686.3889,-322.2059"/>
</g>
</g>
</svg>
