<?xml version="1.0" encoding="UTF-8" standalone="no"?>
<!DOCTYPE svg PUBLIC "-//W3C//DTD SVG 1.1//EN"
 "http://www.w3.org/Graphics/SVG/1.1/DTD/svg11.dtd">
<!-- Generated by graphviz version 2.40.1 (20161225.0304)
 -->
<!-- Title: %3 Pages: 1 -->
<svg width="1072pt" height="2060pt"
 viewBox="0.00 0.00 1072.38 2060.00" xmlns="http://www.w3.org/2000/svg" xmlns:xlink="http://www.w3.org/1999/xlink">
<g id="graph0" class="graph" transform="scale(1 1) rotate(0) translate(4 2056)">
<title>%3</title>
<polygon fill="#ffffff" stroke="transparent" points="-4,4 -4,-2056 1068.3841,-2056 1068.3841,4 -4,4"/>
<!-- shovel -->
<g id="node1" class="node">
<title>shovel</title>
<ellipse fill="none" stroke="#000000" cx="92.8449" cy="-2034" rx="33.5952" ry="18"/>
<text text-anchor="middle" x="92.8449" y="-2030.3" font-family="Times,serif" font-size="14.00" fill="#000000">shovel</text>
</g>
<!-- Dead end -->
<g id="node2" class="node">
<title>Dead end</title>
<ellipse fill="none" stroke="#000000" cx="92.8449" cy="-1962" rx="44.393" ry="18"/>
<text text-anchor="middle" x="92.8449" y="-1958.3" font-family="Times,serif" font-size="14.00" fill="#000000">Dead end</text>
</g>
<!-- shovel&#45;&gt;Dead end -->
<g id="edge1" class="edge">
<title>shovel&#45;&gt;Dead end</title>
<path fill="none" stroke="#000000" d="M92.8449,-2015.8314C92.8449,-2005 92.8449,-1991.2876 92.8449,-1980.4133"/>
</g>
<!-- E/W Dirt road -->
<g id="node3" class="node">
<title>E/W Dirt road</title>
<ellipse fill="none" stroke="#000000" cx="142.8449" cy="-1890" rx="61.99" ry="18"/>
<text text-anchor="middle" x="142.8449" y="-1886.3" font-family="Times,serif" font-size="14.00" fill="#000000">E/W Dirt road</text>
</g>
<!-- Dead end&#45;&gt;E/W Dirt road -->
<g id="edge2" class="edge">
<title>Dead end&#45;&gt;E/W Dirt road</title>
<path fill="none" stroke="#000000" d="M104.9485,-1944.5708C112.6941,-1933.4171 122.7141,-1918.9882 130.5054,-1907.7689"/>
</g>
<!-- Fork -->
<g id="node5" class="node">
<title>Fork</title>
<ellipse fill="none" stroke="#000000" cx="195.8449" cy="-1818" rx="27.0966" ry="18"/>
<text text-anchor="middle" x="195.8449" y="-1814.3" font-family="Times,serif" font-size="14.00" fill="#000000">Fork</text>
</g>
<!-- E/W Dirt road&#45;&gt;Fork -->
<g id="edge4" class="edge">
<title>E/W Dirt road&#45;&gt;Fork</title>
<path fill="none" stroke="#000000" d="M155.946,-1872.2022C164.4065,-1860.7088 175.3397,-1845.8561 183.6211,-1834.6058"/>
</g>
<!-- boulder -->
<g id="node4" class="node">
<title>boulder</title>
<ellipse fill="none" stroke="#000000" cx="192.8449" cy="-1962" rx="37.8943" ry="18"/>
<text text-anchor="middle" x="192.8449" y="-1958.3" font-family="Times,serif" font-size="14.00" fill="#000000">boulder</text>
</g>
<!-- boulder&#45;&gt;E/W Dirt road -->
<g id="edge3" class="edge">
<title>boulder&#45;&gt;E/W Dirt road</title>
<path fill="none" stroke="#000000" d="M180.7413,-1944.5708C172.9956,-1933.4171 162.9756,-1918.9882 155.1844,-1907.7689"/>
</g>
<!-- SE/NW road -->
<g id="node7" class="node">
<title>SE/NW road</title>
<ellipse fill="none" stroke="#000000" cx="57.8449" cy="-1746" rx="56.59" ry="18"/>
<text text-anchor="middle" x="57.8449" y="-1742.3" font-family="Times,serif" font-size="14.00" fill="#000000">SE/NW road</text>
</g>
<!-- Fork&#45;&gt;SE/NW road -->
<g id="edge6" class="edge">
<title>Fork&#45;&gt;SE/NW road</title>
<path fill="none" stroke="#000000" d="M174.2824,-1806.75C150.9342,-1794.5684 113.5407,-1775.0587 87.4493,-1761.4458"/>
</g>
<!-- NE/SW road -->
<g id="node13" class="node">
<title>NE/SW road</title>
<ellipse fill="none" stroke="#000000" cx="274.8449" cy="-1746" rx="56.59" ry="18"/>
<text text-anchor="middle" x="274.8449" y="-1742.3" font-family="Times,serif" font-size="14.00" fill="#000000">NE/SW road</text>
</g>
<!-- Fork&#45;&gt;NE/SW road -->
<g id="edge12" class="edge">
<title>Fork&#45;&gt;NE/SW road</title>
<path fill="none" stroke="#000000" d="M212.2137,-1803.0816C224.9586,-1791.466 242.664,-1775.3294 255.9993,-1763.1757"/>
</g>
<!-- cpu -->
<g id="node6" class="node">
<title>cpu</title>
<ellipse fill="none" stroke="#000000" cx="249.8449" cy="-1890" rx="27" ry="18"/>
<text text-anchor="middle" x="249.8449" y="-1886.3" font-family="Times,serif" font-size="14.00" fill="#000000">cpu</text>
</g>
<!-- cpu&#45;&gt;Fork -->
<g id="edge5" class="edge">
<title>cpu&#45;&gt;Fork</title>
<path fill="none" stroke="#000000" d="M237.5914,-1873.6621C228.754,-1861.8788 216.8761,-1846.0416 208.0498,-1834.2733"/>
</g>
<!-- Bear hangout -->
<g id="node9" class="node">
<title>Bear hangout</title>
<ellipse fill="none" stroke="#000000" cx="57.8449" cy="-1674" rx="57.6901" ry="18"/>
<text text-anchor="middle" x="57.8449" y="-1670.3" font-family="Times,serif" font-size="14.00" fill="#000000">Bear hangout</text>
</g>
<!-- SE/NW road&#45;&gt;Bear hangout -->
<g id="edge8" class="edge">
<title>SE/NW road&#45;&gt;Bear hangout</title>
<path fill="none" stroke="#000000" d="M57.8449,-1727.8314C57.8449,-1717 57.8449,-1703.2876 57.8449,-1692.4133"/>
</g>
<!-- food -->
<g id="node8" class="node">
<title>food</title>
<ellipse fill="none" stroke="#000000" cx="57.8449" cy="-1818" rx="27" ry="18"/>
<text text-anchor="middle" x="57.8449" y="-1814.3" font-family="Times,serif" font-size="14.00" fill="#000000">food</text>
</g>
<!-- food&#45;&gt;SE/NW road -->
<g id="edge7" class="edge">
<title>food&#45;&gt;SE/NW road</title>
<path fill="none" stroke="#000000" d="M57.8449,-1799.8314C57.8449,-1789 57.8449,-1775.2876 57.8449,-1764.4133"/>
</g>
<!-- Hidden area -->
<g id="node11" class="node">
<title>Hidden area</title>
<ellipse fill="none" stroke="#000000" cx="93.8449" cy="-1602" rx="53.8905" ry="18"/>
<text text-anchor="middle" x="93.8449" y="-1598.3" font-family="Times,serif" font-size="14.00" fill="#000000">Hidden area</text>
</g>
<!-- Bear hangout&#45;&gt;Hidden area -->
<g id="edge10" class="edge">
<title>Bear hangout&#45;&gt;Hidden area</title>
<path fill="none" stroke="#000000" d="M66.7437,-1656.2022C72.2823,-1645.1252 79.3809,-1630.928 84.9236,-1619.8425"/>
</g>
<!-- key -->
<g id="node10" class="node">
<title>key</title>
<ellipse fill="none" stroke="#000000" cx="159.8449" cy="-1746" rx="27" ry="18"/>
<text text-anchor="middle" x="159.8449" y="-1742.3" font-family="Times,serif" font-size="14.00" fill="#000000">key</text>
</g>
<!-- key&#45;&gt;Bear hangout -->
<g id="edge9" class="edge">
<title>key&#45;&gt;Bear hangout</title>
<path fill="none" stroke="#000000" d="M141.1365,-1732.7941C124.3428,-1720.9397 99.6133,-1703.4836 81.462,-1690.6709"/>
</g>
<!-- bracelet -->
<g id="node12" class="node">
<title>bracelet</title>
<ellipse fill="none" stroke="#000000" cx="171.8449" cy="-1674" rx="38.1938" ry="18"/>
<text text-anchor="middle" x="171.8449" y="-1670.3" font-family="Times,serif" font-size="14.00" fill="#000000">bracelet</text>
</g>
<!-- bracelet&#45;&gt;Hidden area -->
<g id="edge11" class="edge">
<title>bracelet&#45;&gt;Hidden area</title>
<path fill="none" stroke="#000000" d="M154.1455,-1657.6621C141.65,-1646.1278 124.9463,-1630.709 112.2881,-1619.0245"/>
</g>
<!-- Building front -->
<g id="node14" class="node">
<title>Building front</title>
<ellipse fill="none" stroke="#000000" cx="288.8449" cy="-1674" rx="61.1893" ry="18"/>
<text text-anchor="middle" x="288.8449" y="-1670.3" font-family="Times,serif" font-size="14.00" fill="#000000">Building front</text>
</g>
<!-- NE/SW road&#45;&gt;Building front -->
<g id="edge13" class="edge">
<title>NE/SW road&#45;&gt;Building front</title>
<path fill="none" stroke="#000000" d="M278.3777,-1727.8314C280.4838,-1717 283.1501,-1703.2876 285.2645,-1692.4133"/>
</g>
<!-- Old Building hallway -->
<g id="node15" class="node">
<title>Old Building hallway</title>
<ellipse fill="none" stroke="#000000" cx="288.8449" cy="-1602" rx="87.1846" ry="18"/>
<text text-anchor="middle" x="288.8449" y="-1598.3" font-family="Times,serif" font-size="14.00" fill="#000000">Old Building hallway</text>
</g>
<!-- Building front&#45;&gt;Old Building hallway -->
<g id="edge14" class="edge">
<title>Building front&#45;&gt;Old Building hallway</title>
<path fill="none" stroke="#000000" d="M288.8449,-1655.8314C288.8449,-1645 288.8449,-1631.2876 288.8449,-1620.4133"/>
</g>
<!-- Computer room -->
<g id="node16" class="node">
<title>Computer room</title>
<ellipse fill="none" stroke="#000000" cx="356.8449" cy="-1530" rx="67.6881" ry="18"/>
<text text-anchor="middle" x="356.8449" y="-1526.3" font-family="Times,serif" font-size="14.00" fill="#000000">Computer room</text>
</g>
<!-- Old Building hallway&#45;&gt;Computer room -->
<g id="edge15" class="edge">
<title>Old Building hallway&#45;&gt;Computer room</title>
<path fill="none" stroke="#000000" d="M305.6539,-1584.2022C316.1942,-1573.0419 329.7258,-1558.7143 340.2292,-1547.593"/>
</g>
<!-- Pockey -->
<g id="node18" class="node">
<title>Pockey</title>
<ellipse fill="none" stroke="#000000" cx="356.8449" cy="-1458" rx="36.2938" ry="18"/>
<text text-anchor="middle" x="356.8449" y="-1454.3" font-family="Times,serif" font-size="14.00" fill="#000000">Pockey</text>
</g>
<!-- Computer room&#45;&gt;Pockey -->
<g id="edge17" class="edge">
<title>Computer room&#45;&gt;Pockey</title>
<path fill="none" stroke="#000000" d="M356.8449,-1511.8314C356.8449,-1501 356.8449,-1487.2876 356.8449,-1476.4133"/>
</g>
<!-- paper -->
<g id="node17" class="node">
<title>paper</title>
<ellipse fill="none" stroke="#000000" cx="424.8449" cy="-1602" rx="30.5947" ry="18"/>
<text text-anchor="middle" x="424.8449" y="-1598.3" font-family="Times,serif" font-size="14.00" fill="#000000">paper</text>
</g>
<!-- paper&#45;&gt;Computer room -->
<g id="edge16" class="edge">
<title>paper&#45;&gt;Computer room</title>
<path fill="none" stroke="#000000" d="M409.7535,-1586.0209C399.0325,-1574.6692 384.6337,-1559.4235 373.5639,-1547.7025"/>
</g>
<!-- Receiving room -->
<g id="node19" class="node">
<title>Receiving room</title>
<ellipse fill="none" stroke="#000000" cx="356.8449" cy="-1386" rx="67.6881" ry="18"/>
<text text-anchor="middle" x="356.8449" y="-1382.3" font-family="Times,serif" font-size="14.00" fill="#000000">Receiving room</text>
</g>
<!-- Pockey&#45;&gt;Receiving room -->
<g id="edge18" class="edge">
<title>Pockey&#45;&gt;Receiving room</title>
<path fill="none" stroke="#000000" d="M356.8449,-1439.8314C356.8449,-1429 356.8449,-1415.2876 356.8449,-1404.4133"/>
</g>
<!-- Northbound Hallway -->
<g id="node20" class="node">
<title>Northbound Hallway</title>
<ellipse fill="none" stroke="#000000" cx="356.8449" cy="-1314" rx="85.2851" ry="18"/>
<text text-anchor="middle" x="356.8449" y="-1310.3" font-family="Times,serif" font-size="14.00" fill="#000000">Northbound Hallway</text>
</g>
<!-- Receiving room&#45;&gt;Northbound Hallway -->
<g id="edge19" class="edge">
<title>Receiving room&#45;&gt;Northbound Hallway</title>
<path fill="none" stroke="#000000" d="M356.8449,-1367.8314C356.8449,-1357 356.8449,-1343.2876 356.8449,-1332.4133"/>
</g>
<!-- Sauna -->
<g id="node21" class="node">
<title>Sauna</title>
<ellipse fill="none" stroke="#000000" cx="289.8449" cy="-1242" rx="32.4942" ry="18"/>
<text text-anchor="middle" x="289.8449" y="-1238.3" font-family="Times,serif" font-size="14.00" fill="#000000">Sauna</text>
</g>
<!-- Northbound Hallway&#45;&gt;Sauna -->
<g id="edge20" class="edge">
<title>Northbound Hallway&#45;&gt;Sauna</title>
<path fill="none" stroke="#000000" d="M340.2831,-1296.2022C329.4327,-1284.5422 315.3653,-1269.4249 304.8445,-1258.119"/>
</g>
<!-- End of N/S Hallway -->
<g id="node22" class="node">
<title>End of N/S Hallway</title>
<ellipse fill="none" stroke="#000000" cx="423.8449" cy="-1242" rx="83.3857" ry="18"/>
<text text-anchor="middle" x="423.8449" y="-1238.3" font-family="Times,serif" font-size="14.00" fill="#000000">End of N/S Hallway</text>
</g>
<!-- Northbound Hallway&#45;&gt;End of N/S Hallway -->
<g id="edge21" class="edge">
<title>Northbound Hallway&#45;&gt;End of N/S Hallway</title>
<path fill="none" stroke="#000000" d="M373.4067,-1296.2022C383.7145,-1285.1252 396.9258,-1270.928 407.2414,-1259.8425"/>
</g>
<!-- Weight room -->
<g id="node23" class="node">
<title>Weight room</title>
<ellipse fill="none" stroke="#000000" cx="423.8449" cy="-1170" rx="58.4896" ry="18"/>
<text text-anchor="middle" x="423.8449" y="-1166.3" font-family="Times,serif" font-size="14.00" fill="#000000">Weight room</text>
</g>
<!-- End of N/S Hallway&#45;&gt;Weight room -->
<g id="edge22" class="edge">
<title>End of N/S Hallway&#45;&gt;Weight room</title>
<path fill="none" stroke="#000000" d="M423.8449,-1223.8314C423.8449,-1213 423.8449,-1199.2876 423.8449,-1188.4133"/>
</g>
<!-- Maze button room -->
<g id="node24" class="node">
<title>Maze button room</title>
<ellipse fill="none" stroke="#000000" cx="478.8449" cy="-1098" rx="77.1866" ry="18"/>
<text text-anchor="middle" x="478.8449" y="-1094.3" font-family="Times,serif" font-size="14.00" fill="#000000">Maze button room</text>
</g>
<!-- Weight room&#45;&gt;Maze button room -->
<g id="edge23" class="edge">
<title>Weight room&#45;&gt;Maze button room</title>
<path fill="none" stroke="#000000" d="M437.4404,-1152.2022C445.902,-1141.1252 456.7471,-1126.928 465.2151,-1115.8425"/>
</g>
<!-- Maze -->
<g id="node26" class="node">
<title>Maze</title>
<ellipse fill="none" stroke="#000000" cx="614.8449" cy="-1026" rx="30.5947" ry="18"/>
<text text-anchor="middle" x="614.8449" y="-1022.3" font-family="Times,serif" font-size="14.00" fill="#000000">Maze</text>
</g>
<!-- Maze button room&#45;&gt;Maze -->
<g id="edge25" class="edge">
<title>Maze button room&#45;&gt;Maze</title>
<path fill="none" stroke="#000000" d="M510.046,-1081.4817C534.9841,-1068.2792 569.3713,-1050.0742 591.8501,-1038.1737"/>
</g>
<!-- button -->
<g id="node25" class="node">
<title>button</title>
<ellipse fill="none" stroke="#000000" cx="533.8449" cy="-1170" rx="33.2948" ry="18"/>
<text text-anchor="middle" x="533.8449" y="-1166.3" font-family="Times,serif" font-size="14.00" fill="#000000">button</text>
</g>
<!-- button&#45;&gt;Maze button room -->
<g id="edge24" class="edge">
<title>button&#45;&gt;Maze button room</title>
<path fill="none" stroke="#000000" d="M521.0885,-1153.3008C512.5205,-1142.0844 501.2414,-1127.3191 492.4934,-1115.8671"/>
</g>
<!-- Reception area -->
<g id="node29" class="node">
<title>Reception area</title>
<ellipse fill="none" stroke="#000000" cx="614.8449" cy="-954" rx="63.8893" ry="18"/>
<text text-anchor="middle" x="614.8449" y="-950.3" font-family="Times,serif" font-size="14.00" fill="#000000">Reception area</text>
</g>
<!-- Maze&#45;&gt;Reception area -->
<g id="edge28" class="edge">
<title>Maze&#45;&gt;Reception area</title>
<path fill="none" stroke="#000000" d="M614.8449,-1007.8314C614.8449,-997 614.8449,-983.2876 614.8449,-972.4133"/>
</g>
<!-- statuette -->
<g id="node27" class="node">
<title>statuette</title>
<ellipse fill="none" stroke="#000000" cx="614.8449" cy="-1098" rx="40.0939" ry="18"/>
<text text-anchor="middle" x="614.8449" y="-1094.3" font-family="Times,serif" font-size="14.00" fill="#000000">statuette</text>
</g>
<!-- statuette&#45;&gt;Maze -->
<g id="edge26" class="edge">
<title>statuette&#45;&gt;Maze</title>
<path fill="none" stroke="#000000" d="M614.8449,-1079.8314C614.8449,-1069 614.8449,-1055.2876 614.8449,-1044.4133"/>
</g>
<!-- floppy -->
<g id="node28" class="node">
<title>floppy</title>
<ellipse fill="none" stroke="#000000" cx="706.8449" cy="-1098" rx="33.5952" ry="18"/>
<text text-anchor="middle" x="706.8449" y="-1094.3" font-family="Times,serif" font-size="14.00" fill="#000000">floppy</text>
</g>
<!-- floppy&#45;&gt;Maze -->
<g id="edge27" class="edge">
<title>floppy&#45;&gt;Maze</title>
<path fill="none" stroke="#000000" d="M687.7824,-1083.0816C671.7824,-1070.5598 649.0691,-1052.7842 633.2551,-1040.408"/>
</g>
<!-- Health Club front -->
<g id="node30" class="node">
<title>Health Club front</title>
<ellipse fill="none" stroke="#000000" cx="614.8449" cy="-882" rx="73.387" ry="18"/>
<text text-anchor="middle" x="614.8449" y="-878.3" font-family="Times,serif" font-size="14.00" fill="#000000">Health Club front</text>
</g>
<!-- Reception area&#45;&gt;Health Club front -->
<g id="edge29" class="edge">
<title>Reception area&#45;&gt;Health Club front</title>
<path fill="none" stroke="#000000" d="M614.8449,-935.8314C614.8449,-925 614.8449,-911.2876 614.8449,-900.4133"/>
</g>
<!-- Lakefront North -->
<g id="node31" class="node">
<title>Lakefront North</title>
<ellipse fill="none" stroke="#000000" cx="614.8449" cy="-810" rx="68.4888" ry="18"/>
<text text-anchor="middle" x="614.8449" y="-806.3" font-family="Times,serif" font-size="14.00" fill="#000000">Lakefront North</text>
</g>
<!-- Health Club front&#45;&gt;Lakefront North -->
<g id="edge30" class="edge">
<title>Health Club front&#45;&gt;Lakefront North</title>
<path fill="none" stroke="#000000" d="M614.8449,-863.8314C614.8449,-853 614.8449,-839.2876 614.8449,-828.4133"/>
</g>
<!-- Lakefront South -->
<g id="node32" class="node">
<title>Lakefront South</title>
<ellipse fill="none" stroke="#000000" cx="614.8449" cy="-738" rx="68.4888" ry="18"/>
<text text-anchor="middle" x="614.8449" y="-734.3" font-family="Times,serif" font-size="14.00" fill="#000000">Lakefront South</text>
</g>
<!-- Lakefront North&#45;&gt;Lakefront South -->
<g id="edge31" class="edge">
<title>Lakefront North&#45;&gt;Lakefront South</title>
<path fill="none" stroke="#000000" d="M614.8449,-791.8314C614.8449,-781 614.8449,-767.2876 614.8449,-756.4133"/>
</g>
<!-- Cave Entrance -->
<g id="node33" class="node">
<title>Cave Entrance</title>
<ellipse fill="none" stroke="#000000" cx="672.8449" cy="-666" rx="62.2891" ry="18"/>
<text text-anchor="middle" x="672.8449" y="-662.3" font-family="Times,serif" font-size="14.00" fill="#000000">Cave Entrance</text>
</g>
<!-- Lakefront South&#45;&gt;Cave Entrance -->
<g id="edge32" class="edge">
<title>Lakefront South&#45;&gt;Cave Entrance</title>
<path fill="none" stroke="#000000" d="M629.1819,-720.2022C638.1722,-709.0419 649.7139,-694.7143 658.6727,-683.593"/>
<text text-anchor="middle" x="655.6727" y="-687.393" font-family="Times,serif" font-size="14.00" fill="#000000">s</text>
</g>
<!-- Misty Room -->
<g id="node35" class="node">
<title>Misty Room</title>
<ellipse fill="none" stroke="#000000" cx="732.8449" cy="-594" rx="55.7903" ry="18"/>
<text text-anchor="middle" x="732.8449" y="-590.3" font-family="Times,serif" font-size="14.00" fill="#000000">Misty Room</text>
</g>
<!-- Cave Entrance&#45;&gt;Misty Room -->
<g id="edge34" class="edge">
<title>Cave Entrance&#45;&gt;Misty Room</title>
<path fill="none" stroke="#000000" d="M687.6763,-648.2022C696.9766,-637.0419 708.9163,-622.7143 718.184,-611.593"/>
</g>
<!-- chute -->
<g id="node34" class="node">
<title>chute</title>
<ellipse fill="none" stroke="#000000" cx="730.8449" cy="-738" rx="29.795" ry="18"/>
<text text-anchor="middle" x="730.8449" y="-734.3" font-family="Times,serif" font-size="14.00" fill="#000000">chute</text>
</g>
<!-- chute&#45;&gt;Cave Entrance -->
<g id="edge33" class="edge">
<title>chute&#45;&gt;Cave Entrance</title>
<path fill="none" stroke="#000000" d="M717.6838,-721.6621C708.5928,-710.3767 696.5062,-695.3727 687.1726,-683.7862"/>
</g>
<!-- Cave E/W passage -->
<g id="node37" class="node">
<title>Cave E/W passage</title>
<ellipse fill="none" stroke="#000000" cx="732.8449" cy="-522" rx="77.1866" ry="18"/>
<text text-anchor="middle" x="732.8449" y="-518.3" font-family="Times,serif" font-size="14.00" fill="#000000">Cave E/W passage</text>
</g>
<!-- Misty Room&#45;&gt;Cave E/W passage -->
<g id="edge36" class="edge">
<title>Misty Room&#45;&gt;Cave E/W passage</title>
<path fill="none" stroke="#000000" d="M732.8449,-575.8314C732.8449,-565 732.8449,-551.2876 732.8449,-540.4133"/>
</g>
<!-- gold bar -->
<g id="node36" class="node">
<title>gold bar</title>
<ellipse fill="none" stroke="#000000" cx="793.8449" cy="-666" rx="40.0939" ry="18"/>
<text text-anchor="middle" x="793.8449" y="-662.3" font-family="Times,serif" font-size="14.00" fill="#000000">gold bar</text>
</g>
<!-- gold bar&#45;&gt;Misty Room -->
<g id="edge35" class="edge">
<title>gold bar&#45;&gt;Misty Room</title>
<path fill="none" stroke="#000000" d="M779.3887,-648.937C769.8058,-637.626 757.2688,-622.8282 747.621,-611.4407"/>
</g>
<!-- N/S/W Junction -->
<g id="node38" class="node">
<title>N/S/W Junction</title>
<ellipse fill="none" stroke="#000000" cx="732.8449" cy="-450" rx="67.6881" ry="18"/>
<text text-anchor="middle" x="732.8449" y="-446.3" font-family="Times,serif" font-size="14.00" fill="#000000">N/S/W Junction</text>
</g>
<!-- Cave E/W passage&#45;&gt;N/S/W Junction -->
<g id="edge37" class="edge">
<title>Cave E/W passage&#45;&gt;N/S/W Junction</title>
<path fill="none" stroke="#000000" d="M732.8449,-503.8314C732.8449,-493 732.8449,-479.2876 732.8449,-468.4133"/>
</g>
<!-- North end of cave passage -->
<g id="node39" class="node">
<title>North end of cave passage</title>
<ellipse fill="none" stroke="#000000" cx="732.8449" cy="-378" rx="104.7816" ry="18"/>
<text text-anchor="middle" x="732.8449" y="-374.3" font-family="Times,serif" font-size="14.00" fill="#000000">North end of cave passage</text>
</g>
<!-- N/S/W Junction&#45;&gt;North end of cave passage -->
<g id="edge38" class="edge">
<title>N/S/W Junction&#45;&gt;North end of cave passage</title>
<path fill="none" stroke="#000000" d="M732.8449,-431.8314C732.8449,-421 732.8449,-407.2876 732.8449,-396.4133"/>
</g>
<!-- Bedroom -->
<g id="node40" class="node">
<title>Bedroom</title>
<ellipse fill="none" stroke="#000000" cx="813.8449" cy="-306" rx="44.393" ry="18"/>
<text text-anchor="middle" x="813.8449" y="-302.3" font-family="Times,serif" font-size="14.00" fill="#000000">Bedroom</text>
</g>
<!-- North end of cave passage&#45;&gt;Bedroom -->
<g id="edge39" class="edge">
<title>North end of cave passage&#45;&gt;Bedroom</title>
<path fill="none" stroke="#000000" d="M752.8673,-360.2022C765.7975,-348.7088 782.5067,-333.8561 795.1633,-322.6058"/>
</g>
<!-- NE end of NE/SW cave passage -->
<g id="node42" class="node">
<title>NE end of NE/SW cave passage</title>
<ellipse fill="none" stroke="#000000" cx="813.8449" cy="-234" rx="126.1777" ry="18"/>
<text text-anchor="middle" x="813.8449" y="-230.3" font-family="Times,serif" font-size="14.00" fill="#000000">NE end of NE/SW cave passage</text>
</g>
<!-- Bedroom&#45;&gt;NE end of NE/SW cave passage -->
<g id="edge41" class="edge">
<title>Bedroom&#45;&gt;NE end of NE/SW cave passage</title>
<path fill="none" stroke="#000000" d="M813.8449,-287.8314C813.8449,-277 813.8449,-263.2876 813.8449,-252.4133"/>
</g>
<!-- painting -->
<g id="node41" class="node">
<title>painting</title>
<ellipse fill="none" stroke="#000000" cx="894.8449" cy="-378" rx="39.7935" ry="18"/>
<text text-anchor="middle" x="894.8449" y="-374.3" font-family="Times,serif" font-size="14.00" fill="#000000">painting</text>
</g>
<!-- painting&#45;&gt;Bedroom -->
<g id="edge40" class="edge">
<title>painting&#45;&gt;Bedroom</title>
<path fill="none" stroke="#000000" d="M876.4647,-361.6621C863.3019,-349.9618 845.6424,-334.2645 832.4327,-322.5225"/>
</g>
<!-- NE/SW&#45;E/W junction -->
<g id="node43" class="node">
<title>NE/SW&#45;E/W junction</title>
<ellipse fill="none" stroke="#000000" cx="813.8449" cy="-162" rx="89.0842" ry="18"/>
<text text-anchor="middle" x="813.8449" y="-158.3" font-family="Times,serif" font-size="14.00" fill="#000000">NE/SW&#45;E/W junction</text>
</g>
<!-- NE end of NE/SW cave passage&#45;&gt;NE/SW&#45;E/W junction -->
<g id="edge42" class="edge">
<title>NE end of NE/SW cave passage&#45;&gt;NE/SW&#45;E/W junction</title>
<path fill="none" stroke="#000000" d="M813.8449,-215.8314C813.8449,-205 813.8449,-191.2876 813.8449,-180.4133"/>
</g>
<!-- East end of E/W cave passage -->
<g id="node44" class="node">
<title>East end of E/W cave passage</title>
<ellipse fill="none" stroke="#000000" cx="684.8449" cy="-90" rx="118.0794" ry="18"/>
<text text-anchor="middle" x="684.8449" y="-86.3" font-family="Times,serif" font-size="14.00" fill="#000000">East end of E/W cave passage</text>
</g>
<!-- NE/SW&#45;E/W junction&#45;&gt;East end of E/W cave passage -->
<g id="edge43" class="edge">
<title>NE/SW&#45;E/W junction&#45;&gt;East end of E/W cave passage</title>
<path fill="none" stroke="#000000" d="M783.2737,-144.937C763.008,-133.626 736.4954,-118.8282 716.0927,-107.4407"/>
</g>
<!-- West end of E/W cave passage -->
<g id="node46" class="node">
<title>West end of E/W cave passage</title>
<ellipse fill="none" stroke="#000000" cx="942.8449" cy="-90" rx="121.5784" ry="18"/>
<text text-anchor="middle" x="942.8449" y="-86.3" font-family="Times,serif" font-size="14.00" fill="#000000">West end of E/W cave passage</text>
</g>
<!-- NE/SW&#45;E/W junction&#45;&gt;West end of E/W cave passage -->
<g id="edge45" class="edge">
<title>NE/SW&#45;E/W junction&#45;&gt;West end of E/W cave passage</title>
<path fill="none" stroke="#000000" d="M844.4161,-144.937C864.6817,-133.626 891.1943,-118.8282 911.597,-107.4407"/>
</g>
<!-- Horseshoe boulder room -->
<g id="node45" class="node">
<title>Horseshoe boulder room</title>
<ellipse fill="none" stroke="#000000" cx="684.8449" cy="-18" rx="98.5829" ry="18"/>
<text text-anchor="middle" x="684.8449" y="-14.3" font-family="Times,serif" font-size="14.00" fill="#000000">Horseshoe boulder room</text>
</g>
<!-- East end of E/W cave passage&#45;&gt;Horseshoe boulder room -->
<g id="edge44" class="edge">
<title>East end of E/W cave passage&#45;&gt;Horseshoe boulder room</title>
<path fill="none" stroke="#000000" d="M684.8449,-71.8314C684.8449,-61 684.8449,-47.2876 684.8449,-36.4133"/>
</g>
<!-- Empty room -->
<g id="node47" class="node">
<title>Empty room</title>
<ellipse fill="none" stroke="#000000" cx="942.8449" cy="-18" rx="55.7903" ry="18"/>
<text text-anchor="middle" x="942.8449" y="-14.3" font-family="Times,serif" font-size="14.00" fill="#000000">Empty room</text>
</g>
<!-- West end of E/W cave passage&#45;&gt;Empty room -->
<g id="edge46" class="edge">
<title>West end of E/W cave passage&#45;&gt;Empty room</title>
<path fill="none" stroke="#000000" d="M942.8449,-71.8314C942.8449,-61 942.8449,-47.2876 942.8449,-36.4133"/>
</g>
</g>
</svg>
